M48
;Layer_Color=9474304
;FILE_FORMAT=2:4
INCH
;TYPE=PLATED
T1F00S00C0.0118
T2F00S00C0.0157
T3F00S00C0.0197
T4F00S00C0.0394
T5F00S00C0.0453
T6F00S00C0.0472
T8F00S00C0.0512
T9F00S00C0.0551
%
T01
X000984Y000394
X000591Y002165
X000659Y003425
X001220Y004360
X001575Y005728
X001102Y006850
Y007165
X000787
Y006850
X003228Y005827
X002943Y004587
X004636Y004646
X004724Y002362
X003150
Y000394
X004921
X006102Y001575
X007087Y000689
X008415Y001339
X008898Y000354
X010984Y000276
X011417
X011811
X011772Y001378
X011378Y001339
X010984
X011230Y002559
X011220Y003543
X012008Y005079
X013120Y004803
X013150Y004203
X014646Y005157
X015748Y004488
X015630Y002835
X015157Y001969
X014587Y000945
X013740Y000551
X013189Y001772
X016102Y000335
X017835Y000315
X019016
X019921Y000433
Y001339
X019892Y003002
X020620Y003789
X020610Y004705
X020541Y005295
X020236Y006516
X018622Y005896
X017402Y005433
X017707Y004459
X019173Y004488
X015512Y006457
X014252Y006575
X013543
X011929Y006614
X010906
X008858Y006496
X007677Y006496
X007648Y005030
X006693Y003740
X008937Y003976
X009429Y002756
X009813Y004813
X022411Y007018
X022746
X023159Y006929
X023110Y006526
X024016Y007008
X024862Y007047
X025906Y006535
X026476Y007087
X027677Y005906
X028937Y005512
X029409Y005906
X029803Y004882
X031496Y004803
X032362
X032677Y005630
X033150Y006024
X032205
X030709Y006575
X028701Y006811
X028740Y003346
X028051Y002067
X027165Y002657
X026496Y002795
X024321
X024429Y003878
X025433Y003927
X024409Y001457
Y000709
X026132Y000482
X022313Y000640
X022717Y002441
X031181Y003307
X032992Y002835
X033465Y004331
X034370Y004685
X035236Y004134
X036388Y004409
X036220Y001772
X035591Y001811
X036220Y000945
X034685Y003150
X037598Y004528
X037717Y005236
X037992
X037402
Y005551
X036850Y005866
X036811Y006339
X038632Y005246
X038386Y004803
X039412Y005278
X040202Y005280
X040305Y004774
X040709Y004764
X040039Y004606
Y004262
X040315Y003228
X040669
Y002835
X040315
Y002441
X040669
X040945Y001319
Y000925
X040935Y000492
X041339Y000433
X041732
X042854Y000236
X043091Y000738
X043110Y001102
X043071Y001457
X043406Y002264
Y002559
X043799
Y002264
X044193
Y002559
X044370Y003425
X043780Y003543
X043189Y003465
X042807Y005246
X042470Y005285
X043937Y004921
X044291
X044724Y004567
X047047Y003701
X047402
Y003307
X047047
Y002913
X047402
X047874Y001850
X048268
Y001535
Y001220
X046654Y001850
X046260
X044646Y001437
Y001102
X044685Y000787
Y000433
X045079
Y000787
X044173Y000157
X040236Y000630
X038720Y002313
X047717Y004843
X047638Y005217
X048032
X048661Y004843
Y004449
Y004055
X049094Y004882
X049528
X047480Y009016
X042559Y012874
X041850
X041417
X040984
X040591
X040197
X039409
X038622
X038031Y012835
X037677
X037402Y012677
X036969Y011496
X036575
X034724Y011654
X033937Y011535
X034213Y011220
X033937Y010827
X033583Y011181
X035000Y010945
X035472Y009331
X036024Y009016
X033071Y008268
X032480Y008858
X031890
X030591Y008701
X030079
X028622Y009016
X028110Y008622
X027677Y009016
X027431Y007510
X025276Y007520
Y007874
X024882
Y007520
X022992Y007283
X023031Y008110
X021496Y007953
X021555Y008346
X021654Y008898
Y010276
Y011496
X022539Y011811
X022343Y010827
X024409
X024902
X025295
X024409Y011909
X020787Y010787
X020394
X020571Y009646
Y008858
X019783
X020177Y009252
X019783Y009646
X018760Y008760
X018775Y008376
X019921Y007795
X020276Y007756
X020866Y007913
X020551Y007205
X019685Y011673
X017126Y010748
X016693
X016417Y010512
Y010157
X014528Y009882
X014262Y009203
X014065Y008602
X008986Y009203
X008543Y008346
X007520Y008622
X007047
X006496Y009646
X009449Y011496
X010827
X004528Y010591
X004429Y008760
X004035Y009055
X003622Y008937
Y008543
X003465Y007677
X003858
X004213
X004606
X001378Y008031
Y008386
Y008740
X000984Y008543
X000827Y012677
T02
X019911Y006969
X025945Y009055
Y009685
X026772Y012008
X018189Y011142
Y010709
X017726Y010718
X017707Y011152
Y008543
Y007874
X019892Y007362
X003346Y011693
X002598Y012205
T03
X004528Y007126
T04
X006988Y007520
X007972
X008957
X009941
X010925
X011909
X012894
X013878
Y010472
X012894
X011909
X010925
X009941
X008957
X007972
X006988
T05
X025378Y001181
X026378
X027378
X029035Y001083
X030035
X031035
Y002083
X030035
X029035
X032677
Y001083
X033677
X034677
Y002083
X033677
X049213Y003248
Y004248
Y006346
Y007346
Y008346
T06
X028150Y007520
X030118
X032087
Y011457
X030118
X028150
T08
X004528Y005827
X016339
T09
X002256Y001280
X003909
Y003445
X002256
X016957
X018610
Y001280
X016957
X021551
X023205
Y003445
X021551
X037035
X038689
Y001280
X037035
M30
