G04 Layer_Color=128*
%FSLAX24Y24*%
%MOIN*%
G70*
G01*
G75*
%ADD11R,0.0354X0.0394*%
%ADD12R,0.0394X0.0354*%
%ADD13R,0.0394X0.0394*%
%ADD14R,0.0394X0.0394*%
%ADD20R,0.0472X0.0630*%
%ADD24R,0.0335X0.0315*%
%ADD25R,0.0315X0.0335*%
%ADD26R,0.0276X0.0157*%
%ADD27R,0.0283X0.0701*%
%ADD51R,0.0512X0.0709*%
%ADD52R,0.0591X0.0512*%
%ADD53R,0.0472X0.0709*%
%ADD54R,0.0630X0.0138*%
%ADD55R,0.0709X0.1339*%
%ADD56R,0.1299X0.0669*%
%ADD57R,0.0098X0.0276*%
%ADD58R,0.0709X0.0512*%
D11*
X45807Y4862D02*
D03*
X45138D02*
D03*
X42579Y4409D02*
D03*
X41909D02*
D03*
X2146Y12205D02*
D03*
X1476D02*
D03*
X38720Y4803D02*
D03*
X39390D02*
D03*
X37303Y6024D02*
D03*
X37972D02*
D03*
X41437Y5669D02*
D03*
X40768D02*
D03*
X23780Y11240D02*
D03*
X24449D02*
D03*
X22500D02*
D03*
X23169D02*
D03*
X24902Y10315D02*
D03*
X25571D02*
D03*
X24902Y9685D02*
D03*
X25571D02*
D03*
X25571Y8465D02*
D03*
X24902D02*
D03*
X42618Y7323D02*
D03*
X41949D02*
D03*
X40650D02*
D03*
X41319D02*
D03*
X41949Y7874D02*
D03*
X42618D02*
D03*
X41319D02*
D03*
X40650D02*
D03*
X11909Y11496D02*
D03*
X11240D02*
D03*
X8996Y12165D02*
D03*
X8327D02*
D03*
X36122Y10551D02*
D03*
X35453D02*
D03*
X33957Y2835D02*
D03*
X33287D02*
D03*
D12*
X32677Y6083D02*
D03*
Y6752D02*
D03*
X44173Y492D02*
D03*
Y1161D02*
D03*
X44370Y4547D02*
D03*
Y3878D02*
D03*
X43189Y4547D02*
D03*
Y3878D02*
D03*
X5157Y9508D02*
D03*
Y10177D02*
D03*
X3740Y10276D02*
D03*
Y9606D02*
D03*
X1673Y9606D02*
D03*
Y10276D02*
D03*
X827Y12185D02*
D03*
Y11516D02*
D03*
X41732Y12146D02*
D03*
Y11476D02*
D03*
X39409Y5886D02*
D03*
Y6555D02*
D03*
X38622Y5886D02*
D03*
Y6555D02*
D03*
X40236Y5886D02*
D03*
Y6555D02*
D03*
X41024Y12146D02*
D03*
Y11476D02*
D03*
X5394Y3406D02*
D03*
Y4075D02*
D03*
X28150Y9075D02*
D03*
Y9744D02*
D03*
X20079Y3445D02*
D03*
Y4114D02*
D03*
X43543Y1161D02*
D03*
Y492D02*
D03*
X21260Y9862D02*
D03*
Y9193D02*
D03*
X20906Y11240D02*
D03*
Y11909D02*
D03*
X20197Y11909D02*
D03*
Y11240D02*
D03*
X35512Y846D02*
D03*
Y1516D02*
D03*
D13*
X45787Y4272D02*
D03*
X45157D02*
D03*
X41929Y3780D02*
D03*
X42559D02*
D03*
X25551Y9055D02*
D03*
X24921D02*
D03*
X8346Y11496D02*
D03*
X8976D02*
D03*
X19055Y10118D02*
D03*
X18425D02*
D03*
X18701Y7165D02*
D03*
X19331D02*
D03*
D14*
X4528Y9528D02*
D03*
Y10157D02*
D03*
X40394Y12126D02*
D03*
Y11496D02*
D03*
X43780Y3898D02*
D03*
Y4528D02*
D03*
X984Y9567D02*
D03*
Y8937D02*
D03*
X47234Y4803D02*
D03*
Y4173D02*
D03*
X40453Y3661D02*
D03*
Y4291D02*
D03*
X37638Y12283D02*
D03*
Y11654D02*
D03*
X4035Y8051D02*
D03*
Y8681D02*
D03*
X21850Y9252D02*
D03*
Y9882D02*
D03*
D20*
X12498Y827D02*
D03*
X11754D02*
D03*
X10302Y824D02*
D03*
X11047D02*
D03*
X36947Y12323D02*
D03*
X36202D02*
D03*
D24*
X2884Y5827D02*
D03*
X1998D02*
D03*
D25*
X2362Y9498D02*
D03*
Y10384D02*
D03*
X5000Y6762D02*
D03*
Y7648D02*
D03*
X3071Y10404D02*
D03*
Y9518D02*
D03*
D26*
X1929Y11161D02*
D03*
X1417Y11361D02*
D03*
Y10961D02*
D03*
D27*
X2211Y8697D02*
D03*
X1711D02*
D03*
X3211D02*
D03*
X2711D02*
D03*
X1711Y6854D02*
D03*
X3211D02*
D03*
X2711D02*
D03*
X2211D02*
D03*
D51*
X41516Y984D02*
D03*
X42657D02*
D03*
X45059Y1299D02*
D03*
X46201D02*
D03*
D52*
X46565Y4173D02*
D03*
Y4843D02*
D03*
X41181Y3799D02*
D03*
Y4469D02*
D03*
D53*
X19222Y9429D02*
D03*
Y7854D02*
D03*
X18278D02*
D03*
Y9429D02*
D03*
D54*
X22756Y9774D02*
D03*
Y10030D02*
D03*
Y10285D02*
D03*
Y10541D02*
D03*
X24094D02*
D03*
Y10285D02*
D03*
Y10030D02*
D03*
Y9774D02*
D03*
Y9163D02*
D03*
Y8907D02*
D03*
Y8652D02*
D03*
Y8396D02*
D03*
X22756D02*
D03*
Y8652D02*
D03*
Y8907D02*
D03*
Y9163D02*
D03*
D55*
X45079Y2992D02*
D03*
X46260D02*
D03*
X41299Y2362D02*
D03*
X42480D02*
D03*
D56*
X43780Y2421D02*
D03*
D57*
X44370Y2992D02*
D03*
X44173D02*
D03*
X43976D02*
D03*
X43780D02*
D03*
X43583D02*
D03*
X43386D02*
D03*
X43189D02*
D03*
Y1850D02*
D03*
X43386D02*
D03*
X43583D02*
D03*
X43780D02*
D03*
X43976D02*
D03*
X44173D02*
D03*
X44370D02*
D03*
D58*
X38386Y11201D02*
D03*
Y12343D02*
D03*
M02*
