G04 Layer_Physical_Order=2*
G04 Layer_Color=36540*
%FSLAX24Y24*%
%MOIN*%
G70*
G01*
G75*
%ADD29C,0.0098*%
%ADD38C,0.0748*%
%ADD44C,0.0236*%
%ADD49C,0.0315*%
G36*
X49996Y4D02*
X42967D01*
X42961Y24D01*
X43025Y66D01*
X43077Y144D01*
X43095Y236D01*
X43077Y328D01*
X43025Y407D01*
X42947Y459D01*
X42854Y477D01*
X42762Y459D01*
X42684Y407D01*
X42632Y328D01*
X42613Y236D01*
X42632Y144D01*
X42684Y66D01*
X42747Y24D01*
X42741Y4D01*
X201D01*
Y12988D01*
X37475D01*
X37484Y12971D01*
X37455Y12927D01*
X37451Y12908D01*
X37402Y12918D01*
X37309Y12900D01*
X37231Y12847D01*
X37179Y12769D01*
X37161Y12677D01*
X37179Y12585D01*
X37231Y12507D01*
X37309Y12455D01*
X37402Y12436D01*
X37494Y12455D01*
X37572Y12507D01*
X37624Y12585D01*
X37628Y12604D01*
X37677Y12594D01*
X37769Y12612D01*
X37841Y12660D01*
X37854Y12663D01*
X37868Y12660D01*
X37939Y12612D01*
X38031Y12594D01*
X38124Y12612D01*
X38202Y12664D01*
X38254Y12742D01*
X38272Y12835D01*
X38254Y12927D01*
X38225Y12971D01*
X38234Y12988D01*
X38393D01*
X38403Y12971D01*
X38400Y12966D01*
X38381Y12874D01*
X38400Y12782D01*
X38452Y12704D01*
X38530Y12651D01*
X38622Y12633D01*
X38714Y12651D01*
X38792Y12704D01*
X38845Y12782D01*
X38863Y12874D01*
X38845Y12966D01*
X38841Y12971D01*
X38851Y12988D01*
X39181D01*
X39190Y12971D01*
X39187Y12966D01*
X39169Y12874D01*
X39187Y12782D01*
X39239Y12704D01*
X39317Y12651D01*
X39409Y12633D01*
X39502Y12651D01*
X39580Y12704D01*
X39632Y12782D01*
X39650Y12874D01*
X39632Y12966D01*
X39629Y12971D01*
X39638Y12988D01*
X39968D01*
X39977Y12971D01*
X39974Y12966D01*
X39956Y12874D01*
X39974Y12782D01*
X40027Y12704D01*
X40105Y12651D01*
X40197Y12633D01*
X40289Y12651D01*
X40367Y12704D01*
X40419Y12782D01*
X40438Y12874D01*
X40419Y12966D01*
X40416Y12971D01*
X40425Y12988D01*
X40756D01*
X40765Y12971D01*
X40762Y12966D01*
X40743Y12874D01*
X40762Y12782D01*
X40814Y12704D01*
X40892Y12651D01*
X40984Y12633D01*
X41076Y12651D01*
X41155Y12704D01*
X41191Y12758D01*
X41211D01*
X41247Y12704D01*
X41325Y12651D01*
X41417Y12633D01*
X41509Y12651D01*
X41588Y12704D01*
X41624Y12758D01*
X41644D01*
X41680Y12704D01*
X41758Y12651D01*
X41850Y12633D01*
X41943Y12651D01*
X42021Y12704D01*
X42073Y12782D01*
X42091Y12874D01*
X42073Y12966D01*
X42070Y12971D01*
X42079Y12988D01*
X42330D01*
X42340Y12971D01*
X42337Y12966D01*
X42318Y12874D01*
X42337Y12782D01*
X42389Y12704D01*
X42467Y12651D01*
X42559Y12633D01*
X42651Y12651D01*
X42729Y12704D01*
X42782Y12782D01*
X42800Y12874D01*
X42782Y12966D01*
X42778Y12971D01*
X42788Y12988D01*
X49996D01*
Y4D01*
D02*
G37*
%LPC*%
G36*
X38787Y4058D02*
X38591D01*
X38471Y4046D01*
X38356Y4011D01*
X38250Y3955D01*
X38157Y3878D01*
X38081Y3786D01*
X38024Y3680D01*
X37989Y3565D01*
X37977Y3445D01*
X37989Y3325D01*
X38024Y3210D01*
X38081Y3104D01*
X38157Y3011D01*
X38250Y2935D01*
X38356Y2878D01*
X38471Y2843D01*
X38591Y2832D01*
X38787D01*
X38907Y2843D01*
X39022Y2878D01*
X39128Y2935D01*
X39221Y3011D01*
X39297Y3104D01*
X39354Y3210D01*
X39389Y3325D01*
X39401Y3445D01*
X39389Y3565D01*
X39354Y3680D01*
X39297Y3786D01*
X39221Y3878D01*
X39128Y3955D01*
X39022Y4011D01*
X38907Y4046D01*
X38787Y4058D01*
D02*
G37*
G36*
X2807Y4057D02*
X1705D01*
X1659Y4048D01*
X1620Y4022D01*
X1593Y3983D01*
X1584Y3937D01*
Y2953D01*
X1593Y2907D01*
X1620Y2868D01*
X1659Y2842D01*
X1705Y2832D01*
X2807D01*
X2853Y2842D01*
X2892Y2868D01*
X2918Y2907D01*
X2928Y2953D01*
Y3937D01*
X2918Y3983D01*
X2892Y4022D01*
X2853Y4048D01*
X2807Y4057D01*
D02*
G37*
G36*
X17508D02*
X16406D01*
X16359Y4048D01*
X16320Y4022D01*
X16294Y3983D01*
X16285Y3937D01*
Y2953D01*
X16294Y2907D01*
X16320Y2868D01*
X16359Y2842D01*
X16406Y2832D01*
X17508D01*
X17554Y2842D01*
X17593Y2868D01*
X17619Y2907D01*
X17628Y2953D01*
Y3937D01*
X17619Y3983D01*
X17593Y4022D01*
X17554Y4048D01*
X17508Y4057D01*
D02*
G37*
G36*
X4008Y4058D02*
X3811D01*
X3691Y4046D01*
X3576Y4011D01*
X3470Y3955D01*
X3377Y3878D01*
X3301Y3786D01*
X3245Y3680D01*
X3210Y3565D01*
X3198Y3445D01*
X3210Y3325D01*
X3245Y3210D01*
X3301Y3104D01*
X3377Y3011D01*
X3470Y2935D01*
X3576Y2878D01*
X3691Y2843D01*
X3811Y2832D01*
X4008D01*
X4128Y2843D01*
X4243Y2878D01*
X4349Y2935D01*
X4441Y3011D01*
X4518Y3104D01*
X4574Y3210D01*
X4609Y3325D01*
X4621Y3445D01*
X4609Y3565D01*
X4574Y3680D01*
X4518Y3786D01*
X4441Y3878D01*
X4349Y3955D01*
X4243Y4011D01*
X4128Y4046D01*
X4008Y4058D01*
D02*
G37*
G36*
X18709D02*
X18512D01*
X18392Y4046D01*
X18277Y4011D01*
X18171Y3955D01*
X18078Y3878D01*
X18002Y3786D01*
X17945Y3680D01*
X17910Y3565D01*
X17899Y3445D01*
X17910Y3325D01*
X17945Y3210D01*
X18002Y3104D01*
X18078Y3011D01*
X18171Y2935D01*
X18277Y2878D01*
X18392Y2843D01*
X18512Y2832D01*
X18709D01*
X18828Y2843D01*
X18943Y2878D01*
X19049Y2935D01*
X19142Y3011D01*
X19219Y3104D01*
X19275Y3210D01*
X19310Y3325D01*
X19322Y3445D01*
X19310Y3565D01*
X19275Y3680D01*
X19219Y3786D01*
X19142Y3878D01*
X19049Y3955D01*
X18943Y4011D01*
X18828Y4046D01*
X18709Y4058D01*
D02*
G37*
G36*
X23303D02*
X23106D01*
X22987Y4046D01*
X22872Y4011D01*
X22766Y3955D01*
X22673Y3878D01*
X22596Y3786D01*
X22540Y3680D01*
X22505Y3565D01*
X22493Y3445D01*
X22505Y3325D01*
X22540Y3210D01*
X22596Y3104D01*
X22673Y3011D01*
X22766Y2935D01*
X22872Y2878D01*
X22987Y2843D01*
X23106Y2832D01*
X23303D01*
X23423Y2843D01*
X23538Y2878D01*
X23644Y2935D01*
X23737Y3011D01*
X23813Y3104D01*
X23870Y3210D01*
X23905Y3325D01*
X23916Y3445D01*
X23905Y3565D01*
X23870Y3680D01*
X23813Y3786D01*
X23737Y3878D01*
X23644Y3955D01*
X23538Y4011D01*
X23423Y4046D01*
X23303Y4058D01*
D02*
G37*
G36*
X37587Y4057D02*
X36484D01*
X36438Y4048D01*
X36399Y4022D01*
X36373Y3983D01*
X36364Y3937D01*
Y2953D01*
X36373Y2907D01*
X36399Y2868D01*
X36438Y2842D01*
X36484Y2832D01*
X37587D01*
X37633Y2842D01*
X37672Y2868D01*
X37698Y2907D01*
X37707Y2953D01*
Y3937D01*
X37698Y3983D01*
X37672Y4022D01*
X37633Y4048D01*
X37587Y4057D01*
D02*
G37*
G36*
X659Y3666D02*
X567Y3648D01*
X489Y3595D01*
X437Y3517D01*
X419Y3425D01*
X437Y3333D01*
X489Y3255D01*
X567Y3203D01*
X659Y3184D01*
X752Y3203D01*
X830Y3255D01*
X882Y3333D01*
X900Y3425D01*
X882Y3517D01*
X830Y3595D01*
X752Y3648D01*
X659Y3666D01*
D02*
G37*
G36*
X44370D02*
X44278Y3648D01*
X44200Y3595D01*
X44148Y3517D01*
X44129Y3425D01*
X44148Y3333D01*
X44200Y3255D01*
X44278Y3203D01*
X44370Y3184D01*
X44462Y3203D01*
X44540Y3255D01*
X44593Y3333D01*
X44611Y3425D01*
X44593Y3517D01*
X44540Y3595D01*
X44462Y3648D01*
X44370Y3666D01*
D02*
G37*
G36*
X43189Y3705D02*
X43097Y3687D01*
X43019Y3635D01*
X42966Y3557D01*
X42948Y3465D01*
X42966Y3372D01*
X43019Y3294D01*
X43097Y3242D01*
X43189Y3224D01*
X43281Y3242D01*
X43359Y3294D01*
X43411Y3372D01*
X43430Y3465D01*
X43411Y3557D01*
X43359Y3635D01*
X43281Y3687D01*
X43189Y3705D01*
D02*
G37*
G36*
X34685Y3390D02*
X34593Y3372D01*
X34515Y3320D01*
X34463Y3242D01*
X34444Y3150D01*
X34463Y3057D01*
X34515Y2979D01*
X34593Y2927D01*
X34685Y2909D01*
X34777Y2927D01*
X34855Y2979D01*
X34908Y3057D01*
X34926Y3150D01*
X34908Y3242D01*
X34855Y3320D01*
X34777Y3372D01*
X34685Y3390D01*
D02*
G37*
G36*
X31181Y3548D02*
X31089Y3530D01*
X31011Y3477D01*
X30959Y3399D01*
X30940Y3307D01*
X30959Y3215D01*
X31011Y3137D01*
X31089Y3085D01*
X31181Y3066D01*
X31273Y3085D01*
X31351Y3137D01*
X31404Y3215D01*
X31422Y3307D01*
X31404Y3399D01*
X31351Y3477D01*
X31273Y3530D01*
X31181Y3548D01*
D02*
G37*
G36*
X28740Y3587D02*
X28648Y3569D01*
X28570Y3517D01*
X28518Y3439D01*
X28499Y3346D01*
X28518Y3254D01*
X28570Y3176D01*
X28648Y3124D01*
X28740Y3106D01*
X28832Y3124D01*
X28910Y3176D01*
X28963Y3254D01*
X28981Y3346D01*
X28963Y3439D01*
X28910Y3517D01*
X28832Y3569D01*
X28740Y3587D01*
D02*
G37*
G36*
X31114Y2529D02*
Y2161D01*
X31482D01*
X31477Y2201D01*
X31431Y2311D01*
X31358Y2406D01*
X31264Y2478D01*
X31154Y2524D01*
X31114Y2529D01*
D02*
G37*
G36*
X22717Y2682D02*
X22624Y2663D01*
X22546Y2611D01*
X22494Y2533D01*
X22476Y2441D01*
X22494Y2349D01*
X22546Y2271D01*
X22624Y2218D01*
X22717Y2200D01*
X22809Y2218D01*
X22887Y2271D01*
X22939Y2349D01*
X22957Y2441D01*
X22939Y2533D01*
X22887Y2611D01*
X22809Y2663D01*
X22717Y2682D01*
D02*
G37*
G36*
X11230Y2800D02*
X11138Y2782D01*
X11060Y2729D01*
X11008Y2651D01*
X10989Y2559D01*
X11008Y2467D01*
X11060Y2389D01*
X11138Y2337D01*
X11230Y2318D01*
X11322Y2337D01*
X11401Y2389D01*
X11453Y2467D01*
X11471Y2559D01*
X11453Y2651D01*
X11401Y2729D01*
X11322Y2782D01*
X11230Y2800D01*
D02*
G37*
G36*
X30035Y2579D02*
X29907Y2562D01*
X29787Y2513D01*
X29684Y2434D01*
X29606Y2331D01*
X29556Y2211D01*
X29545Y2131D01*
X29525D01*
X29515Y2211D01*
X29465Y2331D01*
X29386Y2434D01*
X29284Y2513D01*
X29164Y2562D01*
X29035Y2579D01*
X28907Y2562D01*
X28787Y2513D01*
X28684Y2434D01*
X28606Y2331D01*
X28556Y2211D01*
X28539Y2083D01*
X28556Y1954D01*
X28606Y1834D01*
X28684Y1732D01*
X28787Y1653D01*
X28907Y1603D01*
X28956Y1597D01*
X28954Y1577D01*
X28661D01*
X28615Y1568D01*
X28576Y1542D01*
X28550Y1503D01*
X28541Y1457D01*
Y709D01*
X28550Y663D01*
X28576Y624D01*
X28615Y597D01*
X28661Y588D01*
X29409D01*
X29456Y597D01*
X29495Y624D01*
X29521Y663D01*
X29530Y709D01*
Y1002D01*
X29550Y1003D01*
X29556Y954D01*
X29606Y834D01*
X29684Y732D01*
X29787Y653D01*
X29907Y603D01*
X30035Y586D01*
X30164Y603D01*
X30284Y653D01*
X30386Y732D01*
X30465Y834D01*
X30515Y954D01*
X30526Y1035D01*
X30545D01*
X30556Y954D01*
X30606Y834D01*
X30684Y732D01*
X30787Y653D01*
X30907Y603D01*
X31035Y586D01*
X31164Y603D01*
X31284Y653D01*
X31386Y732D01*
X31465Y834D01*
X31515Y954D01*
X31532Y1083D01*
X31515Y1211D01*
X31465Y1331D01*
X31386Y1434D01*
X31284Y1513D01*
X31164Y1562D01*
X31035Y1579D01*
X30907Y1562D01*
X30787Y1513D01*
X30684Y1434D01*
X30606Y1331D01*
X30556Y1211D01*
X30545Y1131D01*
X30526D01*
X30515Y1211D01*
X30465Y1331D01*
X30386Y1434D01*
X30284Y1513D01*
X30164Y1562D01*
X30083Y1573D01*
Y1593D01*
X30164Y1603D01*
X30284Y1653D01*
X30386Y1732D01*
X30465Y1834D01*
X30515Y1954D01*
X30532Y2083D01*
X30515Y2211D01*
X30465Y2331D01*
X30386Y2434D01*
X30284Y2513D01*
X30164Y2562D01*
X30035Y2579D01*
D02*
G37*
G36*
X34677D02*
X34549Y2562D01*
X34429Y2513D01*
X34326Y2434D01*
X34247Y2331D01*
X34198Y2211D01*
X34187Y2131D01*
X34167D01*
X34157Y2211D01*
X34107Y2331D01*
X34028Y2434D01*
X33925Y2513D01*
X33806Y2562D01*
X33677Y2579D01*
X33549Y2562D01*
X33429Y2513D01*
X33326Y2434D01*
X33247Y2331D01*
X33198Y2211D01*
X33187Y2131D01*
X33167D01*
X33157Y2211D01*
X33107Y2331D01*
X33028Y2434D01*
X32925Y2513D01*
X32806Y2562D01*
X32677Y2579D01*
X32549Y2562D01*
X32429Y2513D01*
X32326Y2434D01*
X32247Y2331D01*
X32198Y2211D01*
X32181Y2083D01*
X32198Y1954D01*
X32247Y1834D01*
X32326Y1732D01*
X32429Y1653D01*
X32549Y1603D01*
X32597Y1597D01*
X32596Y1577D01*
X32303D01*
X32257Y1568D01*
X32218Y1542D01*
X32192Y1503D01*
X32183Y1457D01*
Y709D01*
X32192Y663D01*
X32218Y624D01*
X32257Y597D01*
X32303Y588D01*
X33051D01*
X33097Y597D01*
X33136Y624D01*
X33162Y663D01*
X33172Y709D01*
Y1457D01*
X33162Y1503D01*
X33136Y1542D01*
X33097Y1568D01*
X33051Y1577D01*
X32758D01*
X32757Y1597D01*
X32806Y1603D01*
X32925Y1653D01*
X33028Y1732D01*
X33107Y1834D01*
X33157Y1954D01*
X33167Y2035D01*
X33187D01*
X33198Y1954D01*
X33247Y1834D01*
X33326Y1732D01*
X33429Y1653D01*
X33549Y1603D01*
X33677Y1586D01*
X33806Y1603D01*
X33925Y1653D01*
X34028Y1732D01*
X34107Y1834D01*
X34157Y1954D01*
X34167Y2035D01*
X34187D01*
X34198Y1954D01*
X34247Y1834D01*
X34326Y1732D01*
X34429Y1653D01*
X34549Y1603D01*
X34629Y1593D01*
Y1573D01*
X34549Y1562D01*
X34429Y1513D01*
X34326Y1434D01*
X34247Y1331D01*
X34198Y1211D01*
X34181Y1083D01*
X34198Y954D01*
X34247Y834D01*
X34326Y732D01*
X34429Y653D01*
X34549Y603D01*
X34677Y586D01*
X34806Y603D01*
X34925Y653D01*
X35028Y732D01*
X35107Y834D01*
X35157Y954D01*
X35174Y1083D01*
X35157Y1211D01*
X35107Y1331D01*
X35028Y1434D01*
X34925Y1513D01*
X34806Y1562D01*
X34725Y1573D01*
Y1593D01*
X34806Y1603D01*
X34925Y1653D01*
X35028Y1732D01*
X35107Y1834D01*
X35157Y1954D01*
X35174Y2083D01*
X35157Y2211D01*
X35107Y2331D01*
X35028Y2434D01*
X34925Y2513D01*
X34806Y2562D01*
X34677Y2579D01*
D02*
G37*
G36*
X30957Y2529D02*
X30917Y2524D01*
X30807Y2478D01*
X30713Y2406D01*
X30640Y2311D01*
X30594Y2201D01*
X30589Y2161D01*
X30957D01*
Y2529D01*
D02*
G37*
G36*
X27165Y2898D02*
X27073Y2880D01*
X26995Y2828D01*
X26943Y2750D01*
X26925Y2657D01*
X26943Y2565D01*
X26995Y2487D01*
X27073Y2435D01*
X27165Y2417D01*
X27258Y2435D01*
X27336Y2487D01*
X27388Y2565D01*
X27406Y2657D01*
X27388Y2750D01*
X27336Y2828D01*
X27258Y2880D01*
X27165Y2898D01*
D02*
G37*
G36*
X15630Y3075D02*
X15538Y3057D01*
X15460Y3005D01*
X15407Y2927D01*
X15389Y2835D01*
X15407Y2742D01*
X15460Y2664D01*
X15538Y2612D01*
X15630Y2594D01*
X15722Y2612D01*
X15800Y2664D01*
X15852Y2742D01*
X15871Y2835D01*
X15852Y2927D01*
X15800Y3005D01*
X15722Y3057D01*
X15630Y3075D01*
D02*
G37*
G36*
X49587Y3742D02*
X48839D01*
X48793Y3733D01*
X48753Y3707D01*
X48727Y3668D01*
X48718Y3622D01*
Y2874D01*
X48727Y2828D01*
X48753Y2789D01*
X48793Y2763D01*
X48839Y2754D01*
X49587D01*
X49633Y2763D01*
X49672Y2789D01*
X49698Y2828D01*
X49707Y2874D01*
Y3622D01*
X49698Y3668D01*
X49672Y3707D01*
X49633Y3733D01*
X49587Y3742D01*
D02*
G37*
G36*
X19892Y3243D02*
X19800Y3224D01*
X19721Y3172D01*
X19669Y3094D01*
X19651Y3002D01*
X19669Y2910D01*
X19721Y2832D01*
X19800Y2779D01*
X19892Y2761D01*
X19984Y2779D01*
X20062Y2832D01*
X20114Y2910D01*
X20133Y3002D01*
X20114Y3094D01*
X20062Y3172D01*
X19984Y3224D01*
X19892Y3243D01*
D02*
G37*
G36*
X9429Y2997D02*
X9337Y2978D01*
X9259Y2926D01*
X9207Y2848D01*
X9188Y2756D01*
X9207Y2664D01*
X9259Y2586D01*
X9337Y2533D01*
X9429Y2515D01*
X9521Y2533D01*
X9599Y2586D01*
X9652Y2664D01*
X9670Y2756D01*
X9652Y2848D01*
X9599Y2926D01*
X9521Y2978D01*
X9429Y2997D01*
D02*
G37*
G36*
X24321Y3036D02*
X24229Y3018D01*
X24151Y2966D01*
X24098Y2887D01*
X24080Y2795D01*
X24098Y2703D01*
X24151Y2625D01*
X24229Y2573D01*
X24321Y2554D01*
X24413Y2573D01*
X24491Y2625D01*
X24543Y2703D01*
X24562Y2795D01*
X24543Y2887D01*
X24491Y2966D01*
X24413Y3018D01*
X24321Y3036D01*
D02*
G37*
G36*
X26496D02*
X26404Y3018D01*
X26326Y2966D01*
X26274Y2887D01*
X26255Y2795D01*
X26274Y2703D01*
X26326Y2625D01*
X26404Y2573D01*
X26496Y2554D01*
X26588Y2573D01*
X26666Y2625D01*
X26719Y2703D01*
X26737Y2795D01*
X26719Y2887D01*
X26666Y2966D01*
X26588Y3018D01*
X26496Y3036D01*
D02*
G37*
G36*
X17707Y4700D02*
X17615Y4681D01*
X17536Y4629D01*
X17484Y4551D01*
X17466Y4459D01*
X17484Y4366D01*
X17536Y4288D01*
X17615Y4236D01*
X17707Y4218D01*
X17799Y4236D01*
X17877Y4288D01*
X17929Y4366D01*
X17948Y4459D01*
X17929Y4551D01*
X17877Y4629D01*
X17799Y4681D01*
X17707Y4700D01*
D02*
G37*
G36*
X15748Y4729D02*
X15656Y4711D01*
X15578Y4658D01*
X15526Y4580D01*
X15507Y4488D01*
X15526Y4396D01*
X15578Y4318D01*
X15656Y4266D01*
X15748Y4247D01*
X15840Y4266D01*
X15918Y4318D01*
X15971Y4396D01*
X15989Y4488D01*
X15971Y4580D01*
X15918Y4658D01*
X15840Y4711D01*
X15748Y4729D01*
D02*
G37*
G36*
X19173D02*
X19081Y4711D01*
X19003Y4658D01*
X18951Y4580D01*
X18932Y4488D01*
X18951Y4396D01*
X19003Y4318D01*
X19081Y4266D01*
X19173Y4247D01*
X19265Y4266D01*
X19344Y4318D01*
X19396Y4396D01*
X19414Y4488D01*
X19396Y4580D01*
X19344Y4658D01*
X19265Y4711D01*
X19173Y4729D01*
D02*
G37*
G36*
X33465Y4572D02*
X33372Y4553D01*
X33294Y4501D01*
X33242Y4423D01*
X33224Y4331D01*
X33242Y4239D01*
X33294Y4160D01*
X33372Y4108D01*
X33465Y4090D01*
X33557Y4108D01*
X33635Y4160D01*
X33687Y4239D01*
X33705Y4331D01*
X33687Y4423D01*
X33635Y4501D01*
X33557Y4553D01*
X33465Y4572D01*
D02*
G37*
G36*
X1220Y4601D02*
X1128Y4583D01*
X1050Y4531D01*
X998Y4452D01*
X980Y4360D01*
X998Y4268D01*
X1050Y4190D01*
X1128Y4138D01*
X1220Y4119D01*
X1313Y4138D01*
X1391Y4190D01*
X1443Y4268D01*
X1461Y4360D01*
X1443Y4452D01*
X1391Y4531D01*
X1313Y4583D01*
X1220Y4601D01*
D02*
G37*
G36*
X36388Y4650D02*
X36296Y4632D01*
X36217Y4580D01*
X36165Y4502D01*
X36147Y4409D01*
X36165Y4317D01*
X36217Y4239D01*
X36296Y4187D01*
X36388Y4169D01*
X36480Y4187D01*
X36558Y4239D01*
X36610Y4317D01*
X36629Y4409D01*
X36610Y4502D01*
X36558Y4580D01*
X36480Y4632D01*
X36388Y4650D01*
D02*
G37*
G36*
X37598Y4768D02*
X37506Y4750D01*
X37428Y4698D01*
X37376Y4620D01*
X37358Y4528D01*
X37376Y4435D01*
X37428Y4357D01*
X37506Y4305D01*
X37598Y4287D01*
X37691Y4305D01*
X37769Y4357D01*
X37821Y4435D01*
X37839Y4528D01*
X37821Y4620D01*
X37769Y4698D01*
X37691Y4750D01*
X37598Y4768D01*
D02*
G37*
G36*
X4636Y4887D02*
X4544Y4868D01*
X4466Y4816D01*
X4413Y4738D01*
X4395Y4646D01*
X4413Y4554D01*
X4466Y4475D01*
X4544Y4423D01*
X4636Y4405D01*
X4728Y4423D01*
X4806Y4475D01*
X4858Y4554D01*
X4877Y4646D01*
X4858Y4738D01*
X4806Y4816D01*
X4728Y4868D01*
X4636Y4887D01*
D02*
G37*
G36*
X34370Y4926D02*
X34278Y4908D01*
X34200Y4855D01*
X34148Y4777D01*
X34129Y4685D01*
X34148Y4593D01*
X34200Y4515D01*
X34278Y4463D01*
X34370Y4444D01*
X34462Y4463D01*
X34540Y4515D01*
X34593Y4593D01*
X34611Y4685D01*
X34593Y4777D01*
X34540Y4855D01*
X34462Y4908D01*
X34370Y4926D01*
D02*
G37*
G36*
X20610Y4946D02*
X20518Y4927D01*
X20440Y4875D01*
X20388Y4797D01*
X20369Y4705D01*
X20388Y4613D01*
X20440Y4534D01*
X20518Y4482D01*
X20610Y4464D01*
X20702Y4482D01*
X20781Y4534D01*
X20833Y4613D01*
X20851Y4705D01*
X20833Y4797D01*
X20781Y4875D01*
X20702Y4927D01*
X20610Y4946D01*
D02*
G37*
G36*
X49134Y4694D02*
X49094Y4689D01*
X48984Y4644D01*
X48890Y4571D01*
X48817Y4476D01*
X48772Y4366D01*
X48766Y4327D01*
X49134D01*
Y4694D01*
D02*
G37*
G36*
X49291D02*
Y4327D01*
X49659D01*
X49654Y4366D01*
X49608Y4476D01*
X49536Y4571D01*
X49441Y4644D01*
X49331Y4689D01*
X49291Y4694D01*
D02*
G37*
G36*
X2943Y4827D02*
X2851Y4809D01*
X2773Y4757D01*
X2720Y4679D01*
X2702Y4587D01*
X2720Y4494D01*
X2773Y4416D01*
X2851Y4364D01*
X2943Y4346D01*
X3035Y4364D01*
X3113Y4416D01*
X3165Y4494D01*
X3184Y4587D01*
X3165Y4679D01*
X3113Y4757D01*
X3035Y4809D01*
X2943Y4827D01*
D02*
G37*
G36*
X6693Y3981D02*
X6601Y3963D01*
X6523Y3910D01*
X6470Y3832D01*
X6452Y3740D01*
X6470Y3648D01*
X6523Y3570D01*
X6601Y3518D01*
X6693Y3499D01*
X6785Y3518D01*
X6863Y3570D01*
X6915Y3648D01*
X6934Y3740D01*
X6915Y3832D01*
X6863Y3910D01*
X6785Y3963D01*
X6693Y3981D01*
D02*
G37*
G36*
X24429Y4119D02*
X24337Y4100D01*
X24259Y4048D01*
X24207Y3970D01*
X24188Y3878D01*
X24207Y3786D01*
X24259Y3708D01*
X24337Y3655D01*
X24429Y3637D01*
X24521Y3655D01*
X24599Y3708D01*
X24652Y3786D01*
X24670Y3878D01*
X24652Y3970D01*
X24599Y4048D01*
X24521Y4100D01*
X24429Y4119D01*
D02*
G37*
G36*
X25433Y4168D02*
X25341Y4150D01*
X25263Y4097D01*
X25211Y4019D01*
X25192Y3927D01*
X25211Y3835D01*
X25263Y3757D01*
X25341Y3705D01*
X25433Y3686D01*
X25525Y3705D01*
X25603Y3757D01*
X25656Y3835D01*
X25674Y3927D01*
X25656Y4019D01*
X25603Y4097D01*
X25525Y4150D01*
X25433Y4168D01*
D02*
G37*
G36*
X11220Y3784D02*
X11128Y3766D01*
X11050Y3714D01*
X10998Y3635D01*
X10980Y3543D01*
X10998Y3451D01*
X11050Y3373D01*
X11128Y3321D01*
X11220Y3302D01*
X11313Y3321D01*
X11391Y3373D01*
X11443Y3451D01*
X11461Y3543D01*
X11443Y3635D01*
X11391Y3714D01*
X11313Y3766D01*
X11220Y3784D01*
D02*
G37*
G36*
X43780D02*
X43687Y3766D01*
X43609Y3714D01*
X43557Y3635D01*
X43539Y3543D01*
X43557Y3451D01*
X43609Y3373D01*
X43687Y3321D01*
X43780Y3302D01*
X43872Y3321D01*
X43950Y3373D01*
X44002Y3451D01*
X44020Y3543D01*
X44002Y3635D01*
X43950Y3714D01*
X43872Y3766D01*
X43780Y3784D01*
D02*
G37*
G36*
X40669Y3469D02*
X40577Y3451D01*
X40506Y3403D01*
X40492Y3400D01*
X40478Y3403D01*
X40407Y3451D01*
X40315Y3469D01*
X40223Y3451D01*
X40145Y3399D01*
X40092Y3321D01*
X40074Y3228D01*
X40092Y3136D01*
X40145Y3058D01*
X40170Y3041D01*
Y3022D01*
X40145Y3005D01*
X40092Y2927D01*
X40074Y2835D01*
X40092Y2742D01*
X40145Y2664D01*
X40170Y2648D01*
Y2628D01*
X40145Y2611D01*
X40092Y2533D01*
X40074Y2441D01*
X40092Y2349D01*
X40145Y2271D01*
X40223Y2218D01*
X40315Y2200D01*
X40407Y2218D01*
X40478Y2266D01*
X40492Y2269D01*
X40506Y2266D01*
X40577Y2218D01*
X40669Y2200D01*
X40761Y2218D01*
X40840Y2271D01*
X40892Y2349D01*
X40910Y2441D01*
X40892Y2533D01*
X40840Y2611D01*
X40815Y2628D01*
Y2648D01*
X40840Y2664D01*
X40892Y2742D01*
X40910Y2835D01*
X40892Y2927D01*
X40840Y3005D01*
X40815Y3022D01*
Y3041D01*
X40840Y3058D01*
X40892Y3136D01*
X40910Y3228D01*
X40892Y3321D01*
X40840Y3399D01*
X40761Y3451D01*
X40669Y3469D01*
D02*
G37*
G36*
X8937Y4217D02*
X8845Y4199D01*
X8767Y4147D01*
X8714Y4069D01*
X8696Y3976D01*
X8714Y3884D01*
X8767Y3806D01*
X8845Y3754D01*
X8937Y3736D01*
X9029Y3754D01*
X9107Y3806D01*
X9160Y3884D01*
X9178Y3976D01*
X9160Y4069D01*
X9107Y4147D01*
X9029Y4199D01*
X8937Y4217D01*
D02*
G37*
G36*
X47402Y3942D02*
X47309Y3923D01*
X47231Y3871D01*
X47218D01*
X47139Y3923D01*
X47047Y3942D01*
X46955Y3923D01*
X46877Y3871D01*
X46825Y3793D01*
X46806Y3701D01*
X46825Y3609D01*
X46877Y3530D01*
X46902Y3514D01*
Y3494D01*
X46877Y3477D01*
X46825Y3399D01*
X46806Y3307D01*
X46825Y3215D01*
X46877Y3137D01*
X46902Y3120D01*
Y3100D01*
X46877Y3084D01*
X46825Y3006D01*
X46806Y2913D01*
X46825Y2821D01*
X46877Y2743D01*
X46955Y2691D01*
X47047Y2673D01*
X47139Y2691D01*
X47211Y2738D01*
X47224Y2742D01*
X47238Y2738D01*
X47309Y2691D01*
X47402Y2673D01*
X47494Y2691D01*
X47572Y2743D01*
X47624Y2821D01*
X47642Y2913D01*
X47624Y3006D01*
X47572Y3084D01*
X47547Y3100D01*
Y3120D01*
X47572Y3137D01*
X47624Y3215D01*
X47642Y3307D01*
X47624Y3399D01*
X47572Y3477D01*
X47547Y3494D01*
Y3514D01*
X47572Y3530D01*
X47624Y3609D01*
X47642Y3701D01*
X47624Y3793D01*
X47572Y3871D01*
X47494Y3923D01*
X47402Y3942D01*
D02*
G37*
G36*
X35236Y4375D02*
X35144Y4356D01*
X35066Y4304D01*
X35014Y4226D01*
X34995Y4134D01*
X35014Y4042D01*
X35066Y3964D01*
X35144Y3911D01*
X35236Y3893D01*
X35328Y3911D01*
X35407Y3964D01*
X35459Y4042D01*
X35477Y4134D01*
X35459Y4226D01*
X35407Y4304D01*
X35328Y4356D01*
X35236Y4375D01*
D02*
G37*
G36*
X13150Y4444D02*
X13057Y4425D01*
X12979Y4373D01*
X12927Y4295D01*
X12909Y4203D01*
X12927Y4111D01*
X12979Y4032D01*
X13057Y3980D01*
X13150Y3962D01*
X13242Y3980D01*
X13320Y4032D01*
X13372Y4111D01*
X13390Y4203D01*
X13372Y4295D01*
X13320Y4373D01*
X13242Y4425D01*
X13150Y4444D01*
D02*
G37*
G36*
X22102Y4057D02*
X21000D01*
X20954Y4048D01*
X20915Y4022D01*
X20889Y3983D01*
X20880Y3937D01*
Y3797D01*
X20860Y3795D01*
X20858Y3803D01*
X20843Y3882D01*
X20790Y3960D01*
X20712Y4012D01*
X20620Y4030D01*
X20528Y4012D01*
X20450Y3960D01*
X20398Y3882D01*
X20379Y3789D01*
X20398Y3697D01*
X20450Y3619D01*
X20528Y3567D01*
X20620Y3549D01*
X20712Y3567D01*
X20790Y3619D01*
X20843Y3697D01*
X20858Y3776D01*
X20860Y3784D01*
X20880Y3782D01*
Y2953D01*
X20889Y2907D01*
X20915Y2868D01*
X20954Y2842D01*
X21000Y2832D01*
X22102D01*
X22148Y2842D01*
X22188Y2868D01*
X22214Y2907D01*
X22223Y2953D01*
Y3937D01*
X22214Y3983D01*
X22188Y4022D01*
X22148Y4048D01*
X22102Y4057D01*
D02*
G37*
G36*
X49659Y4169D02*
X49291D01*
Y3802D01*
X49331Y3807D01*
X49441Y3853D01*
X49536Y3925D01*
X49608Y4020D01*
X49654Y4130D01*
X49659Y4169D01*
D02*
G37*
G36*
X49134D02*
X48766D01*
X48772Y4130D01*
X48817Y4020D01*
X48890Y3925D01*
X48984Y3853D01*
X49094Y3807D01*
X49134Y3802D01*
Y4169D01*
D02*
G37*
G36*
X4724Y2603D02*
X4632Y2585D01*
X4554Y2533D01*
X4502Y2454D01*
X4484Y2362D01*
X4502Y2270D01*
X4554Y2192D01*
X4632Y2140D01*
X4724Y2121D01*
X4817Y2140D01*
X4895Y2192D01*
X4947Y2270D01*
X4965Y2362D01*
X4947Y2454D01*
X4895Y2533D01*
X4817Y2585D01*
X4724Y2603D01*
D02*
G37*
G36*
X33598Y1004D02*
X33231D01*
X33236Y964D01*
X33282Y854D01*
X33354Y760D01*
X33449Y687D01*
X33559Y642D01*
X33598Y636D01*
Y1004D01*
D02*
G37*
G36*
X34123D02*
X33756D01*
Y636D01*
X33795Y642D01*
X33905Y687D01*
X34000Y760D01*
X34073Y854D01*
X34118Y964D01*
X34123Y1004D01*
D02*
G37*
G36*
X2354Y1893D02*
X2157D01*
X2038Y1881D01*
X1923Y1846D01*
X1817Y1789D01*
X1724Y1713D01*
X1648Y1620D01*
X1591Y1514D01*
X1556Y1399D01*
X1544Y1280D01*
X1556Y1160D01*
X1591Y1045D01*
X1648Y939D01*
X1724Y846D01*
X1817Y770D01*
X1923Y713D01*
X2038Y678D01*
X2157Y666D01*
X2354D01*
X2474Y678D01*
X2589Y713D01*
X2695Y770D01*
X2788Y846D01*
X2864Y939D01*
X2921Y1045D01*
X2956Y1160D01*
X2968Y1280D01*
X2956Y1399D01*
X2921Y1514D01*
X2864Y1620D01*
X2788Y1713D01*
X2695Y1789D01*
X2589Y1846D01*
X2474Y1881D01*
X2354Y1893D01*
D02*
G37*
G36*
X7087Y930D02*
X6994Y911D01*
X6916Y859D01*
X6864Y781D01*
X6846Y689D01*
X6864Y597D01*
X6916Y519D01*
X6994Y466D01*
X7087Y448D01*
X7179Y466D01*
X7257Y519D01*
X7309Y597D01*
X7327Y689D01*
X7309Y781D01*
X7257Y859D01*
X7179Y911D01*
X7087Y930D01*
D02*
G37*
G36*
X24409Y950D02*
X24317Y931D01*
X24239Y879D01*
X24187Y801D01*
X24169Y709D01*
X24187Y616D01*
X24239Y538D01*
X24317Y486D01*
X24409Y468D01*
X24502Y486D01*
X24580Y538D01*
X24632Y616D01*
X24650Y709D01*
X24632Y801D01*
X24580Y879D01*
X24502Y931D01*
X24409Y950D01*
D02*
G37*
G36*
X43071Y1698D02*
X42979Y1679D01*
X42900Y1627D01*
X42848Y1549D01*
X42830Y1457D01*
X42848Y1365D01*
X42900Y1286D01*
X42934Y1264D01*
X42888Y1195D01*
X42869Y1102D01*
X42888Y1010D01*
X42934Y941D01*
X42931Y916D01*
X42920Y908D01*
X42868Y830D01*
X42850Y738D01*
X42868Y646D01*
X42920Y568D01*
X42998Y516D01*
X43091Y497D01*
X43183Y516D01*
X43261Y568D01*
X43313Y646D01*
X43331Y738D01*
X43313Y830D01*
X43267Y899D01*
X43269Y925D01*
X43281Y932D01*
X43333Y1010D01*
X43351Y1102D01*
X43333Y1195D01*
X43281Y1273D01*
X43247Y1295D01*
X43293Y1365D01*
X43312Y1457D01*
X43293Y1549D01*
X43241Y1627D01*
X43163Y1679D01*
X43071Y1698D01*
D02*
G37*
G36*
X4008Y1893D02*
X3811D01*
X3691Y1881D01*
X3576Y1846D01*
X3470Y1789D01*
X3377Y1713D01*
X3301Y1620D01*
X3245Y1514D01*
X3210Y1399D01*
X3198Y1280D01*
X3210Y1160D01*
X3245Y1045D01*
X3301Y939D01*
X3377Y846D01*
X3470Y770D01*
X3576Y713D01*
X3691Y678D01*
X3811Y666D01*
X4008D01*
X4128Y678D01*
X4243Y713D01*
X4349Y770D01*
X4441Y846D01*
X4518Y939D01*
X4574Y1045D01*
X4609Y1160D01*
X4621Y1280D01*
X4609Y1399D01*
X4574Y1514D01*
X4518Y1620D01*
X4441Y1713D01*
X4349Y1789D01*
X4243Y1846D01*
X4128Y1881D01*
X4008Y1893D01*
D02*
G37*
G36*
X23303D02*
X23106D01*
X22987Y1881D01*
X22872Y1846D01*
X22766Y1789D01*
X22673Y1713D01*
X22596Y1620D01*
X22540Y1514D01*
X22505Y1399D01*
X22493Y1280D01*
X22505Y1160D01*
X22540Y1045D01*
X22596Y939D01*
X22673Y846D01*
X22766Y770D01*
X22872Y713D01*
X22987Y678D01*
X23106Y666D01*
X23303D01*
X23423Y678D01*
X23538Y713D01*
X23644Y770D01*
X23737Y846D01*
X23813Y939D01*
X23870Y1045D01*
X23905Y1160D01*
X23916Y1280D01*
X23905Y1399D01*
X23870Y1514D01*
X23813Y1620D01*
X23737Y1713D01*
X23644Y1789D01*
X23538Y1846D01*
X23423Y1881D01*
X23303Y1893D01*
D02*
G37*
G36*
X38787D02*
X38591D01*
X38471Y1881D01*
X38356Y1846D01*
X38250Y1789D01*
X38157Y1713D01*
X38081Y1620D01*
X38024Y1514D01*
X37989Y1399D01*
X37977Y1280D01*
X37989Y1160D01*
X38024Y1045D01*
X38081Y939D01*
X38157Y846D01*
X38250Y770D01*
X38356Y713D01*
X38471Y678D01*
X38591Y666D01*
X38787D01*
X38907Y678D01*
X39022Y713D01*
X39128Y770D01*
X39221Y846D01*
X39297Y939D01*
X39354Y1045D01*
X39389Y1160D01*
X39401Y1280D01*
X39389Y1399D01*
X39354Y1514D01*
X39297Y1620D01*
X39221Y1713D01*
X39128Y1789D01*
X39022Y1846D01*
X38907Y1881D01*
X38787Y1893D01*
D02*
G37*
G36*
X25378Y1677D02*
X25249Y1661D01*
X25130Y1611D01*
X25027Y1532D01*
X24948Y1429D01*
X24898Y1310D01*
X24882Y1181D01*
X24898Y1053D01*
X24948Y933D01*
X25027Y830D01*
X25130Y751D01*
X25249Y702D01*
X25378Y685D01*
X25506Y702D01*
X25626Y751D01*
X25729Y830D01*
X25808Y933D01*
X25857Y1053D01*
X25874Y1181D01*
X25857Y1310D01*
X25808Y1429D01*
X25729Y1532D01*
X25626Y1611D01*
X25506Y1661D01*
X25378Y1677D01*
D02*
G37*
G36*
X17055Y1893D02*
X16858D01*
X16739Y1881D01*
X16624Y1846D01*
X16518Y1789D01*
X16425Y1713D01*
X16348Y1620D01*
X16292Y1514D01*
X16257Y1399D01*
X16245Y1280D01*
X16257Y1160D01*
X16292Y1045D01*
X16348Y939D01*
X16425Y846D01*
X16518Y770D01*
X16624Y713D01*
X16739Y678D01*
X16858Y666D01*
X17055D01*
X17175Y678D01*
X17290Y713D01*
X17396Y770D01*
X17489Y846D01*
X17565Y939D01*
X17622Y1045D01*
X17657Y1160D01*
X17668Y1280D01*
X17657Y1399D01*
X17622Y1514D01*
X17565Y1620D01*
X17489Y1713D01*
X17396Y1789D01*
X17290Y1846D01*
X17175Y1881D01*
X17055Y1893D01*
D02*
G37*
G36*
X18709D02*
X18512D01*
X18392Y1881D01*
X18277Y1846D01*
X18171Y1789D01*
X18078Y1713D01*
X18002Y1620D01*
X17945Y1514D01*
X17910Y1399D01*
X17899Y1280D01*
X17910Y1160D01*
X17945Y1045D01*
X18002Y939D01*
X18078Y846D01*
X18171Y770D01*
X18277Y713D01*
X18392Y678D01*
X18512Y666D01*
X18709D01*
X18828Y678D01*
X18943Y713D01*
X19049Y770D01*
X19142Y846D01*
X19219Y939D01*
X19275Y1045D01*
X19310Y1160D01*
X19322Y1280D01*
X19310Y1399D01*
X19275Y1514D01*
X19219Y1620D01*
X19142Y1713D01*
X19049Y1789D01*
X18943Y1846D01*
X18828Y1881D01*
X18709Y1893D01*
D02*
G37*
G36*
X21650D02*
X21453D01*
X21333Y1881D01*
X21218Y1846D01*
X21112Y1789D01*
X21019Y1713D01*
X20943Y1620D01*
X20886Y1514D01*
X20851Y1399D01*
X20840Y1280D01*
X20851Y1160D01*
X20886Y1045D01*
X20943Y939D01*
X21019Y846D01*
X21112Y770D01*
X21218Y713D01*
X21333Y678D01*
X21453Y666D01*
X21650D01*
X21769Y678D01*
X21884Y713D01*
X21990Y770D01*
X22083Y846D01*
X22159Y939D01*
X22216Y1045D01*
X22251Y1160D01*
X22263Y1280D01*
X22251Y1399D01*
X22216Y1514D01*
X22159Y1620D01*
X22083Y1713D01*
X21990Y1789D01*
X21884Y1846D01*
X21769Y1881D01*
X21650Y1893D01*
D02*
G37*
G36*
X8898Y595D02*
X8805Y577D01*
X8727Y525D01*
X8675Y446D01*
X8657Y354D01*
X8675Y262D01*
X8727Y184D01*
X8805Y132D01*
X8898Y113D01*
X8990Y132D01*
X9068Y184D01*
X9120Y262D01*
X9138Y354D01*
X9120Y446D01*
X9068Y525D01*
X8990Y577D01*
X8898Y595D01*
D02*
G37*
G36*
X984Y635D02*
X892Y616D01*
X814Y564D01*
X762Y486D01*
X743Y394D01*
X762Y302D01*
X814Y223D01*
X892Y171D01*
X984Y153D01*
X1076Y171D01*
X1155Y223D01*
X1207Y302D01*
X1225Y394D01*
X1207Y486D01*
X1155Y564D01*
X1076Y616D01*
X984Y635D01*
D02*
G37*
G36*
X3150D02*
X3057Y616D01*
X2979Y564D01*
X2927Y486D01*
X2909Y394D01*
X2927Y302D01*
X2979Y223D01*
X3057Y171D01*
X3150Y153D01*
X3242Y171D01*
X3320Y223D01*
X3372Y302D01*
X3390Y394D01*
X3372Y486D01*
X3320Y564D01*
X3242Y616D01*
X3150Y635D01*
D02*
G37*
G36*
X17835Y556D02*
X17742Y537D01*
X17664Y485D01*
X17612Y407D01*
X17594Y315D01*
X17612Y223D01*
X17664Y145D01*
X17742Y92D01*
X17835Y74D01*
X17927Y92D01*
X18005Y145D01*
X18057Y223D01*
X18075Y315D01*
X18057Y407D01*
X18005Y485D01*
X17927Y537D01*
X17835Y556D01*
D02*
G37*
G36*
X19016D02*
X18924Y537D01*
X18845Y485D01*
X18793Y407D01*
X18775Y315D01*
X18793Y223D01*
X18845Y145D01*
X18924Y92D01*
X19016Y74D01*
X19108Y92D01*
X19186Y145D01*
X19238Y223D01*
X19257Y315D01*
X19238Y407D01*
X19186Y485D01*
X19108Y537D01*
X19016Y556D01*
D02*
G37*
G36*
X16102Y575D02*
X16010Y557D01*
X15932Y505D01*
X15880Y427D01*
X15862Y335D01*
X15880Y242D01*
X15932Y164D01*
X16010Y112D01*
X16102Y94D01*
X16195Y112D01*
X16273Y164D01*
X16325Y242D01*
X16343Y335D01*
X16325Y427D01*
X16273Y505D01*
X16195Y557D01*
X16102Y575D01*
D02*
G37*
G36*
X4921Y635D02*
X4829Y616D01*
X4751Y564D01*
X4699Y486D01*
X4680Y394D01*
X4699Y302D01*
X4751Y223D01*
X4829Y171D01*
X4921Y153D01*
X5013Y171D01*
X5092Y223D01*
X5144Y302D01*
X5162Y394D01*
X5144Y486D01*
X5092Y564D01*
X5013Y616D01*
X4921Y635D01*
D02*
G37*
G36*
X13740Y792D02*
X13648Y774D01*
X13570Y721D01*
X13518Y643D01*
X13499Y551D01*
X13518Y459D01*
X13570Y381D01*
X13648Y329D01*
X13740Y310D01*
X13832Y329D01*
X13910Y381D01*
X13963Y459D01*
X13981Y551D01*
X13963Y643D01*
X13910Y721D01*
X13832Y774D01*
X13740Y792D01*
D02*
G37*
G36*
X40236Y871D02*
X40144Y852D01*
X40066Y800D01*
X40014Y722D01*
X39995Y630D01*
X40014Y538D01*
X40066Y460D01*
X40144Y407D01*
X40236Y389D01*
X40328Y407D01*
X40407Y460D01*
X40459Y538D01*
X40477Y630D01*
X40459Y722D01*
X40407Y800D01*
X40328Y852D01*
X40236Y871D01*
D02*
G37*
G36*
X22313Y881D02*
X22221Y862D01*
X22143Y810D01*
X22090Y732D01*
X22072Y640D01*
X22090Y548D01*
X22143Y469D01*
X22221Y417D01*
X22313Y399D01*
X22405Y417D01*
X22483Y469D01*
X22536Y548D01*
X22554Y640D01*
X22536Y732D01*
X22483Y810D01*
X22405Y862D01*
X22313Y881D01*
D02*
G37*
G36*
X19921Y674D02*
X19829Y656D01*
X19751Y603D01*
X19699Y525D01*
X19680Y433D01*
X19699Y341D01*
X19751Y263D01*
X19829Y211D01*
X19921Y192D01*
X20013Y211D01*
X20092Y263D01*
X20144Y341D01*
X20162Y433D01*
X20144Y525D01*
X20092Y603D01*
X20013Y656D01*
X19921Y674D01*
D02*
G37*
G36*
X44646Y1678D02*
X44553Y1660D01*
X44475Y1607D01*
X44423Y1529D01*
X44405Y1437D01*
X44423Y1345D01*
X44473Y1270D01*
X44423Y1195D01*
X44405Y1102D01*
X44423Y1010D01*
X44475Y932D01*
X44491Y922D01*
X44463Y880D01*
X44444Y787D01*
X44463Y695D01*
X44510Y624D01*
X44513Y610D01*
X44510Y596D01*
X44463Y525D01*
X44444Y433D01*
X44463Y341D01*
X44515Y263D01*
X44593Y211D01*
X44685Y192D01*
X44777Y211D01*
X44855Y263D01*
X44872Y288D01*
X44892D01*
X44908Y263D01*
X44987Y211D01*
X45079Y192D01*
X45171Y211D01*
X45249Y263D01*
X45301Y341D01*
X45320Y433D01*
X45301Y525D01*
X45254Y596D01*
X45251Y610D01*
X45254Y624D01*
X45301Y695D01*
X45320Y787D01*
X45301Y880D01*
X45249Y958D01*
X45171Y1010D01*
X45079Y1028D01*
X44987Y1010D01*
X44908Y958D01*
X44892Y933D01*
X44872D01*
X44855Y958D01*
X44840Y968D01*
X44868Y1010D01*
X44887Y1102D01*
X44868Y1195D01*
X44818Y1270D01*
X44868Y1345D01*
X44887Y1437D01*
X44868Y1529D01*
X44816Y1607D01*
X44738Y1660D01*
X44646Y1678D01*
D02*
G37*
G36*
X26132Y723D02*
X26040Y705D01*
X25962Y653D01*
X25909Y574D01*
X25891Y482D01*
X25909Y390D01*
X25962Y312D01*
X26040Y260D01*
X26132Y241D01*
X26224Y260D01*
X26302Y312D01*
X26354Y390D01*
X26373Y482D01*
X26354Y574D01*
X26302Y653D01*
X26224Y705D01*
X26132Y723D01*
D02*
G37*
G36*
X30957Y2004D02*
X30589D01*
X30594Y1964D01*
X30640Y1854D01*
X30713Y1760D01*
X30807Y1687D01*
X30917Y1642D01*
X30957Y1636D01*
Y2004D01*
D02*
G37*
G36*
X31482D02*
X31114D01*
Y1636D01*
X31154Y1642D01*
X31264Y1687D01*
X31358Y1760D01*
X31431Y1854D01*
X31477Y1964D01*
X31482Y2004D01*
D02*
G37*
G36*
X15157Y2209D02*
X15065Y2191D01*
X14987Y2139D01*
X14935Y2061D01*
X14917Y1969D01*
X14935Y1876D01*
X14987Y1798D01*
X15065Y1746D01*
X15157Y1728D01*
X15250Y1746D01*
X15328Y1798D01*
X15380Y1876D01*
X15398Y1969D01*
X15380Y2061D01*
X15328Y2139D01*
X15250Y2191D01*
X15157Y2209D01*
D02*
G37*
G36*
X13189Y2013D02*
X13097Y1994D01*
X13019Y1942D01*
X12966Y1864D01*
X12948Y1772D01*
X12966Y1679D01*
X13019Y1601D01*
X13097Y1549D01*
X13189Y1531D01*
X13281Y1549D01*
X13359Y1601D01*
X13411Y1679D01*
X13430Y1772D01*
X13411Y1864D01*
X13359Y1942D01*
X13281Y1994D01*
X13189Y2013D01*
D02*
G37*
G36*
X36220D02*
X36128Y1994D01*
X36050Y1942D01*
X35998Y1864D01*
X35980Y1772D01*
X35998Y1679D01*
X36050Y1601D01*
X36128Y1549D01*
X36220Y1531D01*
X36313Y1549D01*
X36391Y1601D01*
X36443Y1679D01*
X36461Y1772D01*
X36443Y1864D01*
X36391Y1942D01*
X36313Y1994D01*
X36220Y2013D01*
D02*
G37*
G36*
X42461Y3163D02*
X41220D01*
X41144Y3148D01*
X41079Y3105D01*
X41035Y3039D01*
X41020Y2963D01*
Y1752D01*
X41035Y1675D01*
X41079Y1610D01*
X41144Y1567D01*
X41220Y1551D01*
X42461D01*
X42537Y1567D01*
X42603Y1610D01*
X42646Y1675D01*
X42661Y1752D01*
Y2963D01*
X42646Y3039D01*
X42603Y3105D01*
X42537Y3148D01*
X42461Y3163D01*
D02*
G37*
G36*
X28051Y2308D02*
X27959Y2289D01*
X27881Y2237D01*
X27829Y2159D01*
X27810Y2067D01*
X27829Y1975D01*
X27881Y1897D01*
X27959Y1844D01*
X28051Y1826D01*
X28143Y1844D01*
X28221Y1897D01*
X28274Y1975D01*
X28292Y2067D01*
X28274Y2159D01*
X28221Y2237D01*
X28143Y2289D01*
X28051Y2308D01*
D02*
G37*
G36*
X7835Y3233D02*
X6535D01*
X6392Y3214D01*
X6257Y3159D01*
X6142Y3070D01*
X6054Y2955D01*
X5998Y2821D01*
X5979Y2677D01*
X5998Y2533D01*
X6054Y2399D01*
X6142Y2284D01*
X6257Y2196D01*
X6392Y2140D01*
X6535Y2121D01*
X7835D01*
X7979Y2140D01*
X8113Y2196D01*
X8228Y2284D01*
X8316Y2399D01*
X8372Y2533D01*
X8391Y2677D01*
X8372Y2821D01*
X8316Y2955D01*
X8228Y3070D01*
X8113Y3159D01*
X7979Y3214D01*
X7835Y3233D01*
D02*
G37*
G36*
X14331D02*
X13032D01*
X12888Y3214D01*
X12754Y3159D01*
X12638Y3070D01*
X12550Y2955D01*
X12494Y2821D01*
X12476Y2677D01*
X12494Y2533D01*
X12550Y2399D01*
X12638Y2284D01*
X12754Y2196D01*
X12888Y2140D01*
X13032Y2121D01*
X14331D01*
X14475Y2140D01*
X14609Y2196D01*
X14724Y2284D01*
X14812Y2399D01*
X14868Y2533D01*
X14887Y2677D01*
X14868Y2821D01*
X14812Y2955D01*
X14724Y3070D01*
X14609Y3159D01*
X14475Y3214D01*
X14331Y3233D01*
D02*
G37*
G36*
X3150Y2603D02*
X3057Y2585D01*
X2979Y2533D01*
X2927Y2454D01*
X2909Y2362D01*
X2927Y2270D01*
X2979Y2192D01*
X3057Y2140D01*
X3150Y2121D01*
X3242Y2140D01*
X3320Y2192D01*
X3372Y2270D01*
X3390Y2362D01*
X3372Y2454D01*
X3320Y2533D01*
X3242Y2585D01*
X3150Y2603D01*
D02*
G37*
G36*
X591Y2406D02*
X498Y2388D01*
X420Y2336D01*
X368Y2258D01*
X350Y2165D01*
X368Y2073D01*
X420Y1995D01*
X498Y1943D01*
X591Y1925D01*
X683Y1943D01*
X761Y1995D01*
X813Y2073D01*
X831Y2165D01*
X813Y2258D01*
X761Y2336D01*
X683Y2388D01*
X591Y2406D01*
D02*
G37*
G36*
X46378Y3862D02*
X44941D01*
X44864Y3847D01*
X44799Y3803D01*
X44756Y3738D01*
X44740Y3661D01*
Y2264D01*
X44756Y2187D01*
X44799Y2122D01*
X44864Y2078D01*
X44941Y2063D01*
X46378D01*
X46455Y2078D01*
X46520Y2122D01*
X46563Y2187D01*
X46579Y2264D01*
Y3661D01*
X46563Y3738D01*
X46520Y3803D01*
X46455Y3847D01*
X46378Y3862D01*
D02*
G37*
G36*
X38720Y2554D02*
X38628Y2536D01*
X38550Y2483D01*
X38498Y2405D01*
X38480Y2313D01*
X38498Y2221D01*
X38550Y2143D01*
X38628Y2090D01*
X38720Y2072D01*
X38813Y2090D01*
X38891Y2143D01*
X38943Y2221D01*
X38961Y2313D01*
X38943Y2405D01*
X38891Y2483D01*
X38813Y2536D01*
X38720Y2554D01*
D02*
G37*
G36*
X26299Y1102D02*
X25932D01*
X25937Y1063D01*
X25982Y953D01*
X26055Y858D01*
X26150Y786D01*
X26260Y740D01*
X26299Y735D01*
Y1102D01*
D02*
G37*
G36*
X8415Y1579D02*
X8323Y1561D01*
X8245Y1509D01*
X8193Y1431D01*
X8175Y1339D01*
X8193Y1246D01*
X8245Y1168D01*
X8323Y1116D01*
X8415Y1098D01*
X8508Y1116D01*
X8586Y1168D01*
X8638Y1246D01*
X8656Y1339D01*
X8638Y1431D01*
X8586Y1509D01*
X8508Y1561D01*
X8415Y1579D01*
D02*
G37*
G36*
X19921D02*
X19829Y1561D01*
X19751Y1509D01*
X19699Y1431D01*
X19680Y1339D01*
X19699Y1246D01*
X19751Y1168D01*
X19829Y1116D01*
X19921Y1098D01*
X20013Y1116D01*
X20092Y1168D01*
X20144Y1246D01*
X20162Y1339D01*
X20144Y1431D01*
X20092Y1509D01*
X20013Y1561D01*
X19921Y1579D01*
D02*
G37*
G36*
X27752Y1676D02*
X27004D01*
X26958Y1666D01*
X26919Y1640D01*
X26893Y1601D01*
X26884Y1555D01*
Y807D01*
X26893Y761D01*
X26919Y722D01*
X26958Y696D01*
X27004Y687D01*
X27752D01*
X27798Y696D01*
X27837Y722D01*
X27863Y761D01*
X27872Y807D01*
Y1555D01*
X27863Y1601D01*
X27837Y1640D01*
X27798Y1666D01*
X27752Y1676D01*
D02*
G37*
G36*
X14587Y1186D02*
X14494Y1167D01*
X14416Y1115D01*
X14364Y1037D01*
X14346Y945D01*
X14364Y853D01*
X14416Y775D01*
X14494Y722D01*
X14587Y704D01*
X14679Y722D01*
X14757Y775D01*
X14809Y853D01*
X14827Y945D01*
X14809Y1037D01*
X14757Y1115D01*
X14679Y1167D01*
X14587Y1186D01*
D02*
G37*
G36*
X26824Y1102D02*
X26457D01*
Y735D01*
X26496Y740D01*
X26606Y786D01*
X26701Y858D01*
X26773Y953D01*
X26819Y1063D01*
X26824Y1102D01*
D02*
G37*
G36*
X33598Y1529D02*
X33559Y1524D01*
X33449Y1478D01*
X33354Y1406D01*
X33282Y1311D01*
X33236Y1201D01*
X33231Y1161D01*
X33598D01*
Y1529D01*
D02*
G37*
G36*
X26299Y1627D02*
X26260Y1622D01*
X26150Y1577D01*
X26055Y1504D01*
X25982Y1409D01*
X25937Y1299D01*
X25932Y1260D01*
X26299D01*
Y1627D01*
D02*
G37*
G36*
X26457D02*
Y1260D01*
X26824D01*
X26819Y1299D01*
X26773Y1409D01*
X26701Y1504D01*
X26606Y1577D01*
X26496Y1622D01*
X26457Y1627D01*
D02*
G37*
G36*
X6102Y1816D02*
X6010Y1797D01*
X5932Y1745D01*
X5880Y1667D01*
X5862Y1575D01*
X5880Y1483D01*
X5932Y1405D01*
X6010Y1352D01*
X6102Y1334D01*
X6195Y1352D01*
X6273Y1405D01*
X6325Y1483D01*
X6343Y1575D01*
X6325Y1667D01*
X6273Y1745D01*
X6195Y1797D01*
X6102Y1816D01*
D02*
G37*
G36*
X33756Y1529D02*
Y1161D01*
X34123D01*
X34118Y1201D01*
X34073Y1311D01*
X34000Y1406D01*
X33905Y1478D01*
X33795Y1524D01*
X33756Y1529D01*
D02*
G37*
G36*
X37134Y1893D02*
X36937D01*
X36817Y1881D01*
X36702Y1846D01*
X36596Y1789D01*
X36503Y1713D01*
X36427Y1620D01*
X36370Y1514D01*
X36336Y1399D01*
X36324Y1280D01*
X36334Y1177D01*
X36315Y1166D01*
X36313Y1167D01*
X36220Y1186D01*
X36128Y1167D01*
X36050Y1115D01*
X35998Y1037D01*
X35980Y945D01*
X35998Y853D01*
X36050Y775D01*
X36128Y722D01*
X36220Y704D01*
X36313Y722D01*
X36391Y775D01*
X36443Y853D01*
X36449Y884D01*
X36468Y889D01*
X36503Y846D01*
X36596Y770D01*
X36702Y713D01*
X36817Y678D01*
X36937Y666D01*
X37134D01*
X37253Y678D01*
X37369Y713D01*
X37475Y770D01*
X37567Y846D01*
X37644Y939D01*
X37700Y1045D01*
X37735Y1160D01*
X37747Y1280D01*
X37735Y1399D01*
X37700Y1514D01*
X37644Y1620D01*
X37567Y1713D01*
X37475Y1789D01*
X37369Y1846D01*
X37253Y1881D01*
X37134Y1893D01*
D02*
G37*
G36*
X24409Y1698D02*
X24317Y1679D01*
X24239Y1627D01*
X24187Y1549D01*
X24169Y1457D01*
X24187Y1365D01*
X24239Y1286D01*
X24317Y1234D01*
X24409Y1216D01*
X24502Y1234D01*
X24580Y1286D01*
X24632Y1365D01*
X24650Y1457D01*
X24632Y1549D01*
X24580Y1627D01*
X24502Y1679D01*
X24409Y1698D01*
D02*
G37*
G36*
X13120Y5044D02*
X13028Y5026D01*
X12950Y4973D01*
X12898Y4895D01*
X12879Y4803D01*
X12898Y4711D01*
X12950Y4633D01*
X13028Y4581D01*
X13120Y4562D01*
X13212Y4581D01*
X13290Y4633D01*
X13343Y4711D01*
X13361Y4803D01*
X13343Y4895D01*
X13290Y4973D01*
X13212Y5026D01*
X13120Y5044D01*
D02*
G37*
G36*
X32480Y9099D02*
X32388Y9081D01*
X32310Y9029D01*
X32258Y8950D01*
X32239Y8858D01*
X32258Y8766D01*
X32310Y8688D01*
X32388Y8636D01*
X32480Y8617D01*
X32572Y8636D01*
X32651Y8688D01*
X32703Y8766D01*
X32721Y8858D01*
X32703Y8950D01*
X32651Y9029D01*
X32572Y9081D01*
X32480Y9099D01*
D02*
G37*
G36*
X7520Y8863D02*
X7428Y8845D01*
X7349Y8792D01*
X7297Y8714D01*
X7293Y8695D01*
X7274D01*
X7270Y8714D01*
X7218Y8792D01*
X7139Y8845D01*
X7047Y8863D01*
X6955Y8845D01*
X6877Y8792D01*
X6825Y8714D01*
X6806Y8622D01*
X6825Y8530D01*
X6877Y8452D01*
X6955Y8400D01*
X7047Y8381D01*
X7139Y8400D01*
X7218Y8452D01*
X7270Y8530D01*
X7274Y8549D01*
X7293D01*
X7297Y8530D01*
X7349Y8452D01*
X7428Y8400D01*
X7520Y8381D01*
X7612Y8400D01*
X7690Y8452D01*
X7742Y8530D01*
X7761Y8622D01*
X7742Y8714D01*
X7690Y8792D01*
X7612Y8845D01*
X7520Y8863D01*
D02*
G37*
G36*
X27677Y9257D02*
X27585Y9238D01*
X27507Y9186D01*
X27455Y9108D01*
X27436Y9016D01*
X27455Y8924D01*
X27507Y8845D01*
X27585Y8793D01*
X27677Y8775D01*
X27769Y8793D01*
X27847Y8845D01*
X27900Y8924D01*
X27918Y9016D01*
X27900Y9108D01*
X27847Y9186D01*
X27769Y9238D01*
X27677Y9257D01*
D02*
G37*
G36*
X30079Y8942D02*
X29987Y8923D01*
X29908Y8871D01*
X29856Y8793D01*
X29838Y8701D01*
X29856Y8609D01*
X29908Y8530D01*
X29987Y8478D01*
X30079Y8460D01*
X30171Y8478D01*
X30249Y8530D01*
X30301Y8609D01*
X30320Y8701D01*
X30301Y8793D01*
X30249Y8871D01*
X30171Y8923D01*
X30079Y8942D01*
D02*
G37*
G36*
X30591D02*
X30498Y8923D01*
X30420Y8871D01*
X30368Y8793D01*
X30350Y8701D01*
X30368Y8609D01*
X30420Y8530D01*
X30498Y8478D01*
X30591Y8460D01*
X30683Y8478D01*
X30761Y8530D01*
X30813Y8609D01*
X30831Y8701D01*
X30813Y8793D01*
X30761Y8871D01*
X30683Y8923D01*
X30591Y8942D01*
D02*
G37*
G36*
X31890Y9099D02*
X31798Y9081D01*
X31719Y9029D01*
X31667Y8950D01*
X31649Y8858D01*
X31667Y8766D01*
X31719Y8688D01*
X31798Y8636D01*
X31890Y8617D01*
X31982Y8636D01*
X32060Y8688D01*
X32112Y8766D01*
X32131Y8858D01*
X32112Y8950D01*
X32060Y9029D01*
X31982Y9081D01*
X31890Y9099D01*
D02*
G37*
G36*
X28622Y9257D02*
X28530Y9238D01*
X28452Y9186D01*
X28400Y9108D01*
X28381Y9016D01*
X28400Y8924D01*
X28452Y8845D01*
X28530Y8793D01*
X28622Y8775D01*
X28714Y8793D01*
X28792Y8845D01*
X28845Y8924D01*
X28863Y9016D01*
X28845Y9108D01*
X28792Y9186D01*
X28714Y9238D01*
X28622Y9257D01*
D02*
G37*
G36*
X14262Y9444D02*
X14170Y9425D01*
X14092Y9373D01*
X14039Y9295D01*
X14021Y9203D01*
X14039Y9111D01*
X14092Y9032D01*
X14170Y8980D01*
X14262Y8962D01*
X14354Y8980D01*
X14432Y9032D01*
X14484Y9111D01*
X14503Y9203D01*
X14484Y9295D01*
X14432Y9373D01*
X14354Y9425D01*
X14262Y9444D01*
D02*
G37*
G36*
X35472Y9572D02*
X35380Y9553D01*
X35302Y9501D01*
X35250Y9423D01*
X35232Y9331D01*
X35250Y9239D01*
X35302Y9160D01*
X35380Y9108D01*
X35472Y9090D01*
X35565Y9108D01*
X35643Y9160D01*
X35695Y9239D01*
X35713Y9331D01*
X35695Y9423D01*
X35643Y9501D01*
X35565Y9553D01*
X35472Y9572D01*
D02*
G37*
G36*
X6496Y9887D02*
X6404Y9868D01*
X6326Y9816D01*
X6274Y9738D01*
X6255Y9646D01*
X6274Y9553D01*
X6326Y9475D01*
X6404Y9423D01*
X6496Y9405D01*
X6588Y9423D01*
X6666Y9475D01*
X6719Y9553D01*
X6737Y9646D01*
X6719Y9738D01*
X6666Y9816D01*
X6588Y9868D01*
X6496Y9887D01*
D02*
G37*
G36*
X36024Y9257D02*
X35931Y9238D01*
X35853Y9186D01*
X35801Y9108D01*
X35783Y9016D01*
X35801Y8924D01*
X35853Y8845D01*
X35931Y8793D01*
X36024Y8775D01*
X36116Y8793D01*
X36194Y8845D01*
X36246Y8924D01*
X36264Y9016D01*
X36246Y9108D01*
X36194Y9186D01*
X36116Y9238D01*
X36024Y9257D01*
D02*
G37*
G36*
X47480D02*
X47388Y9238D01*
X47310Y9186D01*
X47258Y9108D01*
X47239Y9016D01*
X47258Y8924D01*
X47310Y8845D01*
X47388Y8793D01*
X47480Y8775D01*
X47572Y8793D01*
X47651Y8845D01*
X47703Y8924D01*
X47721Y9016D01*
X47703Y9108D01*
X47651Y9186D01*
X47572Y9238D01*
X47480Y9257D01*
D02*
G37*
G36*
X8986Y9444D02*
X8894Y9425D01*
X8816Y9373D01*
X8764Y9295D01*
X8745Y9203D01*
X8764Y9111D01*
X8816Y9032D01*
X8894Y8980D01*
X8986Y8962D01*
X9078Y8980D01*
X9157Y9032D01*
X9209Y9111D01*
X9227Y9203D01*
X9209Y9295D01*
X9157Y9373D01*
X9078Y9425D01*
X8986Y9444D01*
D02*
G37*
G36*
X4606Y7918D02*
X4514Y7900D01*
X4436Y7847D01*
X4419Y7822D01*
X4400D01*
X4383Y7847D01*
X4305Y7900D01*
X4213Y7918D01*
X4120Y7900D01*
X4049Y7852D01*
X4035Y7849D01*
X4022Y7852D01*
X3950Y7900D01*
X3858Y7918D01*
X3766Y7900D01*
X3688Y7847D01*
X3671Y7822D01*
X3652D01*
X3635Y7847D01*
X3557Y7900D01*
X3465Y7918D01*
X3372Y7900D01*
X3294Y7847D01*
X3242Y7769D01*
X3224Y7677D01*
X3242Y7585D01*
X3294Y7507D01*
X3372Y7455D01*
X3465Y7436D01*
X3557Y7455D01*
X3635Y7507D01*
X3652Y7532D01*
X3671D01*
X3688Y7507D01*
X3766Y7455D01*
X3858Y7436D01*
X3950Y7455D01*
X4022Y7502D01*
X4035Y7505D01*
X4049Y7502D01*
X4120Y7455D01*
X4213Y7436D01*
X4305Y7455D01*
X4383Y7507D01*
X4400Y7532D01*
X4419D01*
X4436Y7507D01*
X4505Y7461D01*
X4500Y7440D01*
X4445Y7433D01*
X4369Y7401D01*
X4303Y7351D01*
X4252Y7285D01*
X4221Y7208D01*
X4210Y7126D01*
X4221Y7044D01*
X4252Y6967D01*
X4303Y6901D01*
X4369Y6851D01*
X4445Y6819D01*
X4528Y6808D01*
X4610Y6819D01*
X4686Y6851D01*
X4752Y6901D01*
X4803Y6967D01*
X4834Y7044D01*
X4845Y7126D01*
X4834Y7208D01*
X4803Y7285D01*
X4752Y7351D01*
X4686Y7401D01*
X4636Y7422D01*
X4638Y7443D01*
X4698Y7455D01*
X4777Y7507D01*
X4829Y7585D01*
X4847Y7677D01*
X4829Y7769D01*
X4777Y7847D01*
X4698Y7900D01*
X4606Y7918D01*
D02*
G37*
G36*
X49659Y8268D02*
X49291D01*
Y7900D01*
X49331Y7905D01*
X49441Y7951D01*
X49536Y8024D01*
X49608Y8118D01*
X49654Y8228D01*
X49659Y8268D01*
D02*
G37*
G36*
X49134D02*
X48766D01*
X48772Y8228D01*
X48817Y8118D01*
X48890Y8024D01*
X48984Y7951D01*
X49094Y7905D01*
X49134Y7900D01*
Y8268D01*
D02*
G37*
G36*
X28150Y8233D02*
X28016Y8215D01*
X27891Y8164D01*
X27785Y8082D01*
X27703Y7975D01*
X27651Y7850D01*
X27633Y7717D01*
Y7666D01*
X27615Y7660D01*
X27601Y7680D01*
X27523Y7732D01*
X27431Y7751D01*
X27339Y7732D01*
X27261Y7680D01*
X27209Y7602D01*
X27190Y7510D01*
X27209Y7418D01*
X27261Y7340D01*
X27339Y7287D01*
X27431Y7269D01*
X27523Y7287D01*
X27601Y7340D01*
X27615Y7359D01*
X27633Y7353D01*
Y7323D01*
X27651Y7189D01*
X27703Y7065D01*
X27785Y6958D01*
X27891Y6876D01*
X28016Y6824D01*
X28150Y6807D01*
X28283Y6824D01*
X28408Y6876D01*
X28466Y6921D01*
X28481Y6907D01*
X28478Y6903D01*
X28460Y6811D01*
X28478Y6719D01*
X28530Y6641D01*
X28609Y6589D01*
X28701Y6570D01*
X28793Y6589D01*
X28871Y6641D01*
X28923Y6719D01*
X28942Y6811D01*
X28923Y6903D01*
X28871Y6981D01*
X28793Y7034D01*
X28701Y7052D01*
X28609Y7034D01*
X28585Y7018D01*
X28572Y7032D01*
X28597Y7065D01*
X28648Y7189D01*
X28666Y7323D01*
Y7717D01*
X28648Y7850D01*
X28597Y7975D01*
X28515Y8082D01*
X28408Y8164D01*
X28283Y8215D01*
X28150Y8233D01*
D02*
G37*
G36*
X20866Y8154D02*
X20774Y8136D01*
X20696Y8084D01*
X20644Y8006D01*
X20625Y7913D01*
X20644Y7821D01*
X20696Y7743D01*
X20774Y7691D01*
X20866Y7673D01*
X20958Y7691D01*
X21036Y7743D01*
X21089Y7821D01*
X21107Y7913D01*
X21089Y8006D01*
X21036Y8084D01*
X20958Y8136D01*
X20866Y8154D01*
D02*
G37*
G36*
X21555Y8587D02*
X21463Y8569D01*
X21385Y8517D01*
X21333Y8439D01*
X21314Y8346D01*
X21333Y8254D01*
X21385Y8176D01*
Y8163D01*
X21326Y8123D01*
X21274Y8045D01*
X21255Y7953D01*
X21274Y7861D01*
X21326Y7782D01*
X21404Y7730D01*
X21496Y7712D01*
X21588Y7730D01*
X21666Y7782D01*
X21719Y7861D01*
X21737Y7953D01*
X21719Y8045D01*
X21671Y8116D01*
X21673Y8141D01*
X21725Y8176D01*
X21778Y8254D01*
X21796Y8346D01*
X21778Y8439D01*
X21725Y8517D01*
X21647Y8569D01*
X21555Y8587D01*
D02*
G37*
G36*
X33071Y8509D02*
X32979Y8490D01*
X32901Y8438D01*
X32848Y8360D01*
X32830Y8268D01*
X32848Y8176D01*
X32901Y8097D01*
X32979Y8045D01*
X33071Y8027D01*
X33163Y8045D01*
X33241Y8097D01*
X33293Y8176D01*
X33312Y8268D01*
X33293Y8360D01*
X33241Y8438D01*
X33163Y8490D01*
X33071Y8509D01*
D02*
G37*
G36*
X28110Y8863D02*
X28018Y8845D01*
X27940Y8792D01*
X27888Y8714D01*
X27869Y8622D01*
X27888Y8530D01*
X27940Y8452D01*
X28018Y8400D01*
X28110Y8381D01*
X28202Y8400D01*
X28281Y8452D01*
X28333Y8530D01*
X28351Y8622D01*
X28333Y8714D01*
X28281Y8792D01*
X28202Y8845D01*
X28110Y8863D01*
D02*
G37*
G36*
X49134Y8793D02*
X49094Y8788D01*
X48984Y8742D01*
X48890Y8669D01*
X48817Y8575D01*
X48772Y8465D01*
X48766Y8425D01*
X49134D01*
Y8793D01*
D02*
G37*
G36*
X49291D02*
Y8425D01*
X49659D01*
X49654Y8465D01*
X49608Y8575D01*
X49536Y8669D01*
X49441Y8742D01*
X49331Y8788D01*
X49291Y8793D01*
D02*
G37*
G36*
X8543Y8587D02*
X8451Y8569D01*
X8373Y8517D01*
X8321Y8439D01*
X8302Y8346D01*
X8321Y8254D01*
X8373Y8176D01*
X8451Y8124D01*
X8543Y8106D01*
X8635Y8124D01*
X8714Y8176D01*
X8766Y8254D01*
X8784Y8346D01*
X8766Y8439D01*
X8714Y8517D01*
X8635Y8569D01*
X8543Y8587D01*
D02*
G37*
G36*
X18760Y9001D02*
X18668Y8982D01*
X18590Y8930D01*
X18537Y8852D01*
X18519Y8760D01*
X18537Y8668D01*
X18590Y8590D01*
X18615Y8573D01*
Y8553D01*
X18604Y8546D01*
X18552Y8468D01*
X18534Y8376D01*
X18552Y8284D01*
X18604Y8206D01*
X18682Y8153D01*
X18775Y8135D01*
X18867Y8153D01*
X18945Y8206D01*
X18997Y8284D01*
X19015Y8376D01*
X18997Y8468D01*
X18945Y8546D01*
X18920Y8563D01*
Y8583D01*
X18930Y8590D01*
X18982Y8668D01*
X19001Y8760D01*
X18982Y8852D01*
X18930Y8930D01*
X18852Y8982D01*
X18760Y9001D01*
D02*
G37*
G36*
X14065Y8843D02*
X13973Y8825D01*
X13895Y8773D01*
X13842Y8695D01*
X13824Y8602D01*
X13842Y8510D01*
X13895Y8432D01*
X13973Y8380D01*
X14065Y8362D01*
X14157Y8380D01*
X14235Y8432D01*
X14287Y8510D01*
X14306Y8602D01*
X14287Y8695D01*
X14235Y8773D01*
X14157Y8825D01*
X14065Y8843D01*
D02*
G37*
G36*
X20787Y11028D02*
X20695Y11010D01*
X20617Y10958D01*
X20600Y10933D01*
X20581D01*
X20564Y10958D01*
X20486Y11010D01*
X20394Y11028D01*
X20302Y11010D01*
X20223Y10958D01*
X20171Y10880D01*
X20153Y10787D01*
X20171Y10695D01*
X20223Y10617D01*
X20302Y10565D01*
X20394Y10547D01*
X20486Y10565D01*
X20564Y10617D01*
X20581Y10642D01*
X20600D01*
X20617Y10617D01*
X20695Y10565D01*
X20787Y10547D01*
X20880Y10565D01*
X20958Y10617D01*
X21010Y10695D01*
X21028Y10787D01*
X21010Y10880D01*
X20958Y10958D01*
X20880Y11010D01*
X20787Y11028D01*
D02*
G37*
G36*
X33583Y11422D02*
X33491Y11404D01*
X33412Y11351D01*
X33360Y11273D01*
X33342Y11181D01*
X33360Y11089D01*
X33412Y11011D01*
X33491Y10959D01*
X33583Y10940D01*
X33675Y10959D01*
X33753Y11011D01*
X33805Y11089D01*
X33824Y11181D01*
X33805Y11273D01*
X33753Y11351D01*
X33675Y11404D01*
X33583Y11422D01*
D02*
G37*
G36*
X25295Y11068D02*
X25203Y11049D01*
X25125Y10997D01*
X25108Y10972D01*
X25089D01*
X25072Y10997D01*
X24994Y11049D01*
X24902Y11068D01*
X24809Y11049D01*
X24731Y10997D01*
X24679Y10919D01*
X24661Y10827D01*
X24679Y10735D01*
X24731Y10656D01*
X24809Y10604D01*
X24902Y10586D01*
X24994Y10604D01*
X25072Y10656D01*
X25089Y10681D01*
X25108D01*
X25125Y10656D01*
X25203Y10604D01*
X25295Y10586D01*
X25387Y10604D01*
X25466Y10656D01*
X25518Y10735D01*
X25536Y10827D01*
X25518Y10919D01*
X25466Y10997D01*
X25387Y11049D01*
X25295Y11068D01*
D02*
G37*
G36*
X30118Y12170D02*
X29985Y12152D01*
X29860Y12101D01*
X29753Y12019D01*
X29671Y11912D01*
X29619Y11787D01*
X29602Y11654D01*
Y11260D01*
X29619Y11126D01*
X29671Y11002D01*
X29753Y10895D01*
X29860Y10813D01*
X29985Y10761D01*
X30118Y10744D01*
X30252Y10761D01*
X30376Y10813D01*
X30483Y10895D01*
X30565Y11002D01*
X30617Y11126D01*
X30634Y11260D01*
Y11654D01*
X30617Y11787D01*
X30565Y11912D01*
X30483Y12019D01*
X30376Y12101D01*
X30252Y12152D01*
X30118Y12170D01*
D02*
G37*
G36*
X32087D02*
X31953Y12152D01*
X31828Y12101D01*
X31722Y12019D01*
X31640Y11912D01*
X31588Y11787D01*
X31570Y11654D01*
Y11260D01*
X31588Y11126D01*
X31640Y11002D01*
X31722Y10895D01*
X31828Y10813D01*
X31953Y10761D01*
X32087Y10744D01*
X32220Y10761D01*
X32345Y10813D01*
X32452Y10895D01*
X32534Y11002D01*
X32585Y11126D01*
X32603Y11260D01*
Y11654D01*
X32585Y11787D01*
X32534Y11912D01*
X32452Y12019D01*
X32345Y12101D01*
X32220Y12152D01*
X32087Y12170D01*
D02*
G37*
G36*
X17126Y10989D02*
X17034Y10971D01*
X16956Y10918D01*
X16919Y10864D01*
X16900D01*
X16863Y10918D01*
X16785Y10971D01*
X16693Y10989D01*
X16601Y10971D01*
X16523Y10918D01*
X16470Y10840D01*
X16455Y10765D01*
X16433Y10749D01*
X16417Y10753D01*
X16325Y10734D01*
X16247Y10682D01*
X16195Y10604D01*
X16176Y10512D01*
X16195Y10420D01*
X16242Y10348D01*
X16245Y10335D01*
X16242Y10321D01*
X16195Y10250D01*
X16176Y10157D01*
X16195Y10065D01*
X16247Y9987D01*
X16325Y9935D01*
X16417Y9917D01*
X16509Y9935D01*
X16588Y9987D01*
X16640Y10065D01*
X16658Y10157D01*
X16640Y10250D01*
X16592Y10321D01*
X16589Y10335D01*
X16592Y10348D01*
X16640Y10420D01*
X16655Y10495D01*
X16677Y10510D01*
X16693Y10507D01*
X16785Y10526D01*
X16863Y10578D01*
X16900Y10632D01*
X16919D01*
X16956Y10578D01*
X17034Y10526D01*
X17126Y10507D01*
X17218Y10526D01*
X17296Y10578D01*
X17349Y10656D01*
X17367Y10748D01*
X17349Y10840D01*
X17296Y10918D01*
X17218Y10971D01*
X17126Y10989D01*
D02*
G37*
G36*
X33937Y11776D02*
X33845Y11758D01*
X33767Y11706D01*
X33714Y11628D01*
X33696Y11535D01*
X33714Y11443D01*
X33767Y11365D01*
X33845Y11313D01*
X33937Y11295D01*
X33971Y11301D01*
X33985Y11287D01*
X33972Y11220D01*
X33990Y11128D01*
X34030Y11069D01*
X34018Y11052D01*
X33937Y11068D01*
X33845Y11049D01*
X33767Y10997D01*
X33714Y10919D01*
X33696Y10827D01*
X33714Y10735D01*
X33767Y10656D01*
X33845Y10604D01*
X33937Y10586D01*
X34029Y10604D01*
X34107Y10656D01*
X34160Y10735D01*
X34178Y10827D01*
X34160Y10919D01*
X34120Y10978D01*
X34132Y10996D01*
X34213Y10980D01*
X34305Y10998D01*
X34383Y11050D01*
X34435Y11128D01*
X34453Y11220D01*
X34435Y11313D01*
X34383Y11391D01*
X34305Y11443D01*
X34213Y11461D01*
X34178Y11455D01*
X34165Y11468D01*
X34178Y11535D01*
X34160Y11628D01*
X34107Y11706D01*
X34029Y11758D01*
X33937Y11776D01*
D02*
G37*
G36*
X24409Y12150D02*
X24317Y12132D01*
X24239Y12080D01*
X24187Y12002D01*
X24169Y11909D01*
X24187Y11817D01*
X24239Y11739D01*
X24317Y11687D01*
X24409Y11669D01*
X24502Y11687D01*
X24580Y11739D01*
X24632Y11817D01*
X24650Y11909D01*
X24632Y12002D01*
X24580Y12080D01*
X24502Y12132D01*
X24409Y12150D01*
D02*
G37*
G36*
X26772Y12286D02*
X26700Y12276D01*
X26633Y12249D01*
X26575Y12204D01*
X26531Y12147D01*
X26503Y12080D01*
X26494Y12008D01*
X26503Y11936D01*
X26531Y11869D01*
X26575Y11811D01*
X26633Y11767D01*
X26700Y11739D01*
X26772Y11730D01*
X26844Y11739D01*
X26911Y11767D01*
X26968Y11811D01*
X27012Y11869D01*
X27040Y11936D01*
X27050Y12008D01*
X27040Y12080D01*
X27012Y12147D01*
X26968Y12204D01*
X26911Y12249D01*
X26844Y12276D01*
X26772Y12286D01*
D02*
G37*
G36*
X827Y12918D02*
X735Y12900D01*
X656Y12847D01*
X604Y12769D01*
X586Y12677D01*
X604Y12585D01*
X656Y12507D01*
X735Y12455D01*
X827Y12436D01*
X919Y12455D01*
X997Y12507D01*
X1049Y12585D01*
X1068Y12677D01*
X1049Y12769D01*
X997Y12847D01*
X919Y12900D01*
X827Y12918D01*
D02*
G37*
G36*
X34724Y11894D02*
X34632Y11876D01*
X34554Y11824D01*
X34502Y11746D01*
X34484Y11654D01*
X34502Y11561D01*
X34554Y11483D01*
X34632Y11431D01*
X34724Y11413D01*
X34817Y11431D01*
X34895Y11483D01*
X34947Y11561D01*
X34965Y11654D01*
X34947Y11746D01*
X34895Y11824D01*
X34817Y11876D01*
X34724Y11894D01*
D02*
G37*
G36*
X19685Y11914D02*
X19593Y11896D01*
X19515Y11844D01*
X19463Y11765D01*
X19444Y11673D01*
X19463Y11581D01*
X19515Y11503D01*
X19593Y11451D01*
X19685Y11432D01*
X19777Y11451D01*
X19855Y11503D01*
X19908Y11581D01*
X19926Y11673D01*
X19908Y11765D01*
X19855Y11844D01*
X19777Y11896D01*
X19685Y11914D01*
D02*
G37*
G36*
X22539Y12052D02*
X22447Y12034D01*
X22369Y11981D01*
X22317Y11903D01*
X22299Y11811D01*
X22317Y11719D01*
X22369Y11641D01*
X22447Y11589D01*
X22539Y11570D01*
X22632Y11589D01*
X22710Y11641D01*
X22762Y11719D01*
X22780Y11811D01*
X22762Y11903D01*
X22710Y11981D01*
X22632Y12034D01*
X22539Y12052D01*
D02*
G37*
G36*
X9941Y11086D02*
X9833Y11072D01*
X9732Y11030D01*
X9646Y10964D01*
X9580Y10878D01*
X9538Y10777D01*
X9524Y10669D01*
Y10276D01*
X9538Y10168D01*
X9580Y10067D01*
X9646Y9981D01*
X9732Y9915D01*
X9833Y9873D01*
X9941Y9859D01*
X10049Y9873D01*
X10149Y9915D01*
X10236Y9981D01*
X10302Y10067D01*
X10344Y10168D01*
X10358Y10276D01*
Y10669D01*
X10344Y10777D01*
X10302Y10878D01*
X10236Y10964D01*
X10149Y11030D01*
X10049Y11072D01*
X9941Y11086D01*
D02*
G37*
G36*
X10925D02*
X10817Y11072D01*
X10717Y11030D01*
X10630Y10964D01*
X10564Y10878D01*
X10522Y10777D01*
X10508Y10669D01*
Y10276D01*
X10522Y10168D01*
X10564Y10067D01*
X10630Y9981D01*
X10717Y9915D01*
X10817Y9873D01*
X10925Y9859D01*
X11033Y9873D01*
X11134Y9915D01*
X11220Y9981D01*
X11286Y10067D01*
X11328Y10168D01*
X11342Y10276D01*
Y10669D01*
X11328Y10777D01*
X11286Y10878D01*
X11220Y10964D01*
X11134Y11030D01*
X11033Y11072D01*
X10925Y11086D01*
D02*
G37*
G36*
X11909D02*
X11802Y11072D01*
X11701Y11030D01*
X11615Y10964D01*
X11548Y10878D01*
X11507Y10777D01*
X11493Y10669D01*
Y10276D01*
X11507Y10168D01*
X11548Y10067D01*
X11615Y9981D01*
X11701Y9915D01*
X11802Y9873D01*
X11909Y9859D01*
X12017Y9873D01*
X12118Y9915D01*
X12204Y9981D01*
X12271Y10067D01*
X12312Y10168D01*
X12326Y10276D01*
Y10669D01*
X12312Y10777D01*
X12271Y10878D01*
X12204Y10964D01*
X12118Y11030D01*
X12017Y11072D01*
X11909Y11086D01*
D02*
G37*
G36*
X25945Y9963D02*
X25873Y9954D01*
X25806Y9926D01*
X25748Y9882D01*
X25704Y9824D01*
X25676Y9757D01*
X25667Y9685D01*
X25676Y9613D01*
X25704Y9546D01*
X25748Y9488D01*
X25806Y9444D01*
X25873Y9417D01*
X25945Y9407D01*
X26017Y9417D01*
X26084Y9444D01*
X26141Y9488D01*
X26186Y9546D01*
X26213Y9613D01*
X26223Y9685D01*
X26213Y9757D01*
X26186Y9824D01*
X26141Y9882D01*
X26084Y9926D01*
X26017Y9954D01*
X25945Y9963D01*
D02*
G37*
G36*
X14528Y10123D02*
X14435Y10104D01*
X14357Y10052D01*
X14305Y9974D01*
X14287Y9882D01*
X14305Y9790D01*
X14357Y9712D01*
X14435Y9659D01*
X14528Y9641D01*
X14620Y9659D01*
X14698Y9712D01*
X14750Y9790D01*
X14768Y9882D01*
X14750Y9974D01*
X14698Y10052D01*
X14620Y10104D01*
X14528Y10123D01*
D02*
G37*
G36*
X8957Y11086D02*
X8849Y11072D01*
X8748Y11030D01*
X8662Y10964D01*
X8596Y10878D01*
X8554Y10777D01*
X8540Y10669D01*
Y10276D01*
X8554Y10168D01*
X8596Y10067D01*
X8662Y9981D01*
X8748Y9915D01*
X8849Y9873D01*
X8957Y9859D01*
X9065Y9873D01*
X9165Y9915D01*
X9252Y9981D01*
X9318Y10067D01*
X9359Y10168D01*
X9374Y10276D01*
Y10669D01*
X9359Y10777D01*
X9318Y10878D01*
X9252Y10964D01*
X9165Y11030D01*
X9065Y11072D01*
X8957Y11086D01*
D02*
G37*
G36*
X12894D02*
X12786Y11072D01*
X12685Y11030D01*
X12599Y10964D01*
X12533Y10878D01*
X12491Y10777D01*
X12477Y10669D01*
Y10276D01*
X12491Y10168D01*
X12533Y10067D01*
X12599Y9981D01*
X12685Y9915D01*
X12786Y9873D01*
X12894Y9859D01*
X13002Y9873D01*
X13102Y9915D01*
X13189Y9981D01*
X13255Y10067D01*
X13296Y10168D01*
X13311Y10276D01*
Y10669D01*
X13296Y10777D01*
X13255Y10878D01*
X13189Y10964D01*
X13102Y11030D01*
X13002Y11072D01*
X12894Y11086D01*
D02*
G37*
G36*
X21654Y10516D02*
X21561Y10498D01*
X21483Y10446D01*
X21431Y10368D01*
X21413Y10276D01*
X21431Y10183D01*
X21483Y10105D01*
X21561Y10053D01*
X21654Y10035D01*
X21746Y10053D01*
X21824Y10105D01*
X21876Y10183D01*
X21894Y10276D01*
X21876Y10368D01*
X21824Y10446D01*
X21746Y10498D01*
X21654Y10516D01*
D02*
G37*
G36*
X35000Y11186D02*
X34908Y11167D01*
X34830Y11115D01*
X34777Y11037D01*
X34759Y10945D01*
X34777Y10853D01*
X34830Y10775D01*
X34908Y10722D01*
X35000Y10704D01*
X35092Y10722D01*
X35170Y10775D01*
X35223Y10853D01*
X35241Y10945D01*
X35223Y11037D01*
X35170Y11115D01*
X35092Y11167D01*
X35000Y11186D01*
D02*
G37*
G36*
X28150Y12170D02*
X28016Y12152D01*
X27891Y12101D01*
X27785Y12019D01*
X27703Y11912D01*
X27651Y11787D01*
X27633Y11654D01*
Y11260D01*
X27651Y11126D01*
X27703Y11002D01*
X27785Y10895D01*
X27891Y10813D01*
X28016Y10761D01*
X28150Y10744D01*
X28283Y10761D01*
X28408Y10813D01*
X28515Y10895D01*
X28597Y11002D01*
X28648Y11126D01*
X28666Y11260D01*
Y11654D01*
X28648Y11787D01*
X28597Y11912D01*
X28515Y12019D01*
X28408Y12101D01*
X28283Y12152D01*
X28150Y12170D01*
D02*
G37*
G36*
X13878Y11086D02*
X13770Y11072D01*
X13669Y11030D01*
X13583Y10964D01*
X13517Y10878D01*
X13475Y10777D01*
X13461Y10669D01*
Y10276D01*
X13475Y10168D01*
X13517Y10067D01*
X13583Y9981D01*
X13669Y9915D01*
X13770Y9873D01*
X13878Y9859D01*
X13986Y9873D01*
X14086Y9915D01*
X14173Y9981D01*
X14239Y10067D01*
X14281Y10168D01*
X14295Y10276D01*
Y10669D01*
X14281Y10777D01*
X14239Y10878D01*
X14173Y10964D01*
X14086Y11030D01*
X13986Y11072D01*
X13878Y11086D01*
D02*
G37*
G36*
X6988Y11086D02*
X6891Y11073D01*
X6800Y11035D01*
X6721Y10975D01*
X6661Y10897D01*
X6624Y10806D01*
X6611Y10709D01*
Y10236D01*
X6624Y10139D01*
X6661Y10048D01*
X6721Y9969D01*
X6800Y9910D01*
X6891Y9872D01*
X6988Y9859D01*
X7086Y9872D01*
X7177Y9910D01*
X7255Y9969D01*
X7315Y10048D01*
X7353Y10139D01*
X7365Y10236D01*
Y10709D01*
X7353Y10806D01*
X7315Y10897D01*
X7255Y10975D01*
X7177Y11035D01*
X7086Y11073D01*
X6988Y11086D01*
D02*
G37*
G36*
X7972D02*
X7875Y11073D01*
X7784Y11035D01*
X7706Y10975D01*
X7646Y10897D01*
X7608Y10806D01*
X7595Y10709D01*
Y10236D01*
X7608Y10139D01*
X7646Y10048D01*
X7706Y9969D01*
X7784Y9910D01*
X7875Y9872D01*
X7972Y9859D01*
X8070Y9872D01*
X8161Y9910D01*
X8239Y9969D01*
X8299Y10048D01*
X8337Y10139D01*
X8350Y10236D01*
Y10709D01*
X8337Y10806D01*
X8299Y10897D01*
X8239Y10975D01*
X8161Y11035D01*
X8070Y11073D01*
X7972Y11086D01*
D02*
G37*
G36*
X19921Y8036D02*
X19829Y8018D01*
X19751Y7966D01*
X19699Y7887D01*
X19680Y7795D01*
X19699Y7703D01*
X19751Y7625D01*
X19829Y7573D01*
X19921Y7554D01*
X20013Y7573D01*
X20083Y7619D01*
X20105Y7586D01*
X20183Y7533D01*
X20276Y7515D01*
X20368Y7533D01*
X20446Y7586D01*
X20498Y7664D01*
X20516Y7756D01*
X20498Y7848D01*
X20446Y7926D01*
X20368Y7978D01*
X20276Y7997D01*
X20183Y7978D01*
X20114Y7932D01*
X20092Y7966D01*
X20013Y8018D01*
X19921Y8036D01*
D02*
G37*
G36*
X32677Y5871D02*
X32585Y5852D01*
X32507Y5800D01*
X32455Y5722D01*
X32436Y5630D01*
X32455Y5538D01*
X32507Y5460D01*
X32585Y5407D01*
X32677Y5389D01*
X32769Y5407D01*
X32847Y5460D01*
X32900Y5538D01*
X32918Y5630D01*
X32900Y5722D01*
X32847Y5800D01*
X32769Y5852D01*
X32677Y5871D01*
D02*
G37*
G36*
X1575Y5969D02*
X1483Y5951D01*
X1405Y5899D01*
X1352Y5821D01*
X1334Y5728D01*
X1352Y5636D01*
X1405Y5558D01*
X1483Y5506D01*
X1575Y5487D01*
X1667Y5506D01*
X1745Y5558D01*
X1797Y5636D01*
X1816Y5728D01*
X1797Y5821D01*
X1745Y5899D01*
X1667Y5951D01*
X1575Y5969D01*
D02*
G37*
G36*
X46978Y12484D02*
X43238Y12484D01*
X43161Y12469D01*
X43096Y12425D01*
X43053Y12360D01*
X43037Y12283D01*
X43037Y5827D01*
X43053Y5750D01*
X43096Y5685D01*
X43161Y5641D01*
X43238Y5626D01*
X46978Y5626D01*
X47055Y5641D01*
X47120Y5685D01*
X47164Y5750D01*
X47179Y5827D01*
X47179Y12283D01*
X47164Y12360D01*
X47120Y12425D01*
X47055Y12469D01*
X46978Y12484D01*
D02*
G37*
G36*
X28937Y5753D02*
X28845Y5734D01*
X28767Y5682D01*
X28714Y5604D01*
X28696Y5512D01*
X28714Y5420D01*
X28767Y5342D01*
X28845Y5289D01*
X28937Y5271D01*
X29029Y5289D01*
X29107Y5342D01*
X29160Y5420D01*
X29178Y5512D01*
X29160Y5604D01*
X29107Y5682D01*
X29029Y5734D01*
X28937Y5753D01*
D02*
G37*
G36*
X4724Y6343D02*
X4331D01*
X4197Y6325D01*
X4073Y6274D01*
X3966Y6192D01*
X3884Y6085D01*
X3832Y5960D01*
X3814Y5827D01*
X3832Y5693D01*
X3884Y5569D01*
X3966Y5462D01*
X4073Y5380D01*
X4197Y5328D01*
X4331Y5311D01*
X4724D01*
X4858Y5328D01*
X4983Y5380D01*
X5089Y5462D01*
X5171Y5569D01*
X5223Y5693D01*
X5241Y5827D01*
X5223Y5960D01*
X5171Y6085D01*
X5089Y6192D01*
X4983Y6274D01*
X4858Y6325D01*
X4724Y6343D01*
D02*
G37*
G36*
X16535D02*
X16142D01*
X16008Y6325D01*
X15884Y6274D01*
X15777Y6192D01*
X15695Y6085D01*
X15643Y5960D01*
X15626Y5827D01*
X15643Y5693D01*
X15695Y5569D01*
X15777Y5462D01*
X15884Y5380D01*
X16008Y5328D01*
X16142Y5311D01*
X16535D01*
X16669Y5328D01*
X16794Y5380D01*
X16900Y5462D01*
X16983Y5569D01*
X17034Y5693D01*
X17052Y5827D01*
X17034Y5960D01*
X16983Y6085D01*
X16900Y6192D01*
X16794Y6274D01*
X16669Y6325D01*
X16535Y6343D01*
D02*
G37*
G36*
X18622Y6137D02*
X18530Y6118D01*
X18452Y6066D01*
X18400Y5988D01*
X18381Y5896D01*
X18400Y5803D01*
X18452Y5725D01*
X18530Y5673D01*
X18622Y5655D01*
X18714Y5673D01*
X18792Y5725D01*
X18845Y5803D01*
X18863Y5896D01*
X18845Y5988D01*
X18792Y6066D01*
X18714Y6118D01*
X18622Y6137D01*
D02*
G37*
G36*
X33150Y6264D02*
X33057Y6246D01*
X32979Y6194D01*
X32927Y6116D01*
X32909Y6024D01*
X32927Y5931D01*
X32979Y5853D01*
X33057Y5801D01*
X33150Y5783D01*
X33242Y5801D01*
X33320Y5853D01*
X33372Y5931D01*
X33390Y6024D01*
X33372Y6116D01*
X33320Y6194D01*
X33242Y6246D01*
X33150Y6264D01*
D02*
G37*
G36*
X49213Y7843D02*
X49084Y7826D01*
X48964Y7776D01*
X48862Y7697D01*
X48783Y7595D01*
X48733Y7475D01*
X48716Y7346D01*
X48733Y7218D01*
X48783Y7098D01*
X48862Y6995D01*
X48964Y6917D01*
X49084Y6867D01*
X49133Y6861D01*
X49132Y6841D01*
X48839D01*
X48793Y6832D01*
X48753Y6806D01*
X48727Y6767D01*
X48718Y6720D01*
Y5972D01*
X48727Y5926D01*
X48753Y5887D01*
X48793Y5861D01*
X48839Y5852D01*
X49587D01*
X49633Y5861D01*
X49672Y5887D01*
X49698Y5926D01*
X49707Y5972D01*
Y6720D01*
X49698Y6767D01*
X49672Y6806D01*
X49633Y6832D01*
X49587Y6841D01*
X49294D01*
X49292Y6861D01*
X49341Y6867D01*
X49461Y6917D01*
X49564Y6995D01*
X49642Y7098D01*
X49692Y7218D01*
X49709Y7346D01*
X49692Y7475D01*
X49642Y7595D01*
X49564Y7697D01*
X49461Y7776D01*
X49341Y7826D01*
X49213Y7843D01*
D02*
G37*
G36*
X36811Y6579D02*
X36719Y6561D01*
X36641Y6509D01*
X36589Y6431D01*
X36570Y6339D01*
X36589Y6246D01*
X36641Y6168D01*
X36719Y6116D01*
X36811Y6098D01*
X36903Y6116D01*
X36981Y6168D01*
X37034Y6246D01*
X37052Y6339D01*
X37034Y6431D01*
X36981Y6509D01*
X36903Y6561D01*
X36811Y6579D01*
D02*
G37*
G36*
X27677Y6146D02*
X27585Y6128D01*
X27507Y6076D01*
X27455Y5998D01*
X27436Y5906D01*
X27455Y5813D01*
X27507Y5735D01*
X27585Y5683D01*
X27677Y5665D01*
X27769Y5683D01*
X27847Y5735D01*
X27900Y5813D01*
X27918Y5906D01*
X27900Y5998D01*
X27847Y6076D01*
X27769Y6128D01*
X27677Y6146D01*
D02*
G37*
G36*
X29409D02*
X29317Y6128D01*
X29239Y6076D01*
X29187Y5998D01*
X29169Y5906D01*
X29187Y5813D01*
X29239Y5735D01*
X29317Y5683D01*
X29409Y5665D01*
X29502Y5683D01*
X29580Y5735D01*
X29632Y5813D01*
X29650Y5906D01*
X29632Y5998D01*
X29580Y6076D01*
X29502Y6128D01*
X29409Y6146D01*
D02*
G37*
G36*
X32205Y6264D02*
X32113Y6246D01*
X32034Y6194D01*
X31982Y6116D01*
X31964Y6024D01*
X31982Y5931D01*
X32034Y5853D01*
X32113Y5801D01*
X32205Y5783D01*
X32297Y5801D01*
X32375Y5853D01*
X32427Y5931D01*
X32446Y6024D01*
X32427Y6116D01*
X32375Y6194D01*
X32297Y6246D01*
X32205Y6264D01*
D02*
G37*
G36*
X29803Y5123D02*
X29711Y5104D01*
X29633Y5052D01*
X29581Y4974D01*
X29562Y4882D01*
X29581Y4790D01*
X29633Y4712D01*
X29711Y4659D01*
X29803Y4641D01*
X29895Y4659D01*
X29973Y4712D01*
X30026Y4790D01*
X30044Y4882D01*
X30026Y4974D01*
X29973Y5052D01*
X29895Y5104D01*
X29803Y5123D01*
D02*
G37*
G36*
X7648Y5270D02*
X7555Y5252D01*
X7477Y5200D01*
X7425Y5122D01*
X7407Y5030D01*
X7425Y4937D01*
X7477Y4859D01*
X7555Y4807D01*
X7648Y4789D01*
X7740Y4807D01*
X7818Y4859D01*
X7870Y4937D01*
X7888Y5030D01*
X7870Y5122D01*
X7818Y5200D01*
X7740Y5252D01*
X7648Y5270D01*
D02*
G37*
G36*
X12008Y5320D02*
X11916Y5301D01*
X11838Y5249D01*
X11785Y5171D01*
X11767Y5079D01*
X11785Y4987D01*
X11838Y4908D01*
X11916Y4856D01*
X12008Y4838D01*
X12100Y4856D01*
X12178Y4908D01*
X12230Y4987D01*
X12249Y5079D01*
X12230Y5171D01*
X12178Y5249D01*
X12100Y5301D01*
X12008Y5320D01*
D02*
G37*
G36*
X31496Y5044D02*
X31404Y5026D01*
X31326Y4973D01*
X31274Y4895D01*
X31255Y4803D01*
X31274Y4711D01*
X31326Y4633D01*
X31404Y4581D01*
X31496Y4562D01*
X31588Y4581D01*
X31666Y4633D01*
X31719Y4711D01*
X31737Y4803D01*
X31719Y4895D01*
X31666Y4973D01*
X31588Y5026D01*
X31496Y5044D01*
D02*
G37*
G36*
X32362D02*
X32270Y5026D01*
X32192Y4973D01*
X32140Y4895D01*
X32121Y4803D01*
X32140Y4711D01*
X32192Y4633D01*
X32270Y4581D01*
X32362Y4562D01*
X32454Y4581D01*
X32533Y4633D01*
X32585Y4711D01*
X32603Y4803D01*
X32585Y4895D01*
X32533Y4973D01*
X32454Y5026D01*
X32362Y5044D01*
D02*
G37*
G36*
X9813Y5054D02*
X9721Y5036D01*
X9643Y4983D01*
X9590Y4905D01*
X9572Y4813D01*
X9590Y4721D01*
X9643Y4643D01*
X9721Y4590D01*
X9813Y4572D01*
X9905Y4590D01*
X9983Y4643D01*
X10036Y4721D01*
X10054Y4813D01*
X10036Y4905D01*
X9983Y4983D01*
X9905Y5036D01*
X9813Y5054D01*
D02*
G37*
G36*
X14646Y5398D02*
X14554Y5380D01*
X14475Y5328D01*
X14423Y5250D01*
X14405Y5157D01*
X14423Y5065D01*
X14475Y4987D01*
X14554Y4935D01*
X14646Y4917D01*
X14738Y4935D01*
X14816Y4987D01*
X14868Y5065D01*
X14887Y5157D01*
X14868Y5250D01*
X14816Y5328D01*
X14738Y5380D01*
X14646Y5398D01*
D02*
G37*
G36*
X40202Y5521D02*
X40109Y5503D01*
X40031Y5451D01*
X39979Y5373D01*
X39961Y5280D01*
X39979Y5188D01*
X40031Y5110D01*
X40109Y5058D01*
X40202Y5040D01*
X40294Y5058D01*
X40372Y5110D01*
X40424Y5188D01*
X40443Y5280D01*
X40424Y5373D01*
X40372Y5451D01*
X40294Y5503D01*
X40202Y5521D01*
D02*
G37*
G36*
X20541Y5536D02*
X20449Y5518D01*
X20371Y5466D01*
X20319Y5387D01*
X20300Y5295D01*
X20319Y5203D01*
X20371Y5125D01*
X20449Y5073D01*
X20541Y5054D01*
X20634Y5073D01*
X20712Y5125D01*
X20764Y5203D01*
X20782Y5295D01*
X20764Y5387D01*
X20712Y5466D01*
X20634Y5518D01*
X20541Y5536D01*
D02*
G37*
G36*
X17402Y5674D02*
X17309Y5656D01*
X17231Y5603D01*
X17179Y5525D01*
X17161Y5433D01*
X17179Y5341D01*
X17231Y5263D01*
X17309Y5211D01*
X17402Y5192D01*
X17494Y5211D01*
X17572Y5263D01*
X17624Y5341D01*
X17642Y5433D01*
X17624Y5525D01*
X17572Y5603D01*
X17494Y5656D01*
X17402Y5674D01*
D02*
G37*
G36*
X38632Y5487D02*
X38539Y5468D01*
X38461Y5416D01*
X38409Y5338D01*
X38391Y5246D01*
X38409Y5154D01*
X38461Y5076D01*
X38539Y5023D01*
X38632Y5005D01*
X38724Y5023D01*
X38802Y5076D01*
X38854Y5154D01*
X38872Y5246D01*
X38854Y5338D01*
X38802Y5416D01*
X38724Y5468D01*
X38632Y5487D01*
D02*
G37*
G36*
X42470Y5526D02*
X42378Y5508D01*
X42300Y5456D01*
X42248Y5378D01*
X42230Y5285D01*
X42248Y5193D01*
X42300Y5115D01*
X42378Y5063D01*
X42470Y5045D01*
X42563Y5063D01*
X42620Y5101D01*
X42637Y5076D01*
X42715Y5024D01*
X42807Y5005D01*
X42899Y5024D01*
X42978Y5076D01*
X43030Y5154D01*
X43048Y5246D01*
X43030Y5338D01*
X42978Y5417D01*
X42899Y5469D01*
X42807Y5487D01*
X42715Y5469D01*
X42658Y5430D01*
X42641Y5456D01*
X42563Y5508D01*
X42470Y5526D01*
D02*
G37*
G36*
X39412Y5519D02*
X39319Y5500D01*
X39241Y5448D01*
X39189Y5370D01*
X39171Y5278D01*
X39189Y5186D01*
X39241Y5107D01*
X39319Y5055D01*
X39412Y5037D01*
X39504Y5055D01*
X39582Y5107D01*
X39634Y5186D01*
X39653Y5278D01*
X39634Y5370D01*
X39582Y5448D01*
X39504Y5500D01*
X39412Y5519D01*
D02*
G37*
G36*
X8957Y8133D02*
X8849Y8119D01*
X8748Y8078D01*
X8662Y8011D01*
X8596Y7925D01*
X8554Y7824D01*
X8540Y7717D01*
Y7323D01*
X8554Y7215D01*
X8596Y7114D01*
X8662Y7028D01*
X8748Y6962D01*
X8849Y6920D01*
X8957Y6906D01*
X9065Y6920D01*
X9165Y6962D01*
X9252Y7028D01*
X9318Y7114D01*
X9359Y7215D01*
X9374Y7323D01*
Y7717D01*
X9359Y7824D01*
X9318Y7925D01*
X9252Y8011D01*
X9165Y8078D01*
X9065Y8119D01*
X8957Y8133D01*
D02*
G37*
G36*
X9941D02*
X9833Y8119D01*
X9732Y8078D01*
X9646Y8011D01*
X9580Y7925D01*
X9538Y7824D01*
X9524Y7717D01*
Y7323D01*
X9538Y7215D01*
X9580Y7114D01*
X9646Y7028D01*
X9732Y6962D01*
X9833Y6920D01*
X9941Y6906D01*
X10049Y6920D01*
X10149Y6962D01*
X10236Y7028D01*
X10302Y7114D01*
X10344Y7215D01*
X10358Y7323D01*
Y7717D01*
X10344Y7824D01*
X10302Y7925D01*
X10236Y8011D01*
X10149Y8078D01*
X10049Y8119D01*
X9941Y8133D01*
D02*
G37*
G36*
X10925D02*
X10817Y8119D01*
X10717Y8078D01*
X10630Y8011D01*
X10564Y7925D01*
X10522Y7824D01*
X10508Y7717D01*
Y7323D01*
X10522Y7215D01*
X10564Y7114D01*
X10630Y7028D01*
X10717Y6962D01*
X10817Y6920D01*
X10925Y6906D01*
X11033Y6920D01*
X11134Y6962D01*
X11220Y7028D01*
X11286Y7114D01*
X11328Y7215D01*
X11342Y7323D01*
Y7717D01*
X11328Y7824D01*
X11286Y7925D01*
X11220Y8011D01*
X11134Y8078D01*
X11033Y8119D01*
X10925Y8133D01*
D02*
G37*
G36*
X30118Y8233D02*
X29985Y8215D01*
X29860Y8164D01*
X29753Y8082D01*
X29671Y7975D01*
X29619Y7850D01*
X29602Y7717D01*
Y7323D01*
X29619Y7189D01*
X29671Y7065D01*
X29753Y6958D01*
X29860Y6876D01*
X29985Y6824D01*
X30118Y6807D01*
X30252Y6824D01*
X30376Y6876D01*
X30483Y6958D01*
X30565Y7065D01*
X30617Y7189D01*
X30634Y7323D01*
Y7717D01*
X30617Y7850D01*
X30565Y7975D01*
X30483Y8082D01*
X30376Y8164D01*
X30252Y8215D01*
X30118Y8233D01*
D02*
G37*
G36*
X32087D02*
X31953Y8215D01*
X31828Y8164D01*
X31722Y8082D01*
X31640Y7975D01*
X31588Y7850D01*
X31570Y7717D01*
Y7323D01*
X31588Y7189D01*
X31640Y7065D01*
X31722Y6958D01*
X31828Y6876D01*
X31953Y6824D01*
X32087Y6807D01*
X32220Y6824D01*
X32345Y6876D01*
X32452Y6958D01*
X32534Y7065D01*
X32585Y7189D01*
X32603Y7323D01*
Y7717D01*
X32585Y7850D01*
X32534Y7975D01*
X32452Y8082D01*
X32345Y8164D01*
X32220Y8215D01*
X32087Y8233D01*
D02*
G37*
G36*
X26476Y7327D02*
X26384Y7309D01*
X26306Y7257D01*
X26254Y7179D01*
X26236Y7087D01*
X26254Y6994D01*
X26306Y6916D01*
X26384Y6864D01*
X26476Y6846D01*
X26569Y6864D01*
X26647Y6916D01*
X26699Y6994D01*
X26717Y7087D01*
X26699Y7179D01*
X26647Y7257D01*
X26569Y7309D01*
X26476Y7327D01*
D02*
G37*
G36*
X11909Y8133D02*
X11802Y8119D01*
X11701Y8078D01*
X11615Y8011D01*
X11548Y7925D01*
X11507Y7824D01*
X11493Y7717D01*
Y7323D01*
X11507Y7215D01*
X11548Y7114D01*
X11615Y7028D01*
X11701Y6962D01*
X11802Y6920D01*
X11909Y6906D01*
X12017Y6920D01*
X12118Y6962D01*
X12204Y7028D01*
X12271Y7114D01*
X12312Y7215D01*
X12326Y7323D01*
Y7717D01*
X12312Y7824D01*
X12271Y7925D01*
X12204Y8011D01*
X12118Y8078D01*
X12017Y8119D01*
X11909Y8133D01*
D02*
G37*
G36*
X7972Y8133D02*
X7875Y8120D01*
X7784Y8083D01*
X7706Y8023D01*
X7646Y7945D01*
X7608Y7854D01*
X7595Y7756D01*
Y7283D01*
X7608Y7186D01*
X7646Y7095D01*
X7706Y7017D01*
X7784Y6957D01*
X7875Y6919D01*
X7972Y6906D01*
X8070Y6919D01*
X8161Y6957D01*
X8239Y7017D01*
X8299Y7095D01*
X8337Y7186D01*
X8350Y7283D01*
Y7756D01*
X8337Y7854D01*
X8299Y7945D01*
X8239Y8023D01*
X8161Y8083D01*
X8070Y8120D01*
X7972Y8133D01*
D02*
G37*
G36*
X20551Y7446D02*
X20459Y7427D01*
X20381Y7375D01*
X20329Y7297D01*
X20310Y7205D01*
X20329Y7113D01*
X20381Y7034D01*
X20459Y6982D01*
X20551Y6964D01*
X20643Y6982D01*
X20721Y7034D01*
X20774Y7113D01*
X20792Y7205D01*
X20774Y7297D01*
X20721Y7375D01*
X20643Y7427D01*
X20551Y7446D01*
D02*
G37*
G36*
X1102Y7406D02*
X1010Y7388D01*
X945Y7344D01*
X880Y7388D01*
X787Y7406D01*
X695Y7388D01*
X617Y7336D01*
X565Y7258D01*
X547Y7165D01*
X565Y7073D01*
X609Y7008D01*
X565Y6943D01*
X547Y6850D01*
X565Y6758D01*
X617Y6680D01*
X695Y6628D01*
X787Y6610D01*
X880Y6628D01*
X945Y6672D01*
X1010Y6628D01*
X1102Y6610D01*
X1195Y6628D01*
X1273Y6680D01*
X1325Y6758D01*
X1343Y6850D01*
X1325Y6943D01*
X1281Y7008D01*
X1325Y7073D01*
X1343Y7165D01*
X1325Y7258D01*
X1273Y7336D01*
X1195Y7388D01*
X1102Y7406D01*
D02*
G37*
G36*
X12894Y8133D02*
X12786Y8119D01*
X12685Y8078D01*
X12599Y8011D01*
X12533Y7925D01*
X12491Y7824D01*
X12477Y7717D01*
Y7323D01*
X12491Y7215D01*
X12533Y7114D01*
X12599Y7028D01*
X12685Y6962D01*
X12786Y6920D01*
X12894Y6906D01*
X13002Y6920D01*
X13102Y6962D01*
X13189Y7028D01*
X13255Y7114D01*
X13296Y7215D01*
X13311Y7323D01*
Y7717D01*
X13296Y7824D01*
X13255Y7925D01*
X13189Y8011D01*
X13102Y8078D01*
X13002Y8119D01*
X12894Y8133D01*
D02*
G37*
G36*
X13878D02*
X13770Y8119D01*
X13669Y8078D01*
X13583Y8011D01*
X13517Y7925D01*
X13475Y7824D01*
X13461Y7717D01*
Y7323D01*
X13475Y7215D01*
X13517Y7114D01*
X13583Y7028D01*
X13669Y6962D01*
X13770Y6920D01*
X13878Y6906D01*
X13986Y6920D01*
X14086Y6962D01*
X14173Y7028D01*
X14239Y7114D01*
X14281Y7215D01*
X14295Y7323D01*
Y7717D01*
X14281Y7824D01*
X14239Y7925D01*
X14173Y8011D01*
X14086Y8078D01*
X13986Y8119D01*
X13878Y8133D01*
D02*
G37*
G36*
X6988Y8133D02*
X6891Y8120D01*
X6800Y8083D01*
X6721Y8023D01*
X6661Y7945D01*
X6624Y7854D01*
X6611Y7756D01*
Y7283D01*
X6624Y7186D01*
X6661Y7095D01*
X6721Y7017D01*
X6800Y6957D01*
X6891Y6919D01*
X6988Y6906D01*
X7086Y6919D01*
X7177Y6957D01*
X7255Y7017D01*
X7315Y7095D01*
X7353Y7186D01*
X7365Y7283D01*
Y7756D01*
X7353Y7854D01*
X7315Y7945D01*
X7255Y8023D01*
X7177Y8083D01*
X7086Y8120D01*
X6988Y8133D01*
D02*
G37*
G36*
X20236Y6757D02*
X20144Y6738D01*
X20066Y6686D01*
X20014Y6608D01*
X19995Y6516D01*
X20014Y6424D01*
X20066Y6345D01*
X20144Y6293D01*
X20236Y6275D01*
X20328Y6293D01*
X20407Y6345D01*
X20459Y6424D01*
X20477Y6516D01*
X20459Y6608D01*
X20407Y6686D01*
X20328Y6738D01*
X20236Y6757D01*
D02*
G37*
G36*
X23159Y7170D02*
X23067Y7152D01*
X22989Y7099D01*
X22937Y7021D01*
X22919Y6929D01*
X22937Y6837D01*
X22989Y6759D01*
X22997Y6754D01*
Y6734D01*
X22940Y6696D01*
X22888Y6618D01*
X22869Y6526D01*
X22888Y6433D01*
X22940Y6355D01*
X23018Y6303D01*
X23110Y6285D01*
X23202Y6303D01*
X23281Y6355D01*
X23333Y6433D01*
X23351Y6526D01*
X23333Y6618D01*
X23281Y6696D01*
X23273Y6701D01*
Y6721D01*
X23330Y6759D01*
X23382Y6837D01*
X23400Y6929D01*
X23382Y7021D01*
X23330Y7099D01*
X23252Y7152D01*
X23159Y7170D01*
D02*
G37*
G36*
X25906Y6776D02*
X25813Y6758D01*
X25735Y6706D01*
X25683Y6628D01*
X25665Y6535D01*
X25683Y6443D01*
X25735Y6365D01*
X25813Y6313D01*
X25906Y6295D01*
X25998Y6313D01*
X26076Y6365D01*
X26128Y6443D01*
X26146Y6535D01*
X26128Y6628D01*
X26076Y6706D01*
X25998Y6758D01*
X25906Y6776D01*
D02*
G37*
G36*
X15512Y6698D02*
X15420Y6679D01*
X15342Y6627D01*
X15289Y6549D01*
X15271Y6457D01*
X15289Y6365D01*
X15342Y6286D01*
X15420Y6234D01*
X15512Y6216D01*
X15604Y6234D01*
X15682Y6286D01*
X15734Y6365D01*
X15753Y6457D01*
X15734Y6549D01*
X15682Y6627D01*
X15604Y6679D01*
X15512Y6698D01*
D02*
G37*
G36*
X7677Y6737D02*
X7585Y6719D01*
X7507Y6666D01*
X7455Y6588D01*
X7436Y6496D01*
X7455Y6404D01*
X7507Y6326D01*
X7585Y6274D01*
X7677Y6255D01*
X7769Y6274D01*
X7847Y6326D01*
X7900Y6404D01*
X7918Y6496D01*
X7900Y6588D01*
X7847Y6666D01*
X7769Y6719D01*
X7677Y6737D01*
D02*
G37*
G36*
X8858Y6737D02*
X8766Y6719D01*
X8688Y6666D01*
X8636Y6588D01*
X8617Y6496D01*
X8636Y6404D01*
X8688Y6326D01*
X8766Y6274D01*
X8858Y6255D01*
X8950Y6274D01*
X9029Y6326D01*
X9081Y6404D01*
X9099Y6496D01*
X9081Y6588D01*
X9029Y6666D01*
X8950Y6719D01*
X8858Y6737D01*
D02*
G37*
G36*
X13543Y6816D02*
X13451Y6797D01*
X13373Y6745D01*
X13321Y6667D01*
X13302Y6575D01*
X13321Y6483D01*
X13373Y6405D01*
X13451Y6352D01*
X13543Y6334D01*
X13635Y6352D01*
X13714Y6405D01*
X13766Y6483D01*
X13784Y6575D01*
X13766Y6667D01*
X13714Y6745D01*
X13635Y6797D01*
X13543Y6816D01*
D02*
G37*
G36*
X11929Y6855D02*
X11837Y6837D01*
X11759Y6784D01*
X11707Y6706D01*
X11688Y6614D01*
X11707Y6522D01*
X11759Y6444D01*
X11837Y6392D01*
X11929Y6373D01*
X12021Y6392D01*
X12099Y6444D01*
X12152Y6522D01*
X12170Y6614D01*
X12152Y6706D01*
X12099Y6784D01*
X12021Y6837D01*
X11929Y6855D01*
D02*
G37*
G36*
X24016Y7249D02*
X23924Y7230D01*
X23845Y7178D01*
X23793Y7100D01*
X23775Y7008D01*
X23793Y6916D01*
X23845Y6838D01*
X23924Y6785D01*
X24016Y6767D01*
X24108Y6785D01*
X24186Y6838D01*
X24238Y6916D01*
X24257Y7008D01*
X24238Y7100D01*
X24186Y7178D01*
X24108Y7230D01*
X24016Y7249D01*
D02*
G37*
G36*
X24862Y7288D02*
X24770Y7270D01*
X24692Y7218D01*
X24640Y7139D01*
X24621Y7047D01*
X24640Y6955D01*
X24692Y6877D01*
X24770Y6825D01*
X24862Y6806D01*
X24954Y6825D01*
X25033Y6877D01*
X25085Y6955D01*
X25103Y7047D01*
X25085Y7139D01*
X25033Y7218D01*
X24954Y7270D01*
X24862Y7288D01*
D02*
G37*
G36*
X14252Y6816D02*
X14160Y6797D01*
X14082Y6745D01*
X14029Y6667D01*
X14011Y6575D01*
X14029Y6483D01*
X14082Y6405D01*
X14160Y6352D01*
X14252Y6334D01*
X14344Y6352D01*
X14422Y6405D01*
X14474Y6483D01*
X14493Y6575D01*
X14474Y6667D01*
X14422Y6745D01*
X14344Y6797D01*
X14252Y6816D01*
D02*
G37*
G36*
X30709D02*
X30616Y6797D01*
X30538Y6745D01*
X30486Y6667D01*
X30468Y6575D01*
X30486Y6483D01*
X30538Y6405D01*
X30616Y6352D01*
X30709Y6334D01*
X30801Y6352D01*
X30879Y6405D01*
X30931Y6483D01*
X30950Y6575D01*
X30931Y6667D01*
X30879Y6745D01*
X30801Y6797D01*
X30709Y6816D01*
D02*
G37*
G36*
X10906Y6855D02*
X10813Y6837D01*
X10735Y6784D01*
X10683Y6706D01*
X10665Y6614D01*
X10683Y6522D01*
X10735Y6444D01*
X10813Y6392D01*
X10906Y6373D01*
X10998Y6392D01*
X11076Y6444D01*
X11128Y6522D01*
X11146Y6614D01*
X11128Y6706D01*
X11076Y6784D01*
X10998Y6837D01*
X10906Y6855D01*
D02*
G37*
%LPD*%
D29*
X18799Y8356D02*
X18809Y8366D01*
X18799Y8376D02*
X18809Y8366D01*
X18775Y8376D02*
X18799D01*
D38*
X31035Y2083D02*
D03*
X33677Y1083D02*
D03*
X26378Y1181D02*
D03*
X49213Y8346D02*
D03*
Y4248D02*
D03*
D44*
X22343Y10827D02*
D03*
X24409D02*
D03*
X46260Y1850D02*
D03*
X48268Y1220D02*
D03*
X49094Y4882D02*
D03*
X48268Y1850D02*
D03*
X47874D02*
D03*
X44173Y157D02*
D03*
X11417Y276D02*
D03*
X11772Y1378D02*
D03*
X10984Y276D02*
D03*
X11378Y1339D02*
D03*
X11811Y276D02*
D03*
X10984Y1339D02*
D03*
X47638Y5217D02*
D03*
X40709Y4764D02*
D03*
X40945Y1319D02*
D03*
X40935Y492D02*
D03*
X24882Y7874D02*
D03*
X36850Y5866D02*
D03*
X40591Y12874D02*
D03*
X20571Y8858D02*
D03*
X19783D02*
D03*
X21654Y8898D02*
D03*
X20177Y9252D02*
D03*
X22411Y7018D02*
D03*
X22746D02*
D03*
X22992Y7283D02*
D03*
X25276Y7520D02*
D03*
X24882D02*
D03*
X25276Y7874D02*
D03*
X23031Y8110D02*
D03*
X19783Y9646D02*
D03*
X20571D02*
D03*
X41732Y433D02*
D03*
X41339D02*
D03*
X40945Y925D02*
D03*
X48661Y4055D02*
D03*
Y4449D02*
D03*
Y4843D02*
D03*
X49528Y4882D02*
D03*
X37402Y5236D02*
D03*
X38386Y4803D02*
D03*
X37402Y5551D02*
D03*
X37992Y5236D02*
D03*
X37717D02*
D03*
X40039Y4606D02*
D03*
Y4262D02*
D03*
X40305Y4774D02*
D03*
X36969Y11496D02*
D03*
X36575D02*
D03*
X44291Y4921D02*
D03*
X47717Y4843D02*
D03*
X48032Y5217D02*
D03*
X18775Y8376D02*
D03*
X43937Y4921D02*
D03*
X44724Y4567D02*
D03*
X3622Y8937D02*
D03*
Y8543D02*
D03*
X4035Y9055D02*
D03*
X4429Y8760D02*
D03*
X1378Y8031D02*
D03*
Y8740D02*
D03*
Y8386D02*
D03*
X984Y8543D02*
D03*
X3228Y5827D02*
D03*
X4528Y10591D02*
D03*
X48268Y1535D02*
D03*
X46654Y1850D02*
D03*
X10827Y11496D02*
D03*
X9449D02*
D03*
X21654D02*
D03*
X43406Y2559D02*
D03*
X43799D02*
D03*
X43406Y2264D02*
D03*
X43799D02*
D03*
X44193D02*
D03*
Y2559D02*
D03*
X32992Y2835D02*
D03*
X35591Y1811D02*
D03*
D49*
X25945Y9055D02*
D03*
X2598Y12205D02*
D03*
X19911Y6969D02*
D03*
X19892Y7362D02*
D03*
X17726Y10718D02*
D03*
X17707Y11152D02*
D03*
X18189Y10709D02*
D03*
Y11142D02*
D03*
X17707Y7874D02*
D03*
Y8543D02*
D03*
X3346Y11693D02*
D03*
M02*
