G04 Layer_Physical_Order=1*
G04 Layer_Color=255*
%FSLAX24Y24*%
%MOIN*%
G70*
G01*
G75*
%ADD10R,0.0354X0.0394*%
%ADD11R,0.0394X0.0394*%
%ADD12R,0.1260X0.0630*%
%ADD13R,0.0394X0.0354*%
%ADD14R,0.0283X0.0701*%
%ADD15R,0.0276X0.0157*%
%ADD16R,0.0315X0.0335*%
%ADD17R,0.0335X0.0315*%
%ADD18R,0.0315X0.0394*%
%ADD19R,0.0394X0.0315*%
%ADD20R,0.0630X0.0472*%
%ADD21R,0.0472X0.0630*%
%ADD22O,0.0098X0.0276*%
%ADD23O,0.0276X0.0098*%
%ADD24R,0.1299X0.1299*%
%ADD25R,0.0450X0.1000*%
%ADD26R,0.1000X0.0550*%
%ADD27R,0.0394X0.0394*%
%ADD28R,0.0098X0.0236*%
%ADD29C,0.0197*%
%ADD30C,0.0157*%
%ADD31C,0.0098*%
%ADD32C,0.0118*%
%ADD33C,0.0236*%
%ADD34C,0.0315*%
%ADD35C,0.0394*%
%ADD36C,0.0472*%
%ADD37R,0.0571X0.0354*%
%ADD38O,0.1181X0.0984*%
%ADD39R,0.1102X0.0984*%
%ADD40R,0.0748X0.0748*%
%ADD41C,0.0748*%
%ADD42R,0.0748X0.0748*%
%ADD43O,0.0669X0.0984*%
%ADD44O,0.0709X0.0984*%
%ADD45C,0.0236*%
%ADD46O,0.1181X0.0787*%
%ADD47O,0.0512X0.0984*%
%ADD48O,0.0591X0.0984*%
%ADD49O,0.2165X0.0866*%
%ADD50C,0.0315*%
%ADD51C,0.0394*%
G36*
X38071Y5433D02*
X38150Y5354D01*
X38150Y5197D01*
X38031Y5079D01*
X37323D01*
X37165Y5236D01*
X37165Y6496D01*
X38071D01*
Y5433D01*
D02*
G37*
G36*
X24043Y7453D02*
X24094Y7402D01*
X24646D01*
X24754Y7244D01*
X25039D01*
X25039Y6829D01*
X24685D01*
X24464Y6762D01*
X23691Y6762D01*
X23317Y7136D01*
X23317Y7403D01*
X23337Y7419D01*
X23452D01*
Y7224D01*
X23462Y7178D01*
X23488Y7139D01*
X23527Y7113D01*
X23573Y7104D01*
X23671D01*
X23717Y7113D01*
X23756Y7139D01*
X23783Y7178D01*
X23792Y7224D01*
Y7419D01*
X23907D01*
X23954Y7428D01*
X23993Y7454D01*
X24043Y7453D01*
D02*
G37*
G36*
X21565Y8661D02*
X21769Y8457D01*
Y8425D01*
X21772Y8414D01*
X21772Y8228D01*
X21811Y8189D01*
X22165D01*
Y7795D01*
X21378D01*
X21339Y7835D01*
Y8434D01*
X21351Y8442D01*
X21388Y8498D01*
X21392Y8518D01*
X21457Y8583D01*
Y8626D01*
X21492Y8661D01*
X21565Y8661D01*
D02*
G37*
G36*
X49606Y5039D02*
X49685Y4961D01*
X49685Y3976D01*
X49567Y3858D01*
X48583Y3858D01*
X48504Y3937D01*
X48504Y4961D01*
X48583Y5039D01*
X49606Y5039D01*
D02*
G37*
G36*
X48425Y1142D02*
X48309Y1026D01*
X48257D01*
X48257Y1026D01*
X48211Y1017D01*
X48172Y991D01*
X48172Y991D01*
X48126Y945D01*
X46863Y945D01*
X46817Y991D01*
X46817Y991D01*
X46811Y995D01*
X46811Y2008D01*
X48425Y2008D01*
X48425Y1142D01*
D02*
G37*
G36*
X46055Y1732D02*
X46090Y1680D01*
X46168Y1628D01*
X46181Y1625D01*
X46181Y906D01*
X46732D01*
X46870Y768D01*
X48119D01*
X48257Y906D01*
X49094Y906D01*
Y4D01*
X44488D01*
X44488Y276D01*
X44370Y394D01*
X44196D01*
X44173Y398D01*
X44150Y394D01*
X43033D01*
X43025Y407D01*
X42947Y459D01*
X42913Y465D01*
X42913Y1406D01*
X43082Y1575D01*
X43228D01*
X43504Y1378D01*
X44488D01*
Y1529D01*
X44501Y1548D01*
X44510Y1594D01*
Y1732D01*
X46055Y1732D01*
D02*
G37*
G36*
X44406Y2681D02*
Y1788D01*
X44399Y1778D01*
X44390Y1732D01*
Y1606D01*
X44387Y1595D01*
X44384Y1585D01*
X44377Y1575D01*
X44377Y1575D01*
X43436Y1575D01*
X43399Y1601D01*
X43163Y1837D01*
Y2651D01*
X43268Y2756D01*
X44331Y2756D01*
X44406Y2681D01*
D02*
G37*
G36*
X18465Y11299D02*
Y10571D01*
X18622Y10413D01*
Y9961D01*
X17638D01*
X17628Y9965D01*
Y10364D01*
X17520Y10472D01*
Y11260D01*
X17638Y11378D01*
X18386D01*
X18465Y11299D01*
D02*
G37*
G36*
X17362Y10827D02*
X17362Y10000D01*
X16260D01*
X16220Y10039D01*
X16220Y10591D01*
X16575Y10945D01*
X17244D01*
X17362Y10827D01*
D02*
G37*
G36*
X38189Y12913D02*
Y11575D01*
X37244Y11575D01*
X37244Y12874D01*
X37358Y12988D01*
X38114D01*
X38189Y12913D01*
D02*
G37*
G36*
X4567Y8917D02*
Y8563D01*
X4232D01*
Y7972D01*
X4213Y7953D01*
X3228D01*
X3150Y8031D01*
X3150Y8760D01*
X3602Y9213D01*
X3630D01*
X3642Y9210D01*
X4035D01*
X4047Y9213D01*
X4272D01*
X4567Y8917D01*
D02*
G37*
G36*
X24331Y9370D02*
Y8346D01*
X24449Y8228D01*
X25315Y8228D01*
X25472Y8071D01*
X25472Y7441D01*
X25394Y7362D01*
X25051Y7362D01*
X25039Y7365D01*
X24817D01*
X24745Y7470D01*
X24737Y7478D01*
X24731Y7487D01*
X24720Y7494D01*
X24711Y7503D01*
X24701Y7507D01*
X24692Y7513D01*
X24679Y7515D01*
X24668Y7520D01*
X24657Y7520D01*
X24646Y7522D01*
X24565D01*
X24547Y7539D01*
X24127D01*
X24109Y7551D01*
X24090Y7564D01*
X24089Y7564D01*
X24089Y7565D01*
X24067Y7569D01*
X24044Y7574D01*
X23994Y7575D01*
X23982Y7572D01*
X23969D01*
X23959Y7568D01*
X23948Y7566D01*
X23938Y7559D01*
X23935Y7558D01*
X23914Y7572D01*
X23868Y7581D01*
X23770D01*
X23724Y7572D01*
X23720Y7570D01*
X23717Y7572D01*
X23671Y7581D01*
X23573D01*
X23527Y7572D01*
X23524Y7570D01*
X23520Y7572D01*
X23474Y7581D01*
X23376D01*
X23330Y7572D01*
X23291Y7546D01*
X23273Y7519D01*
X23260Y7512D01*
X23241Y7496D01*
X23237Y7491D01*
X23232Y7488D01*
X23222Y7473D01*
X23211Y7460D01*
X23209Y7454D01*
X23206Y7449D01*
X23202Y7432D01*
X23197Y7415D01*
X23198Y7409D01*
X23197Y7403D01*
Y7399D01*
X23150Y7352D01*
Y7168D01*
X23067Y7152D01*
X22989Y7099D01*
X22937Y7021D01*
X22919Y6929D01*
X22937Y6837D01*
X22951Y6816D01*
X22928Y6772D01*
X22402D01*
X22244Y6929D01*
X22244Y7283D01*
X22362Y7402D01*
X22362Y8268D01*
X22520Y8425D01*
Y9409D01*
X22913D01*
X22992Y9331D01*
X22992Y8268D01*
X23031Y8228D01*
X23255D01*
Y8091D01*
X23256Y8086D01*
Y7972D01*
X23265Y7926D01*
X23291Y7887D01*
X23330Y7861D01*
X23376Y7852D01*
X23474D01*
X23520Y7861D01*
X23524Y7863D01*
X23527Y7861D01*
X23573Y7852D01*
X23671D01*
X23717Y7861D01*
X23756Y7887D01*
X23783Y7926D01*
X23792Y7972D01*
Y8209D01*
X23808Y8228D01*
X23819D01*
X23819Y9370D01*
X23898Y9449D01*
X24213D01*
X24331Y9370D01*
D02*
G37*
G36*
X1535Y8819D02*
Y7913D01*
X1496Y7874D01*
X1260D01*
X1220Y7913D01*
Y7953D01*
X1181Y7992D01*
X787D01*
Y8622D01*
X1061Y8896D01*
X1063Y8895D01*
X1457D01*
X1459Y8896D01*
X1535Y8819D01*
D02*
G37*
G36*
X1496Y9409D02*
Y9055D01*
X1457Y9016D01*
X1457Y9016D01*
X1063D01*
X1061Y9016D01*
X1059Y9016D01*
X984D01*
X669Y8701D01*
Y8634D01*
X667Y8622D01*
X667Y8622D01*
Y8386D01*
Y7992D01*
X669Y7980D01*
Y7756D01*
X1248D01*
X1260Y7754D01*
X1260Y7754D01*
X1496D01*
X1496Y7754D01*
X1508Y7756D01*
X1890D01*
X2126Y7992D01*
X2126Y8740D01*
X2165Y8780D01*
X2441Y8780D01*
X2520Y8701D01*
X2520Y7402D01*
X2165Y7047D01*
X1496D01*
X1417Y6969D01*
X1417Y6772D01*
X1339Y6693D01*
X709Y6693D01*
X201Y7201D01*
Y9295D01*
X354Y9449D01*
X1457D01*
X1496Y9409D01*
D02*
G37*
D10*
X46870Y4213D02*
D03*
X47539D02*
D03*
X22106Y10236D02*
D03*
X22776D02*
D03*
X20728Y11614D02*
D03*
X21398D02*
D03*
X41201Y4606D02*
D03*
X41870D02*
D03*
X41201Y3465D02*
D03*
X41870D02*
D03*
X26004Y2126D02*
D03*
X25335D02*
D03*
X46791Y4803D02*
D03*
X46122D02*
D03*
X4390Y11693D02*
D03*
X3720D02*
D03*
X3701Y12303D02*
D03*
X4370D02*
D03*
X22539Y6378D02*
D03*
X21870D02*
D03*
D11*
X18425Y9488D02*
D03*
Y10118D02*
D03*
X22126Y11614D02*
D03*
Y10984D02*
D03*
X44193Y1791D02*
D03*
Y1161D02*
D03*
X984Y8189D02*
D03*
Y7559D02*
D03*
X43602Y1791D02*
D03*
Y1161D02*
D03*
X24449Y7835D02*
D03*
Y7205D02*
D03*
X4528Y10157D02*
D03*
Y9528D02*
D03*
X1260Y9843D02*
D03*
Y9213D02*
D03*
X17835Y10157D02*
D03*
Y9528D02*
D03*
D12*
X45472Y1378D02*
D03*
X47441D02*
D03*
D13*
X591Y9902D02*
D03*
Y9232D02*
D03*
X1969Y9508D02*
D03*
Y10177D02*
D03*
X20079Y11673D02*
D03*
Y11004D02*
D03*
X47480Y6476D02*
D03*
Y7146D02*
D03*
X48228Y6476D02*
D03*
Y7146D02*
D03*
X3839Y10177D02*
D03*
Y9508D02*
D03*
X49213Y1535D02*
D03*
Y2205D02*
D03*
D14*
X2809Y6559D02*
D03*
X2309D02*
D03*
X1809D02*
D03*
X3309D02*
D03*
X2309Y8402D02*
D03*
X1809D02*
D03*
X3309D02*
D03*
X2809D02*
D03*
D15*
X42933Y4170D02*
D03*
Y4570D02*
D03*
X42421Y4370D02*
D03*
X45069Y4944D02*
D03*
Y4544D02*
D03*
X45581Y4744D02*
D03*
X4193Y10745D02*
D03*
Y11145D02*
D03*
X3681Y10945D02*
D03*
D16*
X4035Y7234D02*
D03*
Y8120D02*
D03*
X3248Y10285D02*
D03*
Y9400D02*
D03*
X2559Y9400D02*
D03*
Y10285D02*
D03*
D17*
X1919Y5728D02*
D03*
X2805D02*
D03*
D18*
X21919Y7402D02*
D03*
X22569D02*
D03*
X41211Y4055D02*
D03*
X41860D02*
D03*
X46348Y4016D02*
D03*
X45699D02*
D03*
D19*
X48189Y8435D02*
D03*
Y7785D02*
D03*
X47480Y8435D02*
D03*
Y7785D02*
D03*
D20*
X17047Y9509D02*
D03*
Y10254D02*
D03*
D21*
X49585Y591D02*
D03*
X48840D02*
D03*
D22*
X19488Y10217D02*
D03*
X19685D02*
D03*
X19882D02*
D03*
X20079D02*
D03*
X20276D02*
D03*
X20472D02*
D03*
X20669D02*
D03*
X20866D02*
D03*
Y8287D02*
D03*
X20669D02*
D03*
X20472D02*
D03*
X20276D02*
D03*
X20079D02*
D03*
X19882D02*
D03*
X19685D02*
D03*
X19488D02*
D03*
D23*
X21142Y9941D02*
D03*
Y9744D02*
D03*
Y9547D02*
D03*
Y9350D02*
D03*
Y9154D02*
D03*
Y8957D02*
D03*
Y8760D02*
D03*
Y8563D02*
D03*
X19213D02*
D03*
Y8760D02*
D03*
Y8957D02*
D03*
Y9154D02*
D03*
Y9350D02*
D03*
Y9547D02*
D03*
Y9744D02*
D03*
Y9941D02*
D03*
D24*
X20177Y9252D02*
D03*
D25*
X43352Y5945D02*
D03*
X42572D02*
D03*
X41772D02*
D03*
X40992D02*
D03*
X40202D02*
D03*
X39412Y5935D02*
D03*
X38632D02*
D03*
X37842D02*
D03*
X37852Y12085D02*
D03*
X38642D02*
D03*
X39422D02*
D03*
X43352D02*
D03*
X42572D02*
D03*
X41782D02*
D03*
X41002D02*
D03*
X40202D02*
D03*
D26*
X37032Y7045D02*
D03*
Y7845D02*
D03*
Y8625D02*
D03*
Y9425D02*
D03*
Y10205D02*
D03*
Y10985D02*
D03*
D27*
X22717Y8622D02*
D03*
X22087D02*
D03*
X22717Y9213D02*
D03*
X22087D02*
D03*
X22598Y7992D02*
D03*
X21969D02*
D03*
X26772Y2126D02*
D03*
X27402D02*
D03*
X24055Y9213D02*
D03*
X23425D02*
D03*
X24055Y8622D02*
D03*
X23425D02*
D03*
X20748Y11024D02*
D03*
X21378D02*
D03*
D28*
X23425Y7343D02*
D03*
X23622D02*
D03*
X23819D02*
D03*
Y8091D02*
D03*
X23622D02*
D03*
X23425D02*
D03*
D29*
X47530Y3829D02*
Y4419D01*
X47480Y7146D02*
Y7785D01*
X48189D02*
X48228Y7746D01*
Y7146D02*
Y7746D01*
X47480Y8435D02*
X48189D01*
X47480D02*
Y9016D01*
X2992Y9144D02*
X3248Y9400D01*
X2992Y8996D02*
Y9144D01*
X2809Y8813D02*
X2992Y8996D01*
X4528Y10158D02*
Y10591D01*
X4528Y10157D02*
X4528Y10158D01*
X1378Y9843D02*
X1713Y9508D01*
X1260Y9843D02*
X1378D01*
X1260Y9843D02*
Y9843D01*
X1713Y9508D02*
X1969D01*
X1575Y5728D02*
X1919D01*
X2809Y8402D02*
Y8813D01*
X3248Y9400D02*
X3376Y9528D01*
X1969Y9508D02*
X2451D01*
X2559Y9400D01*
X1969Y9055D02*
Y9508D01*
X1809Y8896D02*
X1969Y9055D01*
X1809Y8402D02*
Y8896D01*
X49124Y8435D02*
X49213Y8346D01*
X19685Y11673D02*
X20079D01*
X20079Y11673D01*
X29035Y2083D02*
Y2657D01*
X31890Y1378D02*
Y2362D01*
X32185Y1083D02*
X32677D01*
X31890Y1378D02*
X32185Y1083D01*
X25335Y2028D02*
Y2126D01*
Y2028D02*
X25354Y2008D01*
X26772Y1575D02*
Y2126D01*
X26378Y1181D02*
X26772Y1575D01*
X26378Y984D02*
Y1181D01*
X27402Y1188D02*
Y2126D01*
Y1188D02*
X27416Y1174D01*
X29035Y2657D02*
X29154Y2776D01*
X31476D01*
X31890Y2362D01*
X46791Y4803D02*
X47146D01*
X47530Y4419D01*
X47402Y3701D02*
X47530Y3829D01*
X25354Y1181D02*
Y2008D01*
Y2126D01*
X3376Y9528D02*
X4528D01*
D30*
X44606Y1437D02*
Y3189D01*
X41142Y3465D02*
X41220Y3386D01*
X39409Y12097D02*
X39422Y12085D01*
X39409Y12097D02*
Y12874D01*
X1535Y10315D02*
X1673Y10177D01*
X787Y10315D02*
X1535D01*
X591Y10118D02*
X787Y10315D01*
X1673Y10177D02*
X1969D01*
X3720Y11437D02*
Y11693D01*
Y11437D02*
X4013Y11145D01*
X4193D01*
X591Y9902D02*
Y10118D01*
X3248Y10591D02*
X3583Y10925D01*
X3533Y10285D02*
X3642Y10177D01*
X3248Y10285D02*
X3533D01*
X3642Y10177D02*
X3839D01*
X3248Y10285D02*
X3248Y10285D01*
Y10591D01*
X3248Y10285D02*
X3248Y10285D01*
X2559Y10285D02*
X3248D01*
X2313D02*
X2559D01*
X2205Y10177D02*
X2313Y10285D01*
X1969Y10177D02*
X2205D01*
X40669Y3465D02*
Y4335D01*
Y3228D02*
Y3465D01*
X41142D01*
X23150Y12047D02*
X23425Y11772D01*
X43189Y3465D02*
Y3622D01*
X23425Y9685D02*
Y9843D01*
Y9213D02*
Y9685D01*
X22087Y9213D02*
Y9528D01*
X22244Y9685D01*
X23425D01*
X23425Y9213D02*
X23425Y9213D01*
X23425Y9843D02*
Y11772D01*
Y9843D02*
X23425Y9843D01*
X22087Y8622D02*
Y9173D01*
X23425Y8622D02*
Y9213D01*
X38622Y12165D02*
Y12874D01*
X22126Y11614D02*
Y11850D01*
X44646Y1417D02*
Y1437D01*
X21929Y12047D02*
X22126Y11850D01*
X44370Y3425D02*
X44606Y3189D01*
X43189Y3622D02*
X43425Y3858D01*
X43937D01*
X44370Y3425D01*
X40669Y4335D02*
X40941Y4606D01*
X41181D01*
X42470Y5285D02*
Y5844D01*
X42572Y5945D01*
X38622Y12165D02*
X38701Y12087D01*
D31*
X45069Y4951D02*
X45974D01*
X43976Y4252D02*
X44668Y4944D01*
X47126Y5197D02*
X47638Y5709D01*
X43858Y5197D02*
X47126D01*
X43465Y4803D02*
X43858Y5197D01*
X47047Y5394D02*
X47480Y5827D01*
X43740Y5394D02*
X47047D01*
X43346Y5000D02*
X43740Y5394D01*
X45069Y4944D02*
Y4951D01*
X45974D02*
X46122Y4803D01*
X44668Y4944D02*
X45069D01*
X43937Y4764D02*
Y4921D01*
X42402Y5000D02*
X43346D01*
X42283Y4803D02*
X43465D01*
X42047Y3465D02*
X42756Y4173D01*
X41870Y3465D02*
X42047D01*
X40945Y2362D02*
Y3041D01*
X41043Y3140D01*
X21319Y6929D02*
X21870Y6378D01*
X21319Y6929D02*
Y7500D01*
X19488Y10217D02*
Y10315D01*
X19331Y10472D02*
X19488Y10315D01*
X19203Y10472D02*
X19331D01*
X19213Y9154D02*
X20079D01*
X19685Y7992D02*
Y8287D01*
X19429Y7736D02*
X19685Y7992D01*
X19488Y8159D02*
Y8287D01*
X19124Y7795D02*
X19488Y8159D01*
X18681Y10630D02*
Y11772D01*
Y10630D02*
X18819Y10492D01*
X18927Y10748D02*
Y12018D01*
Y10748D02*
X19203Y10472D01*
X19409Y11102D02*
X19882Y10630D01*
X18819Y10079D02*
Y10492D01*
Y10079D02*
X18957Y9941D01*
X18465Y9094D02*
X18858D01*
X18228Y8858D02*
X18465Y9094D01*
X18760Y8760D02*
X18986D01*
X18986Y8760D02*
X19213D01*
X18858Y9409D02*
X18917Y9350D01*
X18858Y9094D02*
X18996Y8957D01*
X18775Y8376D02*
X18962Y8563D01*
X21555Y8346D02*
X21614D01*
X21555D02*
Y8602D01*
X21398Y8760D02*
X21555Y8602D01*
X21142Y7677D02*
Y8563D01*
Y7677D02*
X21319Y7500D01*
X21142Y8760D02*
X21398D01*
X22047Y9252D02*
X22087Y9213D01*
X21654Y9252D02*
X22047D01*
X21555Y9154D02*
X21654Y9252D01*
X21142Y9154D02*
X21555D01*
X23425Y8091D02*
Y8622D01*
X20079Y10217D02*
Y11004D01*
X21791Y9744D02*
X22106Y10059D01*
X18962Y8563D02*
X19213D01*
X18986Y8760D02*
X18986Y8760D01*
X18996Y8957D02*
X19213D01*
X18917Y9350D02*
X19213D01*
X23425Y8622D02*
X23425Y8622D01*
X19685Y10217D02*
Y10472D01*
X20866Y7913D02*
Y8287D01*
X19921Y7795D02*
Y7953D01*
X20079Y8110D01*
Y8287D01*
X20276Y7756D02*
Y8287D01*
X20551Y7205D02*
Y7946D01*
X20669Y8065D01*
Y8287D01*
X20728Y11043D02*
Y11614D01*
X22106Y10059D02*
Y10236D01*
X21142Y9744D02*
X21791D01*
X20079Y11004D02*
Y11024D01*
X20079Y11024D02*
X20079Y11024D01*
X19882Y10217D02*
Y10630D01*
X18957Y9941D02*
X19213D01*
X40992Y5426D02*
Y5945D01*
Y5426D02*
X41102Y5315D01*
X40202Y5280D02*
Y5945D01*
X39412Y5278D02*
Y5935D01*
X38632Y5246D02*
Y5935D01*
X22106Y10236D02*
X22126Y10256D01*
Y10984D01*
X20276Y9350D02*
X21142D01*
X20177Y9252D02*
X20276Y9350D01*
X20079Y9154D02*
X20177Y9252D01*
X48228Y6063D02*
Y6476D01*
X41102Y5315D02*
X41417D01*
X41693Y5039D01*
X42933Y4570D02*
X43743D01*
X43937Y4764D01*
X41860Y4055D02*
X42205D01*
X42421Y4272D02*
Y4370D01*
X42205Y4055D02*
X42421Y4272D01*
X41772Y5630D02*
Y5945D01*
Y5630D02*
X42402Y5000D01*
X41693Y5039D02*
X42047D01*
X42283Y4803D01*
X47874Y5709D02*
X48228Y6063D01*
X47638Y5709D02*
X47874D01*
X19154Y11004D02*
X19685Y10472D01*
X19154Y11004D02*
Y12461D01*
X19409Y11102D02*
Y12283D01*
X827Y12677D02*
X18268D01*
X18927Y12018D01*
X41870Y3465D02*
Y3465D01*
X41545Y3140D02*
X41870Y3465D01*
X41043Y3140D02*
X41545D01*
X47480Y5827D02*
Y6476D01*
X23819Y7795D02*
Y8091D01*
Y8110D01*
X38701Y118D02*
X40945Y2362D01*
X20728Y11043D02*
X20768Y11004D01*
X42756Y4173D02*
X42953D01*
D32*
X46348Y4016D02*
X46545Y4213D01*
X46870D01*
X33602Y12362D02*
X35010Y10955D01*
X35472Y9331D02*
Y11467D01*
X34301Y12638D02*
X35472Y11467D01*
X4311Y11693D02*
X4390D01*
X3701Y12303D02*
X4311Y11693D01*
X18150Y12303D02*
X18681Y11772D01*
X4370Y12303D02*
X18150D01*
X43465Y4252D02*
X43976D01*
X42746Y3533D02*
X43465Y4252D01*
X40620Y118D02*
X42008D01*
X40236Y502D02*
X40620Y118D01*
X44724Y4567D02*
X44747Y4544D01*
X43352Y5399D02*
Y5512D01*
X43199Y5246D02*
X43352Y5399D01*
X42807Y5246D02*
X43199D01*
X19764Y12638D02*
X34301D01*
X19409Y12283D02*
X19764Y12638D01*
X34833Y12913D02*
X36024Y11722D01*
X19606Y12913D02*
X34833D01*
X19154Y12461D02*
X19606Y12913D01*
X35728Y1004D02*
Y4902D01*
X35157Y433D02*
X35728Y1004D01*
X31587Y433D02*
X35157D01*
X33677Y1984D02*
Y2083D01*
X32677Y1984D02*
Y2083D01*
X34677Y1984D02*
Y2083D01*
X31035Y984D02*
X31587Y433D01*
X29823Y394D02*
X30035Y606D01*
X28642Y394D02*
X29823D01*
X28445Y591D02*
X28642Y394D01*
X25433Y4528D02*
X26024Y3937D01*
X21811Y4528D02*
X25433D01*
X19429Y6909D02*
X21811Y4528D01*
X25630Y5000D02*
X27165Y3465D01*
X22008Y5000D02*
X25630D01*
X27165Y2657D02*
Y3465D01*
X28051Y2067D02*
Y3287D01*
X25866Y5472D02*
X28051Y3287D01*
X22126Y5472D02*
X25866D01*
X28445Y591D02*
Y3484D01*
X26102Y5827D02*
X28445Y3484D01*
X22421Y5827D02*
X26102D01*
X29213Y3425D02*
X31890D01*
X26417Y6220D02*
X29213Y3425D01*
X23809Y6220D02*
X26417D01*
X26024Y2146D02*
Y3937D01*
X23159Y6870D02*
X23809Y6220D01*
X21870Y6378D02*
X22421Y5827D01*
X20866Y6732D02*
X22126Y5472D01*
X25394Y12047D02*
X27087Y10354D01*
Y7441D02*
Y10354D01*
Y7441D02*
X28228Y6299D01*
X25236Y11614D02*
X26575Y10276D01*
Y7480D02*
Y10276D01*
Y7480D02*
X29626Y4429D01*
X24331Y11614D02*
X25236D01*
X24488Y12047D02*
X25394D01*
X23159Y6870D02*
Y6929D01*
X20551Y6457D02*
Y7205D01*
X19124Y6673D02*
Y7795D01*
X19429Y6949D02*
Y7736D01*
X18228Y6870D02*
X19596Y5502D01*
Y758D02*
Y5463D01*
Y758D02*
X19921Y433D01*
X18228Y6870D02*
Y8858D01*
X20256Y1201D02*
Y5502D01*
X19124Y6673D02*
X20256Y5541D01*
X21919Y6998D02*
X22539Y6378D01*
X21919Y6998D02*
Y7402D01*
X23898Y12047D02*
X24331Y11614D01*
X22776Y10236D02*
Y11752D01*
X22480Y12047D02*
X22776Y11752D01*
X35000Y10945D02*
X35010Y10955D01*
X35010D02*
X35010D01*
X35000Y10945D02*
X35039Y10906D01*
X20866Y6732D02*
Y7913D01*
X30035Y606D02*
Y984D01*
X36024Y9016D02*
X36043Y9035D01*
X41811Y4606D02*
X41870D01*
X41299Y4094D02*
X41811Y4606D01*
X41220Y4094D02*
X41299D01*
X35039Y5591D02*
Y10906D01*
Y5591D02*
X35728Y4902D01*
X21693Y11024D02*
X21772Y11102D01*
X21378Y11024D02*
X21693D01*
X42559Y12874D02*
X43110D01*
X43352Y12633D01*
Y12480D02*
Y12633D01*
X41929Y12874D02*
X42047D01*
X42572Y12350D01*
Y12085D02*
Y12350D01*
X41417Y12874D02*
X41782Y12510D01*
Y12085D02*
Y12510D01*
X40984Y12102D02*
Y12874D01*
Y12102D02*
X41002Y12085D01*
X40197Y12090D02*
Y12874D01*
Y12090D02*
X40202Y12085D01*
X21772Y11102D02*
Y11417D01*
X21969Y11614D01*
X22126D01*
X26004Y2126D02*
X26024Y2146D01*
X25866Y7323D02*
Y8031D01*
X21398Y11614D02*
Y11988D01*
X21772Y12362D01*
X33602D01*
X25866Y7283D02*
X29213Y3937D01*
X20551Y6457D02*
X22008Y5000D01*
X33169Y5217D02*
X35335Y3051D01*
Y1642D02*
Y3051D01*
X32815Y4429D02*
X34677Y2567D01*
Y2083D02*
Y2567D01*
X29213Y3937D02*
X32126D01*
X33677Y2386D01*
Y2083D02*
Y2386D01*
X32677Y2083D02*
Y2638D01*
X31890Y3425D02*
X32677Y2638D01*
X45581Y4596D02*
X45699Y4478D01*
X45581Y4596D02*
Y4744D01*
X40236Y502D02*
Y630D01*
X36024Y9016D02*
Y11722D01*
X44747Y4544D02*
X45069D01*
X45699Y4016D02*
Y4478D01*
X42982Y2746D02*
X43780Y3543D01*
X42638Y453D02*
X42854Y236D01*
X29665Y5217D02*
X33169D01*
X28583Y6299D02*
X29665Y5217D01*
X29626Y4429D02*
X32815D01*
X28228Y6299D02*
X28583D01*
X20256Y1201D02*
X21339Y118D01*
X38701D01*
X20079Y11004D02*
X20768D01*
X34677Y984D02*
X35335Y1642D01*
X4390Y11476D02*
Y11693D01*
X4528Y11060D02*
Y11339D01*
X4390Y11476D02*
X4528Y11339D01*
X4193Y10725D02*
X4528Y11060D01*
X42982Y1730D02*
Y2746D01*
X42638Y1386D02*
X42982Y1730D01*
X42638Y453D02*
Y1386D01*
X42008Y118D02*
X42205Y315D01*
Y1299D01*
X42746Y1841D01*
Y3533D01*
D33*
X18386Y9528D02*
X18740D01*
X18368Y9509D02*
X18386Y9528D01*
X18740D02*
X18858Y9409D01*
D34*
X17047Y9509D02*
X18368D01*
X2805Y5728D02*
Y6555D01*
X3346Y11693D02*
X3661D01*
X4528Y5827D02*
Y6398D01*
X3309Y6559D02*
X4035D01*
Y7234D01*
X2809Y6559D02*
X3309D01*
X2309D02*
X2809D01*
X1809D02*
X2309D01*
X2805Y6555D02*
X2809Y6559D01*
X4035D02*
X4366D01*
X4528Y6398D01*
X49213Y1535D02*
X49449D01*
X49585Y1399D01*
D35*
X6870Y5827D02*
X16339D01*
X4528Y7126D02*
X5571D01*
X6870Y5827D01*
X49213Y2205D02*
Y3248D01*
D36*
X49585Y591D02*
Y1399D01*
D37*
X23622Y7717D02*
D03*
D38*
X18610Y3445D02*
D03*
X16957Y1280D02*
D03*
X18610D02*
D03*
X23205D02*
D03*
X21551D02*
D03*
X23205Y3445D02*
D03*
X38689D02*
D03*
X37035Y1280D02*
D03*
X38689D02*
D03*
X3909D02*
D03*
X2256D02*
D03*
X3909Y3445D02*
D03*
D39*
X16957D02*
D03*
X21551D02*
D03*
X37035D02*
D03*
X2256D02*
D03*
D40*
X49213Y3248D02*
D03*
Y6346D02*
D03*
D41*
Y4248D02*
D03*
Y8346D02*
D03*
Y7346D02*
D03*
X25378Y1181D02*
D03*
X26378D02*
D03*
X33677Y2083D02*
D03*
X32677D02*
D03*
X33677Y1083D02*
D03*
X34677D02*
D03*
Y2083D02*
D03*
X30035D02*
D03*
X29035D02*
D03*
X30035Y1083D02*
D03*
X31035D02*
D03*
Y2083D02*
D03*
D42*
X27378Y1181D02*
D03*
X32677Y1083D02*
D03*
X29035D02*
D03*
D43*
X28150Y11457D02*
D03*
X30118D02*
D03*
X32087Y7520D02*
D03*
X30118D02*
D03*
X28150D02*
D03*
D44*
X32087Y11457D02*
D03*
D45*
X38622Y12874D02*
D03*
X40197D02*
D03*
X40984D02*
D03*
X41850D02*
D03*
X9449Y11496D02*
D03*
X10827D02*
D03*
X46654Y1850D02*
D03*
X48268Y1535D02*
D03*
X47480Y9016D02*
D03*
X4528Y10591D02*
D03*
X3228Y5827D02*
D03*
X984Y8543D02*
D03*
X1378Y8386D02*
D03*
Y8740D02*
D03*
Y8031D02*
D03*
X787Y6850D02*
D03*
X3465Y7677D02*
D03*
X4429Y8760D02*
D03*
X4035Y9055D02*
D03*
X3622Y8543D02*
D03*
Y8937D02*
D03*
X4213Y7677D02*
D03*
X3858D02*
D03*
X4606D02*
D03*
X1575Y5728D02*
D03*
X1102Y6850D02*
D03*
Y7165D02*
D03*
X787D02*
D03*
X44724Y4567D02*
D03*
X43937Y4921D02*
D03*
X15512Y6457D02*
D03*
X23159Y6929D02*
D03*
X20541Y5295D02*
D03*
X20610Y4705D02*
D03*
X19685Y11673D02*
D03*
X43189Y3465D02*
D03*
X19921Y433D02*
D03*
X21555Y8346D02*
D03*
X21496Y7953D02*
D03*
Y10315D02*
D03*
X18775Y8376D02*
D03*
X18760Y8760D02*
D03*
X16417Y10512D02*
D03*
Y10157D02*
D03*
X16693Y10748D02*
D03*
X17126D02*
D03*
X32205Y6024D02*
D03*
X32677Y5630D02*
D03*
X33150Y6024D02*
D03*
X28622Y9016D02*
D03*
X28110Y8622D02*
D03*
X27677Y9016D02*
D03*
X35000Y10945D02*
D03*
X40236Y630D02*
D03*
X34724Y11654D02*
D03*
X33583Y11181D02*
D03*
X34213Y11220D02*
D03*
X33937Y11535D02*
D03*
X24016Y7008D02*
D03*
X24862Y7047D02*
D03*
X27165Y2657D02*
D03*
X28051Y2067D02*
D03*
X20551Y7205D02*
D03*
X20276Y7756D02*
D03*
X20866Y7913D02*
D03*
X19921Y7795D02*
D03*
X23150Y12047D02*
D03*
X23898Y12047D02*
D03*
X24488D02*
D03*
X22480D02*
D03*
X36024Y9016D02*
D03*
X44646Y1102D02*
D03*
X44685Y787D02*
D03*
X43091Y738D02*
D03*
X43110Y1102D02*
D03*
X47402Y3701D02*
D03*
X47047D02*
D03*
X40315Y2835D02*
D03*
X47402Y3307D02*
D03*
X40315Y3228D02*
D03*
Y2441D02*
D03*
X47402Y2913D02*
D03*
X47047D02*
D03*
X44370Y3425D02*
D03*
X43780Y3543D02*
D03*
X40202Y5280D02*
D03*
X39412Y5278D02*
D03*
X38632Y5246D02*
D03*
X38031Y12835D02*
D03*
X47047Y3307D02*
D03*
X36811Y6339D02*
D03*
X37677Y12835D02*
D03*
X37402Y12677D02*
D03*
X35472Y9331D02*
D03*
X48032Y5217D02*
D03*
X47717Y4843D02*
D03*
X44291Y4921D02*
D03*
X36575Y11496D02*
D03*
X36969D02*
D03*
X40305Y4774D02*
D03*
X40039Y4262D02*
D03*
Y4606D02*
D03*
X37717Y5236D02*
D03*
X37992D02*
D03*
X37402Y5551D02*
D03*
X38386Y4803D02*
D03*
X37402Y5236D02*
D03*
X49528Y4882D02*
D03*
X48661Y4843D02*
D03*
Y4449D02*
D03*
Y4055D02*
D03*
X44291Y2244D02*
D03*
Y2559D02*
D03*
X43937D02*
D03*
X43583D02*
D03*
X43937Y2244D02*
D03*
X43583D02*
D03*
X40945Y925D02*
D03*
X41339Y433D02*
D03*
X41732D02*
D03*
X24685Y10748D02*
D03*
X20571Y9646D02*
D03*
X19783D02*
D03*
X23031Y8110D02*
D03*
X25276Y7874D02*
D03*
X24882Y7520D02*
D03*
X25276D02*
D03*
X22992Y7283D02*
D03*
X22746Y7018D02*
D03*
X22411D02*
D03*
X20177Y9252D02*
D03*
X21654Y8898D02*
D03*
X19783Y8858D02*
D03*
X20571D02*
D03*
X39409Y12874D02*
D03*
X40591D02*
D03*
X41417D02*
D03*
X42559D02*
D03*
X33937Y10827D02*
D03*
X36850Y5866D02*
D03*
X827Y12677D02*
D03*
X24882Y7874D02*
D03*
X25866Y8031D02*
D03*
X44646Y1437D02*
D03*
X21929Y12047D02*
D03*
X17402Y5433D02*
D03*
X20236Y6516D02*
D03*
X23110Y6526D02*
D03*
X25906Y6535D02*
D03*
X27431Y7510D02*
D03*
X28701Y6811D02*
D03*
X29409Y5906D02*
D03*
X27677D02*
D03*
X29803Y4882D02*
D03*
X19173Y4488D02*
D03*
X30709Y6575D02*
D03*
X30079Y8701D02*
D03*
X30591D02*
D03*
X31890Y8858D02*
D03*
X32480D02*
D03*
X33071Y8268D02*
D03*
X14262Y9203D02*
D03*
X8986D02*
D03*
X7520Y8622D02*
D03*
X7047D02*
D03*
X6496Y9646D02*
D03*
X8543Y8346D02*
D03*
X17707Y4459D02*
D03*
X15748Y4488D02*
D03*
X14646Y5157D02*
D03*
X13543Y6575D02*
D03*
X14252D02*
D03*
X25433Y3927D02*
D03*
X24429Y3878D02*
D03*
X22717Y2441D02*
D03*
X15630Y2835D02*
D03*
X13150Y4203D02*
D03*
X10906Y6614D02*
D03*
X11929D02*
D03*
X12008Y5079D02*
D03*
X13120Y4803D02*
D03*
X28937Y5512D02*
D03*
X31496Y4803D02*
D03*
X32362D02*
D03*
X34370Y4685D02*
D03*
X35236Y4134D02*
D03*
X36122Y1772D02*
D03*
X38720Y2313D02*
D03*
X36122Y1083D02*
D03*
X33622Y3071D02*
D03*
X34646Y3150D02*
D03*
X31969Y2835D02*
D03*
X26496Y2795D02*
D03*
X31850Y827D02*
D03*
X28012Y561D02*
D03*
X24409Y1457D02*
D03*
Y709D02*
D03*
X19921Y1339D02*
D03*
X19016Y315D02*
D03*
X17835D02*
D03*
X15157Y1969D02*
D03*
X14587Y945D02*
D03*
X14065Y8602D02*
D03*
X30531Y3140D02*
D03*
X28740Y3386D02*
D03*
X26132Y482D02*
D03*
X22313Y640D02*
D03*
X20620Y3789D02*
D03*
X24321Y2795D02*
D03*
X37598Y4528D02*
D03*
X7087Y689D02*
D03*
X13740Y551D02*
D03*
X4724Y2362D02*
D03*
X7648Y5030D02*
D03*
X11220Y3543D02*
D03*
X9813Y4813D02*
D03*
X6693Y3740D02*
D03*
X8937Y3976D02*
D03*
X11230Y2559D02*
D03*
X13189Y1772D02*
D03*
X8898Y354D02*
D03*
X8415Y1339D02*
D03*
X9429Y2756D02*
D03*
X6102Y1575D02*
D03*
X4636Y4646D02*
D03*
X1220Y4360D02*
D03*
X659Y3425D02*
D03*
X984Y394D02*
D03*
X3150D02*
D03*
X591Y2165D02*
D03*
X8858Y6496D02*
D03*
X7677Y6496D02*
D03*
X4921Y394D02*
D03*
X3150Y2362D02*
D03*
X2943Y4587D02*
D03*
X33465Y4331D02*
D03*
X36388Y4409D02*
D03*
X37894Y886D02*
D03*
X16102Y335D02*
D03*
X19892Y3002D02*
D03*
X40669Y3228D02*
D03*
X42854Y236D02*
D03*
X43268Y2244D02*
D03*
Y2559D02*
D03*
X40935Y492D02*
D03*
X40945Y1319D02*
D03*
X40669Y2441D02*
D03*
Y2835D02*
D03*
X40709Y4764D02*
D03*
X47638Y5217D02*
D03*
X42470Y5285D02*
D03*
X42807Y5246D02*
D03*
X18622Y5896D02*
D03*
X14528Y9882D02*
D03*
X10984Y1339D02*
D03*
X11811Y276D02*
D03*
X11378Y1339D02*
D03*
X10984Y276D02*
D03*
X11772Y1378D02*
D03*
X11417Y276D02*
D03*
X44685Y433D02*
D03*
X44173Y157D02*
D03*
X45079Y433D02*
D03*
Y787D02*
D03*
X43071Y1457D02*
D03*
X47480Y1850D02*
D03*
X47087D02*
D03*
X47874D02*
D03*
X48268D02*
D03*
X49094Y4882D02*
D03*
X48268Y1220D02*
D03*
X46260Y1850D02*
D03*
D46*
X4528Y5827D02*
D03*
X16339D02*
D03*
D47*
X6988Y7520D02*
D03*
X7972D02*
D03*
Y10472D02*
D03*
X6988D02*
D03*
D48*
X9941Y7520D02*
D03*
X11909D02*
D03*
X12894D02*
D03*
X13878D02*
D03*
X10925D02*
D03*
X8957D02*
D03*
Y10472D02*
D03*
X10925D02*
D03*
X13878D02*
D03*
X12894D02*
D03*
X11909D02*
D03*
X9941D02*
D03*
D49*
X13681Y2677D02*
D03*
X7185D02*
D03*
D50*
X3346Y11693D02*
D03*
X17707Y8543D02*
D03*
Y7874D02*
D03*
X26063Y9685D02*
D03*
X26732Y11732D02*
D03*
X26024Y9055D02*
D03*
X18189Y11142D02*
D03*
Y10709D02*
D03*
X17707Y11152D02*
D03*
X17726Y10718D02*
D03*
X19892Y7362D02*
D03*
X19911Y6969D02*
D03*
X2598Y12205D02*
D03*
D51*
X4528Y7126D02*
D03*
M02*
