G04 Layer_Color=32896*
%FSLAX24Y24*%
%MOIN*%
G70*
G01*
G75*
%ADD31C,0.0098*%
%ADD61C,0.0100*%
%ADD65C,0.0079*%
%ADD66C,0.0059*%
%ADD110C,0.0005*%
%ADD111C,0.0080*%
%ADD112R,0.0630X0.0217*%
%ADD113R,0.0217X0.0630*%
G36*
X31015Y4044D02*
X31018Y4043D01*
X31017Y4042D01*
X31052Y4019D01*
X31060Y4007D01*
X31061Y4006D01*
Y4048D01*
X31139D01*
Y3662D01*
X31061D01*
Y3894D01*
X31063Y3894D01*
X31063Y3896D01*
X31057Y3931D01*
X31056Y3931D01*
X31056Y3933D01*
X31043Y3953D01*
X31038Y3956D01*
X31039Y3956D01*
X31017Y3970D01*
X30986Y3976D01*
X30986Y3976D01*
X30986Y3976D01*
X30960Y3971D01*
X30960Y3971D01*
X30957Y3971D01*
X30935Y3956D01*
X30879Y4022D01*
X30879Y4023D01*
X30913Y4046D01*
X30918Y4047D01*
X30918Y4046D01*
X30960Y4054D01*
X30960Y4054D01*
X30960Y4054D01*
X30962Y4055D01*
X31015Y4044D01*
D02*
G37*
G36*
X32996Y4049D02*
X32996Y4049D01*
X33028Y4042D01*
X33031Y4041D01*
X33031Y4040D01*
X33072Y4013D01*
X33083Y3996D01*
X33024Y3949D01*
X33015Y3962D01*
X32998Y3974D01*
X32997Y3974D01*
X32977Y3978D01*
X32977Y3978D01*
X32954Y3983D01*
X32953Y3982D01*
X32953Y3981D01*
X32948Y3982D01*
X32919Y3976D01*
Y3976D01*
X32904Y3974D01*
X32895Y3967D01*
X32894Y3968D01*
X32885Y3964D01*
X32880Y3952D01*
X32880Y3952D01*
X32872Y3931D01*
X32872Y3929D01*
X32876Y3888D01*
X32980D01*
X32980Y3891D01*
X32981Y3891D01*
X33033Y3881D01*
X33033Y3881D01*
X33039Y3880D01*
X33071Y3858D01*
X33072Y3856D01*
X33072Y3856D01*
X33095Y3822D01*
X33096Y3819D01*
X33096Y3819D01*
X33104Y3775D01*
X33104Y3774D01*
X33104Y3774D01*
X33104Y3772D01*
X33095Y3727D01*
X33095Y3727D01*
X33095Y3727D01*
X33072Y3693D01*
X33067Y3690D01*
X33067Y3689D01*
X33033Y3666D01*
X33026Y3665D01*
X33026Y3664D01*
X32970Y3653D01*
X32970Y3653D01*
X32968Y3652D01*
X32936Y3659D01*
X32936Y3659D01*
X32909Y3664D01*
X32909Y3665D01*
X32908Y3665D01*
X32887Y3679D01*
X32877Y3695D01*
X32876Y3695D01*
Y3661D01*
X32801D01*
Y3925D01*
X32797Y3925D01*
X32804Y3957D01*
X32804Y3957D01*
X32809Y3985D01*
X32810Y3986D01*
X32810Y3985D01*
X32810Y3985D01*
X32830Y4016D01*
X32843Y4024D01*
X32843Y4024D01*
X32867Y4040D01*
X32893Y4045D01*
X32893Y4046D01*
X32951Y4054D01*
X32956Y4053D01*
X32956Y4055D01*
X32961Y4056D01*
X32996Y4049D01*
D02*
G37*
G36*
X32587Y4044D02*
X32590Y4043D01*
X32589Y4042D01*
X32624Y4019D01*
X32632Y4007D01*
X32633Y4006D01*
Y4048D01*
X32711D01*
Y3662D01*
X32633D01*
Y3894D01*
X32635Y3894D01*
X32635Y3896D01*
X32628Y3931D01*
X32628Y3931D01*
X32627Y3933D01*
X32615Y3953D01*
X32610Y3956D01*
X32610Y3956D01*
X32589Y3970D01*
X32558Y3976D01*
X32558Y3976D01*
X32558Y3976D01*
X32532Y3971D01*
X32532Y3971D01*
X32529Y3971D01*
X32507Y3956D01*
X32451Y4022D01*
X32451Y4023D01*
X32485Y4046D01*
X32489Y4047D01*
X32490Y4046D01*
X32531Y4054D01*
X32531Y4054D01*
X32531Y4054D01*
X32534Y4055D01*
X32587Y4044D01*
D02*
G37*
G36*
X31436Y4405D02*
X31440Y4405D01*
X31440Y4404D01*
X31434Y4374D01*
X31434Y4374D01*
X31428Y4346D01*
X31428Y4346D01*
X31428Y4346D01*
X31404Y4311D01*
X31395Y4305D01*
X31395Y4304D01*
X31355Y4278D01*
X31353Y4277D01*
X31353Y4278D01*
X31307Y4269D01*
X31307Y4269D01*
X31305Y4268D01*
X31252Y4279D01*
X31250Y4281D01*
X31250Y4281D01*
X31216Y4304D01*
X31208Y4316D01*
X31206Y4316D01*
Y4276D01*
X31129D01*
Y4661D01*
X31206D01*
Y4431D01*
X31205Y4431D01*
X31204Y4429D01*
X31211Y4396D01*
X31211Y4396D01*
X31212Y4392D01*
X31227Y4369D01*
X31227Y4369D01*
X31227Y4369D01*
X31251Y4353D01*
X31252Y4353D01*
X31252Y4353D01*
X31281Y4347D01*
X31282Y4347D01*
X31282Y4347D01*
X31283Y4347D01*
X31313Y4353D01*
X31313D01*
X31314Y4353D01*
X31338Y4369D01*
X31338Y4369D01*
X31338Y4369D01*
X31353Y4392D01*
X31354Y4396D01*
X31354Y4396D01*
X31361Y4429D01*
X31361Y4431D01*
X31359Y4661D01*
X31436D01*
Y4405D01*
D02*
G37*
G36*
X30532Y4389D02*
X30532Y4389D01*
X30532Y4389D01*
X30532Y4389D01*
D02*
G37*
G36*
X31425Y4049D02*
X31425Y4049D01*
X31457Y4042D01*
X31460Y4041D01*
X31460Y4040D01*
X31501Y4013D01*
X31512Y3996D01*
X31453Y3949D01*
X31444Y3962D01*
X31427Y3974D01*
X31427Y3974D01*
X31407Y3978D01*
X31407Y3978D01*
X31383Y3983D01*
X31382Y3982D01*
X31382Y3981D01*
X31377Y3982D01*
X31348Y3976D01*
Y3976D01*
X31333Y3974D01*
X31324Y3967D01*
X31324Y3968D01*
X31315Y3964D01*
X31310Y3952D01*
X31310Y3952D01*
X31301Y3931D01*
X31302Y3929D01*
X31305Y3888D01*
X31410D01*
X31409Y3891D01*
X31411Y3891D01*
X31463Y3881D01*
X31463Y3881D01*
X31468Y3880D01*
X31500Y3858D01*
X31501Y3856D01*
X31502Y3856D01*
X31524Y3822D01*
X31525Y3819D01*
X31525Y3819D01*
X31534Y3775D01*
X31533Y3774D01*
X31533Y3774D01*
X31534Y3772D01*
X31524Y3727D01*
X31524Y3727D01*
X31524Y3727D01*
X31501Y3693D01*
X31496Y3690D01*
X31497Y3689D01*
X31463Y3666D01*
X31455Y3665D01*
X31456Y3664D01*
X31399Y3653D01*
X31399Y3653D01*
X31398Y3652D01*
X31365Y3659D01*
X31365Y3659D01*
X31338Y3664D01*
X31339Y3665D01*
X31338Y3665D01*
X31317Y3679D01*
X31306Y3695D01*
X31305Y3695D01*
Y3661D01*
X31230D01*
Y3925D01*
X31227Y3925D01*
X31233Y3957D01*
X31233Y3957D01*
X31239Y3985D01*
X31239Y3986D01*
X31240Y3985D01*
X31240Y3985D01*
X31260Y4016D01*
X31273Y4024D01*
X31273Y4024D01*
X31297Y4040D01*
X31322Y4045D01*
X31322Y4046D01*
X31380Y4054D01*
X31386Y4053D01*
X31386Y4055D01*
X31390Y4056D01*
X31425Y4049D01*
D02*
G37*
G36*
X31969Y3662D02*
X31900D01*
X31820Y3932D01*
X31818D01*
X31737Y3662D01*
X31669D01*
X31546Y4048D01*
X31628D01*
X31702Y3778D01*
X31703D01*
X31791Y4048D01*
X31847D01*
X31934Y3778D01*
X31936D01*
X32010Y4048D01*
X32092D01*
X31969Y3662D01*
D02*
G37*
G36*
X32216Y4010D02*
X32261Y4040D01*
X32261Y4040D01*
X32269Y4045D01*
X32314Y4054D01*
X32315Y4054D01*
X32315Y4055D01*
X32316Y4055D01*
X32349Y4049D01*
X32349Y4049D01*
X32367Y4045D01*
X32377Y4038D01*
X32377Y4038D01*
X32409Y4017D01*
X32419Y4002D01*
X32419Y4002D01*
X32436Y3977D01*
X32440Y3954D01*
X32441Y3954D01*
X32446Y3915D01*
X32445Y3915D01*
X32449Y3860D01*
X32449Y3855D01*
X32449Y3855D01*
X32449Y3851D01*
X32445Y3795D01*
X32446Y3795D01*
X32441Y3756D01*
X32440Y3756D01*
X32436Y3733D01*
X32419Y3707D01*
X32419Y3707D01*
X32409Y3692D01*
X32377Y3671D01*
X32377Y3671D01*
X32368Y3665D01*
X32349Y3661D01*
X32349Y3661D01*
X32316Y3655D01*
X32315Y3655D01*
X32315Y3656D01*
X32314Y3655D01*
X32263Y3665D01*
X32260Y3667D01*
X32260Y3667D01*
X32219Y3695D01*
X32215Y3701D01*
X32216Y3662D01*
X32138D01*
Y4203D01*
X32216D01*
Y4010D01*
D02*
G37*
G36*
X31453Y3949D02*
X31453Y3949D01*
X31453Y3949D01*
X31453Y3949D01*
D02*
G37*
G36*
X30715Y4055D02*
X30715Y4055D01*
X30771Y4044D01*
X30772Y4045D01*
X30772Y4045D01*
X30824Y4010D01*
X30823Y4010D01*
X30831Y4004D01*
X30845Y3983D01*
X30845Y3983D01*
X30860Y3962D01*
X30862Y3949D01*
X30862Y3949D01*
X30867Y3938D01*
X30871Y3905D01*
X30878Y3855D01*
X30877Y3853D01*
X30877Y3853D01*
X30878Y3851D01*
X30871Y3799D01*
X30871Y3799D01*
X30862Y3754D01*
X30861Y3754D01*
X30860Y3746D01*
X30843Y3720D01*
Y3720D01*
X30833Y3706D01*
X30819Y3696D01*
X30819Y3696D01*
X30777Y3668D01*
X30763Y3666D01*
X30762Y3666D01*
X30704Y3654D01*
X30704Y3654D01*
X30703Y3654D01*
X30627Y3669D01*
X30628Y3670D01*
X30626Y3670D01*
X30595Y3691D01*
X30595Y3691D01*
X30572Y3706D01*
X30563Y3719D01*
X30620Y3768D01*
X30619Y3766D01*
X30620Y3764D01*
X30659Y3738D01*
X30659Y3738D01*
X30661Y3737D01*
X30704Y3728D01*
X30705Y3728D01*
X30705Y3729D01*
X30706Y3728D01*
X30742Y3735D01*
X30742Y3736D01*
X30746Y3736D01*
X30772Y3754D01*
X30772Y3754D01*
X30774Y3755D01*
X30790Y3779D01*
X30791Y3784D01*
X30791Y3784D01*
X30799Y3823D01*
X30799Y3826D01*
X30557Y3826D01*
Y3889D01*
X30554Y3889D01*
X30553Y3892D01*
X30566Y3957D01*
X30566Y3957D01*
X30567Y3959D01*
X30598Y4006D01*
X30603Y4009D01*
X30603Y4010D01*
X30653Y4044D01*
X30655Y4044D01*
X30655Y4043D01*
X30714Y4055D01*
X30715Y4055D01*
D02*
G37*
G36*
X33024Y3949D02*
X33024Y3949D01*
X33024Y3949D01*
X33024Y3949D01*
D02*
G37*
G36*
X32601Y4658D02*
X32603Y4656D01*
X32603Y4655D01*
X32637Y4632D01*
X32645Y4620D01*
X32647Y4620D01*
Y4661D01*
X32724D01*
Y4276D01*
X32647D01*
Y4505D01*
X32648Y4505D01*
X32649Y4507D01*
X32642Y4540D01*
X32642Y4540D01*
X32641Y4544D01*
X32626Y4567D01*
X32626Y4567D01*
X32625Y4568D01*
X32602Y4583D01*
X32601Y4584D01*
X32601Y4584D01*
X32571Y4590D01*
X32570Y4589D01*
X32570Y4589D01*
X32569Y4590D01*
X32540Y4584D01*
X32540Y4584D01*
X32539Y4584D01*
X32515Y4568D01*
X32515Y4567D01*
X32515Y4567D01*
X32499Y4544D01*
X32499Y4540D01*
X32498Y4540D01*
X32492Y4507D01*
X32492Y4505D01*
X32494Y4276D01*
X32416D01*
Y4532D01*
X32413Y4532D01*
X32413Y4533D01*
X32419Y4563D01*
X32419Y4563D01*
X32424Y4590D01*
X32425Y4590D01*
X32425Y4590D01*
X32448Y4625D01*
X32458Y4632D01*
X32458Y4632D01*
X32499Y4659D01*
X32500Y4660D01*
X32500Y4659D01*
X32545Y4668D01*
X32545Y4668D01*
X32547Y4668D01*
X32601Y4658D01*
D02*
G37*
G36*
X32089Y4659D02*
X32089Y4658D01*
X32106Y4655D01*
X32135Y4635D01*
X32135Y4635D01*
X32148Y4627D01*
X32167Y4599D01*
X32168Y4599D01*
X32169Y4596D01*
X32179Y4549D01*
X32178Y4547D01*
X32178Y4547D01*
X32178Y4547D01*
X32178Y4547D01*
X32179Y4545D01*
X32170Y4502D01*
X32170Y4502D01*
X32170Y4501D01*
X32150Y4472D01*
X32145Y4468D01*
X32146Y4468D01*
X32112Y4446D01*
X32110Y4445D01*
X32110Y4445D01*
X32066Y4436D01*
X31997Y4431D01*
X31997Y4432D01*
X31976Y4428D01*
X31977Y4427D01*
X31961Y4421D01*
X31961Y4421D01*
X31957Y4419D01*
X31953Y4408D01*
X31953Y4408D01*
X31947Y4394D01*
X31947Y4393D01*
X31947Y4393D01*
X31947Y4392D01*
X31955Y4372D01*
X31955Y4372D01*
X31959Y4361D01*
X31971Y4356D01*
X31971Y4356D01*
X31981Y4350D01*
X31996Y4347D01*
X31996Y4347D01*
X32025Y4341D01*
X32026Y4341D01*
X32026Y4341D01*
X32028Y4340D01*
X32093Y4353D01*
X32093Y4353D01*
X32150Y4391D01*
X32202Y4340D01*
X32203Y4339D01*
X32154Y4301D01*
X32123Y4288D01*
X32123Y4288D01*
X32096Y4277D01*
X32034Y4269D01*
X32032Y4269D01*
X32032Y4269D01*
X32030Y4269D01*
X31970Y4277D01*
X31970Y4279D01*
X31947Y4283D01*
X31919Y4302D01*
X31919Y4302D01*
X31900Y4314D01*
X31884Y4339D01*
X31883Y4339D01*
X31879Y4346D01*
X31870Y4388D01*
X31871Y4390D01*
X31870Y4390D01*
X31870Y4391D01*
X31878Y4432D01*
X31878D01*
X31880Y4441D01*
X31898Y4468D01*
X31898Y4468D01*
X31903Y4476D01*
X31932Y4495D01*
X31932Y4495D01*
X31932Y4496D01*
X31933Y4497D01*
X31956Y4501D01*
X31956Y4501D01*
X31984Y4507D01*
X32048Y4510D01*
X32048Y4508D01*
X32073Y4513D01*
X32073Y4514D01*
X32090Y4521D01*
X32090Y4520D01*
X32091Y4521D01*
X32096Y4534D01*
X32096Y4534D01*
X32101Y4546D01*
X32102Y4546D01*
X32103Y4547D01*
X32089Y4580D01*
X32086Y4581D01*
X32086Y4581D01*
X32064Y4590D01*
X32064Y4589D01*
X32035Y4595D01*
X32033Y4594D01*
X32033Y4595D01*
X32030Y4595D01*
X31976Y4585D01*
X31977Y4582D01*
X31946Y4569D01*
X31930Y4557D01*
X31882Y4613D01*
X31882Y4613D01*
X31913Y4638D01*
X31946Y4651D01*
X31945Y4654D01*
X31986Y4662D01*
X31986Y4662D01*
X32031Y4668D01*
X32033Y4668D01*
X32033Y4669D01*
X32035Y4669D01*
X32089Y4659D01*
D02*
G37*
G36*
X32950Y4668D02*
X32950Y4668D01*
X33006Y4657D01*
X33007Y4658D01*
X33007Y4658D01*
X33059Y4624D01*
X33058Y4623D01*
X33066Y4618D01*
X33080Y4597D01*
X33080Y4597D01*
X33095Y4575D01*
X33097Y4562D01*
X33097Y4562D01*
X33102Y4551D01*
X33106Y4519D01*
X33106D01*
X33113Y4469D01*
X33112Y4467D01*
X33112Y4467D01*
X33113Y4465D01*
X33106Y4412D01*
X33106Y4412D01*
X33097Y4367D01*
X33097Y4368D01*
X33095Y4359D01*
X33078Y4334D01*
X33068Y4319D01*
X33054Y4310D01*
X33054Y4310D01*
X33012Y4282D01*
X32998Y4279D01*
X32998Y4279D01*
X32939Y4268D01*
X32939Y4267D01*
X32938Y4267D01*
X32863Y4282D01*
X32863Y4283D01*
X32861Y4283D01*
X32830Y4304D01*
X32830Y4304D01*
X32807Y4319D01*
X32798Y4332D01*
X32855Y4381D01*
X32854Y4380D01*
X32855Y4377D01*
X32894Y4352D01*
X32894Y4352D01*
X32896Y4350D01*
X32939Y4342D01*
X32940Y4342D01*
X32940Y4342D01*
X32941Y4342D01*
X32977Y4349D01*
X32977Y4349D01*
X32981Y4350D01*
X33007Y4367D01*
X33007Y4367D01*
X33009Y4368D01*
X33025Y4393D01*
X33026Y4397D01*
X33026Y4397D01*
X33034Y4437D01*
X33034Y4439D01*
X32792Y4439D01*
Y4503D01*
X32789Y4503D01*
X32788Y4506D01*
X32801Y4571D01*
X32801Y4571D01*
X32802Y4572D01*
X32833Y4619D01*
X32838Y4623D01*
X32838Y4623D01*
X32888Y4657D01*
X32890Y4657D01*
X32890Y4657D01*
X32949Y4669D01*
X32950Y4668D01*
D02*
G37*
G36*
X30917Y4658D02*
X30920Y4656D01*
X30919Y4655D01*
X30954Y4632D01*
X30962Y4620D01*
X30963Y4620D01*
Y4661D01*
X31041D01*
Y4276D01*
X30963D01*
Y4507D01*
X30965Y4507D01*
X30965Y4510D01*
X30958Y4544D01*
X30958Y4544D01*
X30958Y4547D01*
X30945Y4566D01*
X30940Y4569D01*
X30940Y4569D01*
X30919Y4583D01*
X30888Y4590D01*
X30888Y4590D01*
X30888Y4589D01*
X30862Y4584D01*
X30862Y4585D01*
X30859Y4584D01*
X30837Y4569D01*
X30781Y4636D01*
X30781Y4636D01*
X30815Y4659D01*
X30819Y4660D01*
X30820Y4659D01*
X30861Y4668D01*
X30861Y4668D01*
X30861Y4668D01*
X30864Y4668D01*
X30917Y4658D01*
D02*
G37*
G36*
X33746Y4661D02*
X33746Y4661D01*
X33768Y4657D01*
X33778Y4650D01*
X33779Y4650D01*
X33803Y4633D01*
X33803Y4633D01*
X33820Y4622D01*
X33823Y4617D01*
X33823Y4617D01*
X33853Y4574D01*
X33855Y4561D01*
X33855Y4561D01*
X33863Y4523D01*
X33861Y4523D01*
X33866Y4472D01*
X33866Y4469D01*
X33864Y4469D01*
X33866Y4469D01*
X33866Y4469D01*
X33866D01*
X33867Y4465D01*
X33861Y4414D01*
X33863Y4414D01*
X33855Y4375D01*
X33855Y4375D01*
X33853Y4363D01*
X33823Y4319D01*
X33823Y4319D01*
X33819Y4313D01*
X33803Y4303D01*
X33803Y4303D01*
X33779Y4286D01*
X33779Y4286D01*
X33768Y4280D01*
X33746Y4275D01*
Y4275D01*
X33707Y4267D01*
X33705Y4268D01*
X33705Y4268D01*
X33703Y4267D01*
X33664Y4275D01*
X33664D01*
X33642Y4280D01*
X33632Y4286D01*
X33632Y4286D01*
X33607Y4303D01*
X33607Y4303D01*
X33590Y4314D01*
X33587Y4319D01*
X33587Y4319D01*
X33558Y4362D01*
X33555Y4375D01*
X33555Y4375D01*
X33548Y4414D01*
X33549Y4414D01*
X33544Y4465D01*
X33544Y4469D01*
X33544Y4469D01*
X33544Y4472D01*
X33549Y4523D01*
X33548Y4523D01*
X33555Y4561D01*
X33555Y4561D01*
X33558Y4574D01*
X33587Y4617D01*
X33587Y4617D01*
X33589Y4622D01*
X33607Y4633D01*
X33607Y4633D01*
X33632Y4650D01*
X33632Y4650D01*
X33643Y4657D01*
X33664Y4661D01*
X33664Y4661D01*
X33703Y4669D01*
X33705Y4669D01*
X33705Y4669D01*
X33707Y4669D01*
X33746Y4661D01*
D02*
G37*
G36*
X28537Y6145D02*
X28541Y6134D01*
X28541Y6134D01*
X28607Y5788D01*
X28612Y5777D01*
X28619Y5774D01*
X28909Y5654D01*
X28916Y5651D01*
X28927Y5655D01*
X28926Y5656D01*
X29218Y5854D01*
X29229Y5858D01*
X29243Y5852D01*
X29242Y5851D01*
X29492Y5603D01*
X29498Y5588D01*
X29494Y5578D01*
X29494Y5578D01*
X29296Y5286D01*
X29291Y5276D01*
X29294Y5268D01*
X29414Y4979D01*
X29417Y4971D01*
X29428Y4967D01*
X29428Y4967D01*
X29774Y4901D01*
X29785Y4897D01*
X29791Y4882D01*
X29789D01*
X29791Y4530D01*
X29785Y4515D01*
X29774Y4511D01*
X29774Y4511D01*
X29428Y4445D01*
X29417Y4440D01*
X29414Y4433D01*
X29414D01*
X29294Y4143D01*
X29291Y4136D01*
X29296Y4126D01*
X29296Y4126D01*
X29494Y3834D01*
X29498Y3823D01*
X29492Y3809D01*
X29491Y3810D01*
X29243Y3560D01*
X29229Y3554D01*
X29218Y3558D01*
X29218Y3559D01*
X28927Y3756D01*
X28916Y3761D01*
X28909Y3758D01*
X28776Y3703D01*
X28769Y3700D01*
X28755Y3706D01*
X28752Y3713D01*
X28507Y4312D01*
X28504Y4319D01*
X28510Y4333D01*
X28517Y4336D01*
X28517Y4335D01*
X28552Y4350D01*
X28637Y4415D01*
X28702Y4500D01*
X28743Y4599D01*
X28757Y4706D01*
X28743Y4812D01*
X28702Y4912D01*
X28637Y4997D01*
X28552Y5062D01*
X28453Y5103D01*
X28346Y5117D01*
X28240Y5103D01*
X28141Y5062D01*
X28055Y4997D01*
X27990Y4912D01*
X27949Y4812D01*
X27935Y4706D01*
X27949Y4599D01*
X27990Y4500D01*
X28055Y4415D01*
X28141Y4350D01*
X28176Y4335D01*
X28176Y4336D01*
X28182Y4333D01*
X28188Y4319D01*
X28185Y4312D01*
X28185D01*
X27941Y3713D01*
X27938Y3706D01*
X27924Y3700D01*
X27916Y3703D01*
Y3703D01*
X27784Y3758D01*
X27777Y3761D01*
X27766Y3756D01*
X27766Y3756D01*
X27474Y3558D01*
X27464Y3554D01*
X27449Y3560D01*
X27450Y3561D01*
X27200Y3809D01*
X27194Y3823D01*
X27198Y3834D01*
X27199Y3834D01*
X27397Y4126D01*
X27401Y4136D01*
X27398Y4143D01*
X27278Y4433D01*
X27275Y4440D01*
X27264Y4445D01*
X27264Y4444D01*
X26918Y4511D01*
X26907Y4515D01*
X26902Y4530D01*
X26903D01*
X26902Y4882D01*
X26907Y4897D01*
X26918Y4901D01*
X26918Y4901D01*
X27264Y4967D01*
X27275Y4971D01*
X27278Y4979D01*
Y4979D01*
X27398Y5268D01*
X27401Y5276D01*
X27397Y5286D01*
X27396Y5286D01*
X27198Y5578D01*
X27194Y5588D01*
X27200Y5603D01*
X27201Y5602D01*
X27449Y5852D01*
X27464Y5858D01*
X27474Y5854D01*
X27474Y5853D01*
X27766Y5655D01*
X27777Y5651D01*
X27784Y5654D01*
Y5654D01*
X28074Y5774D01*
X28081Y5777D01*
X28085Y5788D01*
X28085Y5788D01*
X28151Y6134D01*
X28156Y6145D01*
X28170Y6151D01*
Y6149D01*
X28523Y6151D01*
X28537Y6145D01*
D02*
G37*
G36*
X30678Y4656D02*
X30678Y4657D01*
X30683Y4656D01*
X30736Y4621D01*
X30735Y4620D01*
X30744Y4614D01*
X30758Y4593D01*
X30758Y4593D01*
X30775Y4568D01*
X30776Y4559D01*
X30777Y4559D01*
X30786Y4517D01*
X30785Y4517D01*
X30791Y4470D01*
X30791Y4468D01*
X30791Y4468D01*
X30791Y4466D01*
X30785Y4419D01*
X30786Y4419D01*
X30777Y4376D01*
X30776Y4377D01*
X30775Y4368D01*
X30758Y4343D01*
X30758Y4343D01*
X30744Y4322D01*
X30735Y4316D01*
X30735Y4316D01*
X30684Y4281D01*
X30678Y4280D01*
X30678Y4280D01*
X30615Y4268D01*
X30614Y4268D01*
X30614Y4268D01*
X30613Y4268D01*
X30572Y4276D01*
X30572Y4276D01*
X30548Y4281D01*
X30535Y4289D01*
X30535Y4289D01*
X30482Y4324D01*
X30474Y4336D01*
X30532Y4389D01*
X30540Y4376D01*
X30568Y4358D01*
X30568Y4358D01*
X30574Y4354D01*
X30610Y4347D01*
X30611Y4347D01*
X30611Y4346D01*
X30613Y4346D01*
X30655Y4354D01*
X30655Y4355D01*
X30657Y4355D01*
X30683Y4372D01*
X30686Y4378D01*
X30686Y4378D01*
X30702Y4402D01*
X30705Y4416D01*
X30705Y4415D01*
X30715Y4465D01*
X30714Y4468D01*
X30714Y4468D01*
X30715Y4471D01*
X30705Y4520D01*
X30705Y4520D01*
X30702Y4534D01*
X30686Y4558D01*
X30686Y4558D01*
X30682Y4564D01*
X30657Y4581D01*
X30655Y4582D01*
X30655Y4582D01*
X30613Y4590D01*
X30611Y4590D01*
X30611Y4590D01*
X30610Y4590D01*
X30574Y4583D01*
X30568Y4578D01*
X30568Y4578D01*
X30540Y4560D01*
X30532Y4548D01*
X30475Y4599D01*
X30474Y4600D01*
X30482Y4612D01*
X30535Y4647D01*
X30535Y4647D01*
X30548Y4656D01*
X30572Y4661D01*
X30572Y4661D01*
X30613Y4669D01*
X30614Y4669D01*
X30614Y4669D01*
X30615Y4669D01*
X30678Y4656D01*
D02*
G37*
G36*
X31707Y4661D02*
Y4661D01*
X31728Y4657D01*
X31739Y4650D01*
X31739Y4650D01*
X31764Y4633D01*
X31764Y4633D01*
X31781Y4622D01*
X31784Y4617D01*
X31784Y4617D01*
X31813Y4574D01*
X31816Y4561D01*
X31816Y4561D01*
X31823Y4523D01*
X31822Y4523D01*
X31827Y4472D01*
X31827Y4469D01*
X31825Y4469D01*
X31827Y4469D01*
X31827Y4469D01*
X31827D01*
X31827Y4465D01*
X31822Y4414D01*
X31823Y4414D01*
X31816Y4375D01*
X31816Y4375D01*
X31813Y4363D01*
X31784Y4319D01*
X31784Y4319D01*
X31780Y4313D01*
X31764Y4303D01*
X31764Y4303D01*
X31739Y4286D01*
X31739Y4286D01*
X31729Y4280D01*
X31707Y4275D01*
Y4275D01*
X31667Y4267D01*
X31666Y4268D01*
X31666Y4268D01*
X31664Y4267D01*
X31625Y4275D01*
X31625D01*
X31603Y4280D01*
X31593Y4286D01*
X31592Y4286D01*
X31567Y4303D01*
X31568Y4303D01*
X31551Y4314D01*
X31547Y4319D01*
X31547Y4319D01*
X31518Y4362D01*
X31516Y4375D01*
X31516Y4375D01*
X31508Y4414D01*
X31509Y4414D01*
X31504Y4465D01*
X31505Y4469D01*
X31505Y4469D01*
X31504Y4472D01*
X31509Y4523D01*
X31508Y4523D01*
X31516Y4561D01*
X31516Y4561D01*
X31518Y4574D01*
X31547Y4617D01*
X31547Y4617D01*
X31550Y4622D01*
X31568Y4633D01*
X31567Y4633D01*
X31592Y4650D01*
X31593Y4650D01*
X31604Y4657D01*
X31625Y4661D01*
Y4661D01*
X31664Y4669D01*
X31666Y4669D01*
X31666Y4669D01*
X31667Y4669D01*
X31707Y4661D01*
D02*
G37*
G36*
X33298Y4668D02*
X33298Y4668D01*
X33300Y4668D01*
X33351Y4658D01*
X33353Y4656D01*
X33353Y4656D01*
X33394Y4629D01*
X33399Y4621D01*
X33398Y4661D01*
X33475D01*
Y3662D01*
X33398D01*
Y3892D01*
X33399Y3892D01*
X33400Y3893D01*
X33393Y3927D01*
X33393Y3927D01*
X33392Y3931D01*
X33377Y3954D01*
X33377Y3954D01*
X33376Y3954D01*
X33353Y3970D01*
X33352Y3970D01*
X33352Y3970D01*
X33322Y3976D01*
X33321Y3976D01*
X33321Y3976D01*
X33320Y3976D01*
X33291Y3970D01*
X33291Y3970D01*
X33290Y3970D01*
X33266Y3954D01*
X33266Y3954D01*
X33266Y3954D01*
X33251Y3931D01*
X33250Y3927D01*
X33250Y3927D01*
X33243Y3893D01*
X33243Y3892D01*
X33245Y3662D01*
X33168D01*
Y3918D01*
X33164Y3918D01*
X33164Y3919D01*
X33170Y3949D01*
X33170Y3949D01*
X33176Y3977D01*
X33176Y3977D01*
X33176Y3977D01*
X33200Y4012D01*
X33209Y4018D01*
X33209Y4019D01*
X33250Y4046D01*
X33251Y4046D01*
X33251Y4045D01*
X33296Y4054D01*
X33296Y4054D01*
X33298Y4055D01*
X33352Y4044D01*
X33354Y4043D01*
X33354Y4042D01*
X33388Y4019D01*
X33396Y4007D01*
X33398Y4006D01*
X33398Y4312D01*
X33353Y4282D01*
X33353Y4283D01*
X33346Y4278D01*
X33300Y4269D01*
X33298Y4269D01*
X33298Y4268D01*
X33297Y4268D01*
X33265Y4275D01*
Y4275D01*
X33246Y4278D01*
X33237Y4285D01*
X33237Y4284D01*
X33204Y4306D01*
X33195Y4321D01*
X33195Y4321D01*
X33178Y4346D01*
X33173Y4369D01*
X33173Y4369D01*
X33168Y4408D01*
X33169Y4408D01*
X33164Y4463D01*
X33165Y4468D01*
X33165Y4468D01*
X33164Y4473D01*
X33169Y4528D01*
X33168Y4528D01*
X33173Y4567D01*
X33173Y4567D01*
X33178Y4590D01*
X33195Y4616D01*
X33195Y4616D01*
X33204Y4630D01*
X33237Y4652D01*
X33237Y4652D01*
X33247Y4658D01*
X33265Y4662D01*
X33265Y4662D01*
X33297Y4668D01*
X33298Y4668D01*
D02*
G37*
G36*
X30293Y4668D02*
X30293Y4668D01*
X30349Y4657D01*
X30350Y4658D01*
X30350Y4658D01*
X30402Y4624D01*
X30401Y4623D01*
X30409Y4618D01*
X30424Y4597D01*
X30424Y4597D01*
X30438Y4575D01*
X30440Y4562D01*
X30440Y4562D01*
X30445Y4551D01*
X30449Y4519D01*
X30449D01*
X30456Y4469D01*
X30455Y4467D01*
X30455Y4467D01*
X30456Y4465D01*
X30449Y4412D01*
X30449Y4412D01*
X30440Y4367D01*
X30440Y4368D01*
X30438Y4359D01*
X30421Y4334D01*
Y4334D01*
X30412Y4319D01*
X30397Y4310D01*
X30397Y4310D01*
X30355Y4282D01*
X30341Y4279D01*
X30341Y4279D01*
X30282Y4268D01*
X30282Y4267D01*
X30281Y4267D01*
X30206Y4282D01*
X30206Y4283D01*
X30204Y4283D01*
X30173Y4304D01*
X30173Y4304D01*
X30150Y4319D01*
X30141Y4332D01*
X30198Y4381D01*
X30197Y4380D01*
X30199Y4377D01*
X30237Y4352D01*
X30237Y4352D01*
X30239Y4350D01*
X30282Y4342D01*
X30283Y4342D01*
X30283Y4342D01*
X30284Y4342D01*
X30320Y4349D01*
X30320Y4349D01*
X30324Y4350D01*
X30350Y4367D01*
X30350Y4367D01*
X30352Y4368D01*
X30368Y4393D01*
X30369Y4397D01*
X30369Y4397D01*
X30377Y4437D01*
X30377Y4439D01*
X30135Y4439D01*
Y4503D01*
X30132Y4503D01*
X30131Y4506D01*
X30144Y4571D01*
X30145Y4571D01*
X30145Y4572D01*
X30176Y4619D01*
X30181Y4623D01*
X30181Y4623D01*
X30231Y4657D01*
X30233Y4657D01*
X30233Y4657D01*
X30292Y4669D01*
X30293Y4668D01*
D02*
G37*
%LPC*%
G36*
X32966Y3827D02*
X32876Y3825D01*
Y3796D01*
X32874Y3796D01*
X32873Y3793D01*
X32880Y3761D01*
X32880Y3761D01*
X32885Y3748D01*
X32885Y3748D01*
X32888Y3742D01*
X32893Y3740D01*
X32893Y3741D01*
X32901Y3735D01*
X32920Y3732D01*
X32920Y3731D01*
X32954Y3725D01*
X32960Y3726D01*
X32960Y3727D01*
X32963Y3727D01*
X32993Y3733D01*
X32993Y3732D01*
X33016Y3742D01*
X33016Y3743D01*
X33021Y3745D01*
X33027Y3760D01*
X33027Y3760D01*
X33034Y3777D01*
X33034Y3778D01*
X33034Y3778D01*
X33035Y3780D01*
X33028Y3798D01*
X33028Y3798D01*
X33022Y3810D01*
X33016Y3813D01*
X33015Y3812D01*
X33005Y3819D01*
X32995Y3821D01*
X32995Y3821D01*
X32966Y3827D01*
D02*
G37*
G36*
X31395D02*
X31305Y3825D01*
Y3796D01*
X31303Y3796D01*
X31303Y3793D01*
X31309Y3761D01*
X31309Y3761D01*
X31314Y3748D01*
X31315Y3748D01*
X31317Y3742D01*
X31323Y3740D01*
X31323Y3741D01*
X31331Y3735D01*
X31349Y3732D01*
X31349Y3731D01*
X31383Y3725D01*
X31390Y3726D01*
X31390Y3727D01*
X31392Y3727D01*
X31422Y3733D01*
X31422Y3732D01*
X31446Y3742D01*
X31445Y3743D01*
X31450Y3745D01*
X31457Y3760D01*
X31457Y3760D01*
X31464Y3777D01*
X31464Y3778D01*
X31464Y3778D01*
X31464Y3780D01*
X31457Y3798D01*
X31457Y3798D01*
X31452Y3810D01*
X31445Y3813D01*
X31445Y3812D01*
X31434Y3819D01*
X31424Y3821D01*
X31424Y3821D01*
X31395Y3827D01*
D02*
G37*
G36*
X32293Y3977D02*
X32292Y3977D01*
X32292Y3977D01*
X32291Y3977D01*
X32267Y3972D01*
X32267Y3972D01*
X32256Y3970D01*
X32248Y3965D01*
X32248Y3965D01*
X32237Y3960D01*
X32226Y3936D01*
X32225Y3936D01*
X32223Y3933D01*
X32213Y3856D01*
X32213Y3855D01*
X32213Y3855D01*
X32213Y3854D01*
X32224Y3776D01*
X32225Y3773D01*
X32226Y3774D01*
X32237Y3749D01*
X32248Y3744D01*
X32248Y3745D01*
X32256Y3740D01*
X32267Y3737D01*
X32267Y3737D01*
X32291Y3733D01*
X32292Y3733D01*
X32292Y3733D01*
X32293Y3733D01*
X32316Y3737D01*
Y3737D01*
X32329Y3740D01*
X32336Y3744D01*
X32336Y3744D01*
X32348Y3749D01*
X32358Y3772D01*
X32360Y3772D01*
X32361Y3775D01*
X32371Y3852D01*
X32371Y3855D01*
X32371Y3855D01*
X32371Y3858D01*
X32361Y3934D01*
X32359Y3938D01*
X32358Y3937D01*
X32348Y3960D01*
X32336Y3966D01*
X32336Y3965D01*
X32329Y3970D01*
X32316Y3972D01*
Y3972D01*
X32293Y3977D01*
D02*
G37*
%LPD*%
G36*
X32292Y3977D02*
X32292Y3975D01*
X32292Y3977D01*
X32292Y3977D01*
D02*
G37*
%LPC*%
G36*
X30716Y3981D02*
X30715Y3981D01*
X30715Y3980D01*
X30714Y3981D01*
X30684Y3975D01*
X30684Y3975D01*
X30683Y3975D01*
X30658Y3958D01*
X30658Y3957D01*
X30658Y3957D01*
X30641Y3932D01*
X30640Y3928D01*
X30640Y3928D01*
X30632Y3889D01*
X30797Y3889D01*
X30799Y3889D01*
X30791Y3928D01*
X30791Y3928D01*
X30790Y3933D01*
X30774Y3957D01*
X30774Y3957D01*
X30773Y3958D01*
X30748Y3974D01*
X30747Y3975D01*
X30747Y3975D01*
X30716Y3981D01*
D02*
G37*
G36*
X32951Y4594D02*
X32950Y4594D01*
X32950Y4594D01*
X32949Y4594D01*
X32919Y4588D01*
X32919Y4588D01*
X32918Y4588D01*
X32893Y4571D01*
X32893Y4570D01*
X32893Y4570D01*
X32876Y4546D01*
X32875Y4541D01*
X32875Y4542D01*
X32867Y4503D01*
X33032Y4503D01*
X33034Y4503D01*
X33026Y4542D01*
X33026Y4541D01*
X33025Y4546D01*
X33009Y4570D01*
X33009Y4570D01*
X33008Y4571D01*
X32983Y4588D01*
X32983Y4588D01*
X32983Y4588D01*
X32951Y4594D01*
D02*
G37*
G36*
X33707Y4590D02*
X33705Y4589D01*
X33705Y4589D01*
X33705Y4589D01*
X33705Y4589D01*
X33703Y4590D01*
X33669Y4583D01*
X33668Y4582D01*
X33668Y4582D01*
X33649Y4569D01*
X33643Y4560D01*
X33643Y4560D01*
X33631Y4542D01*
X33628Y4527D01*
X33628Y4527D01*
X33623Y4504D01*
X33623Y4504D01*
X33619Y4471D01*
X33619Y4468D01*
X33620D01*
X33620Y4468D01*
X33624Y4468D01*
X33620Y4468D01*
X33619Y4465D01*
X33624Y4432D01*
X33623Y4432D01*
X33628Y4409D01*
X33628Y4409D01*
X33630Y4395D01*
X33643Y4377D01*
X33643Y4377D01*
X33649Y4367D01*
X33668Y4355D01*
X33668Y4354D01*
X33669Y4353D01*
X33703Y4347D01*
X33705Y4347D01*
X33705Y4347D01*
X33705Y4347D01*
X33705Y4347D01*
X33707Y4347D01*
X33742Y4353D01*
X33742Y4354D01*
X33742Y4355D01*
X33761Y4367D01*
X33767Y4377D01*
X33767Y4377D01*
X33779Y4395D01*
X33782Y4409D01*
X33782Y4409D01*
X33787Y4433D01*
X33786Y4433D01*
X33789Y4466D01*
X33789Y4469D01*
X33789Y4469D01*
X33789Y4471D01*
X33786Y4504D01*
X33787Y4504D01*
X33782Y4527D01*
X33782Y4527D01*
X33779Y4542D01*
X33767Y4560D01*
X33767Y4560D01*
X33761Y4569D01*
X33742Y4582D01*
X33742Y4582D01*
X33742Y4583D01*
X33707Y4590D01*
D02*
G37*
G36*
X31668Y4590D02*
X31666Y4589D01*
X31666Y4589D01*
X31666Y4589D01*
X31666Y4589D01*
X31664Y4590D01*
X31629Y4583D01*
X31628Y4582D01*
X31629Y4582D01*
X31609Y4569D01*
X31603Y4560D01*
X31603Y4560D01*
X31591Y4542D01*
X31588Y4527D01*
X31588Y4527D01*
X31584Y4504D01*
X31584Y4504D01*
X31580Y4471D01*
X31580Y4468D01*
X31580D01*
X31580Y4468D01*
X31584Y4468D01*
X31580Y4468D01*
X31580Y4465D01*
X31584Y4432D01*
X31584Y4432D01*
X31588Y4409D01*
X31588Y4409D01*
X31591Y4395D01*
X31603Y4377D01*
X31603Y4377D01*
X31609Y4367D01*
X31629Y4355D01*
X31628Y4354D01*
X31629Y4353D01*
X31664Y4347D01*
X31666Y4347D01*
X31666Y4347D01*
X31666Y4347D01*
X31666Y4347D01*
X31668Y4347D01*
X31702Y4353D01*
X31703Y4354D01*
X31703Y4355D01*
X31722Y4367D01*
X31728Y4377D01*
X31728Y4377D01*
X31740Y4395D01*
X31743Y4409D01*
X31743Y4409D01*
X31748Y4433D01*
X31746Y4433D01*
X31750Y4466D01*
X31749Y4469D01*
X31749Y4469D01*
X31749Y4471D01*
X31746Y4504D01*
X31747Y4504D01*
X31743Y4527D01*
X31743Y4527D01*
X31740Y4542D01*
X31728Y4560D01*
X31728Y4560D01*
X31722Y4569D01*
X31703Y4582D01*
X31703Y4582D01*
X31702Y4583D01*
X31668Y4590D01*
D02*
G37*
G36*
X33320Y4590D02*
X33297Y4586D01*
X33297Y4586D01*
X33284Y4583D01*
X33278Y4579D01*
X33278Y4579D01*
X33265Y4574D01*
X33256Y4550D01*
X33254Y4551D01*
X33253Y4547D01*
X33242Y4471D01*
X33243Y4468D01*
X33243Y4468D01*
X33242Y4465D01*
X33252Y4389D01*
X33254Y4385D01*
X33256Y4386D01*
X33265Y4363D01*
X33278Y4357D01*
X33278Y4358D01*
X33284Y4353D01*
X33297Y4351D01*
Y4351D01*
X33320Y4346D01*
X33322Y4346D01*
X33322Y4346D01*
X33322Y4346D01*
X33322Y4348D01*
X33322Y4346D01*
X33323Y4346D01*
X33346Y4351D01*
X33346Y4351D01*
X33358Y4353D01*
X33365Y4358D01*
X33365Y4358D01*
X33377Y4363D01*
X33387Y4387D01*
X33389Y4387D01*
X33390Y4388D01*
X33400Y4467D01*
X33400Y4468D01*
X33400Y4468D01*
X33400Y4469D01*
X33390Y4548D01*
X33389Y4550D01*
X33387Y4549D01*
X33377Y4574D01*
X33365Y4579D01*
X33365Y4578D01*
X33358Y4583D01*
X33346Y4586D01*
X33346Y4586D01*
X33323Y4590D01*
X33322Y4590D01*
X33322Y4590D01*
X33320Y4590D01*
D02*
G37*
G36*
X33398Y4316D02*
Y4312D01*
X33400Y4314D01*
X33398Y4316D01*
D02*
G37*
G36*
X30294Y4594D02*
X30293Y4594D01*
X30293Y4594D01*
X30292Y4594D01*
X30262Y4588D01*
X30262Y4588D01*
X30261Y4588D01*
X30236Y4571D01*
X30236Y4570D01*
X30236Y4570D01*
X30219Y4546D01*
X30218Y4541D01*
X30218Y4542D01*
X30210Y4503D01*
X30375Y4503D01*
X30377Y4503D01*
X30369Y4542D01*
X30369Y4541D01*
X30368Y4546D01*
X30352Y4570D01*
X30352Y4570D01*
X30351Y4571D01*
X30326Y4588D01*
X30326Y4588D01*
X30326Y4588D01*
X30294Y4594D01*
D02*
G37*
%LPD*%
D31*
X1411Y8951D02*
G03*
X1411Y8951I-49J0D01*
G01*
X44616Y1555D02*
G03*
X44616Y1555I-49J0D01*
G01*
X1132Y10925D02*
G03*
X1132Y10925I-49J0D01*
G01*
X24459Y9469D02*
G03*
X24459Y9469I-49J0D01*
G01*
X22490Y9469D02*
G03*
X22490Y9469I-49J0D01*
G01*
X19724Y9961D02*
G03*
X19724Y9961I-49J0D01*
G01*
D61*
X3486Y7382D02*
Y8169D01*
X1436Y7382D02*
Y8169D01*
X1691Y5577D02*
Y6052D01*
X2846Y9211D02*
X3321D01*
X4750Y7955D02*
X5225D01*
X2112Y10691D02*
X2587D01*
X19636Y7657D02*
Y9626D01*
X17864Y7657D02*
Y9626D01*
X49309Y12146D02*
Y11674D01*
X49073D01*
X48995Y11753D01*
Y11832D01*
X49073Y11910D01*
X49309D01*
X49073D01*
X48995Y11989D01*
Y12068D01*
X49073Y12146D01*
X49309D01*
X48522Y12068D02*
X48601Y12146D01*
X48758D01*
X48837Y12068D01*
Y11753D01*
X48758Y11674D01*
X48601D01*
X48522Y11753D01*
X48050Y11674D02*
X48365D01*
X48050Y11989D01*
Y12068D01*
X48129Y12146D01*
X48286D01*
X48365Y12068D01*
X47893Y11595D02*
X47578D01*
X47420Y12146D02*
Y11832D01*
X47263Y11674D01*
X47105Y11832D01*
Y12146D01*
X46712D02*
X46869D01*
X46948Y12068D01*
Y11753D01*
X46869Y11674D01*
X46712D01*
X46633Y11753D01*
Y12068D01*
X46712Y12146D01*
X46476D02*
Y11674D01*
X46161D01*
X46003Y11595D02*
X45689D01*
X45216Y12068D02*
X45295Y12146D01*
X45452D01*
X45531Y12068D01*
Y11753D01*
X45452Y11674D01*
X45295D01*
X45216Y11753D01*
X45059Y12146D02*
X44744D01*
X44901D01*
Y11674D01*
X44587D02*
Y12146D01*
X44350D01*
X44272Y12068D01*
Y11910D01*
X44350Y11832D01*
X44587D01*
X44429D02*
X44272Y11674D01*
X44114Y12146D02*
Y11674D01*
X43799D01*
X49309Y10789D02*
Y11104D01*
X49152Y11261D01*
X48995Y11104D01*
Y10789D01*
Y11025D01*
X49309D01*
X48837Y10789D02*
Y11104D01*
X48758D01*
X48680Y11025D01*
Y10789D01*
Y11025D01*
X48601Y11104D01*
X48522Y11025D01*
Y10789D01*
X48365D02*
Y11104D01*
X48286D01*
X48207Y11025D01*
Y10789D01*
Y11025D01*
X48129Y11104D01*
X48050Y11025D01*
Y10789D01*
X47814Y11104D02*
X47656D01*
X47578Y11025D01*
Y10789D01*
X47814D01*
X47893Y10867D01*
X47814Y10946D01*
X47578D01*
X47420Y10789D02*
Y11104D01*
X47184D01*
X47105Y11025D01*
Y10789D01*
X46948D02*
Y11104D01*
X46712D01*
X46633Y11025D01*
Y10789D01*
X46397Y10710D02*
X46318Y10789D01*
Y10867D01*
X46397D01*
Y10789D01*
X46318D01*
X46397Y10710D01*
X46476Y10631D01*
X46003Y11182D02*
X45925Y11261D01*
X45767D01*
X45689Y11182D01*
Y10867D01*
X45767Y10789D01*
X45925D01*
X46003Y10867D01*
Y11182D01*
X45216Y11261D02*
X45531D01*
Y11025D01*
X45374Y11104D01*
X45295D01*
X45216Y11025D01*
Y10867D01*
X45295Y10789D01*
X45452D01*
X45531Y10867D01*
X45059Y10789D02*
X44744Y11104D01*
X44272Y10789D02*
X44587D01*
X44272Y11104D01*
Y11182D01*
X44350Y11261D01*
X44508D01*
X44587Y11182D01*
X44114D02*
X44036Y11261D01*
X43878D01*
X43799Y11182D01*
Y10867D01*
X43878Y10789D01*
X44036D01*
X44114Y10867D01*
Y11182D01*
X43642Y10789D02*
X43485D01*
X43563D01*
Y11261D01*
X43642Y11182D01*
X43248Y10867D02*
X43170Y10789D01*
X43012D01*
X42934Y10867D01*
Y11182D01*
X43012Y11261D01*
X43170D01*
X43248Y11182D01*
Y11104D01*
X43170Y11025D01*
X42934D01*
X49309Y9982D02*
Y10454D01*
X49073D01*
X48995Y10375D01*
Y10218D01*
X49073Y10139D01*
X49309D01*
X49152D02*
X48995Y9982D01*
X48601D02*
X48758D01*
X48837Y10061D01*
Y10218D01*
X48758Y10297D01*
X48601D01*
X48522Y10218D01*
Y10139D01*
X48837D01*
X48365Y10297D02*
X48207Y9982D01*
X48050Y10297D01*
X47893Y9982D02*
Y10061D01*
X47814D01*
Y9982D01*
X47893D01*
X47027D02*
X46869D01*
X46948D01*
Y10454D01*
X47027Y10375D01*
X46633Y9982D02*
Y10061D01*
X46554D01*
Y9982D01*
X46633D01*
X46240D02*
X46082D01*
X46161D01*
Y10454D01*
X46240Y10375D01*
D65*
X38071Y11614D02*
X38701D01*
X38071D02*
Y11929D01*
X38701Y11614D02*
Y11929D01*
X44567Y1831D02*
Y3012D01*
X42992Y1831D02*
Y3012D01*
X1929Y11431D02*
Y11561D01*
X1673D02*
X1929D01*
Y10761D02*
Y10880D01*
X1698Y10761D02*
X1929D01*
X24803Y12736D02*
X25591D01*
X24803Y12047D02*
Y12736D01*
X35433Y12146D02*
Y12736D01*
X34843D02*
X35433D01*
Y2894D02*
Y3484D01*
X34843Y2894D02*
X35433D01*
X24803D02*
Y3386D01*
Y2894D02*
X25394D01*
X41575Y1457D02*
X42205D01*
X41575Y3268D02*
X42205D01*
X45354Y2087D02*
X45984D01*
X45354Y3898D02*
X45984D01*
X22835Y9469D02*
X24016D01*
X22835Y8091D02*
X24016D01*
X22835Y9469D02*
X24016D01*
X22835Y10846D02*
X24016D01*
X15354Y2008D02*
Y2598D01*
X14764Y2008D02*
X15354D01*
X5512D02*
Y2598D01*
Y2008D02*
X6102D01*
X5512Y12933D02*
X6102D01*
X5512Y12343D02*
Y12933D01*
X14764D02*
X15354D01*
Y12343D02*
Y12933D01*
X19646Y7008D02*
Y7323D01*
X18110Y9961D02*
Y10276D01*
X9291Y11339D02*
Y11654D01*
X24606Y8898D02*
Y9213D01*
X21693Y10197D02*
X22008D01*
X3878Y8996D02*
X4193D01*
X37480Y11339D02*
X37795D01*
X40295Y4606D02*
X40610D01*
X47077Y3858D02*
X47392D01*
X827Y8622D02*
X1142D01*
X42874Y3622D02*
Y3937D01*
X44843Y4114D02*
Y4429D01*
X43622Y4843D02*
X43937D01*
X40236Y11181D02*
X40551D01*
X40925Y4843D02*
X41437D01*
X46309Y5217D02*
X46821D01*
X45472Y1614D02*
X45787D01*
X45472Y984D02*
X45787D01*
Y1614D01*
X41929Y1299D02*
X42244D01*
X41929Y669D02*
X42244D01*
Y1299D01*
X4370Y10472D02*
X4685D01*
X12310Y1653D02*
X12520D01*
Y1496D01*
X12415D01*
X12520D01*
Y1339D01*
X12205Y1653D02*
Y1339D01*
X12047D01*
X11995Y1391D01*
Y1444D01*
X12047Y1496D01*
X12205D01*
X12047D01*
X11995Y1548D01*
Y1601D01*
X12047Y1653D01*
X12205D01*
X11680D02*
X11890D01*
Y1496D01*
X11785Y1548D01*
X11733D01*
X11680Y1496D01*
Y1391D01*
X11733Y1339D01*
X11837D01*
X11890Y1391D01*
X10774Y1653D02*
X10984D01*
Y1496D01*
X10879D01*
X10984D01*
Y1339D01*
X10669Y1653D02*
Y1339D01*
X10512D01*
X10459Y1391D01*
Y1444D01*
X10512Y1496D01*
X10669D01*
X10512D01*
X10459Y1548D01*
Y1601D01*
X10512Y1653D01*
X10669D01*
X10145D02*
X10250Y1601D01*
X10355Y1496D01*
Y1391D01*
X10302Y1339D01*
X10197D01*
X10145Y1391D01*
Y1444D01*
X10197Y1496D01*
X10355D01*
X27402Y7651D02*
X27336Y7716D01*
X27205D01*
X27139Y7651D01*
Y7585D01*
X27205Y7520D01*
X27270D01*
X27205D01*
X27139Y7454D01*
Y7388D01*
X27205Y7323D01*
X27336D01*
X27402Y7388D01*
X27402Y11220D02*
Y11614D01*
X27598Y11417D01*
X27336D01*
X31378Y7362D02*
X31247D01*
X31312D01*
Y7756D01*
X31378Y7690D01*
X32651Y11653D02*
X32782Y11588D01*
X32913Y11457D01*
Y11325D01*
X32848Y11260D01*
X32717D01*
X32651Y11325D01*
Y11391D01*
X32717Y11457D01*
X32913D01*
X15079Y10276D02*
X14948D01*
X15013D01*
Y10669D01*
X15079Y10604D01*
X14488Y10669D02*
X14620Y10604D01*
X14751Y10472D01*
Y10341D01*
X14685Y10276D01*
X14554D01*
X14488Y10341D01*
Y10407D01*
X14554Y10472D01*
X14751D01*
X6496Y10341D02*
X6430Y10276D01*
X6299D01*
X6234Y10341D01*
Y10604D01*
X6299Y10669D01*
X6430D01*
X6496Y10604D01*
Y10538D01*
X6430Y10472D01*
X6234D01*
X6181Y7349D02*
X6247Y7284D01*
X6378D01*
X6443Y7349D01*
Y7415D01*
X6378Y7480D01*
X6443Y7546D01*
Y7612D01*
X6378Y7677D01*
X6247D01*
X6181Y7612D01*
Y7546D01*
X6247Y7480D01*
X6181Y7415D01*
Y7349D01*
X6247Y7480D02*
X6378D01*
X14606Y7244D02*
X14475D01*
X14541D01*
Y7638D01*
X14606Y7572D01*
X4423Y4803D02*
X4685D01*
X4423Y5066D01*
Y5131D01*
X4488Y5197D01*
X4619D01*
X4685Y5131D01*
X4291D02*
X4226Y5197D01*
X4095D01*
X4029Y5131D01*
Y4869D01*
X4095Y4803D01*
X4226D01*
X4291Y4869D01*
Y5131D01*
X16496Y4843D02*
X16365D01*
X16430D01*
Y5236D01*
X16496Y5171D01*
X16168Y4908D02*
X16102Y4843D01*
X15971D01*
X15906Y4908D01*
Y5171D01*
X15971Y5236D01*
X16102D01*
X16168Y5171D01*
Y5105D01*
X16102Y5039D01*
X15906D01*
D66*
X36181Y9843D02*
Y10118D01*
X36043D01*
X35997Y10072D01*
Y9980D01*
X36043Y9934D01*
X36181D01*
X36089D02*
X35997Y9843D01*
X35722Y10118D02*
X35906D01*
Y9980D01*
X35814Y10026D01*
X35768D01*
X35722Y9980D01*
Y9888D01*
X35768Y9843D01*
X35860D01*
X35906Y9888D01*
X35630Y10072D02*
X35584Y10118D01*
X35492D01*
X35446Y10072D01*
Y10026D01*
X35492Y9980D01*
X35538D01*
X35492D01*
X35446Y9934D01*
Y9888D01*
X35492Y9843D01*
X35584D01*
X35630Y9888D01*
X11929Y11968D02*
Y12244D01*
X11791D01*
X11745Y12198D01*
Y12106D01*
X11791Y12060D01*
X11929D01*
X11837D02*
X11745Y11968D01*
X11470Y12244D02*
X11654D01*
Y12106D01*
X11562Y12152D01*
X11516D01*
X11470Y12106D01*
Y12014D01*
X11516Y11968D01*
X11608D01*
X11654Y12014D01*
X11194Y11968D02*
X11378D01*
X11194Y12152D01*
Y12198D01*
X11240Y12244D01*
X11332D01*
X11378Y12198D01*
X7795Y12087D02*
Y12362D01*
X7658D01*
X7612Y12316D01*
Y12224D01*
X7658Y12178D01*
X7795D01*
X7703D02*
X7612Y12087D01*
X7336Y12362D02*
X7520D01*
Y12224D01*
X7428Y12270D01*
X7382D01*
X7336Y12224D01*
Y12133D01*
X7382Y12087D01*
X7474D01*
X7520Y12133D01*
X7244Y12087D02*
X7152D01*
X7198D01*
Y12362D01*
X7244Y12316D01*
X2677Y10866D02*
X2402D01*
Y11004D01*
X2447Y11050D01*
X2631D01*
X2677Y11004D01*
Y10866D01*
Y11142D02*
Y11325D01*
X2631D01*
X2447Y11142D01*
X2402D01*
X40485Y10400D02*
X40531Y10354D01*
Y10262D01*
X40485Y10217D01*
X40302D01*
X40256Y10262D01*
Y10354D01*
X40302Y10400D01*
X40485Y10492D02*
X40531Y10538D01*
Y10630D01*
X40485Y10676D01*
X40440D01*
X40394Y10630D01*
Y10584D01*
Y10630D01*
X40348Y10676D01*
X40302D01*
X40256Y10630D01*
Y10538D01*
X40302Y10492D01*
X40531Y10951D02*
Y10768D01*
X40394D01*
X40440Y10859D01*
Y10905D01*
X40394Y10951D01*
X40302D01*
X40256Y10905D01*
Y10813D01*
X40302Y10768D01*
X43891Y5223D02*
X43937Y5177D01*
Y5085D01*
X43891Y5039D01*
X43707D01*
X43661Y5085D01*
Y5177D01*
X43707Y5223D01*
X43661Y5315D02*
Y5407D01*
Y5361D01*
X43937D01*
X43891Y5315D01*
X42060Y387D02*
X42106Y433D01*
X42198D01*
X42244Y387D01*
Y203D01*
X42198Y157D01*
X42106D01*
X42060Y203D01*
X41785Y157D02*
X41969D01*
X41785Y341D01*
Y387D01*
X41831Y433D01*
X41923D01*
X41969Y387D01*
X45682Y722D02*
X45728Y768D01*
X45820D01*
X45866Y722D01*
Y538D01*
X45820Y492D01*
X45728D01*
X45682Y538D01*
X45591Y722D02*
X45545Y768D01*
X45453D01*
X45407Y722D01*
Y676D01*
X45453Y630D01*
X45499D01*
X45453D01*
X45407Y584D01*
Y538D01*
X45453Y492D01*
X45545D01*
X45591Y538D01*
X46696Y5577D02*
X46742Y5531D01*
Y5440D01*
X46696Y5394D01*
X46512D01*
X46467Y5440D01*
Y5531D01*
X46512Y5577D01*
X46467Y5807D02*
X46742D01*
X46604Y5669D01*
Y5853D01*
X45604Y5466D02*
X45650Y5512D01*
X45741D01*
X45787Y5466D01*
Y5282D01*
X45741Y5236D01*
X45650D01*
X45604Y5282D01*
X45328Y5512D02*
X45512D01*
Y5374D01*
X45420Y5420D01*
X45374D01*
X45328Y5374D01*
Y5282D01*
X45374Y5236D01*
X45466D01*
X45512Y5282D01*
X42415Y5033D02*
X42461Y5079D01*
X42553D01*
X42598Y5033D01*
Y4849D01*
X42553Y4803D01*
X42461D01*
X42415Y4849D01*
X42139Y5079D02*
X42231Y5033D01*
X42323Y4941D01*
Y4849D01*
X42277Y4803D01*
X42185D01*
X42139Y4849D01*
Y4895D01*
X42185Y4941D01*
X42323D01*
X41234Y5230D02*
X41280Y5275D01*
X41371D01*
X41417Y5230D01*
Y5046D01*
X41371Y5000D01*
X41280D01*
X41234Y5046D01*
X41142Y5275D02*
X40958D01*
Y5230D01*
X41142Y5046D01*
Y5000D01*
X584Y9042D02*
X630Y8996D01*
Y8904D01*
X584Y8858D01*
X400D01*
X354Y8904D01*
Y8996D01*
X400Y9042D01*
X354Y9134D02*
Y9226D01*
Y9180D01*
X630D01*
X584Y9134D01*
Y9363D02*
X630Y9409D01*
Y9501D01*
X584Y9547D01*
X400D01*
X354Y9501D01*
Y9409D01*
X400Y9363D01*
X584D01*
X47365Y5459D02*
X47411Y5413D01*
Y5322D01*
X47365Y5276D01*
X47182D01*
X47136Y5322D01*
Y5413D01*
X47182Y5459D01*
X47136Y5551D02*
Y5643D01*
Y5597D01*
X47411D01*
X47365Y5551D01*
X47411Y5964D02*
Y5781D01*
X47274D01*
X47319Y5873D01*
Y5918D01*
X47274Y5964D01*
X47182D01*
X47136Y5918D01*
Y5827D01*
X47182Y5781D01*
X39993Y3884D02*
X40039Y3839D01*
Y3747D01*
X39993Y3701D01*
X39810D01*
X39764Y3747D01*
Y3839D01*
X39810Y3884D01*
X39764Y3976D02*
Y4068D01*
Y4022D01*
X40039D01*
X39993Y3976D01*
X40039Y4390D02*
X39993Y4298D01*
X39902Y4206D01*
X39810D01*
X39764Y4252D01*
Y4344D01*
X39810Y4390D01*
X39856D01*
X39902Y4344D01*
Y4206D01*
X37526Y10958D02*
X37480Y11004D01*
Y11096D01*
X37526Y11142D01*
X37710D01*
X37756Y11096D01*
Y11004D01*
X37710Y10958D01*
X37756Y10866D02*
Y10774D01*
Y10820D01*
X37480D01*
X37526Y10866D01*
X37710Y10637D02*
X37756Y10591D01*
Y10499D01*
X37710Y10453D01*
X37526D01*
X37480Y10499D01*
Y10591D01*
X37526Y10637D01*
X37572D01*
X37618Y10591D01*
Y10453D01*
X38274Y10604D02*
X38228Y10650D01*
Y10741D01*
X38274Y10787D01*
X38458D01*
X38504Y10741D01*
Y10650D01*
X38458Y10604D01*
X38504Y10328D02*
Y10512D01*
X38320Y10328D01*
X38274D01*
X38228Y10374D01*
Y10466D01*
X38274Y10512D01*
Y10236D02*
X38228Y10190D01*
Y10099D01*
X38274Y10053D01*
X38458D01*
X38504Y10099D01*
Y10190D01*
X38458Y10236D01*
X38274D01*
X4678Y8569D02*
X4724Y8524D01*
Y8432D01*
X4678Y8386D01*
X4495D01*
X4449Y8432D01*
Y8524D01*
X4495Y8569D01*
X4449Y8845D02*
Y8661D01*
X4632Y8845D01*
X4678D01*
X4724Y8799D01*
Y8707D01*
X4678Y8661D01*
X4449Y8937D02*
Y9029D01*
Y8983D01*
X4724D01*
X4678Y8937D01*
X21962Y10538D02*
X22008Y10492D01*
Y10400D01*
X21962Y10354D01*
X21778D01*
X21732Y10400D01*
Y10492D01*
X21778Y10538D01*
X21732Y10813D02*
Y10630D01*
X21916Y10813D01*
X21962D01*
X22008Y10768D01*
Y10676D01*
X21962Y10630D01*
X22008Y11089D02*
Y10905D01*
X21870D01*
X21916Y10997D01*
Y11043D01*
X21870Y11089D01*
X21778D01*
X21732Y11043D01*
Y10951D01*
X21778Y10905D01*
X26627Y9167D02*
X26673Y9213D01*
X26765D01*
X26811Y9167D01*
Y8983D01*
X26765Y8937D01*
X26673D01*
X26627Y8983D01*
X26352Y8937D02*
X26536D01*
X26352Y9121D01*
Y9167D01*
X26398Y9213D01*
X26490D01*
X26536Y9167D01*
X26076Y9213D02*
X26168Y9167D01*
X26260Y9075D01*
Y8983D01*
X26214Y8937D01*
X26122D01*
X26076Y8983D01*
Y9029D01*
X26122Y9075D01*
X26260D01*
X7651Y11568D02*
X7697Y11614D01*
X7789D01*
X7835Y11568D01*
Y11385D01*
X7789Y11339D01*
X7697D01*
X7651Y11385D01*
X7375Y11339D02*
X7559D01*
X7375Y11522D01*
Y11568D01*
X7421Y11614D01*
X7513D01*
X7559Y11568D01*
X7284Y11614D02*
X7100D01*
Y11568D01*
X7284Y11385D01*
Y11339D01*
X17730Y10230D02*
X17776Y10275D01*
X17867D01*
X17913Y10230D01*
Y10046D01*
X17867Y10000D01*
X17776D01*
X17730Y10046D01*
X17638Y10230D02*
X17592Y10275D01*
X17500D01*
X17454Y10230D01*
Y10184D01*
X17500Y10138D01*
X17546D01*
X17500D01*
X17454Y10092D01*
Y10046D01*
X17500Y10000D01*
X17592D01*
X17638Y10046D01*
X17362Y10230D02*
X17316Y10275D01*
X17225D01*
X17179Y10230D01*
Y10184D01*
X17225Y10138D01*
X17271D01*
X17225D01*
X17179Y10092D01*
Y10046D01*
X17225Y10000D01*
X17316D01*
X17362Y10046D01*
X19186Y6726D02*
X19232Y6772D01*
X19324D01*
X19370Y6726D01*
Y6542D01*
X19324Y6496D01*
X19232D01*
X19186Y6542D01*
X19095Y6726D02*
X19049Y6772D01*
X18957D01*
X18911Y6726D01*
Y6680D01*
X18957Y6634D01*
X19003D01*
X18957D01*
X18911Y6588D01*
Y6542D01*
X18957Y6496D01*
X19049D01*
X19095Y6542D01*
X18681Y6496D02*
Y6772D01*
X18819Y6634D01*
X18635D01*
X5748Y6969D02*
X5472D01*
Y7106D01*
X5518Y7152D01*
X5702D01*
X5748Y7106D01*
Y6969D01*
X5472Y7428D02*
Y7244D01*
X5656Y7428D01*
X5702D01*
X5748Y7382D01*
Y7290D01*
X5702Y7244D01*
X3248Y10728D02*
X2972D01*
Y10866D01*
X3018Y10912D01*
X3202D01*
X3248Y10866D01*
Y10728D01*
Y11188D02*
Y11004D01*
X3110D01*
X3156Y11096D01*
Y11142D01*
X3110Y11188D01*
X3018D01*
X2972Y11142D01*
Y11050D01*
X3018Y11004D01*
X1457Y5945D02*
Y5669D01*
X1319D01*
X1273Y5715D01*
Y5899D01*
X1319Y5945D01*
X1457D01*
X1181Y5715D02*
X1135Y5669D01*
X1043D01*
X998Y5715D01*
Y5899D01*
X1043Y5945D01*
X1135D01*
X1181Y5899D01*
Y5853D01*
X1135Y5807D01*
X998D01*
X36864Y11772D02*
X37047D01*
Y11634D01*
X36955D01*
X37047D01*
Y11496D01*
X36772Y11772D02*
Y11496D01*
X36634D01*
X36588Y11542D01*
Y11588D01*
X36634Y11634D01*
X36772D01*
X36634D01*
X36588Y11680D01*
Y11726D01*
X36634Y11772D01*
X36772D01*
X36496Y11496D02*
X36404D01*
X36450D01*
Y11772D01*
X36496Y11726D01*
X47165Y2323D02*
Y2047D01*
X46982D01*
X46890D02*
X46798D01*
X46844D01*
Y2323D01*
X46890Y2277D01*
X40630Y1811D02*
Y1535D01*
X40446D01*
X40171D02*
X40354D01*
X40171Y1719D01*
Y1765D01*
X40217Y1811D01*
X40308D01*
X40354Y1765D01*
X1037Y6936D02*
Y7119D01*
X1083Y7165D01*
X1175D01*
X1220Y7119D01*
Y6936D01*
X1175Y6890D01*
X1083D01*
X1129Y6982D02*
X1037Y6890D01*
X1083D02*
X1037Y6936D01*
X761Y6890D02*
X945D01*
X761Y7073D01*
Y7119D01*
X807Y7165D01*
X899D01*
X945Y7119D01*
X2415Y11581D02*
Y11765D01*
X2461Y11811D01*
X2553D01*
X2598Y11765D01*
Y11581D01*
X2553Y11535D01*
X2461D01*
X2507Y11627D02*
X2415Y11535D01*
X2461D02*
X2415Y11581D01*
X2323Y11765D02*
X2277Y11811D01*
X2185D01*
X2139Y11765D01*
Y11719D01*
X2185Y11673D01*
X2231D01*
X2185D01*
X2139Y11627D01*
Y11581D01*
X2185Y11535D01*
X2277D01*
X2323Y11581D01*
X45039Y276D02*
Y551D01*
X44902D01*
X44856Y505D01*
Y413D01*
X44902Y367D01*
X45039D01*
X44948D02*
X44856Y276D01*
X44580D02*
X44764D01*
X44580Y459D01*
Y505D01*
X44626Y551D01*
X44718D01*
X44764Y505D01*
X45768Y5679D02*
Y5955D01*
X45630D01*
X45584Y5909D01*
Y5817D01*
X45630Y5771D01*
X45768D01*
X45676D02*
X45584Y5679D01*
X45492Y5909D02*
X45446Y5955D01*
X45354D01*
X45309Y5909D01*
Y5863D01*
X45354Y5817D01*
X45400D01*
X45354D01*
X45309Y5771D01*
Y5725D01*
X45354Y5679D01*
X45446D01*
X45492Y5725D01*
X42618Y5315D02*
Y5590D01*
X42480D01*
X42434Y5545D01*
Y5453D01*
X42480Y5407D01*
X42618D01*
X42526D02*
X42434Y5315D01*
X42205D02*
Y5590D01*
X42343Y5453D01*
X42159D01*
X44291Y5000D02*
X44567D01*
Y5138D01*
X44521Y5184D01*
X44429D01*
X44383Y5138D01*
Y5000D01*
Y5092D02*
X44291Y5184D01*
X44567Y5459D02*
Y5275D01*
X44429D01*
X44475Y5367D01*
Y5413D01*
X44429Y5459D01*
X44337D01*
X44291Y5413D01*
Y5321D01*
X44337Y5275D01*
X43032Y5000D02*
X43307D01*
Y5138D01*
X43261Y5184D01*
X43169D01*
X43123Y5138D01*
Y5000D01*
Y5092D02*
X43032Y5184D01*
X43307Y5459D02*
X43261Y5367D01*
X43169Y5275D01*
X43077D01*
X43032Y5321D01*
Y5413D01*
X43077Y5459D01*
X43123D01*
X43169Y5413D01*
Y5275D01*
X5079Y10669D02*
X5354D01*
Y10807D01*
X5308Y10853D01*
X5216D01*
X5171Y10807D01*
Y10669D01*
Y10761D02*
X5079Y10853D01*
X5354Y10945D02*
Y11128D01*
X5308D01*
X5125Y10945D01*
X5079D01*
X3622Y10669D02*
X3898D01*
Y10807D01*
X3852Y10853D01*
X3760D01*
X3714Y10807D01*
Y10669D01*
Y10761D02*
X3622Y10853D01*
X3852Y10945D02*
X3898Y10991D01*
Y11083D01*
X3852Y11128D01*
X3806D01*
X3760Y11083D01*
X3714Y11128D01*
X3668D01*
X3622Y11083D01*
Y10991D01*
X3668Y10945D01*
X3714D01*
X3760Y10991D01*
X3806Y10945D01*
X3852D01*
X3760Y10991D02*
Y11083D01*
X1024Y10000D02*
X1299D01*
Y10138D01*
X1253Y10184D01*
X1161D01*
X1115Y10138D01*
Y10000D01*
Y10092D02*
X1024Y10184D01*
Y10275D02*
Y10367D01*
Y10321D01*
X1299D01*
X1253Y10275D01*
X1024Y10689D02*
Y10505D01*
X1207Y10689D01*
X1253D01*
X1299Y10643D01*
Y10551D01*
X1253Y10505D01*
X1181Y12520D02*
Y12795D01*
X1043D01*
X997Y12749D01*
Y12657D01*
X1043Y12612D01*
X1181D01*
X1089D02*
X997Y12520D01*
X906D02*
X814D01*
X860D01*
Y12795D01*
X906Y12749D01*
X676D02*
X630Y12795D01*
X538D01*
X492Y12749D01*
Y12703D01*
X538Y12657D01*
X584D01*
X538D01*
X492Y12612D01*
Y12566D01*
X538Y12520D01*
X630D01*
X676Y12566D01*
X3189Y12087D02*
Y12362D01*
X3051D01*
X3005Y12316D01*
Y12224D01*
X3051Y12178D01*
X3189D01*
X3097D02*
X3005Y12087D01*
X2913D02*
X2822D01*
X2868D01*
Y12362D01*
X2913Y12316D01*
X2500Y12362D02*
X2592Y12316D01*
X2684Y12224D01*
Y12133D01*
X2638Y12087D01*
X2546D01*
X2500Y12133D01*
Y12178D01*
X2546Y12224D01*
X2684D01*
X41535Y10236D02*
X41811D01*
Y10374D01*
X41765Y10420D01*
X41673D01*
X41627Y10374D01*
Y10236D01*
Y10328D02*
X41535Y10420D01*
Y10512D02*
Y10604D01*
Y10558D01*
X41811D01*
X41765Y10512D01*
X41811Y10741D02*
Y10925D01*
X41765D01*
X41581Y10741D01*
X41535D01*
X39173Y6890D02*
X39449D01*
Y7028D01*
X39403Y7073D01*
X39311D01*
X39265Y7028D01*
Y6890D01*
Y6982D02*
X39173Y7073D01*
Y7165D02*
Y7257D01*
Y7211D01*
X39449D01*
X39403Y7165D01*
Y7395D02*
X39449Y7441D01*
Y7533D01*
X39403Y7579D01*
X39357D01*
X39311Y7533D01*
X39265Y7579D01*
X39219D01*
X39173Y7533D01*
Y7441D01*
X39219Y7395D01*
X39265D01*
X39311Y7441D01*
X39357Y7395D01*
X39403D01*
X39311Y7441D02*
Y7533D01*
X38346Y6890D02*
X38622D01*
Y7028D01*
X38576Y7073D01*
X38484D01*
X38438Y7028D01*
Y6890D01*
Y6982D02*
X38346Y7073D01*
Y7165D02*
Y7257D01*
Y7211D01*
X38622D01*
X38576Y7165D01*
X38392Y7395D02*
X38346Y7441D01*
Y7533D01*
X38392Y7579D01*
X38576D01*
X38622Y7533D01*
Y7441D01*
X38576Y7395D01*
X38530D01*
X38484Y7441D01*
Y7579D01*
X39961Y6890D02*
X40236D01*
Y7028D01*
X40190Y7073D01*
X40098D01*
X40052Y7028D01*
Y6890D01*
Y6982D02*
X39961Y7073D01*
Y7349D02*
Y7165D01*
X40144Y7349D01*
X40190D01*
X40236Y7303D01*
Y7211D01*
X40190Y7165D01*
Y7441D02*
X40236Y7487D01*
Y7579D01*
X40190Y7624D01*
X40007D01*
X39961Y7579D01*
Y7487D01*
X40007Y7441D01*
X40190D01*
X40886Y10236D02*
X41161D01*
Y10374D01*
X41115Y10420D01*
X41024D01*
X40978Y10374D01*
Y10236D01*
Y10328D02*
X40886Y10420D01*
Y10695D02*
Y10512D01*
X41069Y10695D01*
X41115D01*
X41161Y10649D01*
Y10558D01*
X41115Y10512D01*
X40886Y10787D02*
Y10879D01*
Y10833D01*
X41161D01*
X41115Y10787D01*
X38386Y4685D02*
Y4961D01*
X38248D01*
X38202Y4915D01*
Y4823D01*
X38248Y4777D01*
X38386D01*
X38294D02*
X38202Y4685D01*
X37927D02*
X38110D01*
X37927Y4869D01*
Y4915D01*
X37973Y4961D01*
X38064D01*
X38110Y4915D01*
X37651Y4685D02*
X37835D01*
X37651Y4869D01*
Y4915D01*
X37697Y4961D01*
X37789D01*
X37835Y4915D01*
X37953Y6417D02*
Y6693D01*
X37815D01*
X37769Y6647D01*
Y6555D01*
X37815Y6509D01*
X37953D01*
X37861D02*
X37769Y6417D01*
X37494D02*
X37677D01*
X37494Y6601D01*
Y6647D01*
X37540Y6693D01*
X37631D01*
X37677Y6647D01*
X37402D02*
X37356Y6693D01*
X37264D01*
X37218Y6647D01*
Y6601D01*
X37264Y6555D01*
X37310D01*
X37264D01*
X37218Y6509D01*
Y6463D01*
X37264Y6417D01*
X37356D01*
X37402Y6463D01*
X41457Y6024D02*
Y6299D01*
X41319D01*
X41273Y6253D01*
Y6161D01*
X41319Y6115D01*
X41457D01*
X41365D02*
X41273Y6024D01*
X40998D02*
X41181D01*
X40998Y6207D01*
Y6253D01*
X41043Y6299D01*
X41135D01*
X41181Y6253D01*
X40768Y6024D02*
Y6299D01*
X40906Y6161D01*
X40722D01*
X5768Y3366D02*
X6043D01*
Y3504D01*
X5997Y3550D01*
X5905D01*
X5860Y3504D01*
Y3366D01*
Y3458D02*
X5768Y3550D01*
X5997Y3642D02*
X6043Y3688D01*
Y3779D01*
X5997Y3825D01*
X5951D01*
X5905Y3779D01*
Y3733D01*
Y3779D01*
X5860Y3825D01*
X5814D01*
X5768Y3779D01*
Y3688D01*
X5814Y3642D01*
X5768Y3917D02*
Y4009D01*
Y3963D01*
X6043D01*
X5997Y3917D01*
X27992Y10079D02*
X28268D01*
Y10216D01*
X28222Y10262D01*
X28130D01*
X28084Y10216D01*
Y10079D01*
Y10171D02*
X27992Y10262D01*
X28222Y10354D02*
X28268Y10400D01*
Y10492D01*
X28222Y10538D01*
X28176D01*
X28130Y10492D01*
Y10446D01*
Y10492D01*
X28084Y10538D01*
X28038D01*
X27992Y10492D01*
Y10400D01*
X28038Y10354D01*
X28222Y10630D02*
X28268Y10676D01*
Y10767D01*
X28222Y10813D01*
X28176D01*
X28130Y10767D01*
Y10722D01*
Y10767D01*
X28084Y10813D01*
X28038D01*
X27992Y10767D01*
Y10676D01*
X28038Y10630D01*
X24449Y11575D02*
Y11850D01*
X24311D01*
X24265Y11804D01*
Y11713D01*
X24311Y11667D01*
X24449D01*
X24357D02*
X24265Y11575D01*
X24173Y11804D02*
X24127Y11850D01*
X24036D01*
X23990Y11804D01*
Y11758D01*
X24036Y11713D01*
X24081D01*
X24036D01*
X23990Y11667D01*
Y11621D01*
X24036Y11575D01*
X24127D01*
X24173Y11621D01*
X23760Y11575D02*
Y11850D01*
X23898Y11713D01*
X23714D01*
X23228Y11575D02*
Y11850D01*
X23091D01*
X23045Y11804D01*
Y11713D01*
X23091Y11667D01*
X23228D01*
X23137D02*
X23045Y11575D01*
X22953Y11804D02*
X22907Y11850D01*
X22815D01*
X22769Y11804D01*
Y11758D01*
X22815Y11713D01*
X22861D01*
X22815D01*
X22769Y11667D01*
Y11621D01*
X22815Y11575D01*
X22907D01*
X22953Y11621D01*
X22494Y11850D02*
X22677D01*
Y11713D01*
X22586Y11758D01*
X22540D01*
X22494Y11713D01*
Y11621D01*
X22540Y11575D01*
X22631D01*
X22677Y11621D01*
X26772Y10157D02*
Y10433D01*
X26634D01*
X26588Y10387D01*
Y10295D01*
X26634Y10249D01*
X26772D01*
X26680D02*
X26588Y10157D01*
X26496Y10387D02*
X26450Y10433D01*
X26358D01*
X26312Y10387D01*
Y10341D01*
X26358Y10295D01*
X26404D01*
X26358D01*
X26312Y10249D01*
Y10203D01*
X26358Y10157D01*
X26450D01*
X26496Y10203D01*
X26037Y10433D02*
X26129Y10387D01*
X26221Y10295D01*
Y10203D01*
X26175Y10157D01*
X26083D01*
X26037Y10203D01*
Y10249D01*
X26083Y10295D01*
X26221D01*
X26811Y9567D02*
Y9842D01*
X26673D01*
X26627Y9797D01*
Y9705D01*
X26673Y9659D01*
X26811D01*
X26719D02*
X26627Y9567D01*
X26536Y9797D02*
X26490Y9842D01*
X26398D01*
X26352Y9797D01*
Y9751D01*
X26398Y9705D01*
X26444D01*
X26398D01*
X26352Y9659D01*
Y9613D01*
X26398Y9567D01*
X26490D01*
X26536Y9613D01*
X26260Y9797D02*
X26214Y9842D01*
X26122D01*
X26076Y9797D01*
Y9751D01*
X26122Y9705D01*
X26076Y9659D01*
Y9613D01*
X26122Y9567D01*
X26214D01*
X26260Y9613D01*
Y9659D01*
X26214Y9705D01*
X26260Y9751D01*
Y9797D01*
X26214Y9705D02*
X26122D01*
X20709Y4134D02*
X20433D01*
Y3996D01*
X20479Y3950D01*
X20571D01*
X20617Y3996D01*
Y4134D01*
Y4042D02*
X20709Y3950D01*
X20479Y3858D02*
X20433Y3812D01*
Y3721D01*
X20479Y3675D01*
X20525D01*
X20571Y3721D01*
Y3767D01*
Y3721D01*
X20617Y3675D01*
X20663D01*
X20709Y3721D01*
Y3812D01*
X20663Y3858D01*
Y3583D02*
X20709Y3537D01*
Y3445D01*
X20663Y3399D01*
X20479D01*
X20433Y3445D01*
Y3537D01*
X20479Y3583D01*
X20525D01*
X20571Y3537D01*
Y3399D01*
X23937Y7126D02*
Y7401D01*
X23799D01*
X23753Y7356D01*
Y7264D01*
X23799Y7218D01*
X23937D01*
X23845D02*
X23753Y7126D01*
X23524D02*
Y7401D01*
X23662Y7264D01*
X23478D01*
X23386Y7356D02*
X23340Y7401D01*
X23248D01*
X23202Y7356D01*
Y7172D01*
X23248Y7126D01*
X23340D01*
X23386Y7172D01*
Y7356D01*
X26772Y8346D02*
Y8622D01*
X26634D01*
X26588Y8576D01*
Y8484D01*
X26634Y8438D01*
X26772D01*
X26680D02*
X26588Y8346D01*
X26358D02*
Y8622D01*
X26496Y8484D01*
X26312D01*
X26221Y8346D02*
X26129D01*
X26175D01*
Y8622D01*
X26221Y8576D01*
X42717Y6614D02*
Y6890D01*
X42579D01*
X42533Y6844D01*
Y6752D01*
X42579Y6706D01*
X42717D01*
X42625D02*
X42533Y6614D01*
X42303D02*
Y6890D01*
X42441Y6752D01*
X42257D01*
X42028Y6614D02*
Y6890D01*
X42166Y6752D01*
X41982D01*
X41339Y6654D02*
Y6929D01*
X41201D01*
X41155Y6883D01*
Y6791D01*
X41201Y6745D01*
X41339D01*
X41247D02*
X41155Y6654D01*
X40925D02*
Y6929D01*
X41063Y6791D01*
X40879D01*
X40604Y6929D02*
X40788D01*
Y6791D01*
X40696Y6837D01*
X40650D01*
X40604Y6791D01*
Y6699D01*
X40650Y6654D01*
X40742D01*
X40788Y6699D01*
X42638Y8268D02*
Y8543D01*
X42500D01*
X42454Y8497D01*
Y8405D01*
X42500Y8360D01*
X42638D01*
X42546D02*
X42454Y8268D01*
X42225D02*
Y8543D01*
X42362Y8405D01*
X42179D01*
X41903Y8543D02*
X41995Y8497D01*
X42087Y8405D01*
Y8314D01*
X42041Y8268D01*
X41949D01*
X41903Y8314D01*
Y8360D01*
X41949Y8405D01*
X42087D01*
X41378Y8228D02*
Y8504D01*
X41240D01*
X41194Y8458D01*
Y8366D01*
X41240Y8320D01*
X41378D01*
X41286D02*
X41194Y8228D01*
X40965D02*
Y8504D01*
X41102Y8366D01*
X40919D01*
X40827Y8504D02*
X40643D01*
Y8458D01*
X40827Y8274D01*
Y8228D01*
X25157Y10984D02*
Y10755D01*
X25112Y10709D01*
X25020D01*
X24974Y10755D01*
Y10984D01*
X24744Y10709D02*
Y10984D01*
X24882Y10846D01*
X24698D01*
X22362Y8228D02*
Y7999D01*
X22316Y7953D01*
X22224D01*
X22179Y7999D01*
Y8228D01*
X21903D02*
X22087D01*
Y8091D01*
X21995Y8136D01*
X21949D01*
X21903Y8091D01*
Y7999D01*
X21949Y7953D01*
X22041D01*
X22087Y7999D01*
X17638Y8898D02*
Y8852D01*
X17546Y8760D01*
X17454Y8852D01*
Y8898D01*
X17546Y8760D02*
Y8622D01*
X17362D02*
X17270D01*
X17316D01*
Y8898D01*
X17362Y8852D01*
X43130Y197D02*
Y472D01*
X42992D01*
X42946Y426D01*
Y335D01*
X42992Y289D01*
X43130D01*
X43038D02*
X42946Y197D01*
X42854D02*
X42763D01*
X42808D01*
Y472D01*
X42854Y426D01*
X43406Y3573D02*
Y3343D01*
X43360Y3297D01*
X43268D01*
X43222Y3343D01*
Y3573D01*
X43130Y3297D02*
X43038D01*
X43084D01*
Y3573D01*
X43130Y3527D01*
X33071Y5984D02*
X33346D01*
Y6122D01*
X33300Y6168D01*
X33209D01*
X33163Y6122D01*
Y5984D01*
Y6076D02*
X33071Y6168D01*
X33300Y6260D02*
X33346Y6306D01*
Y6398D01*
X33300Y6443D01*
X33255D01*
X33209Y6398D01*
Y6352D01*
Y6398D01*
X33163Y6443D01*
X33117D01*
X33071Y6398D01*
Y6306D01*
X33117Y6260D01*
X33071Y6719D02*
Y6535D01*
X33255Y6719D01*
X33300D01*
X33346Y6673D01*
Y6581D01*
X33300Y6535D01*
X4600Y10853D02*
X4646Y10807D01*
Y10715D01*
X4600Y10669D01*
X4416D01*
X4370Y10715D01*
Y10807D01*
X4416Y10853D01*
X4600Y10945D02*
X4646Y10991D01*
Y11083D01*
X4600Y11128D01*
X4554D01*
X4508Y11083D01*
X4462Y11128D01*
X4416D01*
X4370Y11083D01*
Y10991D01*
X4416Y10945D01*
X4462D01*
X4508Y10991D01*
X4554Y10945D01*
X4600D01*
X4508Y10991D02*
Y11083D01*
X21102Y10354D02*
X21378D01*
Y10492D01*
X21332Y10538D01*
X21240D01*
X21194Y10492D01*
Y10354D01*
Y10446D02*
X21102Y10538D01*
X21378Y10813D02*
Y10630D01*
X21240D01*
X21286Y10722D01*
Y10768D01*
X21240Y10813D01*
X21148D01*
X21102Y10768D01*
Y10676D01*
X21148Y10630D01*
X21332Y10905D02*
X21378Y10951D01*
Y11043D01*
X21332Y11089D01*
X21148D01*
X21102Y11043D01*
Y10951D01*
X21148Y10905D01*
X21332D01*
D110*
X33398Y3892D02*
G03*
X33392Y3927I-103J2D01*
G01*
D02*
G03*
X33376Y3953I-66J-23D01*
G01*
D02*
G03*
X33351Y3969I-51J-50D01*
G01*
X33351Y3969D02*
G03*
X33321Y3975I-29J-76D01*
G01*
X33321D02*
G03*
X33291Y3969I-1J-79D01*
G01*
X33291Y3969D02*
G03*
X33267Y3953I27J-67D01*
G01*
D02*
G03*
X33250Y3927I50J-49D01*
G01*
X33250D02*
G03*
X33245Y3892I98J-33D01*
G01*
X33170Y3949D02*
G03*
X33168Y3918I170J-30D01*
G01*
X33178Y3976D02*
G03*
X33170Y3949I118J-49D01*
G01*
X33209Y4018D02*
G03*
X33178Y3976I67J-83D01*
G01*
X33252Y4044D02*
G03*
X33209Y4018I60J-149D01*
G01*
X33296Y4052D02*
G03*
X33252Y4044I0J-120D01*
G01*
X33353Y4041D02*
G03*
X33296Y4052I-55J-125D01*
G01*
X33396Y4006D02*
G03*
X33353Y4041I-91J-71D01*
G01*
X33352Y4283D02*
G03*
X33398Y4316I-87J168D01*
G01*
X33298Y4271D02*
G03*
X33352Y4283I2J117D01*
G01*
X33265Y4275D02*
G03*
X33298Y4271I32J144D01*
G01*
X33237Y4285D02*
G03*
X33265Y4275I52J96D01*
G01*
X33195Y4321D02*
G03*
X33237Y4285I104J80D01*
G01*
X33173Y4369D02*
G03*
X33195Y4321I112J22D01*
G01*
X33169Y4408D02*
G03*
X33173Y4369I284J12D01*
G01*
X33168Y4468D02*
G03*
X33169Y4408I1068J-5D01*
G01*
X33169Y4528D02*
G03*
X33168Y4468I1077J-56D01*
G01*
X33173Y4567D02*
G03*
X33169Y4528I277J-50D01*
G01*
X33195Y4615D02*
G03*
X33173Y4567I93J-71D01*
G01*
X33237Y4651D02*
G03*
X33195Y4615I66J-121D01*
G01*
X33265Y4662D02*
G03*
X33237Y4651I24J-105D01*
G01*
X33298Y4665D02*
G03*
X33265Y4662I-1J-144D01*
G01*
X33353Y4654D02*
G03*
X33298Y4665I-53J-120D01*
G01*
X33398Y4621D02*
G03*
X33353Y4654I-102J-90D01*
G01*
X30375Y4503D02*
G03*
X30368Y4541I-123J-2D01*
G01*
X30368Y4541D02*
G03*
X30351Y4569I-72J-25D01*
G01*
X30351D02*
G03*
X30325Y4587I-54J-53D01*
G01*
X30325D02*
G03*
X30293Y4592I-31J-78D01*
G01*
X30293D02*
G03*
X30262Y4587I-1J-82D01*
G01*
X30262Y4587D02*
G03*
X30237Y4569I29J-70D01*
G01*
D02*
G03*
X30219Y4541I56J-54D01*
G01*
Y4541D02*
G03*
X30212Y4503I119J-42D01*
G01*
X32123Y4288D02*
G03*
X32202Y4340I-98J237D01*
G01*
X32032Y4271D02*
G03*
X32123Y4288I2J239D01*
G01*
X31970Y4279D02*
G03*
X32032Y4271I60J227D01*
G01*
X31919Y4302D02*
G03*
X31970Y4279I97J147D01*
G01*
X31884Y4339D02*
G03*
X31919Y4302I90J49D01*
G01*
X31873Y4390D02*
G03*
X31884Y4339I106J-2D01*
G01*
X31879Y4432D02*
G03*
X31873Y4390I128J-41D01*
G01*
X31898Y4468D02*
G03*
X31879Y4432I92J-73D01*
G01*
X31933Y4494D02*
G03*
X31898Y4468I33J-80D01*
G01*
X31956Y4501D02*
G03*
X31933Y4494I27J-127D01*
G01*
X31984Y4505D02*
G03*
X31956Y4501I12J-190D01*
G01*
X32048Y4510D02*
G03*
X32073Y4514I-6J107D01*
G01*
X32073Y4514D02*
G03*
X32088Y4522I-10J36D01*
G01*
Y4522D02*
G03*
X32096Y4534I-27J28D01*
G01*
Y4534D02*
G03*
X32099Y4546I-26J12D01*
G01*
D02*
G03*
X32084Y4579I-43J1D01*
G01*
Y4579D02*
G03*
X32064Y4589I-30J-36D01*
G01*
X32064Y4589D02*
G03*
X32033Y4592I-29J-125D01*
G01*
Y4592D02*
G03*
X31977Y4582I-2J-145D01*
G01*
D02*
G03*
X31930Y4557I99J-239D01*
G01*
X31946Y4651D02*
G03*
X31882Y4613I85J-217D01*
G01*
X31986Y4662D02*
G03*
X31946Y4651I30J-191D01*
G01*
X32033Y4665D02*
G03*
X31986Y4662I-2J-289D01*
G01*
X32089Y4658D02*
G03*
X32033Y4665I-54J-191D01*
G01*
X32135Y4635D02*
G03*
X32089Y4658I-87J-120D01*
G01*
X32166Y4598D02*
G03*
X32135Y4635I-86J-40D01*
G01*
X32176Y4547D02*
G03*
X32166Y4598I-121J3D01*
G01*
X32169Y4502D02*
G03*
X32176Y4547I-109J42D01*
G01*
X32145Y4469D02*
G03*
X32169Y4502I-58J66D01*
G01*
X32109Y4447D02*
G03*
X32145Y4469I-44J112D01*
G01*
X32065Y4438D02*
G03*
X32109Y4447I-10J148D01*
G01*
X31997Y4431D02*
G03*
X31977Y4427I7J-93D01*
G01*
Y4427D02*
G03*
X31962Y4420I13J-44D01*
G01*
X31962Y4420D02*
G03*
X31953Y4408I19J-24D01*
G01*
X31953Y4408D02*
G03*
X31950Y4393I33J-14D01*
G01*
Y4393D02*
G03*
X31955Y4372I42J-1D01*
G01*
X31955D02*
G03*
X31972Y4356I37J22D01*
G01*
Y4356D02*
G03*
X31996Y4347I43J76D01*
G01*
Y4347D02*
G03*
X32026Y4344I29J132D01*
G01*
Y4344D02*
G03*
X32092Y4356I2J173D01*
G01*
D02*
G03*
X32148Y4393I-66J159D01*
G01*
X30147Y4570D02*
G03*
X30135Y4503I167J-64D01*
G01*
X30182Y4621D02*
G03*
X30147Y4570I95J-104D01*
G01*
X30234Y4654D02*
G03*
X30182Y4621I62J-154D01*
G01*
X30293Y4665D02*
G03*
X30234Y4654I-1J-160D01*
G01*
X30348Y4655D02*
G03*
X30293Y4665I-55J-136D01*
G01*
X30401Y4622D02*
G03*
X30348Y4655I-127J-148D01*
G01*
X30423Y4597D02*
G03*
X30401Y4622I-95J-60D01*
G01*
X30440Y4562D02*
G03*
X30423Y4597I-146J-47D01*
G01*
X30449Y4519D02*
G03*
X30440Y4562I-239J-31D01*
G01*
X30452Y4467D02*
G03*
X30449Y4519I-390J2D01*
G01*
X30449Y4412D02*
G03*
X30452Y4467I-388J52D01*
G01*
X30438Y4368D02*
G03*
X30449Y4412I-216J74D01*
G01*
X30421Y4334D02*
G03*
X30438Y4368I-113J79D01*
G01*
X30397Y4310D02*
G03*
X30421Y4334I-56J81D01*
G01*
X30340Y4281D02*
G03*
X30397Y4310I-73J214D01*
G01*
X30282Y4271D02*
G03*
X30340Y4281I-0J183D01*
G01*
X30207Y4285D02*
G03*
X30282Y4271I74J186D01*
G01*
X30173Y4304D02*
G03*
X30207Y4285I90J121D01*
G01*
X30142Y4333D02*
G03*
X30173Y4304I142J120D01*
G01*
X30198Y4381D02*
G03*
X30238Y4353I92J89D01*
G01*
D02*
G03*
X30283Y4344I44J101D01*
G01*
X30283D02*
G03*
X30320Y4350I1J107D01*
G01*
Y4350D02*
G03*
X30349Y4368I-29J81D01*
G01*
D02*
G03*
X30368Y4397I-50J54D01*
G01*
X30368D02*
G03*
X30375Y4439I-116J39D01*
G01*
X33322Y4348D02*
G03*
X33346Y4351I1J113D01*
G01*
Y4351D02*
G03*
X33365Y4358I-13J63D01*
G01*
Y4358D02*
G03*
X33387Y4387I-24J41D01*
G01*
X33387D02*
G03*
X33398Y4468I-290J80D01*
G01*
X33398Y4468D02*
G03*
X33387Y4549I-303J1D01*
G01*
X33387Y4549D02*
G03*
X33365Y4578I-46J-11D01*
G01*
X33365D02*
G03*
X33346Y4586I-32J-56D01*
G01*
Y4586D02*
G03*
X33322Y4588I-23J-110D01*
G01*
D02*
G03*
X33297Y4586I-1J-117D01*
G01*
D02*
G03*
X33278Y4579I13J-65D01*
G01*
D02*
G03*
X33256Y4550I23J-40D01*
G01*
D02*
G03*
X33245Y4468I284J-80D01*
G01*
X33245Y4468D02*
G03*
X33256Y4386I292J-3D01*
G01*
D02*
G03*
X33278Y4358I44J12D01*
G01*
Y4358D02*
G03*
X33297Y4351I32J58D01*
G01*
D02*
G03*
X33322Y4348I23J116D01*
G01*
X32262Y4039D02*
G03*
X32216Y4006I97J-182D01*
G01*
X32315Y4052D02*
G03*
X32262Y4039I-2J-114D01*
G01*
X32349Y4049D02*
G03*
X32315Y4052I-32J-143D01*
G01*
X32377Y4038D02*
G03*
X32349Y4049I-52J-95D01*
G01*
X32419Y4002D02*
G03*
X32377Y4038I-104J-80D01*
G01*
X32440Y3954D02*
G03*
X32419Y4002I-111J-21D01*
G01*
X32445Y3915D02*
G03*
X32440Y3954I-289J-12D01*
G01*
X32446Y3855D02*
G03*
X32445Y3915I-1091J5D01*
G01*
Y3795D02*
G03*
X32446Y3855I-1117J56D01*
G01*
X32440Y3756D02*
G03*
X32445Y3795I-292J51D01*
G01*
X32419Y3708D02*
G03*
X32440Y3756I-87J68D01*
G01*
X32377Y3672D02*
G03*
X32419Y3708I-59J111D01*
G01*
X32349Y3661D02*
G03*
X32377Y3672I-24J107D01*
G01*
X32315Y3658D02*
G03*
X32349Y3661I1J150D01*
G01*
X32261Y3669D02*
G03*
X32315Y3658I53J121D01*
G01*
X32216Y3702D02*
G03*
X32261Y3669I102J91D01*
G01*
X30963Y4507D02*
G03*
X30957Y4544I-104J2D01*
G01*
X30957Y4544D02*
G03*
X30940Y4569I-55J-20D01*
G01*
X30940Y4569D02*
G03*
X30888Y4588I-52J-60D01*
G01*
X30888Y4588D02*
G03*
X30862Y4583I0J-74D01*
G01*
Y4583D02*
G03*
X30837Y4569I36J-94D01*
G01*
X30820Y4658D02*
G03*
X30781Y4636I52J-137D01*
G01*
X30861Y4665D02*
G03*
X30820Y4658I-0J-118D01*
G01*
X30919Y4654D02*
G03*
X30861Y4665I-55J-125D01*
G01*
X30962Y4620D02*
G03*
X30919Y4654I-91J-71D01*
G01*
X31434Y4374D02*
G03*
X31436Y4405I-171J30D01*
G01*
X31426Y4347D02*
G03*
X31434Y4374I-119J49D01*
G01*
X31395Y4305D02*
G03*
X31426Y4347I-67J82D01*
G01*
X31352Y4280D02*
G03*
X31395Y4305I-59J148D01*
G01*
X31307Y4271D02*
G03*
X31352Y4280I-0J123D01*
G01*
X31251Y4282D02*
G03*
X31307Y4271I54J124D01*
G01*
X31208Y4316D02*
G03*
X31251Y4282I91J71D01*
G01*
X31206Y4431D02*
G03*
X31212Y4396I104J-2D01*
G01*
X31212D02*
G03*
X31228Y4370I65J23D01*
G01*
X31228Y4370D02*
G03*
X31252Y4354I52J51D01*
G01*
Y4354D02*
G03*
X31282Y4348I29J74D01*
G01*
Y4348D02*
G03*
X31313Y4354I1J82D01*
G01*
X31313Y4354D02*
G03*
X31337Y4370I-27J67D01*
G01*
X31337Y4370D02*
G03*
X31353Y4396I-49J49D01*
G01*
X31353Y4396D02*
G03*
X31359Y4431I-99J33D01*
G01*
X31305Y3796D02*
G03*
X31310Y3761I119J-3D01*
G01*
D02*
G03*
X31315Y3749I45J14D01*
G01*
D02*
G03*
X31323Y3741I24J16D01*
G01*
X31323D02*
G03*
X31349Y3732I36J63D01*
G01*
D02*
G03*
X31390Y3729I34J219D01*
G01*
X31390Y3729D02*
G03*
X31422Y3733I2J121D01*
G01*
Y3733D02*
G03*
X31444Y3744I-13J51D01*
G01*
X31444Y3744D02*
G03*
X31456Y3760I-31J39D01*
G01*
Y3760D02*
G03*
X31461Y3778I-35J18D01*
G01*
Y3778D02*
G03*
X31457Y3798I-44J2D01*
G01*
X31457Y3798D02*
G03*
X31445Y3812I-33J-16D01*
G01*
D02*
G03*
X31424Y3821I-34J-50D01*
G01*
D02*
G03*
X31395Y3825I-31J-129D01*
G01*
X30797Y3889D02*
G03*
X30790Y3928I-123J-2D01*
G01*
X30790D02*
G03*
X30773Y3956I-72J-25D01*
G01*
D02*
G03*
X30747Y3973I-54J-53D01*
G01*
X30747D02*
G03*
X30715Y3979I-31J-78D01*
G01*
X30715D02*
G03*
X30684Y3973I-1J-82D01*
G01*
Y3973D02*
G03*
X30659Y3956I29J-70D01*
G01*
D02*
G03*
X30641Y3928I56J-54D01*
G01*
X30641D02*
G03*
X30634Y3889I119J-42D01*
G01*
X32633Y3894D02*
G03*
X32627Y3930I-104J2D01*
G01*
X32627D02*
G03*
X32610Y3955I-55J-20D01*
G01*
X32610D02*
G03*
X32558Y3975I-52J-60D01*
G01*
X32558Y3975D02*
G03*
X32532Y3970I0J-74D01*
G01*
Y3970D02*
G03*
X32507Y3956I36J-94D01*
G01*
X32490Y4045D02*
G03*
X32451Y4022I52J-137D01*
G01*
X32531Y4052D02*
G03*
X32490Y4045I-0J-118D01*
G01*
X32589Y4041D02*
G03*
X32531Y4052I-55J-125D01*
G01*
X32632Y4006D02*
G03*
X32589Y4041I-91J-71D01*
G01*
X30569Y3956D02*
G03*
X30557Y3889I167J-64D01*
G01*
X30604Y4008D02*
G03*
X30569Y3956I95J-104D01*
G01*
X30656Y4041D02*
G03*
X30604Y4008I62J-154D01*
G01*
X30715Y4052D02*
G03*
X30656Y4041I-1J-160D01*
G01*
X30770Y4041D02*
G03*
X30715Y4052I-55J-136D01*
G01*
X30823Y4009D02*
G03*
X30770Y4041I-127J-148D01*
G01*
X30845Y3983D02*
G03*
X30823Y4009I-95J-60D01*
G01*
X30861Y3949D02*
G03*
X30845Y3983I-146J-47D01*
G01*
X30871Y3905D02*
G03*
X30861Y3949I-239J-31D01*
G01*
X30874Y3853D02*
G03*
X30871Y3905I-390J2D01*
G01*
X30871Y3799D02*
G03*
X30874Y3853I-388J52D01*
G01*
X30860Y3755D02*
G03*
X30871Y3799I-216J74D01*
G01*
X30843Y3720D02*
G03*
X30860Y3755I-113J79D01*
G01*
X30819Y3696D02*
G03*
X30843Y3720I-56J81D01*
G01*
X30762Y3667D02*
G03*
X30819Y3696I-73J214D01*
G01*
X30704Y3658D02*
G03*
X30762Y3667I-0J183D01*
G01*
X30629Y3672D02*
G03*
X30704Y3658I74J186D01*
G01*
X30595Y3691D02*
G03*
X30629Y3672I90J121D01*
G01*
X30564Y3720D02*
G03*
X30595Y3691I142J120D01*
G01*
X30620Y3768D02*
G03*
X30660Y3740I92J89D01*
G01*
D02*
G03*
X30705Y3731I44J101D01*
G01*
X30705D02*
G03*
X30741Y3736I1J107D01*
G01*
D02*
G03*
X30771Y3754I-29J81D01*
G01*
X30771D02*
G03*
X30790Y3784I-50J54D01*
G01*
X30790D02*
G03*
X30797Y3826I-116J39D01*
G01*
X31233Y3957D02*
G03*
X31230Y3925I189J-34D01*
G01*
X31241Y3985D02*
G03*
X31233Y3957I119J-50D01*
G01*
X31273Y4024D02*
G03*
X31241Y3985I53J-74D01*
G01*
X31322Y4045D02*
G03*
X31273Y4024I35J-153D01*
G01*
X31386Y4052D02*
G03*
X31322Y4045I-6J-258D01*
G01*
X31425Y4049D02*
G03*
X31386Y4052I-35J-197D01*
G01*
X31459Y4038D02*
G03*
X31425Y4049I-60J-137D01*
G01*
X31512Y3996D02*
G03*
X31459Y4038I-107J-79D01*
G01*
X31453Y3949D02*
G03*
X31427Y3973I-48J-26D01*
G01*
Y3973D02*
G03*
X31407Y3978I-34J-102D01*
G01*
D02*
G03*
X31382Y3979I-23J-181D01*
G01*
X31382Y3979D02*
G03*
X31348Y3976I-5J-157D01*
G01*
X31348D02*
G03*
X31324Y3967I12J-68D01*
G01*
X31324Y3967D02*
G03*
X31310Y3952I21J-34D01*
G01*
X31310Y3952D02*
G03*
X31305Y3929I44J-21D01*
G01*
X31462Y3880D02*
G03*
X31410Y3888I-52J-150D01*
G01*
X31500Y3855D02*
G03*
X31462Y3880I-70J-67D01*
G01*
X31523Y3818D02*
G03*
X31500Y3855I-103J-39D01*
G01*
X31531Y3774D02*
G03*
X31523Y3818I-124J1D01*
G01*
X31522Y3728D02*
G03*
X31531Y3774I-108J45D01*
G01*
X31496Y3690D02*
G03*
X31522Y3728I-72J80D01*
G01*
X31455Y3666D02*
G03*
X31496Y3690I-34J101D01*
G01*
X31399Y3656D02*
G03*
X31455Y3666I-1J180D01*
G01*
X31366Y3659D02*
G03*
X31399Y3656I32J212D01*
G01*
X31339Y3666D02*
G03*
X31366Y3659I44J108D01*
G01*
X31307Y3695D02*
G03*
X31339Y3666I55J29D01*
G01*
X32647Y4505D02*
G03*
X32641Y4540I-103J2D01*
G01*
X32641D02*
G03*
X32625Y4566I-66J-23D01*
G01*
D02*
G03*
X32600Y4582I-51J-50D01*
G01*
X32600Y4582D02*
G03*
X32570Y4588I-29J-76D01*
G01*
Y4588D02*
G03*
X32540Y4582I-1J-79D01*
G01*
Y4582D02*
G03*
X32516Y4566I27J-67D01*
G01*
X32516D02*
G03*
X32499Y4540I50J-49D01*
G01*
D02*
G03*
X32494Y4505I98J-33D01*
G01*
X32419Y4563D02*
G03*
X32416Y4532I170J-30D01*
G01*
X32427Y4589D02*
G03*
X32419Y4563I118J-49D01*
G01*
X32458Y4631D02*
G03*
X32427Y4589I67J-83D01*
G01*
X32501Y4657D02*
G03*
X32458Y4631I60J-149D01*
G01*
X32545Y4665D02*
G03*
X32501Y4657I0J-120D01*
G01*
X32602Y4654D02*
G03*
X32545Y4665I-55J-125D01*
G01*
X32645Y4620D02*
G03*
X32602Y4654I-91J-71D01*
G01*
X31584Y4468D02*
G03*
X31585Y4432I504J-3D01*
G01*
D02*
G03*
X31588Y4409I143J8D01*
G01*
X31588Y4409D02*
G03*
X31603Y4377I95J24D01*
G01*
Y4377D02*
G03*
X31629Y4355I52J37D01*
G01*
Y4355D02*
G03*
X31666Y4348I35J81D01*
G01*
X31666D02*
G03*
X31702Y4355I2J89D01*
G01*
Y4355D02*
G03*
X31728Y4377I-25J56D01*
G01*
Y4377D02*
G03*
X31743Y4409I-70J52D01*
G01*
X31743Y4409D02*
G03*
X31746Y4433I-156J31D01*
G01*
D02*
G03*
X31747Y4469I-563J33D01*
G01*
Y4469D02*
G03*
X31746Y4504I-535J3D01*
G01*
D02*
G03*
X31743Y4527I-154J-8D01*
G01*
D02*
G03*
X31728Y4560I-88J-21D01*
G01*
X31728Y4560D02*
G03*
X31702Y4581I-51J-35D01*
G01*
Y4581D02*
G03*
X31666Y4588I-35J-81D01*
G01*
X31666Y4588D02*
G03*
X31629Y4581I-2J-88D01*
G01*
X31629Y4581D02*
G03*
X31603Y4560I26J-58D01*
G01*
X31603D02*
G03*
X31588Y4527I84J-58D01*
G01*
Y4527D02*
G03*
X31585Y4504I140J-31D01*
G01*
D02*
G03*
X31584Y4468I507J-33D01*
G01*
X33624Y4468D02*
G03*
X33625Y4432I504J-3D01*
G01*
D02*
G03*
X33628Y4409I143J8D01*
G01*
Y4409D02*
G03*
X33643Y4377I95J24D01*
G01*
Y4377D02*
G03*
X33668Y4355I52J37D01*
G01*
X33668Y4355D02*
G03*
X33705Y4348I35J81D01*
G01*
Y4348D02*
G03*
X33742Y4355I2J89D01*
G01*
X33742Y4355D02*
G03*
X33767Y4377I-25J56D01*
G01*
X33767D02*
G03*
X33782Y4409I-70J52D01*
G01*
D02*
G03*
X33785Y4433I-156J31D01*
G01*
X33785Y4433D02*
G03*
X33786Y4469I-563J33D01*
G01*
X33786Y4469D02*
G03*
X33785Y4504I-535J3D01*
G01*
Y4504D02*
G03*
X33782Y4527I-154J-8D01*
G01*
X33782Y4527D02*
G03*
X33767Y4560I-88J-21D01*
G01*
X33767Y4560D02*
G03*
X33742Y4581I-51J-35D01*
G01*
X33742D02*
G03*
X33705Y4588I-35J-81D01*
G01*
Y4588D02*
G03*
X33668Y4581I-2J-88D01*
G01*
X33668Y4581D02*
G03*
X33643Y4560I26J-58D01*
G01*
Y4560D02*
G03*
X33628Y4527I84J-58D01*
G01*
X33628D02*
G03*
X33625Y4504I140J-31D01*
G01*
X33625D02*
G03*
X33624Y4468I507J-33D01*
G01*
X30532Y4389D02*
G03*
X30568Y4358I89J68D01*
G01*
X30568D02*
G03*
X30611Y4348I42J81D01*
G01*
Y4348D02*
G03*
X30655Y4356I2J118D01*
G01*
Y4356D02*
G03*
X30686Y4378I-28J72D01*
G01*
X30686Y4378D02*
G03*
X30705Y4416I-77J62D01*
G01*
X30705D02*
G03*
X30711Y4468I-189J49D01*
G01*
Y4468D02*
G03*
X30705Y4520I-197J3D01*
G01*
Y4520D02*
G03*
X30686Y4558I-96J-25D01*
G01*
X30686Y4558D02*
G03*
X30655Y4580I-60J-50D01*
G01*
X30655Y4580D02*
G03*
X30611Y4588I-41J-110D01*
G01*
Y4588D02*
G03*
X30568Y4578I-1J-91D01*
G01*
Y4578D02*
G03*
X30532Y4548I54J-101D01*
G01*
X30535Y4647D02*
G03*
X30475Y4599I102J-189D01*
G01*
X30572Y4661D02*
G03*
X30535Y4647I35J-147D01*
G01*
X30614Y4665D02*
G03*
X30572Y4661I-1J-177D01*
G01*
X30677Y4654D02*
G03*
X30614Y4665I-63J-166D01*
G01*
X30735Y4620D02*
G03*
X30677Y4654I-128J-148D01*
G01*
X30758Y4593D02*
G03*
X30735Y4620I-106J-70D01*
G01*
X30775Y4559D02*
G03*
X30758Y4593I-147J-51D01*
G01*
X30785Y4517D02*
G03*
X30775Y4559I-219J-31D01*
G01*
X30789Y4468D02*
G03*
X30785Y4517I-335J2D01*
G01*
X30785Y4419D02*
G03*
X30789Y4468I-331J47D01*
G01*
X30775Y4377D02*
G03*
X30785Y4419I-208J73D01*
G01*
X30758Y4343D02*
G03*
X30775Y4377I-129J85D01*
G01*
X30735Y4317D02*
G03*
X30758Y4343I-81J96D01*
G01*
X30677Y4283D02*
G03*
X30735Y4317I-70J183D01*
G01*
X30614Y4271D02*
G03*
X30677Y4283I1J179D01*
G01*
X30572Y4276D02*
G03*
X30614Y4271I41J174D01*
G01*
X30535Y4290D02*
G03*
X30572Y4276I72J134D01*
G01*
X30475Y4338D02*
G03*
X30535Y4290I160J140D01*
G01*
X32876Y3796D02*
G03*
X32880Y3761I119J-3D01*
G01*
D02*
G03*
X32886Y3749I45J14D01*
G01*
Y3749D02*
G03*
X32894Y3741I24J16D01*
G01*
D02*
G03*
X32920Y3732I36J63D01*
G01*
Y3732D02*
G03*
X32960Y3729I34J219D01*
G01*
X32960Y3729D02*
G03*
X32993Y3733I2J121D01*
G01*
Y3733D02*
G03*
X33014Y3744I-13J51D01*
G01*
X33014Y3744D02*
G03*
X33027Y3760I-31J39D01*
G01*
Y3760D02*
G03*
X33031Y3778I-35J18D01*
G01*
Y3778D02*
G03*
X33028Y3798I-44J2D01*
G01*
X33028Y3798D02*
G03*
X33015Y3812I-33J-16D01*
G01*
D02*
G03*
X32995Y3821I-34J-50D01*
G01*
D02*
G03*
X32966Y3825I-31J-129D01*
G01*
X33032Y4503D02*
G03*
X33025Y4541I-123J-2D01*
G01*
X33025D02*
G03*
X33008Y4569I-72J-25D01*
G01*
X33008D02*
G03*
X32982Y4587I-54J-53D01*
G01*
Y4587D02*
G03*
X32950Y4592I-31J-78D01*
G01*
D02*
G03*
X32919Y4587I-1J-82D01*
G01*
X32919Y4587D02*
G03*
X32894Y4569I29J-70D01*
G01*
X32894Y4569D02*
G03*
X32876Y4541I56J-54D01*
G01*
X32876Y4541D02*
G03*
X32869Y4503I119J-42D01*
G01*
X32804Y3957D02*
G03*
X32801Y3925I189J-34D01*
G01*
X32812Y3985D02*
G03*
X32804Y3957I119J-50D01*
G01*
X32843Y4024D02*
G03*
X32812Y3985I53J-74D01*
G01*
X32893Y4045D02*
G03*
X32843Y4024I35J-153D01*
G01*
X32956Y4052D02*
G03*
X32893Y4045I-6J-258D01*
G01*
X32996Y4049D02*
G03*
X32956Y4052I-35J-197D01*
G01*
X33030Y4038D02*
G03*
X32996Y4049I-60J-137D01*
G01*
X33083Y3996D02*
G03*
X33030Y4038I-107J-79D01*
G01*
X33024Y3949D02*
G03*
X32997Y3973I-48J-26D01*
G01*
X32997Y3973D02*
G03*
X32977Y3978I-34J-102D01*
G01*
D02*
G03*
X32953Y3979I-23J-181D01*
G01*
X32953Y3979D02*
G03*
X32919Y3976I-5J-157D01*
G01*
X32919D02*
G03*
X32895Y3967I12J-68D01*
G01*
X32895Y3967D02*
G03*
X32880Y3952I21J-34D01*
G01*
X32880Y3952D02*
G03*
X32876Y3929I44J-21D01*
G01*
X33033Y3880D02*
G03*
X32980Y3888I-52J-150D01*
G01*
X33071Y3855D02*
G03*
X33033Y3880I-70J-67D01*
G01*
X33094Y3818D02*
G03*
X33071Y3855I-103J-39D01*
G01*
X33102Y3774D02*
G03*
X33094Y3818I-124J1D01*
G01*
X33093Y3728D02*
G03*
X33102Y3774I-108J45D01*
G01*
X33066Y3690D02*
G03*
X33093Y3728I-72J80D01*
G01*
X33026Y3666D02*
G03*
X33066Y3690I-34J101D01*
G01*
X32970Y3656D02*
G03*
X33026Y3666I-1J180D01*
G01*
X32936Y3659D02*
G03*
X32970Y3656I32J212D01*
G01*
X32910Y3666D02*
G03*
X32936Y3659I44J108D01*
G01*
X32877Y3695D02*
G03*
X32910Y3666I55J29D01*
G01*
X31822Y4414D02*
G03*
X31825Y4469I-539J51D01*
G01*
X31815Y4375D02*
G03*
X31822Y4414I-188J55D01*
G01*
X31783Y4320D02*
G03*
X31815Y4375I-109J100D01*
G01*
X31764Y4303D02*
G03*
X31783Y4320I-80J106D01*
G01*
X31739Y4287D02*
G03*
X31764Y4303I-100J183D01*
G01*
X31707Y4275D02*
G03*
X31739Y4287I-23J114D01*
G01*
X31666Y4271D02*
G03*
X31707Y4275I2J197D01*
G01*
X31625D02*
G03*
X31666Y4271I39J190D01*
G01*
X31593Y4287D02*
G03*
X31625Y4275I56J103D01*
G01*
X31568Y4303D02*
G03*
X31593Y4287I126J170D01*
G01*
X31549Y4320D02*
G03*
X31568Y4303I100J91D01*
G01*
X31517Y4375D02*
G03*
X31549Y4320I141J45D01*
G01*
X31509Y4414D02*
G03*
X31517Y4375I197J17D01*
G01*
X31507Y4469D02*
G03*
X31509Y4414I547J-4D01*
G01*
Y4523D02*
G03*
X31507Y4469I528J-51D01*
G01*
X31517Y4561D02*
G03*
X31509Y4523I189J-55D01*
G01*
X31549Y4616D02*
G03*
X31517Y4561I109J-100D01*
G01*
X31568Y4633D02*
G03*
X31549Y4616I85J-114D01*
G01*
X31593Y4650D02*
G03*
X31568Y4633I111J-199D01*
G01*
X31625Y4661D02*
G03*
X31593Y4650I24J-113D01*
G01*
X31666Y4665D02*
G03*
X31625Y4661I-2J-189D01*
G01*
X31707D02*
G03*
X31666Y4665I-39J-189D01*
G01*
X31739Y4650D02*
G03*
X31707Y4661I-55J-100D01*
G01*
X31764Y4633D02*
G03*
X31739Y4650I-135J-180D01*
G01*
X31783Y4616D02*
G03*
X31764Y4633I-103J-95D01*
G01*
X31815Y4561D02*
G03*
X31783Y4616I-141J-46D01*
G01*
X31822Y4523D02*
G03*
X31815Y4561I-195J-17D01*
G01*
X31825Y4469D02*
G03*
X31822Y4523I-525J4D01*
G01*
X33861Y4414D02*
G03*
X33864Y4469I-539J51D01*
G01*
X33854Y4375D02*
G03*
X33861Y4414I-188J55D01*
G01*
X33822Y4320D02*
G03*
X33854Y4375I-109J100D01*
G01*
X33803Y4303D02*
G03*
X33822Y4320I-80J106D01*
G01*
X33778Y4287D02*
G03*
X33803Y4303I-100J183D01*
G01*
X33746Y4275D02*
G03*
X33778Y4287I-23J114D01*
G01*
X33705Y4271D02*
G03*
X33746Y4275I2J198D01*
G01*
X33664D02*
G03*
X33705Y4271I39J190D01*
G01*
X33632Y4287D02*
G03*
X33664Y4275I56J103D01*
G01*
X33607Y4303D02*
G03*
X33632Y4287I126J170D01*
G01*
X33588Y4320D02*
G03*
X33607Y4303I100J91D01*
G01*
X33556Y4375D02*
G03*
X33588Y4320I141J45D01*
G01*
X33549Y4414D02*
G03*
X33556Y4375I197J17D01*
G01*
X33546Y4469D02*
G03*
X33549Y4414I547J-4D01*
G01*
Y4523D02*
G03*
X33546Y4469I528J-51D01*
G01*
X33556Y4561D02*
G03*
X33549Y4523I189J-55D01*
G01*
X33588Y4616D02*
G03*
X33556Y4561I109J-100D01*
G01*
X33607Y4633D02*
G03*
X33588Y4616I85J-114D01*
G01*
X33632Y4650D02*
G03*
X33607Y4633I111J-199D01*
G01*
X33664Y4661D02*
G03*
X33632Y4650I24J-113D01*
G01*
X33705Y4665D02*
G03*
X33664Y4661I-2J-189D01*
G01*
X33746Y4661D02*
G03*
X33705Y4665I-39J-189D01*
G01*
X33778Y4650D02*
G03*
X33746Y4661I-55J-100D01*
G01*
X33803Y4633D02*
G03*
X33778Y4650I-135J-180D01*
G01*
X33822Y4616D02*
G03*
X33803Y4633I-103J-95D01*
G01*
X33854Y4561D02*
G03*
X33822Y4616I-141J-46D01*
G01*
X33861Y4523D02*
G03*
X33854Y4561I-195J-17D01*
G01*
X33864Y4469D02*
G03*
X33861Y4523I-525J4D01*
G01*
X32804Y4570D02*
G03*
X32792Y4503I167J-64D01*
G01*
X32839Y4621D02*
G03*
X32804Y4570I95J-104D01*
G01*
X32891Y4654D02*
G03*
X32839Y4621I62J-154D01*
G01*
X32950Y4665D02*
G03*
X32891Y4654I-1J-160D01*
G01*
X33005Y4655D02*
G03*
X32950Y4665I-55J-136D01*
G01*
X33058Y4622D02*
G03*
X33005Y4655I-127J-148D01*
G01*
X33080Y4597D02*
G03*
X33058Y4622I-95J-60D01*
G01*
X33096Y4562D02*
G03*
X33080Y4597I-146J-47D01*
G01*
X33106Y4519D02*
G03*
X33096Y4562I-239J-30D01*
G01*
X33109Y4467D02*
G03*
X33106Y4519I-390J2D01*
G01*
X33106Y4412D02*
G03*
X33109Y4467I-388J52D01*
G01*
X33095Y4368D02*
G03*
X33106Y4412I-216J74D01*
G01*
X33078Y4334D02*
G03*
X33095Y4368I-113J79D01*
G01*
X33054Y4310D02*
G03*
X33078Y4334I-56J81D01*
G01*
X32997Y4281D02*
G03*
X33054Y4310I-73J214D01*
G01*
X32939Y4271D02*
G03*
X32997Y4281I-0J183D01*
G01*
X32864Y4285D02*
G03*
X32939Y4271I74J186D01*
G01*
X32830Y4304D02*
G03*
X32864Y4285I90J121D01*
G01*
X32799Y4333D02*
G03*
X32830Y4304I142J120D01*
G01*
X32855Y4381D02*
G03*
X32895Y4353I92J89D01*
G01*
Y4353D02*
G03*
X32940Y4344I44J101D01*
G01*
Y4344D02*
G03*
X32977Y4350I1J107D01*
G01*
Y4350D02*
G03*
X33006Y4368I-29J81D01*
G01*
Y4368D02*
G03*
X33025Y4397I-50J54D01*
G01*
Y4397D02*
G03*
X33032Y4439I-116J39D01*
G01*
X32292Y3975D02*
G03*
X32267Y3972I-1J-111D01*
G01*
D02*
G03*
X32248Y3965I13J-62D01*
G01*
X32248D02*
G03*
X32227Y3936I25J-41D01*
G01*
X32227D02*
G03*
X32216Y3855I284J-80D01*
G01*
X32216D02*
G03*
X32227Y3774I300J-1D01*
G01*
X32227D02*
G03*
X32248Y3745I46J12D01*
G01*
Y3745D02*
G03*
X32267Y3737I32J55D01*
G01*
Y3737D02*
G03*
X32292Y3735I23J108D01*
G01*
Y3735D02*
G03*
X32316Y3737I1J119D01*
G01*
X32316Y3737D02*
G03*
X32336Y3744I-13J65D01*
G01*
Y3744D02*
G03*
X32358Y3772I-22J40D01*
G01*
Y3772D02*
G03*
X32369Y3855I-284J80D01*
G01*
D02*
G03*
X32358Y3937I-290J3D01*
G01*
D02*
G03*
X32336Y3965I-44J-12D01*
G01*
Y3965D02*
G03*
X32316Y3972I-32J-58D01*
G01*
X32316Y3972D02*
G03*
X32292Y3975I-23J-116D01*
G01*
X31061Y3894D02*
G03*
X31056Y3930I-104J2D01*
G01*
D02*
G03*
X31038Y3955I-55J-20D01*
G01*
X31038D02*
G03*
X30986Y3975I-52J-60D01*
G01*
Y3975D02*
G03*
X30961Y3970I0J-74D01*
G01*
X30961Y3970D02*
G03*
X30935Y3956I36J-94D01*
G01*
X30918Y4045D02*
G03*
X30879Y4022I52J-137D01*
G01*
X30960Y4052D02*
G03*
X30918Y4045I-0J-118D01*
G01*
X31017Y4041D02*
G03*
X30960Y4052I-55J-125D01*
G01*
X31060Y4006D02*
G03*
X31017Y4041I-91J-71D01*
G01*
X33398Y3662D02*
X33475D01*
X33398D02*
Y3892D01*
X33245Y3662D02*
Y3892D01*
X33168Y3662D02*
X33245D01*
X33168D02*
Y3918D01*
X33396Y4006D02*
X33398D01*
X33398Y4316D01*
Y4621D02*
Y4661D01*
X33475D01*
Y3662D02*
Y4661D01*
X30212Y4503D02*
X30375D01*
X31984Y4505D02*
X32048Y4510D01*
X31882Y4613D02*
X31930Y4557D01*
X31997Y4431D02*
X32065Y4438D01*
X32148Y4393D02*
X32202Y4340D01*
X30135Y4439D02*
Y4503D01*
X30142Y4333D02*
X30198Y4381D01*
X30135Y4439D02*
X30375D01*
X32138Y3662D02*
X32216D01*
X32138D02*
Y4203D01*
X32216D01*
Y4006D02*
Y4203D01*
Y3662D02*
Y3702D01*
X30963Y4276D02*
X31041D01*
X30963D02*
Y4507D01*
X30781Y4636D02*
X30837Y4569D01*
X30962Y4620D02*
X30963D01*
Y4661D01*
X31041D01*
Y4276D02*
Y4661D01*
X31206Y4316D02*
X31208D01*
X31206Y4276D02*
Y4316D01*
X31129Y4276D02*
X31206D01*
X31129D02*
Y4661D01*
X31206D01*
Y4431D02*
Y4661D01*
X31359Y4431D02*
Y4661D01*
X31436D01*
Y4405D02*
Y4661D01*
X31305Y3825D02*
X31395D01*
X31305Y3796D02*
Y3825D01*
X30634Y3889D02*
X30797D01*
X32633Y3662D02*
X32711D01*
X32633D02*
Y3894D01*
X32451Y4022D02*
X32507Y3956D01*
X32632Y4006D02*
X32633D01*
Y4048D01*
X32711D01*
Y3662D02*
Y4048D01*
X30557Y3826D02*
Y3889D01*
X30564Y3720D02*
X30620Y3768D01*
X30557Y3826D02*
X30797D01*
X31230Y3661D02*
X31305D01*
X31230D02*
Y3925D01*
X31453Y3949D02*
X31512Y3996D01*
X31305Y3888D02*
Y3929D01*
Y3888D02*
X31410D01*
X31305Y3695D02*
X31307D01*
X31305Y3661D02*
Y3695D01*
X32647Y4276D02*
X32724D01*
X32647D02*
Y4505D01*
X32494Y4276D02*
Y4505D01*
X32416Y4276D02*
X32494D01*
X32416D02*
Y4532D01*
X32645Y4620D02*
X32647D01*
Y4661D01*
X32724D01*
Y4276D02*
Y4661D01*
X30475Y4599D02*
X30532Y4548D01*
X30475Y4338D02*
X30532Y4389D01*
X32876Y3825D02*
X32966D01*
X32876Y3796D02*
Y3825D01*
X32869Y4503D02*
X33032D01*
X32801Y3661D02*
X32876D01*
X32801D02*
Y3925D01*
X33024Y3949D02*
X33083Y3996D01*
X32876Y3888D02*
Y3929D01*
Y3888D02*
X32980D01*
X32876Y3695D02*
X32877D01*
X32876Y3661D02*
Y3695D01*
X32792Y4439D02*
Y4503D01*
X32799Y4333D02*
X32855Y4381D01*
X32792Y4439D02*
X33032D01*
X31669Y3662D02*
X31737D01*
X31546Y4048D02*
X31669Y3662D01*
X31546Y4048D02*
X31628D01*
X31702Y3778D01*
X31703D01*
X31791Y4048D01*
X31847D01*
X31934Y3778D01*
X31936D01*
X32010Y4048D01*
X32092D01*
X31969Y3662D02*
X32092Y4048D01*
X31900Y3662D02*
X31969D01*
X31820Y3932D02*
X31900Y3662D01*
X31818Y3932D02*
X31820D01*
X31737Y3662D02*
X31818Y3932D01*
X31061Y3662D02*
X31139D01*
X31061D02*
Y3894D01*
X30879Y4022D02*
X30935Y3956D01*
X31060Y4006D02*
X31061D01*
Y4048D01*
X31139D01*
Y3662D02*
Y4048D01*
D111*
X35302Y2283D02*
X35407Y2231D01*
X35512Y2126D01*
Y2021D01*
X35459Y1969D01*
X35354D01*
X35302Y2021D01*
Y2073D01*
X35354Y2126D01*
X35512D01*
X31640Y2283D02*
X31745Y2231D01*
X31850Y2126D01*
Y2021D01*
X31798Y1969D01*
X31693D01*
X31640Y2021D01*
Y2073D01*
X31693Y2126D01*
X31850D01*
D112*
X38386Y11722D02*
D03*
D113*
X45679Y1299D02*
D03*
X42136Y984D02*
D03*
M02*
