G04 Layer_Color=16711935*
%FSLAX24Y24*%
%MOIN*%
G70*
G01*
G75*
%ADD68R,0.0409X0.0449*%
%ADD69R,0.0449X0.0449*%
%ADD71R,0.0449X0.0409*%
%ADD72R,0.0339X0.0756*%
%ADD73R,0.0331X0.0213*%
%ADD74R,0.0370X0.0390*%
%ADD75R,0.0390X0.0370*%
%ADD79R,0.0528X0.0685*%
%ADD85R,0.0449X0.0449*%
%ADD88O,0.1236X0.1039*%
%ADD89R,0.1157X0.1039*%
%ADD90R,0.0803X0.0803*%
%ADD91C,0.0803*%
%ADD92R,0.0803X0.0803*%
%ADD93O,0.0724X0.1039*%
%ADD94O,0.0764X0.1039*%
%ADD95C,0.0291*%
%ADD96O,0.1236X0.0843*%
%ADD97O,0.0567X0.1039*%
%ADD98O,0.0646X0.1039*%
%ADD99O,0.2220X0.0921*%
%ADD100C,0.0449*%
%ADD101R,0.0764X0.0567*%
%ADD102R,0.0154X0.0331*%
%ADD103R,0.1354X0.0724*%
%ADD104R,0.0764X0.1394*%
%ADD105R,0.0685X0.0193*%
%ADD106R,0.0528X0.0764*%
%ADD107R,0.0646X0.0567*%
%ADD108R,0.0567X0.0764*%
%ADD109C,0.0370*%
D68*
X35453Y10551D02*
D03*
X36122D02*
D03*
X8327Y12165D02*
D03*
X8996D02*
D03*
X11240Y11496D02*
D03*
X11909D02*
D03*
X40650Y7874D02*
D03*
X41319D02*
D03*
X42618D02*
D03*
X41949D02*
D03*
X41319Y7323D02*
D03*
X40650D02*
D03*
X41949D02*
D03*
X42618D02*
D03*
X24902Y8465D02*
D03*
X25571D02*
D03*
X23681Y7717D02*
D03*
X23012D02*
D03*
X25571Y9685D02*
D03*
X24902D02*
D03*
X25571Y10315D02*
D03*
X24902D02*
D03*
X23169Y11240D02*
D03*
X22500D02*
D03*
X24449D02*
D03*
X23780D02*
D03*
X40768Y5669D02*
D03*
X41437D02*
D03*
X37972Y6024D02*
D03*
X37303D02*
D03*
X39390Y4803D02*
D03*
X38720D02*
D03*
X1476Y12205D02*
D03*
X2146D02*
D03*
X41909Y4409D02*
D03*
X42579D02*
D03*
X45138Y4862D02*
D03*
X45807D02*
D03*
D69*
X21850Y9882D02*
D03*
Y9252D02*
D03*
X4035Y8681D02*
D03*
Y8051D02*
D03*
X37638Y11654D02*
D03*
Y12283D02*
D03*
X40453Y4291D02*
D03*
Y3661D02*
D03*
X47234Y4173D02*
D03*
Y4803D02*
D03*
X984Y8937D02*
D03*
Y9567D02*
D03*
X43780Y4528D02*
D03*
Y3898D02*
D03*
X40394Y11496D02*
D03*
Y12126D02*
D03*
X4528Y10157D02*
D03*
Y9528D02*
D03*
D71*
X21260Y9193D02*
D03*
Y9862D02*
D03*
X43543Y492D02*
D03*
Y1161D02*
D03*
X20079Y4114D02*
D03*
Y3445D02*
D03*
X28150Y9744D02*
D03*
Y9075D02*
D03*
X5394Y4075D02*
D03*
Y3406D02*
D03*
X41024Y11476D02*
D03*
Y12146D02*
D03*
X40236Y6555D02*
D03*
Y5886D02*
D03*
X38622Y6555D02*
D03*
Y5886D02*
D03*
X39409Y6555D02*
D03*
Y5886D02*
D03*
X41732Y11476D02*
D03*
Y12146D02*
D03*
X827Y11516D02*
D03*
Y12185D02*
D03*
X1673Y10276D02*
D03*
Y9606D02*
D03*
X3740Y9606D02*
D03*
Y10276D02*
D03*
X5157Y10177D02*
D03*
Y9508D02*
D03*
X43189Y3878D02*
D03*
Y4547D02*
D03*
X44370Y3878D02*
D03*
Y4547D02*
D03*
X44173Y1161D02*
D03*
Y492D02*
D03*
X32677Y6752D02*
D03*
Y6083D02*
D03*
D72*
X2211Y6854D02*
D03*
X2711D02*
D03*
X3211D02*
D03*
X1711D02*
D03*
X2711Y8697D02*
D03*
X3211D02*
D03*
X1711D02*
D03*
X2211D02*
D03*
D73*
X1417Y10961D02*
D03*
Y11361D02*
D03*
X1929Y11161D02*
D03*
D74*
X3071Y9518D02*
D03*
Y10404D02*
D03*
X5000Y7648D02*
D03*
Y6762D02*
D03*
X2362Y10384D02*
D03*
Y9498D02*
D03*
D75*
X1998Y5827D02*
D03*
X2884D02*
D03*
D79*
X36202Y12323D02*
D03*
X36947D02*
D03*
X11047Y824D02*
D03*
X10302D02*
D03*
X11754Y827D02*
D03*
X12498D02*
D03*
D85*
X19331Y7165D02*
D03*
X18701D02*
D03*
X18425Y10118D02*
D03*
X19055D02*
D03*
X8976Y11496D02*
D03*
X8346D02*
D03*
X24921Y9055D02*
D03*
X25551D02*
D03*
X42559Y3780D02*
D03*
X41929D02*
D03*
X45157Y4272D02*
D03*
X45787D02*
D03*
D88*
X18610Y3445D02*
D03*
X16957Y1280D02*
D03*
X18610D02*
D03*
X23205D02*
D03*
X21551D02*
D03*
X23205Y3445D02*
D03*
X38689D02*
D03*
X37035Y1280D02*
D03*
X38689D02*
D03*
X3909D02*
D03*
X2256D02*
D03*
X3909Y3445D02*
D03*
D89*
X16957D02*
D03*
X21551D02*
D03*
X37035D02*
D03*
X2256D02*
D03*
D90*
X49213Y3248D02*
D03*
Y6346D02*
D03*
D91*
Y4248D02*
D03*
Y8346D02*
D03*
Y7346D02*
D03*
X25378Y1181D02*
D03*
X26378D02*
D03*
X33677Y2083D02*
D03*
X32677D02*
D03*
X33677Y1083D02*
D03*
X34677D02*
D03*
Y2083D02*
D03*
X30035D02*
D03*
X29035D02*
D03*
X30035Y1083D02*
D03*
X31035D02*
D03*
Y2083D02*
D03*
D92*
X27378Y1181D02*
D03*
X32677Y1083D02*
D03*
X29035D02*
D03*
D93*
X28150Y11457D02*
D03*
X30118D02*
D03*
X32087Y7520D02*
D03*
X30118D02*
D03*
X28150D02*
D03*
D94*
X32087Y11457D02*
D03*
D95*
X38622Y12874D02*
D03*
X40197D02*
D03*
X40984D02*
D03*
X41850D02*
D03*
X47480Y9016D02*
D03*
X23159Y6929D02*
D03*
X19685Y11673D02*
D03*
X19921Y433D02*
D03*
X18775Y8376D02*
D03*
X18760Y8760D02*
D03*
X35000Y10945D02*
D03*
X40236Y630D02*
D03*
X34724Y11654D02*
D03*
X33583Y11181D02*
D03*
X34213Y11220D02*
D03*
X33937Y11535D02*
D03*
X24016Y7008D02*
D03*
X24862Y7047D02*
D03*
X27165Y2657D02*
D03*
X28051Y2067D02*
D03*
X20551Y7205D02*
D03*
X20276Y7756D02*
D03*
X20866Y7913D02*
D03*
X19921Y7795D02*
D03*
X36024Y9016D02*
D03*
X47402Y3701D02*
D03*
X47047D02*
D03*
X40315Y2835D02*
D03*
X47402Y3307D02*
D03*
X40315Y3228D02*
D03*
Y2441D02*
D03*
X47402Y2913D02*
D03*
X47047D02*
D03*
X40202Y5280D02*
D03*
X39412Y5278D02*
D03*
X38632Y5246D02*
D03*
X47047Y3307D02*
D03*
X35472Y9331D02*
D03*
X39409Y12874D02*
D03*
X41417D02*
D03*
X42559D02*
D03*
X33937Y10827D02*
D03*
X40669Y3228D02*
D03*
Y2441D02*
D03*
Y2835D02*
D03*
D96*
X4528Y5827D02*
D03*
X16339D02*
D03*
D97*
X6988Y7520D02*
D03*
X7972D02*
D03*
Y10472D02*
D03*
X6988D02*
D03*
D98*
X9941Y7520D02*
D03*
X11909D02*
D03*
X12894D02*
D03*
X13878D02*
D03*
X10925D02*
D03*
X8957D02*
D03*
Y10472D02*
D03*
X10925D02*
D03*
X13878D02*
D03*
X12894D02*
D03*
X11909D02*
D03*
X9941D02*
D03*
D99*
X13681Y2677D02*
D03*
X7185D02*
D03*
D100*
X4528Y7126D02*
D03*
D101*
X38386Y12343D02*
D03*
Y11201D02*
D03*
D102*
X44370Y1850D02*
D03*
X44173D02*
D03*
X43976D02*
D03*
X43780D02*
D03*
X43583D02*
D03*
X43386D02*
D03*
X43189D02*
D03*
Y2992D02*
D03*
X43386D02*
D03*
X43583D02*
D03*
X43780D02*
D03*
X43976D02*
D03*
X44173D02*
D03*
X44370D02*
D03*
D103*
X43780Y2421D02*
D03*
D104*
X42480Y2362D02*
D03*
X41299D02*
D03*
X46260Y2992D02*
D03*
X45079D02*
D03*
D105*
X22756Y9163D02*
D03*
Y8907D02*
D03*
Y8652D02*
D03*
Y8396D02*
D03*
X24094D02*
D03*
Y8652D02*
D03*
Y8907D02*
D03*
Y9163D02*
D03*
Y9774D02*
D03*
Y10030D02*
D03*
Y10285D02*
D03*
Y10541D02*
D03*
X22756D02*
D03*
Y10285D02*
D03*
Y10030D02*
D03*
Y9774D02*
D03*
D106*
X18278Y9429D02*
D03*
Y7854D02*
D03*
X19222D02*
D03*
Y9429D02*
D03*
D107*
X41181Y4469D02*
D03*
Y3799D02*
D03*
X46565Y4843D02*
D03*
Y4173D02*
D03*
D108*
X46201Y1299D02*
D03*
X45059D02*
D03*
X42657Y984D02*
D03*
X41516D02*
D03*
D109*
X26732Y11732D02*
D03*
M02*
