G04 Layer_Color=8388736*
%FSLAX24Y24*%
%MOIN*%
G70*
G01*
G75*
%ADD67R,0.0154X0.0291*%
%ADD68R,0.0409X0.0449*%
%ADD69R,0.0449X0.0409*%
%ADD70R,0.0449X0.0449*%
%ADD71R,0.0449X0.0449*%
%ADD72R,0.0505X0.1055*%
%ADD73R,0.1055X0.0605*%
%ADD74R,0.1354X0.1354*%
%ADD75O,0.0331X0.0154*%
%ADD76O,0.0154X0.0331*%
%ADD77R,0.0528X0.0685*%
%ADD78R,0.0685X0.0528*%
%ADD79R,0.0449X0.0370*%
%ADD80R,0.0370X0.0449*%
%ADD81R,0.0390X0.0370*%
%ADD82R,0.0370X0.0390*%
%ADD83R,0.0331X0.0213*%
%ADD84R,0.0339X0.0756*%
%ADD85R,0.1315X0.0685*%
%ADD86R,0.0626X0.0409*%
%ADD87C,0.0803*%
%ADD88R,0.0803X0.0803*%
%ADD89O,0.1236X0.0843*%
%ADD90O,0.2220X0.0921*%
%ADD91O,0.0567X0.1039*%
%ADD92O,0.0646X0.1039*%
%ADD93C,0.0291*%
%ADD94R,0.0803X0.0803*%
%ADD95O,0.1236X0.1039*%
%ADD96R,0.1157X0.1039*%
%ADD97O,0.0843X0.1236*%
%ADD98C,0.0449*%
D67*
X23425Y8091D02*
D03*
X23622D02*
D03*
X23819D02*
D03*
Y7343D02*
D03*
X23622D02*
D03*
X23425D02*
D03*
D68*
X21870Y6378D02*
D03*
X22539D02*
D03*
X4370Y12303D02*
D03*
X3701D02*
D03*
X3720Y11693D02*
D03*
X4390D02*
D03*
X46122Y4803D02*
D03*
X46791D02*
D03*
X25335Y2126D02*
D03*
X26004D02*
D03*
X41870Y3465D02*
D03*
X41201D02*
D03*
X41870Y4606D02*
D03*
X41201D02*
D03*
X21358Y12087D02*
D03*
X20689D02*
D03*
X23465Y10039D02*
D03*
X22795D02*
D03*
X47539Y4213D02*
D03*
X46870D02*
D03*
X24429Y6457D02*
D03*
X23760D02*
D03*
Y5748D02*
D03*
X24429D02*
D03*
D69*
X49213Y2205D02*
D03*
Y1535D02*
D03*
X3839Y9508D02*
D03*
Y10177D02*
D03*
X48228Y7146D02*
D03*
Y6476D02*
D03*
X47480Y7146D02*
D03*
Y6476D02*
D03*
X20079Y11280D02*
D03*
Y11949D02*
D03*
X1969Y10177D02*
D03*
Y9508D02*
D03*
X591Y9232D02*
D03*
Y9902D02*
D03*
D70*
X21339Y11496D02*
D03*
X20709D02*
D03*
X23425Y8622D02*
D03*
X24055D02*
D03*
X23425Y9213D02*
D03*
X24055D02*
D03*
X27402Y2126D02*
D03*
X26772D02*
D03*
X23110Y10630D02*
D03*
X23740D02*
D03*
X21969Y7992D02*
D03*
X22598D02*
D03*
X22087Y9213D02*
D03*
X22717D02*
D03*
X22087Y8622D02*
D03*
X22717D02*
D03*
D71*
X17835Y9528D02*
D03*
Y10157D02*
D03*
X1260Y9213D02*
D03*
Y9843D02*
D03*
X4528Y9528D02*
D03*
Y10157D02*
D03*
X24449Y7205D02*
D03*
Y7835D02*
D03*
X43602Y1161D02*
D03*
Y1791D02*
D03*
X984Y7559D02*
D03*
Y8189D02*
D03*
X44193Y1161D02*
D03*
Y1791D02*
D03*
X18425Y10118D02*
D03*
Y9488D02*
D03*
D72*
X40202Y12085D02*
D03*
X41002D02*
D03*
X41782D02*
D03*
X42572D02*
D03*
X43352D02*
D03*
X39422D02*
D03*
X38642D02*
D03*
X37852D02*
D03*
X37842Y5935D02*
D03*
X38632D02*
D03*
X39412D02*
D03*
X40202Y5945D02*
D03*
X40992D02*
D03*
X41772D02*
D03*
X42572D02*
D03*
X43352D02*
D03*
D73*
X37032Y10985D02*
D03*
Y10205D02*
D03*
Y9425D02*
D03*
Y8625D02*
D03*
Y7845D02*
D03*
Y7045D02*
D03*
D74*
X20177Y9252D02*
D03*
D75*
X19213Y9941D02*
D03*
Y9744D02*
D03*
Y9547D02*
D03*
Y9350D02*
D03*
Y9154D02*
D03*
Y8957D02*
D03*
Y8760D02*
D03*
Y8563D02*
D03*
X21142D02*
D03*
Y8760D02*
D03*
Y8957D02*
D03*
Y9154D02*
D03*
Y9350D02*
D03*
Y9547D02*
D03*
Y9744D02*
D03*
Y9941D02*
D03*
D76*
X19488Y8287D02*
D03*
X19685D02*
D03*
X19882D02*
D03*
X20079D02*
D03*
X20276D02*
D03*
X20472D02*
D03*
X20669D02*
D03*
X20866D02*
D03*
Y10217D02*
D03*
X20669D02*
D03*
X20472D02*
D03*
X20276D02*
D03*
X20079D02*
D03*
X19882D02*
D03*
X19685D02*
D03*
X19488D02*
D03*
D77*
X48840Y591D02*
D03*
X49585D02*
D03*
D78*
X17047Y10254D02*
D03*
Y9509D02*
D03*
D79*
X47480Y7785D02*
D03*
Y8435D02*
D03*
X48189Y7785D02*
D03*
Y8435D02*
D03*
D80*
X45699Y4016D02*
D03*
X46348D02*
D03*
X41860Y4055D02*
D03*
X41211D02*
D03*
X22569Y7402D02*
D03*
X21919D02*
D03*
D81*
X2805Y5728D02*
D03*
X1919D02*
D03*
D82*
X2559Y10285D02*
D03*
Y9400D02*
D03*
X3248Y9400D02*
D03*
Y10285D02*
D03*
X4035Y8120D02*
D03*
Y7234D02*
D03*
D83*
X3681Y10945D02*
D03*
X4193Y11145D02*
D03*
Y10745D02*
D03*
X45581Y4744D02*
D03*
X45069Y4544D02*
D03*
Y4944D02*
D03*
X42421Y4370D02*
D03*
X42933Y4570D02*
D03*
Y4170D02*
D03*
D84*
X2809Y8402D02*
D03*
X3309D02*
D03*
X1809D02*
D03*
X2309D02*
D03*
X3309Y6559D02*
D03*
X1809D02*
D03*
X2309D02*
D03*
X2809D02*
D03*
D85*
X47441Y1378D02*
D03*
X45472D02*
D03*
D86*
X23622Y7717D02*
D03*
D87*
X31035Y2083D02*
D03*
Y1083D02*
D03*
X30035D02*
D03*
X29035Y2083D02*
D03*
X30035D02*
D03*
X34677D02*
D03*
Y1083D02*
D03*
X33677D02*
D03*
X32677Y2083D02*
D03*
X33677D02*
D03*
X26378Y1181D02*
D03*
X25378D02*
D03*
X49213Y7346D02*
D03*
Y8346D02*
D03*
Y4248D02*
D03*
D88*
X29035Y1083D02*
D03*
X32677D02*
D03*
X27378Y1181D02*
D03*
D89*
X16339Y5827D02*
D03*
X4528D02*
D03*
D90*
X7185Y2677D02*
D03*
X13681D02*
D03*
D91*
X6988Y10472D02*
D03*
X7972D02*
D03*
Y7520D02*
D03*
X6988D02*
D03*
D92*
X9941Y10472D02*
D03*
X11909D02*
D03*
X12894D02*
D03*
X13878D02*
D03*
X10925D02*
D03*
X8957D02*
D03*
Y7520D02*
D03*
X10925D02*
D03*
X13878D02*
D03*
X12894D02*
D03*
X11909D02*
D03*
X9941D02*
D03*
D93*
X41850Y12874D02*
D03*
X40984D02*
D03*
X40197D02*
D03*
X38622D02*
D03*
X22539Y11811D02*
D03*
X24409Y11909D02*
D03*
X40669Y2835D02*
D03*
Y2441D02*
D03*
X42854Y236D02*
D03*
X40669Y3228D02*
D03*
X827Y12677D02*
D03*
X42559Y12874D02*
D03*
X41417D02*
D03*
X39409D02*
D03*
X35472Y9331D02*
D03*
X36811Y6339D02*
D03*
X47047Y3307D02*
D03*
X43780Y3543D02*
D03*
X44370Y3425D02*
D03*
X47047Y2913D02*
D03*
X47402D02*
D03*
X40315Y2441D02*
D03*
Y3228D02*
D03*
X47402Y3307D02*
D03*
X40315Y2835D02*
D03*
X47047Y3701D02*
D03*
X47402D02*
D03*
X36024Y9016D02*
D03*
X19921Y7795D02*
D03*
X20276Y7756D02*
D03*
X28051Y2067D02*
D03*
X18760Y8760D02*
D03*
X18775Y8376D02*
D03*
X43189Y3465D02*
D03*
X47480Y9016D02*
D03*
D94*
X49213Y6346D02*
D03*
Y3248D02*
D03*
D95*
X3909Y3445D02*
D03*
X2256Y1280D02*
D03*
X3909D02*
D03*
X38689D02*
D03*
X37035D02*
D03*
X38689Y3445D02*
D03*
X23205D02*
D03*
X21551Y1280D02*
D03*
X23205D02*
D03*
X18610D02*
D03*
X16957D02*
D03*
X18610Y3445D02*
D03*
D96*
X2256D02*
D03*
X37035D02*
D03*
X21551D02*
D03*
X16957D02*
D03*
D97*
X28150Y7520D02*
D03*
X30118D02*
D03*
X32087D02*
D03*
Y11457D02*
D03*
X30118D02*
D03*
X28150D02*
D03*
D98*
X4528Y7126D02*
D03*
M02*
