G04 Layer_Color=65535*
%FSLAX24Y24*%
%MOIN*%
G70*
G01*
G75*
%ADD30C,0.0098*%
%ADD59C,0.0100*%
%ADD64C,0.0079*%
%ADD65C,0.0005*%
%ADD66C,0.0059*%
D30*
X23199Y7165D02*
G03*
X23199Y7165I-49J0D01*
G01*
X18907Y9941D02*
G03*
X18907Y9941I-49J0D01*
G01*
X4577Y10709D02*
G03*
X4577Y10709I-49J0D01*
G01*
X44783Y4980D02*
G03*
X44783Y4980I-49J0D01*
G01*
X43317Y4134D02*
G03*
X43317Y4134I-49J0D01*
G01*
X3707Y8655D02*
G03*
X3707Y8655I-49J0D01*
G01*
D59*
X46742Y5805D02*
Y12205D01*
X43742Y5805D02*
X46742D01*
X37192D02*
X37492D01*
X37192D02*
Y6605D01*
Y11405D02*
Y12205D01*
X37442D01*
X43742D02*
X46742D01*
X1612Y5503D02*
Y5978D01*
X2334Y9093D02*
X2809D01*
X2998Y10593D02*
X3473D01*
X3810Y6927D02*
X4285D01*
X3584Y7087D02*
Y7874D01*
X1534Y7087D02*
Y7874D01*
D64*
X30535Y333D02*
Y441D01*
X29535Y333D02*
X30535D01*
X29535D02*
Y483D01*
X28485D02*
X31585D01*
X28485Y2683D02*
X31585D01*
X28485Y483D02*
Y2683D01*
X31585Y483D02*
Y2683D01*
X24094Y7480D02*
Y7913D01*
X23150Y7480D02*
Y7913D01*
X20394Y11339D02*
Y11654D01*
X17677Y10472D02*
X17992D01*
X1102Y10157D02*
X1417D01*
X4370Y10472D02*
X4685D01*
X24370Y8465D02*
Y8780D01*
Y9055D02*
Y9370D01*
X24291Y8150D02*
X24606D01*
X43445Y2106D02*
X43760D01*
X827Y8504D02*
X1142D01*
X44035Y2106D02*
X44350D01*
X26457Y1969D02*
Y2283D01*
X24055Y10472D02*
Y10787D01*
X22913Y7835D02*
Y8150D01*
X23031Y9055D02*
Y9370D01*
Y8465D02*
Y8780D01*
X34177Y333D02*
Y441D01*
X33177Y333D02*
X34177D01*
X33177D02*
Y483D01*
X32127D02*
X35227D01*
X32127Y2683D02*
X35227D01*
X32127Y483D02*
Y2683D01*
X35227Y483D02*
Y2683D01*
X21073Y10276D02*
X21201D01*
Y10148D02*
Y10276D01*
X21073Y8228D02*
X21201D01*
Y8356D01*
X19154Y8228D02*
X19282D01*
X19154D02*
Y8356D01*
Y10276D02*
X19282D01*
X19154Y10148D02*
Y10276D01*
X5512Y2008D02*
Y2598D01*
Y2008D02*
X6102D01*
X14764D02*
X15354D01*
X14764D02*
X15354D01*
Y2598D01*
Y12343D02*
Y12933D01*
X14764D02*
X15354D01*
X5512D02*
X6102D01*
X5512Y12343D02*
Y12933D01*
X47283Y7520D02*
X47677D01*
X47992D02*
X48386D01*
X45433Y3819D02*
Y4213D01*
X42126Y3858D02*
Y4252D01*
X22835Y7205D02*
Y7598D01*
X3681Y10545D02*
X3912D01*
X3681D02*
Y10663D01*
Y11345D02*
X3937D01*
X3681Y11214D02*
Y11345D01*
X45350Y5144D02*
X45581D01*
Y5026D02*
Y5144D01*
X45325Y4344D02*
X45581D01*
Y4475D01*
X42421Y3970D02*
X42652D01*
X42421D02*
Y4088D01*
Y4770D02*
X42677D01*
X42421Y4639D02*
Y4770D01*
X27854Y591D02*
X27953D01*
Y1772D01*
X24803D02*
X27953D01*
X24803Y591D02*
Y1772D01*
Y591D02*
X27854D01*
X48622Y5772D02*
Y5870D01*
Y5772D02*
X49803D01*
Y8921D01*
X48622D02*
X49803D01*
X48622Y5870D02*
Y8921D01*
Y2780D02*
Y4831D01*
X49803D01*
Y2665D02*
Y4831D01*
X48622Y2665D02*
X49803D01*
X48622D02*
Y2780D01*
X917Y4429D02*
X5248D01*
X917Y394D02*
Y4429D01*
Y394D02*
X5248D01*
Y4429D01*
X40028Y394D02*
Y4429D01*
X35697Y394D02*
X40028D01*
X35697D02*
Y4429D01*
X40028D01*
X20213D02*
X24543D01*
X20213Y394D02*
Y4429D01*
Y394D02*
X24543D01*
Y4429D01*
X19949Y394D02*
Y4429D01*
X15618Y394D02*
X19949D01*
X15618D02*
Y4429D01*
X19949D01*
X18268Y10433D02*
X18583D01*
X25394Y12736D02*
X25591D01*
X24803D02*
X25394D01*
X24803Y12047D02*
Y12736D01*
X34843D02*
X35433D01*
Y12146D02*
Y12736D01*
Y2894D02*
Y3484D01*
X34843Y2894D02*
X35433D01*
X24803D02*
Y3484D01*
Y2894D02*
X25394D01*
X4317Y4843D02*
X4055D01*
X4317Y5105D01*
Y5171D01*
X4252Y5236D01*
X4121D01*
X4055Y5171D01*
X4449D02*
X4514Y5236D01*
X4645D01*
X4711Y5171D01*
Y4908D01*
X4645Y4843D01*
X4514D01*
X4449Y4908D01*
Y5171D01*
X15945Y6417D02*
X16076D01*
X16010D01*
Y6811D01*
X15945Y6745D01*
X16273Y6483D02*
X16338Y6417D01*
X16470D01*
X16535Y6483D01*
Y6745D01*
X16470Y6811D01*
X16338D01*
X16273Y6745D01*
Y6680D01*
X16338Y6614D01*
X16535D01*
X14488Y10315D02*
X14619D01*
X14554D01*
Y10709D01*
X14488Y10643D01*
X15079Y10709D02*
X14947Y10643D01*
X14816Y10512D01*
Y10381D01*
X14882Y10315D01*
X15013D01*
X15079Y10381D01*
Y10446D01*
X15013Y10512D01*
X14816D01*
X6260Y10341D02*
X6325Y10276D01*
X6457D01*
X6522Y10341D01*
Y10604D01*
X6457Y10669D01*
X6325D01*
X6260Y10604D01*
Y10538D01*
X6325Y10472D01*
X6522D01*
X6260Y7651D02*
X6325Y7716D01*
X6457D01*
X6522Y7651D01*
Y7585D01*
X6457Y7520D01*
X6522Y7454D01*
Y7388D01*
X6457Y7323D01*
X6325D01*
X6260Y7388D01*
Y7454D01*
X6325Y7520D01*
X6260Y7585D01*
Y7651D01*
X6325Y7520D02*
X6457D01*
X14528Y7323D02*
X14659D01*
X14593D01*
Y7716D01*
X14528Y7651D01*
X32267Y8318D02*
Y8449D01*
Y8384D01*
X31873D01*
X31939Y8318D01*
X31825Y12441D02*
X31890Y12310D01*
X32022Y12179D01*
X32153D01*
X32218Y12245D01*
Y12376D01*
X32153Y12441D01*
X32087D01*
X32022Y12376D01*
Y12179D01*
X28002Y8209D02*
X27936Y8274D01*
Y8405D01*
X28002Y8471D01*
X28067D01*
X28133Y8405D01*
Y8340D01*
Y8405D01*
X28199Y8471D01*
X28264D01*
X28330Y8405D01*
Y8274D01*
X28264Y8209D01*
X28346Y12402D02*
X27953D01*
X28150Y12205D01*
Y12467D01*
D65*
X45942Y7940D02*
Y9820D01*
X45937Y7910D02*
Y9850D01*
X45932Y7890D02*
Y9870D01*
X45927Y7870D02*
Y9890D01*
X45922Y7855D02*
Y9905D01*
X45917Y7840D02*
Y9920D01*
X45912Y7830D02*
Y9930D01*
X45907Y7815D02*
Y9945D01*
Y7515D02*
Y7565D01*
X45902Y7805D02*
Y9955D01*
Y7505D02*
Y7580D01*
X45897Y8495D02*
Y9965D01*
Y7795D02*
Y7930D01*
Y7495D02*
Y7585D01*
X45892Y8525D02*
Y9975D01*
Y7785D02*
Y7905D01*
Y7555D02*
Y7590D01*
Y7490D02*
Y7525D01*
X45887Y8540D02*
Y9985D01*
Y7775D02*
Y7885D01*
Y7570D02*
Y7600D01*
Y7485D02*
Y7510D01*
X45882Y8560D02*
Y9990D01*
Y7770D02*
Y7865D01*
Y7575D02*
Y7600D01*
Y7480D02*
Y7505D01*
X45877Y8570D02*
Y10000D01*
Y7760D02*
Y7850D01*
Y7585D02*
Y7605D01*
Y7475D02*
Y7500D01*
X45872Y8585D02*
Y10010D01*
Y7755D02*
Y7840D01*
Y7590D02*
Y7610D01*
Y7530D02*
Y7575D01*
Y7475D02*
Y7495D01*
X45867Y8595D02*
Y10015D01*
Y7745D02*
Y7825D01*
Y7590D02*
Y7610D01*
Y7515D02*
Y7575D01*
Y7470D02*
Y7490D01*
X45862Y8605D02*
Y10020D01*
Y7740D02*
Y7815D01*
Y7595D02*
Y7615D01*
Y7510D02*
Y7575D01*
Y7470D02*
Y7485D01*
X45857Y8615D02*
Y10030D01*
Y7730D02*
Y7805D01*
Y7595D02*
Y7615D01*
Y7560D02*
Y7575D01*
Y7510D02*
Y7535D01*
Y7465D02*
Y7485D01*
X45852Y8625D02*
Y10035D01*
Y7725D02*
Y7795D01*
Y7600D02*
Y7615D01*
Y7560D02*
Y7575D01*
Y7510D02*
Y7530D01*
Y7465D02*
Y7480D01*
X45847Y8635D02*
Y10040D01*
Y7720D02*
Y7790D01*
Y7600D02*
Y7620D01*
Y7560D02*
Y7575D01*
Y7510D02*
Y7530D01*
Y7465D02*
Y7480D01*
X45842Y8640D02*
Y10050D01*
Y7710D02*
Y7780D01*
Y7600D02*
Y7620D01*
Y7560D02*
Y7575D01*
Y7510D02*
Y7530D01*
Y7465D02*
Y7480D01*
X45837Y8650D02*
Y10055D01*
Y7705D02*
Y7775D01*
Y7600D02*
Y7620D01*
Y7510D02*
Y7575D01*
Y7460D02*
Y7480D01*
X45832Y8655D02*
Y10060D01*
Y7700D02*
Y7765D01*
Y7600D02*
Y7620D01*
Y7515D02*
Y7575D01*
Y7460D02*
Y7480D01*
X45827Y8665D02*
Y10065D01*
Y7695D02*
Y7760D01*
Y7605D02*
Y7620D01*
Y7525D02*
Y7575D01*
Y7460D02*
Y7480D01*
X45822Y8670D02*
Y10070D01*
Y7690D02*
Y7750D01*
Y7600D02*
Y7620D01*
Y7560D02*
Y7575D01*
Y7525D02*
Y7550D01*
Y7460D02*
Y7480D01*
X45817Y8675D02*
Y10075D01*
Y7685D02*
Y7745D01*
Y7600D02*
Y7620D01*
Y7560D02*
Y7575D01*
Y7520D02*
Y7540D01*
Y7465D02*
Y7480D01*
X45812Y8680D02*
Y10080D01*
Y7680D02*
Y7740D01*
Y7600D02*
Y7620D01*
Y7560D02*
Y7575D01*
Y7515D02*
Y7540D01*
Y7465D02*
Y7480D01*
X45807Y8690D02*
Y10085D01*
Y7675D02*
Y7730D01*
Y7600D02*
Y7615D01*
Y7560D02*
Y7575D01*
Y7515D02*
Y7535D01*
Y7465D02*
Y7485D01*
X45802Y8695D02*
Y10090D01*
Y7670D02*
Y7725D01*
Y7595D02*
Y7615D01*
Y7560D02*
Y7575D01*
Y7510D02*
Y7530D01*
Y7465D02*
Y7485D01*
X45797Y8700D02*
Y10095D01*
Y7665D02*
Y7720D01*
Y7595D02*
Y7610D01*
Y7560D02*
Y7575D01*
Y7505D02*
Y7530D01*
Y7470D02*
Y7490D01*
X45792Y8705D02*
Y10100D01*
Y7660D02*
Y7715D01*
Y7590D02*
Y7610D01*
Y7560D02*
Y7575D01*
Y7505D02*
Y7525D01*
Y7470D02*
Y7490D01*
X45787Y8710D02*
Y10105D01*
Y7655D02*
Y7710D01*
Y7585D02*
Y7605D01*
Y7475D02*
Y7495D01*
X45782Y8715D02*
Y10110D01*
Y7655D02*
Y7705D01*
Y7580D02*
Y7605D01*
Y7480D02*
Y7505D01*
X45777Y8720D02*
Y10110D01*
Y7650D02*
Y7700D01*
Y7570D02*
Y7600D01*
Y7485D02*
Y7510D01*
X45772Y8720D02*
Y10115D01*
Y7645D02*
Y7695D01*
Y7560D02*
Y7595D01*
Y7490D02*
Y7520D01*
X45767Y8725D02*
Y10120D01*
Y7640D02*
Y7690D01*
Y7495D02*
Y7585D01*
X45762Y8730D02*
Y10125D01*
Y7635D02*
Y7690D01*
Y7500D02*
Y7580D01*
X45757Y8735D02*
Y10125D01*
Y7635D02*
Y7685D01*
Y7515D02*
Y7565D01*
X45752Y8740D02*
Y10130D01*
Y7630D02*
Y7680D01*
X45747Y8745D02*
Y10135D01*
Y7625D02*
Y7675D01*
X45742Y8745D02*
Y10140D01*
Y7625D02*
Y7670D01*
X45737Y8750D02*
Y10140D01*
Y7620D02*
Y7670D01*
X45732Y8755D02*
Y10145D01*
Y7615D02*
Y7665D01*
X45727Y8755D02*
Y10145D01*
Y7615D02*
Y7660D01*
X45722Y8760D02*
Y10150D01*
Y7610D02*
Y7660D01*
X45717Y8765D02*
Y10155D01*
Y7610D02*
Y7655D01*
X45712Y8765D02*
Y10155D01*
Y7605D02*
Y7650D01*
X45707Y8770D02*
Y10160D01*
Y7600D02*
Y7650D01*
X45702Y8770D02*
Y10160D01*
Y7600D02*
Y7645D01*
X45697Y8775D02*
Y10165D01*
Y7595D02*
Y7645D01*
X45692Y8775D02*
Y10165D01*
Y7595D02*
Y7640D01*
X45687Y8780D02*
Y10170D01*
Y7590D02*
Y7635D01*
X45682Y9075D02*
Y10170D01*
Y8780D02*
Y9050D01*
Y7995D02*
Y8015D01*
Y7590D02*
Y7635D01*
X45677Y9095D02*
Y10175D01*
Y8785D02*
Y9035D01*
Y7975D02*
Y8035D01*
Y7590D02*
Y7630D01*
X45672Y9105D02*
Y10175D01*
Y8785D02*
Y9025D01*
Y7965D02*
Y8045D01*
Y7585D02*
Y7630D01*
X45667Y9975D02*
Y10175D01*
Y9965D02*
Y9970D01*
Y9865D02*
Y9875D01*
Y9645D02*
Y9860D01*
Y9550D02*
Y9555D01*
Y9535D02*
Y9545D01*
Y9320D02*
Y9530D01*
Y9205D02*
Y9210D01*
Y9110D02*
Y9200D01*
Y8790D02*
Y9015D01*
Y7955D02*
Y8050D01*
Y7585D02*
Y7630D01*
X45662Y9980D02*
Y10180D01*
Y9645D02*
Y9845D01*
Y9325D02*
Y9530D01*
Y9115D02*
Y9200D01*
Y8790D02*
Y9010D01*
Y8160D02*
Y8615D01*
Y7950D02*
Y8055D01*
Y7580D02*
Y7625D01*
X45657Y9980D02*
Y10180D01*
Y9645D02*
Y9845D01*
Y9325D02*
Y9525D01*
Y9120D02*
Y9200D01*
Y8790D02*
Y9005D01*
Y8155D02*
Y8615D01*
Y7945D02*
Y8060D01*
Y7580D02*
Y7625D01*
X45652Y9975D02*
Y10185D01*
Y9650D02*
Y9845D01*
Y9325D02*
Y9525D01*
Y9125D02*
Y9205D01*
Y8795D02*
Y9000D01*
Y8160D02*
Y8615D01*
Y7945D02*
Y8065D01*
Y7580D02*
Y7620D01*
X45647Y9975D02*
Y10185D01*
Y9650D02*
Y9845D01*
Y9330D02*
Y9525D01*
Y9130D02*
Y9205D01*
Y8795D02*
Y9000D01*
Y8160D02*
Y8615D01*
Y7940D02*
Y8070D01*
Y7575D02*
Y7620D01*
X45642Y9975D02*
Y10185D01*
Y9650D02*
Y9840D01*
Y9330D02*
Y9525D01*
Y9130D02*
Y9205D01*
Y8800D02*
Y8995D01*
Y8160D02*
Y8615D01*
Y7935D02*
Y8070D01*
Y7575D02*
Y7620D01*
X45637Y9975D02*
Y10190D01*
Y9655D02*
Y9840D01*
Y9330D02*
Y9520D01*
Y9135D02*
Y9205D01*
Y8800D02*
Y8995D01*
Y8160D02*
Y8615D01*
Y7935D02*
Y8075D01*
Y7570D02*
Y7615D01*
X45632Y9970D02*
Y10190D01*
Y9655D02*
Y9840D01*
Y9330D02*
Y9520D01*
Y9135D02*
Y9210D01*
Y8800D02*
Y8990D01*
Y8160D02*
Y8615D01*
Y7930D02*
Y8075D01*
Y7570D02*
Y7615D01*
X45627Y9970D02*
Y10190D01*
Y9655D02*
Y9840D01*
Y9330D02*
Y9520D01*
Y9135D02*
Y9210D01*
Y8805D02*
Y8990D01*
Y8160D02*
Y8615D01*
Y7930D02*
Y8075D01*
Y7570D02*
Y7610D01*
X45622Y9970D02*
Y10195D01*
Y9660D02*
Y9835D01*
Y9335D02*
Y9515D01*
Y9140D02*
Y9210D01*
Y8805D02*
Y8990D01*
Y8160D02*
Y8615D01*
Y7930D02*
Y8080D01*
Y7570D02*
Y7610D01*
X45617Y9970D02*
Y10195D01*
Y9660D02*
Y9835D01*
Y9335D02*
Y9515D01*
Y9140D02*
Y9210D01*
Y8805D02*
Y8990D01*
Y8160D02*
Y8615D01*
Y7930D02*
Y8080D01*
Y7565D02*
Y7610D01*
X45612Y9965D02*
Y10195D01*
Y9660D02*
Y9835D01*
Y9335D02*
Y9515D01*
Y9140D02*
Y9215D01*
Y8805D02*
Y8990D01*
Y8160D02*
Y8615D01*
Y7930D02*
Y8080D01*
Y7565D02*
Y7610D01*
X45607Y9965D02*
Y10195D01*
Y9660D02*
Y9835D01*
Y9335D02*
Y9515D01*
Y9140D02*
Y9215D01*
Y8810D02*
Y8985D01*
Y8160D02*
Y8615D01*
Y7930D02*
Y8080D01*
Y7565D02*
Y7605D01*
X45602Y9965D02*
Y10200D01*
Y9665D02*
Y9835D01*
Y9340D02*
Y9510D01*
Y9140D02*
Y9215D01*
Y8810D02*
Y8990D01*
Y8160D02*
Y8615D01*
Y7930D02*
Y8080D01*
Y7560D02*
Y7605D01*
X45597Y9965D02*
Y10200D01*
Y9665D02*
Y9830D01*
Y9340D02*
Y9510D01*
Y9140D02*
Y9215D01*
Y8810D02*
Y8990D01*
Y8160D02*
Y8615D01*
Y7930D02*
Y8080D01*
Y7560D02*
Y7605D01*
X45592Y9960D02*
Y10200D01*
Y9665D02*
Y9830D01*
Y9340D02*
Y9510D01*
Y9135D02*
Y9220D01*
Y8810D02*
Y8990D01*
Y8160D02*
Y8615D01*
Y7930D02*
Y8080D01*
Y7560D02*
Y7605D01*
X45587Y9960D02*
Y10200D01*
Y9670D02*
Y9830D01*
Y9340D02*
Y9505D01*
Y9135D02*
Y9220D01*
Y8815D02*
Y8990D01*
Y8160D02*
Y8615D01*
Y7930D02*
Y8075D01*
Y7560D02*
Y7600D01*
X45582Y9960D02*
Y10200D01*
Y9670D02*
Y9830D01*
Y9345D02*
Y9505D01*
Y9135D02*
Y9220D01*
Y8815D02*
Y8990D01*
Y8160D02*
Y8615D01*
Y7935D02*
Y8075D01*
Y7560D02*
Y7600D01*
X45577Y9955D02*
Y10205D01*
Y9670D02*
Y9825D01*
Y9345D02*
Y9505D01*
Y9135D02*
Y9220D01*
Y8815D02*
Y8995D01*
Y8160D02*
Y8615D01*
Y7935D02*
Y8075D01*
Y7555D02*
Y7600D01*
X45572Y9955D02*
Y10205D01*
Y9670D02*
Y9825D01*
Y9345D02*
Y9505D01*
Y9130D02*
Y9225D01*
Y8815D02*
Y8995D01*
Y8160D02*
Y8615D01*
Y7935D02*
Y8070D01*
Y7555D02*
Y7600D01*
X45567Y9955D02*
Y10205D01*
Y9675D02*
Y9825D01*
Y9345D02*
Y9500D01*
Y9130D02*
Y9225D01*
Y8815D02*
Y9000D01*
Y8160D02*
Y8615D01*
Y7940D02*
Y8070D01*
Y7555D02*
Y7600D01*
X45562Y9955D02*
Y10205D01*
Y9675D02*
Y9825D01*
Y9350D02*
Y9500D01*
Y9125D02*
Y9225D01*
Y8815D02*
Y9005D01*
Y8160D02*
Y8615D01*
Y7945D02*
Y8065D01*
Y7555D02*
Y7595D01*
X45557Y9950D02*
Y10205D01*
Y9675D02*
Y9825D01*
Y9350D02*
Y9500D01*
Y9120D02*
Y9230D01*
Y8815D02*
Y9005D01*
Y8160D02*
Y8615D01*
Y7945D02*
Y8060D01*
Y7555D02*
Y7595D01*
X45552Y9950D02*
Y10205D01*
Y9680D02*
Y9820D01*
Y9350D02*
Y9495D01*
Y9115D02*
Y9230D01*
Y8820D02*
Y9010D01*
Y8155D02*
Y8615D01*
Y7950D02*
Y8055D01*
Y7555D02*
Y7595D01*
X45547Y9950D02*
Y10205D01*
Y9680D02*
Y9820D01*
Y9350D02*
Y9495D01*
Y9110D02*
Y9230D01*
Y8820D02*
Y9015D01*
Y8160D02*
Y8615D01*
Y7960D02*
Y8050D01*
Y7555D02*
Y7595D01*
X45542Y9950D02*
Y10210D01*
Y9680D02*
Y9820D01*
Y9350D02*
Y9495D01*
Y9100D02*
Y9230D01*
Y8820D02*
Y9025D01*
Y8480D02*
Y8615D01*
Y7965D02*
Y8045D01*
Y7550D02*
Y7595D01*
X45537Y9945D02*
Y10210D01*
Y9685D02*
Y9820D01*
Y9355D02*
Y9495D01*
Y9090D02*
Y9235D01*
Y8820D02*
Y9035D01*
Y8480D02*
Y8615D01*
Y7975D02*
Y8030D01*
Y7550D02*
Y7595D01*
X45532Y9945D02*
Y10210D01*
Y9685D02*
Y9815D01*
Y9355D02*
Y9490D01*
Y9070D02*
Y9235D01*
Y8820D02*
Y9065D01*
Y8480D02*
Y8615D01*
Y8005D02*
Y8010D01*
Y7550D02*
Y7595D01*
X45527Y9945D02*
Y10210D01*
Y9685D02*
Y9815D01*
Y9355D02*
Y9490D01*
Y8820D02*
Y9235D01*
Y8480D02*
Y8615D01*
Y7550D02*
Y7595D01*
X45522Y9945D02*
Y10210D01*
Y9685D02*
Y9815D01*
Y9355D02*
Y9490D01*
Y8820D02*
Y9235D01*
Y8480D02*
Y8615D01*
Y7550D02*
Y7595D01*
X45517Y9940D02*
Y10210D01*
Y9690D02*
Y9815D01*
Y9355D02*
Y9485D01*
Y8820D02*
Y9240D01*
Y8480D02*
Y8615D01*
Y7550D02*
Y7595D01*
X45512Y9940D02*
Y10210D01*
Y9690D02*
Y9815D01*
Y9360D02*
Y9485D01*
Y8820D02*
Y9240D01*
Y8480D02*
Y8615D01*
Y7550D02*
Y7595D01*
X45507Y9940D02*
Y10210D01*
Y9690D02*
Y9810D01*
Y9360D02*
Y9485D01*
Y8820D02*
Y9240D01*
Y8480D02*
Y8615D01*
Y7550D02*
Y7595D01*
X45502Y9935D02*
Y10210D01*
Y9695D02*
Y9810D01*
Y9360D02*
Y9485D01*
Y8820D02*
Y9240D01*
Y8480D02*
Y8615D01*
Y7550D02*
Y7595D01*
X45497Y9935D02*
Y10210D01*
Y9695D02*
Y9810D01*
Y9360D02*
Y9480D01*
Y8820D02*
Y9245D01*
Y8480D02*
Y8615D01*
Y7550D02*
Y7595D01*
X45492Y9935D02*
Y10210D01*
Y9695D02*
Y9810D01*
Y9365D02*
Y9480D01*
Y8820D02*
Y9245D01*
Y8480D02*
Y8615D01*
Y7550D02*
Y7595D01*
X45487Y9935D02*
Y10210D01*
Y9695D02*
Y9805D01*
Y9365D02*
Y9480D01*
Y8820D02*
Y9245D01*
Y8480D02*
Y8615D01*
Y7550D02*
Y7595D01*
X45482Y9930D02*
Y10210D01*
Y9700D02*
Y9805D01*
Y9365D02*
Y9475D01*
Y8820D02*
Y9245D01*
Y8480D02*
Y8615D01*
Y7550D02*
Y7595D01*
X45477Y9930D02*
Y10210D01*
Y9700D02*
Y9805D01*
Y9365D02*
Y9475D01*
Y8820D02*
Y9250D01*
Y8480D02*
Y8615D01*
Y7550D02*
Y7595D01*
X45472Y9930D02*
Y10210D01*
Y9700D02*
Y9805D01*
Y9590D02*
Y9595D01*
Y9370D02*
Y9475D01*
Y9130D02*
Y9250D01*
Y8820D02*
Y9000D01*
Y8480D02*
Y8615D01*
Y7940D02*
Y8070D01*
Y7550D02*
Y7595D01*
X45467Y9930D02*
Y10210D01*
Y9705D02*
Y9800D01*
Y9585D02*
Y9595D01*
Y9370D02*
Y9475D01*
Y9130D02*
Y9250D01*
Y8820D02*
Y9000D01*
Y8480D02*
Y8615D01*
Y7940D02*
Y8070D01*
Y7550D02*
Y7595D01*
X45462Y9925D02*
Y10210D01*
Y9705D02*
Y9800D01*
Y9585D02*
Y9595D01*
Y9370D02*
Y9470D01*
Y9130D02*
Y9255D01*
Y8820D02*
Y9000D01*
Y8480D02*
Y8615D01*
Y7940D02*
Y8070D01*
Y7550D02*
Y7595D01*
X45457Y9925D02*
Y10210D01*
Y9705D02*
Y9800D01*
Y9585D02*
Y9595D01*
Y9370D02*
Y9470D01*
Y9130D02*
Y9255D01*
Y8820D02*
Y9000D01*
Y8480D02*
Y8615D01*
Y7940D02*
Y8070D01*
Y7550D02*
Y7595D01*
X45452Y9925D02*
Y10210D01*
Y9710D02*
Y9800D01*
Y9585D02*
Y9600D01*
Y9375D02*
Y9470D01*
Y9130D02*
Y9255D01*
Y8820D02*
Y9000D01*
Y8480D02*
Y8615D01*
Y7940D02*
Y8070D01*
Y7550D02*
Y7595D01*
X45447Y9925D02*
Y10210D01*
Y9710D02*
Y9800D01*
Y9580D02*
Y9600D01*
Y9375D02*
Y9470D01*
Y9125D02*
Y9255D01*
Y8820D02*
Y9000D01*
Y8480D02*
Y8615D01*
Y7940D02*
Y8070D01*
Y7550D02*
Y7595D01*
X45442Y9920D02*
Y10210D01*
Y9710D02*
Y9795D01*
Y9580D02*
Y9600D01*
Y9375D02*
Y9465D01*
Y9130D02*
Y9260D01*
Y8820D02*
Y9000D01*
Y8480D02*
Y8615D01*
Y7940D02*
Y8070D01*
Y7550D02*
Y7595D01*
X45437Y9920D02*
Y10210D01*
Y9710D02*
Y9795D01*
Y9580D02*
Y9605D01*
Y9375D02*
Y9465D01*
Y9130D02*
Y9260D01*
Y8820D02*
Y9000D01*
Y8480D02*
Y8615D01*
Y7940D02*
Y8070D01*
Y7550D02*
Y7595D01*
X45432Y9920D02*
Y10210D01*
Y9715D02*
Y9795D01*
Y9575D02*
Y9605D01*
Y9375D02*
Y9465D01*
Y9130D02*
Y9260D01*
Y8820D02*
Y9000D01*
Y8480D02*
Y8615D01*
Y7940D02*
Y8070D01*
Y7550D02*
Y7595D01*
X45427Y9915D02*
Y10210D01*
Y9715D02*
Y9795D01*
Y9575D02*
Y9605D01*
Y9380D02*
Y9460D01*
Y9130D02*
Y9260D01*
Y8820D02*
Y9000D01*
Y8480D02*
Y8615D01*
Y7940D02*
Y8070D01*
Y7550D02*
Y7595D01*
X45422Y9915D02*
Y10210D01*
Y9715D02*
Y9790D01*
Y9575D02*
Y9605D01*
Y9380D02*
Y9460D01*
Y9130D02*
Y9265D01*
Y8820D02*
Y9000D01*
Y8480D02*
Y8615D01*
Y7940D02*
Y8070D01*
Y7550D02*
Y7595D01*
X45417Y9915D02*
Y10210D01*
Y9720D02*
Y9790D01*
Y9575D02*
Y9610D01*
Y9380D02*
Y9460D01*
Y9130D02*
Y9265D01*
Y8820D02*
Y9000D01*
Y8180D02*
Y8615D01*
Y7940D02*
Y8070D01*
Y7550D02*
Y7595D01*
X45412Y9915D02*
Y10210D01*
Y9720D02*
Y9790D01*
Y9570D02*
Y9610D01*
Y9380D02*
Y9460D01*
Y9130D02*
Y9265D01*
Y8820D02*
Y9000D01*
Y8180D02*
Y8615D01*
Y7940D02*
Y8070D01*
Y7550D02*
Y7595D01*
X45407Y9910D02*
Y10210D01*
Y9720D02*
Y9790D01*
Y9570D02*
Y9610D01*
Y9385D02*
Y9455D01*
Y9130D02*
Y9265D01*
Y8820D02*
Y9000D01*
Y8180D02*
Y8615D01*
Y7940D02*
Y8070D01*
Y7550D02*
Y7595D01*
X45402Y9910D02*
Y10210D01*
Y9725D02*
Y9790D01*
Y9570D02*
Y9615D01*
Y9385D02*
Y9455D01*
Y9130D02*
Y9270D01*
Y8820D02*
Y9000D01*
Y8180D02*
Y8615D01*
Y7940D02*
Y8070D01*
Y7550D02*
Y7595D01*
X45397Y9910D02*
Y10210D01*
Y9725D02*
Y9785D01*
Y9565D02*
Y9615D01*
Y9385D02*
Y9455D01*
Y9130D02*
Y9270D01*
Y8820D02*
Y9000D01*
Y8180D02*
Y8615D01*
Y7940D02*
Y8070D01*
Y7550D02*
Y7595D01*
X45392Y9910D02*
Y10210D01*
Y9725D02*
Y9785D01*
Y9565D02*
Y9615D01*
Y9385D02*
Y9450D01*
Y9130D02*
Y9270D01*
Y8820D02*
Y9000D01*
Y8180D02*
Y8615D01*
Y7940D02*
Y8070D01*
Y7550D02*
Y7595D01*
X45387Y9905D02*
Y10210D01*
Y9725D02*
Y9785D01*
Y9565D02*
Y9615D01*
Y9390D02*
Y9450D01*
Y9130D02*
Y9275D01*
Y8820D02*
Y9000D01*
Y8180D02*
Y8615D01*
Y7940D02*
Y8070D01*
Y7550D02*
Y7595D01*
X45382Y9905D02*
Y10210D01*
Y9730D02*
Y9785D01*
Y9565D02*
Y9620D01*
Y9390D02*
Y9450D01*
Y9130D02*
Y9275D01*
Y8820D02*
Y9000D01*
Y8180D02*
Y8615D01*
Y7940D02*
Y8070D01*
Y7550D02*
Y7595D01*
X45377Y9905D02*
Y10210D01*
Y9730D02*
Y9780D01*
Y9560D02*
Y9620D01*
Y9390D02*
Y9450D01*
Y9130D02*
Y9275D01*
Y8820D02*
Y9000D01*
Y8180D02*
Y8615D01*
Y7940D02*
Y8070D01*
Y7550D02*
Y7595D01*
X45372Y9900D02*
Y10210D01*
Y9730D02*
Y9780D01*
Y9560D02*
Y9620D01*
Y9390D02*
Y9445D01*
Y9130D02*
Y9275D01*
Y8820D02*
Y9000D01*
Y8180D02*
Y8615D01*
Y7940D02*
Y8070D01*
Y7550D02*
Y7595D01*
X45367Y9900D02*
Y10210D01*
Y9735D02*
Y9780D01*
Y9560D02*
Y9625D01*
Y9390D02*
Y9445D01*
Y9130D02*
Y9280D01*
Y8820D02*
Y9000D01*
Y8180D02*
Y8615D01*
Y7940D02*
Y8070D01*
Y7550D02*
Y7595D01*
X45362Y9900D02*
Y10210D01*
Y9735D02*
Y9780D01*
Y9555D02*
Y9625D01*
Y9395D02*
Y9445D01*
Y9130D02*
Y9280D01*
Y8820D02*
Y9000D01*
Y8180D02*
Y8615D01*
Y7940D02*
Y8070D01*
Y7550D02*
Y7595D01*
X45357Y9900D02*
Y10210D01*
Y9735D02*
Y9780D01*
Y9555D02*
Y9625D01*
Y9395D02*
Y9440D01*
Y9130D02*
Y9280D01*
Y8820D02*
Y9000D01*
Y8180D02*
Y8615D01*
Y7940D02*
Y8070D01*
Y7550D02*
Y7595D01*
X45352Y9895D02*
Y10210D01*
Y9735D02*
Y9775D01*
Y9555D02*
Y9625D01*
Y9395D02*
Y9440D01*
Y9130D02*
Y9280D01*
Y8820D02*
Y9000D01*
Y8180D02*
Y8615D01*
Y7940D02*
Y8070D01*
Y7550D02*
Y7595D01*
X45347Y9895D02*
Y10210D01*
Y9740D02*
Y9775D01*
Y9555D02*
Y9630D01*
Y9395D02*
Y9440D01*
Y9130D02*
Y9285D01*
Y8820D02*
Y9000D01*
Y8180D02*
Y8615D01*
Y7940D02*
Y8070D01*
Y7550D02*
Y7595D01*
X45342Y9895D02*
Y10210D01*
Y9740D02*
Y9775D01*
Y9550D02*
Y9630D01*
Y9400D02*
Y9435D01*
Y9130D02*
Y9285D01*
Y8820D02*
Y9000D01*
Y8180D02*
Y8615D01*
Y7940D02*
Y8070D01*
Y7550D02*
Y7595D01*
X45337Y9895D02*
Y10210D01*
Y9740D02*
Y9775D01*
Y9550D02*
Y9630D01*
Y9400D02*
Y9435D01*
Y9130D02*
Y9285D01*
Y8820D02*
Y9000D01*
Y8180D02*
Y8615D01*
Y7940D02*
Y8070D01*
Y7550D02*
Y7595D01*
X45332Y9890D02*
Y10210D01*
Y9745D02*
Y9770D01*
Y9550D02*
Y9635D01*
Y9400D02*
Y9435D01*
Y9130D02*
Y9285D01*
Y8820D02*
Y9000D01*
Y8180D02*
Y8615D01*
Y7940D02*
Y8070D01*
Y7550D02*
Y7595D01*
X45327Y9890D02*
Y10210D01*
Y9745D02*
Y9770D01*
Y9545D02*
Y9635D01*
Y9400D02*
Y9435D01*
Y9130D02*
Y9290D01*
Y8820D02*
Y9000D01*
Y8180D02*
Y8615D01*
Y7940D02*
Y8070D01*
Y7550D02*
Y7595D01*
X45322Y9890D02*
Y10210D01*
Y9745D02*
Y9770D01*
Y9545D02*
Y9635D01*
Y9405D02*
Y9430D01*
Y9130D02*
Y9290D01*
Y8820D02*
Y9000D01*
Y8180D02*
Y8615D01*
Y7940D02*
Y8070D01*
Y7550D02*
Y7595D01*
X45317Y9890D02*
Y10210D01*
Y9750D02*
Y9770D01*
Y9545D02*
Y9635D01*
Y9405D02*
Y9430D01*
Y9130D02*
Y9290D01*
Y8820D02*
Y9000D01*
Y8180D02*
Y8615D01*
Y7940D02*
Y8070D01*
Y7550D02*
Y7595D01*
X45312Y9885D02*
Y10210D01*
Y9750D02*
Y9770D01*
Y9545D02*
Y9640D01*
Y9405D02*
Y9430D01*
Y9130D02*
Y9290D01*
Y8820D02*
Y9000D01*
Y8180D02*
Y8615D01*
Y7940D02*
Y8070D01*
Y7550D02*
Y7595D01*
X45307Y9885D02*
Y10210D01*
Y9750D02*
Y9765D01*
Y9540D02*
Y9640D01*
Y9405D02*
Y9430D01*
Y9130D02*
Y9295D01*
Y8820D02*
Y9000D01*
Y8180D02*
Y8615D01*
Y7940D02*
Y8070D01*
Y7550D02*
Y7595D01*
X45302Y9885D02*
Y10210D01*
Y9750D02*
Y9765D01*
Y9540D02*
Y9640D01*
Y9405D02*
Y9425D01*
Y9130D02*
Y9295D01*
Y8820D02*
Y9000D01*
Y8180D02*
Y8615D01*
Y7940D02*
Y8070D01*
Y7550D02*
Y7595D01*
X45297Y9880D02*
Y10210D01*
Y9755D02*
Y9765D01*
Y9540D02*
Y9645D01*
Y9410D02*
Y9425D01*
Y9130D02*
Y9295D01*
Y8820D02*
Y9000D01*
Y8180D02*
Y8615D01*
Y7940D02*
Y8070D01*
Y7550D02*
Y7595D01*
X45292Y9880D02*
Y10210D01*
Y9755D02*
Y9765D01*
Y9535D02*
Y9645D01*
Y9410D02*
Y9425D01*
Y9130D02*
Y9300D01*
Y8820D02*
Y9000D01*
Y8480D02*
Y8615D01*
Y7940D02*
Y8070D01*
Y7550D02*
Y7595D01*
X45287Y9880D02*
Y10210D01*
Y9755D02*
Y9760D01*
Y9535D02*
Y9645D01*
Y9410D02*
Y9420D01*
Y9130D02*
Y9300D01*
Y8820D02*
Y9000D01*
Y8480D02*
Y8615D01*
Y7940D02*
Y8070D01*
Y7550D02*
Y7595D01*
X45282Y9880D02*
Y10210D01*
Y9535D02*
Y9645D01*
Y9410D02*
Y9420D01*
Y9130D02*
Y9300D01*
Y8820D02*
Y9000D01*
Y8480D02*
Y8615D01*
Y7940D02*
Y8070D01*
Y7550D02*
Y7595D01*
X45277Y9875D02*
Y10210D01*
Y9535D02*
Y9650D01*
Y9415D02*
Y9420D01*
Y9130D02*
Y9300D01*
Y8820D02*
Y9000D01*
Y8480D02*
Y8615D01*
Y7940D02*
Y8070D01*
Y7550D02*
Y7595D01*
X45272Y9875D02*
Y10210D01*
Y9530D02*
Y9650D01*
Y9415D02*
Y9420D01*
Y9130D02*
Y9305D01*
Y8820D02*
Y9000D01*
Y8480D02*
Y8615D01*
Y7940D02*
Y8070D01*
Y7550D02*
Y7595D01*
X45267Y9875D02*
Y10210D01*
Y9530D02*
Y9650D01*
Y9130D02*
Y9305D01*
Y8820D02*
Y9000D01*
Y8480D02*
Y8615D01*
Y7940D02*
Y8070D01*
Y7550D02*
Y7595D01*
X45262Y9875D02*
Y10210D01*
Y9530D02*
Y9655D01*
Y9130D02*
Y9305D01*
Y8820D02*
Y9000D01*
Y8480D02*
Y8615D01*
Y7940D02*
Y8070D01*
Y7550D02*
Y7595D01*
X45257Y9870D02*
Y10210D01*
Y9525D02*
Y9655D01*
Y9130D02*
Y9305D01*
Y8820D02*
Y9000D01*
Y8480D02*
Y8615D01*
Y7940D02*
Y8070D01*
Y7550D02*
Y7595D01*
X45252Y9870D02*
Y10210D01*
Y9525D02*
Y9655D01*
Y9130D02*
Y9310D01*
Y8820D02*
Y9000D01*
Y8480D02*
Y8615D01*
Y7940D02*
Y8070D01*
Y7550D02*
Y7595D01*
X45247Y9870D02*
Y10210D01*
Y9525D02*
Y9660D01*
Y9130D02*
Y9310D01*
Y8820D02*
Y9000D01*
Y8480D02*
Y8615D01*
Y7940D02*
Y8070D01*
Y7550D02*
Y7595D01*
X45242Y9865D02*
Y10210D01*
Y9520D02*
Y9660D01*
Y9130D02*
Y9310D01*
Y8820D02*
Y9000D01*
Y8480D02*
Y8615D01*
Y7940D02*
Y8070D01*
Y7550D02*
Y7595D01*
X45237Y9865D02*
Y10210D01*
Y9520D02*
Y9660D01*
Y9130D02*
Y9310D01*
Y8820D02*
Y9000D01*
Y8480D02*
Y8615D01*
Y7940D02*
Y8070D01*
Y7550D02*
Y7595D01*
X45232Y9865D02*
Y10210D01*
Y9520D02*
Y9660D01*
Y9130D02*
Y9315D01*
Y8820D02*
Y9000D01*
Y8480D02*
Y8615D01*
Y7940D02*
Y8070D01*
Y7550D02*
Y7595D01*
X45227Y9865D02*
Y10210D01*
Y9520D02*
Y9665D01*
Y9130D02*
Y9315D01*
Y8820D02*
Y9000D01*
Y8480D02*
Y8615D01*
Y7940D02*
Y8070D01*
Y7550D02*
Y7595D01*
X45222Y9860D02*
Y10210D01*
Y9515D02*
Y9665D01*
Y9130D02*
Y9315D01*
Y8820D02*
Y9000D01*
Y8480D02*
Y8615D01*
Y7940D02*
Y8070D01*
Y7550D02*
Y7595D01*
X45217Y9860D02*
Y10210D01*
Y9515D02*
Y9665D01*
Y9130D02*
Y9315D01*
Y8820D02*
Y9000D01*
Y8480D02*
Y8615D01*
Y7940D02*
Y8070D01*
Y7550D02*
Y7595D01*
X45212Y9860D02*
Y10210D01*
Y9515D02*
Y9670D01*
Y9130D02*
Y9320D01*
Y8820D02*
Y9000D01*
Y8480D02*
Y8615D01*
Y7940D02*
Y8070D01*
Y7550D02*
Y7595D01*
X45207Y9860D02*
Y10210D01*
Y9515D02*
Y9670D01*
Y9130D02*
Y9320D01*
Y8820D02*
Y9000D01*
Y8480D02*
Y8615D01*
Y7940D02*
Y8070D01*
Y7550D02*
Y7595D01*
X45202Y9855D02*
Y10210D01*
Y9510D02*
Y9670D01*
Y9130D02*
Y9320D01*
Y8820D02*
Y9000D01*
Y8480D02*
Y8615D01*
Y7940D02*
Y8070D01*
Y7550D02*
Y7595D01*
X45197Y9855D02*
Y10210D01*
Y9510D02*
Y9670D01*
Y9130D02*
Y9325D01*
Y8820D02*
Y9000D01*
Y8480D02*
Y8615D01*
Y7940D02*
Y8070D01*
Y7550D02*
Y7595D01*
X45192Y9855D02*
Y10210D01*
Y9510D02*
Y9675D01*
Y9130D02*
Y9325D01*
Y8820D02*
Y9000D01*
Y8480D02*
Y8615D01*
Y7940D02*
Y8070D01*
Y7550D02*
Y7595D01*
X45187Y9855D02*
Y10210D01*
Y9505D02*
Y9675D01*
Y9130D02*
Y9325D01*
Y8820D02*
Y9000D01*
Y8480D02*
Y8615D01*
Y7940D02*
Y8070D01*
Y7550D02*
Y7595D01*
X45182Y9850D02*
Y10210D01*
Y9505D02*
Y9675D01*
Y9130D02*
Y9325D01*
Y8820D02*
Y9000D01*
Y8480D02*
Y8615D01*
Y7940D02*
Y8070D01*
Y7550D02*
Y7595D01*
X45177Y9850D02*
Y10210D01*
Y9505D02*
Y9680D01*
Y9130D02*
Y9330D01*
Y8820D02*
Y9000D01*
Y8480D02*
Y8615D01*
Y7940D02*
Y8070D01*
Y7550D02*
Y7595D01*
X45172Y9850D02*
Y10205D01*
Y9505D02*
Y9680D01*
Y9130D02*
Y9330D01*
Y8820D02*
Y9000D01*
Y8480D02*
Y8615D01*
Y7940D02*
Y8070D01*
Y7555D02*
Y7595D01*
X45167Y9845D02*
Y10205D01*
Y9500D02*
Y9680D01*
Y9130D02*
Y9330D01*
Y8825D02*
Y9000D01*
Y8480D02*
Y8615D01*
Y7940D02*
Y8070D01*
Y7555D02*
Y7595D01*
X45162Y9845D02*
Y10205D01*
Y9500D02*
Y9680D01*
Y9130D02*
Y9330D01*
Y8825D02*
Y9000D01*
Y8480D02*
Y8615D01*
Y7940D02*
Y8070D01*
Y7555D02*
Y7595D01*
X45157Y9845D02*
Y10205D01*
Y9500D02*
Y9685D01*
Y9130D02*
Y9335D01*
Y8825D02*
Y9000D01*
Y8480D02*
Y8615D01*
Y7940D02*
Y8070D01*
Y7555D02*
Y7595D01*
X45152Y9845D02*
Y10205D01*
Y9495D02*
Y9685D01*
Y9130D02*
Y9335D01*
Y8825D02*
Y9000D01*
Y8480D02*
Y8615D01*
Y7940D02*
Y8070D01*
Y7555D02*
Y7600D01*
X45147Y9840D02*
Y10205D01*
Y9495D02*
Y9685D01*
Y9130D02*
Y9335D01*
Y8825D02*
Y9000D01*
Y8480D02*
Y8615D01*
Y7940D02*
Y8070D01*
Y7555D02*
Y7600D01*
X45142Y9840D02*
Y10205D01*
Y9495D02*
Y9690D01*
Y9130D02*
Y9335D01*
Y8825D02*
Y9000D01*
Y8480D02*
Y8615D01*
Y7940D02*
Y8070D01*
Y7560D02*
Y7600D01*
X45137Y9840D02*
Y10200D01*
Y9490D02*
Y9690D01*
Y9130D02*
Y9340D01*
Y8825D02*
Y9000D01*
Y8480D02*
Y8615D01*
Y7940D02*
Y8070D01*
Y7560D02*
Y7600D01*
X45132Y9840D02*
Y10200D01*
Y9490D02*
Y9690D01*
Y9130D02*
Y9340D01*
Y8825D02*
Y9000D01*
Y8480D02*
Y8615D01*
Y7940D02*
Y8070D01*
Y7560D02*
Y7600D01*
X45127Y9835D02*
Y10200D01*
Y9490D02*
Y9690D01*
Y9130D02*
Y9340D01*
Y8830D02*
Y9000D01*
Y8480D02*
Y8615D01*
Y7940D02*
Y8070D01*
Y7560D02*
Y7605D01*
X45122Y9835D02*
Y10200D01*
Y9490D02*
Y9695D01*
Y9130D02*
Y9340D01*
Y8830D02*
Y9000D01*
Y8480D02*
Y8615D01*
Y7940D02*
Y8070D01*
Y7560D02*
Y7605D01*
X45117Y9835D02*
Y10200D01*
Y9485D02*
Y9695D01*
Y9130D02*
Y9345D01*
Y8830D02*
Y9000D01*
Y8480D02*
Y8615D01*
Y7940D02*
Y8070D01*
Y7565D02*
Y7605D01*
X45112Y9835D02*
Y10195D01*
Y9485D02*
Y9695D01*
Y9130D02*
Y9345D01*
Y8830D02*
Y9000D01*
Y8480D02*
Y8615D01*
Y7940D02*
Y8070D01*
Y7565D02*
Y7605D01*
X45107Y9830D02*
Y10195D01*
Y9485D02*
Y9700D01*
Y9130D02*
Y9345D01*
Y8830D02*
Y9000D01*
Y8480D02*
Y8615D01*
Y7940D02*
Y8070D01*
Y7565D02*
Y7610D01*
X45102Y9830D02*
Y10195D01*
Y9480D02*
Y9700D01*
Y9130D02*
Y9350D01*
Y8835D02*
Y9000D01*
Y8480D02*
Y8615D01*
Y7940D02*
Y8070D01*
Y7565D02*
Y7610D01*
X45097Y9830D02*
Y10190D01*
Y9480D02*
Y9700D01*
Y9130D02*
Y9350D01*
Y8835D02*
Y9000D01*
Y8480D02*
Y8615D01*
Y7940D02*
Y8070D01*
Y7570D02*
Y7610D01*
X45092Y9825D02*
Y10190D01*
Y9480D02*
Y9700D01*
Y9130D02*
Y9350D01*
Y8835D02*
Y9000D01*
Y8480D02*
Y8615D01*
Y7940D02*
Y8070D01*
Y7570D02*
Y7615D01*
X45087Y9825D02*
Y10190D01*
Y9480D02*
Y9705D01*
Y9130D02*
Y9350D01*
Y8835D02*
Y9000D01*
Y8480D02*
Y8615D01*
Y7940D02*
Y8070D01*
Y7570D02*
Y7615D01*
X45082Y9825D02*
Y10190D01*
Y9475D02*
Y9705D01*
Y9125D02*
Y9355D01*
Y8840D02*
Y9000D01*
Y8480D02*
Y8615D01*
Y7940D02*
Y8070D01*
Y7575D02*
Y7615D01*
X45077Y9825D02*
Y10185D01*
Y9475D02*
Y9705D01*
Y9125D02*
Y9355D01*
Y8840D02*
Y9000D01*
Y8480D02*
Y8615D01*
Y7940D02*
Y8070D01*
Y7575D02*
Y7620D01*
X45072Y9820D02*
Y10185D01*
Y9475D02*
Y9710D01*
Y9130D02*
Y9355D01*
Y8840D02*
Y9000D01*
Y8480D02*
Y8615D01*
Y7940D02*
Y8070D01*
Y7575D02*
Y7620D01*
X45067Y9820D02*
Y10180D01*
Y9470D02*
Y9710D01*
Y9130D02*
Y9355D01*
Y8840D02*
Y9000D01*
Y8480D02*
Y8615D01*
Y7940D02*
Y8070D01*
Y7580D02*
Y7620D01*
X45062Y9820D02*
Y10180D01*
Y9470D02*
Y9710D01*
Y9130D02*
Y9360D01*
Y8845D02*
Y9000D01*
Y8480D02*
Y8615D01*
Y7940D02*
Y8070D01*
Y7580D02*
Y7625D01*
X45057Y9815D02*
Y10180D01*
Y9800D02*
Y9805D01*
Y9470D02*
Y9720D01*
Y9455D02*
Y9460D01*
Y9440D02*
Y9450D01*
Y9125D02*
Y9360D01*
Y8845D02*
Y9000D01*
Y8480D02*
Y8605D01*
Y8050D02*
Y8060D01*
Y7960D02*
Y8040D01*
Y7940D02*
Y7945D01*
Y7580D02*
Y7625D01*
X45052Y8845D02*
Y10175D01*
Y7585D02*
Y7630D01*
X45047Y8850D02*
Y10175D01*
Y7585D02*
Y7630D01*
X45042Y8850D02*
Y10170D01*
Y7590D02*
Y7635D01*
X45037Y8850D02*
Y10170D01*
Y7590D02*
Y7635D01*
X45032Y8855D02*
Y10170D01*
Y7595D02*
Y7640D01*
X45027Y8855D02*
Y10165D01*
Y7595D02*
Y7640D01*
X45022Y8860D02*
Y10165D01*
Y7600D02*
Y7645D01*
X45017Y8860D02*
Y10160D01*
Y7600D02*
Y7645D01*
X45012Y8860D02*
Y10160D01*
Y7605D02*
Y7650D01*
X45007Y8865D02*
Y10155D01*
Y7605D02*
Y7650D01*
X45002Y8865D02*
Y10150D01*
Y7610D02*
Y7655D01*
X44997Y8870D02*
Y10150D01*
Y7610D02*
Y7660D01*
X44992Y8870D02*
Y10145D01*
Y7615D02*
Y7660D01*
X44987Y8875D02*
Y10145D01*
Y7615D02*
Y7665D01*
X44982Y8875D02*
Y10140D01*
Y7620D02*
Y7670D01*
X44977Y8880D02*
Y10135D01*
Y7625D02*
Y7675D01*
X44972Y8880D02*
Y10135D01*
Y7625D02*
Y7675D01*
X44967Y8885D02*
Y10130D01*
Y7630D02*
Y7680D01*
X44962Y8885D02*
Y10125D01*
Y7635D02*
Y7685D01*
X44957Y8890D02*
Y10120D01*
Y7640D02*
Y7690D01*
X44952Y8895D02*
Y10120D01*
Y7640D02*
Y7695D01*
X44947Y8895D02*
Y10115D01*
Y7645D02*
Y7700D01*
X44942Y8900D02*
Y10110D01*
Y7650D02*
Y7700D01*
X44937Y8905D02*
Y10105D01*
Y7655D02*
Y7705D01*
X44932Y8905D02*
Y10105D01*
Y7660D02*
Y7710D01*
X44927Y8910D02*
Y10100D01*
Y7660D02*
Y7715D01*
X44922Y8915D02*
Y10095D01*
Y7665D02*
Y7725D01*
X44917Y8915D02*
Y10090D01*
Y7670D02*
Y7730D01*
X44912Y8920D02*
Y10085D01*
Y7675D02*
Y7735D01*
X44907Y8925D02*
Y10080D01*
Y7680D02*
Y7740D01*
X44902Y8930D02*
Y10075D01*
Y7685D02*
Y7745D01*
X44897Y8935D02*
Y10070D01*
Y7690D02*
Y7755D01*
X44892Y8935D02*
Y10065D01*
Y7695D02*
Y7760D01*
X44887Y8940D02*
Y10060D01*
Y7700D02*
Y7765D01*
X44882Y8945D02*
Y10050D01*
Y7710D02*
Y7775D01*
X44877Y8950D02*
Y10045D01*
Y7715D02*
Y7780D01*
X44872Y8955D02*
Y10040D01*
Y7720D02*
Y7790D01*
X44867Y8960D02*
Y10035D01*
Y7725D02*
Y7800D01*
X44862Y8965D02*
Y10030D01*
Y7735D02*
Y7810D01*
X44857Y8970D02*
Y10020D01*
Y7740D02*
Y7820D01*
X44852Y8975D02*
Y10015D01*
Y7745D02*
Y7830D01*
X44847Y8980D02*
Y10005D01*
Y7755D02*
Y7840D01*
X44842Y8985D02*
Y10000D01*
Y7760D02*
Y7855D01*
X44837Y8990D02*
Y9990D01*
Y7770D02*
Y7870D01*
X44832Y8995D02*
Y9980D01*
Y7780D02*
Y7885D01*
X44827Y9005D02*
Y9970D01*
Y7790D02*
Y7910D01*
X44822Y9010D02*
Y9960D01*
Y7800D02*
Y7945D01*
X44817Y7810D02*
Y9950D01*
X44812Y7820D02*
Y9940D01*
X44807Y7830D02*
Y9930D01*
X44802Y7845D02*
Y9915D01*
X44797Y7860D02*
Y9900D01*
X44792Y7875D02*
Y9885D01*
X44787Y7895D02*
Y9865D01*
X44782Y7915D02*
Y9840D01*
X44777Y7955D02*
Y9805D01*
D66*
X44783Y689D02*
X45177D01*
X44980Y492D02*
Y886D01*
Y39D02*
Y295D01*
Y39D02*
X47933D01*
Y295D01*
X44980Y2461D02*
Y2717D01*
X47933D01*
Y2461D02*
Y2717D01*
X48445Y2697D02*
Y2802D01*
Y2749D01*
X48130D01*
X48183Y2697D01*
X48445Y3169D02*
Y2959D01*
X48235Y3169D01*
X48183D01*
X48130Y3117D01*
Y3012D01*
X48183Y2959D01*
X48130Y3274D02*
X48340D01*
X48445Y3379D01*
X48340Y3484D01*
X48130D01*
X15656Y4676D02*
Y4886D01*
X15761Y4991D01*
X15866Y4886D01*
Y4676D01*
Y4833D01*
X15656D01*
X15971Y4623D02*
X16181D01*
X16286Y4991D02*
X16391D01*
X16338D01*
Y4676D01*
X16286D01*
X16391D01*
X16548D02*
Y4991D01*
X16758Y4676D01*
Y4991D01*
X16863Y4623D02*
X17073D01*
X17178Y4991D02*
Y4676D01*
X17388D01*
X32355Y3193D02*
X32145D01*
Y2878D01*
X32355D01*
X32145Y3035D02*
X32250D01*
X32460Y3193D02*
X32670Y2878D01*
Y3193D02*
X32460Y2878D01*
X32775Y3193D02*
X32985D01*
X32880D01*
Y2878D01*
X48752Y9403D02*
Y9193D01*
X49067D01*
Y9403D01*
X48910Y9193D02*
Y9298D01*
X48805Y9718D02*
X48752Y9665D01*
Y9560D01*
X48805Y9508D01*
X48857D01*
X48910Y9560D01*
Y9665D01*
X48962Y9718D01*
X49015D01*
X49067Y9665D01*
Y9560D01*
X49015Y9508D01*
X49067Y9823D02*
X48752D01*
Y9980D01*
X48805Y10033D01*
X48910D01*
X48962Y9980D01*
Y9823D01*
X49272Y9193D02*
X49534D01*
X49587Y9245D01*
Y9350D01*
X49534Y9403D01*
X49272D01*
X49587Y9508D02*
X49377D01*
X49272Y9613D01*
X49377Y9718D01*
X49587D01*
X49429D01*
Y9508D01*
X49587Y9823D02*
X49272D01*
Y9980D01*
X49324Y10033D01*
X49429D01*
X49482Y9980D01*
Y9823D01*
Y9928D02*
X49587Y10033D01*
X49272Y10137D02*
Y10347D01*
Y10242D01*
X49587D01*
X991Y4676D02*
Y4886D01*
X1096Y4991D01*
X1201Y4886D01*
Y4676D01*
Y4833D01*
X991D01*
X1306Y4623D02*
X1515D01*
X1620Y4991D02*
X1725D01*
X1673D01*
Y4676D01*
X1620D01*
X1725D01*
X1883D02*
Y4991D01*
X2093Y4676D01*
Y4991D01*
X2198Y4623D02*
X2408D01*
X2513Y4676D02*
Y4991D01*
X2670D01*
X2722Y4938D01*
Y4833D01*
X2670Y4781D01*
X2513D01*
X2617D02*
X2722Y4676D01*
X48183Y4206D02*
X48130Y4153D01*
Y4049D01*
X48183Y3996D01*
X48392D01*
X48445Y4049D01*
Y4153D01*
X48392Y4206D01*
X48287D01*
Y4101D01*
X48445Y4311D02*
X48130D01*
X48445Y4521D01*
X48130D01*
Y4626D02*
X48445D01*
Y4783D01*
X48392Y4836D01*
X48183D01*
X48130Y4783D01*
Y4626D01*
X20098Y4676D02*
Y4886D01*
X20203Y4991D01*
X20308Y4886D01*
Y4676D01*
Y4833D01*
X20098D01*
X20413Y4623D02*
X20623D01*
X20886Y4991D02*
X20781D01*
X20728Y4938D01*
Y4728D01*
X20781Y4676D01*
X20886D01*
X20938Y4728D01*
Y4938D01*
X20886Y4991D01*
X21043D02*
Y4728D01*
X21095Y4676D01*
X21200D01*
X21253Y4728D01*
Y4991D01*
X21358D02*
X21568D01*
X21463D01*
Y4676D01*
X21673Y4623D02*
X21883D01*
X21988Y4991D02*
Y4676D01*
X22197D01*
X35748D02*
Y4886D01*
X35853Y4991D01*
X35958Y4886D01*
Y4676D01*
Y4833D01*
X35748D01*
X36063Y4623D02*
X36273D01*
X36535Y4991D02*
X36430D01*
X36378Y4938D01*
Y4728D01*
X36430Y4676D01*
X36535D01*
X36588Y4728D01*
Y4938D01*
X36535Y4991D01*
X36693D02*
Y4728D01*
X36745Y4676D01*
X36850D01*
X36902Y4728D01*
Y4991D01*
X37007D02*
X37217D01*
X37112D01*
Y4676D01*
X37322Y4623D02*
X37532D01*
X37637Y4676D02*
Y4991D01*
X37795D01*
X37847Y4938D01*
Y4833D01*
X37795Y4781D01*
X37637D01*
X37742D02*
X37847Y4676D01*
X28530Y3193D02*
X28635D01*
X28582D01*
Y2878D01*
X28530D01*
X28635D01*
X29002Y3140D02*
X28950Y3193D01*
X28845D01*
X28792Y3140D01*
Y3088D01*
X28845Y3035D01*
X28950D01*
X29002Y2983D01*
Y2930D01*
X28950Y2878D01*
X28845D01*
X28792Y2930D01*
X29107Y2878D02*
Y3193D01*
X29265D01*
X29317Y3140D01*
Y3035D01*
X29265Y2983D01*
X29107D01*
X28425Y315D02*
X28583Y79D01*
Y315D02*
X28425Y79D01*
X28661Y276D02*
X28701Y315D01*
X28779D01*
X28819Y276D01*
Y236D01*
X28779Y197D01*
X28819Y157D01*
Y118D01*
X28779Y79D01*
X28701D01*
X28661Y118D01*
Y157D01*
X28701Y197D01*
X28661Y236D01*
Y276D01*
X28701Y197D02*
X28779D01*
X23780Y4606D02*
Y4882D01*
X23917D01*
X23963Y4836D01*
Y4744D01*
X23917Y4698D01*
X23780D01*
X23871D02*
X23963Y4606D01*
X24239Y4882D02*
X24055D01*
Y4744D01*
X24147Y4790D01*
X24193D01*
X24239Y4744D01*
Y4652D01*
X24193Y4606D01*
X24101D01*
X24055Y4652D01*
X24514Y4882D02*
X24422Y4836D01*
X24331Y4744D01*
Y4652D01*
X24376Y4606D01*
X24468D01*
X24514Y4652D01*
Y4698D01*
X24468Y4744D01*
X24331D01*
X748Y10354D02*
X473D01*
Y10492D01*
X518Y10538D01*
X610D01*
X656Y10492D01*
Y10354D01*
Y10446D02*
X748Y10538D01*
Y10630D02*
Y10722D01*
Y10676D01*
X473D01*
X518Y10630D01*
Y10859D02*
X473Y10905D01*
Y10997D01*
X518Y11043D01*
X702D01*
X748Y10997D01*
Y10905D01*
X702Y10859D01*
X518D01*
X2126Y10630D02*
X1850D01*
Y10768D01*
X1896Y10814D01*
X1988D01*
X2034Y10768D01*
Y10630D01*
Y10722D02*
X2126Y10814D01*
X2080Y10905D02*
X2126Y10951D01*
Y11043D01*
X2080Y11089D01*
X1896D01*
X1850Y11043D01*
Y10951D01*
X1896Y10905D01*
X1942D01*
X1988Y10951D01*
Y11089D01*
X46929Y12087D02*
X47021D01*
X46975D01*
Y11811D01*
X46929D01*
X47021D01*
X47342Y12041D02*
X47296Y12087D01*
X47205D01*
X47159Y12041D01*
Y11857D01*
X47205Y11811D01*
X47296D01*
X47342Y11857D01*
X47434Y11811D02*
X47526D01*
X47480D01*
Y12087D01*
X47434Y12041D01*
X42585Y3550D02*
Y3734D01*
X42539Y3779D01*
X42447D01*
X42402Y3734D01*
Y3550D01*
X42447Y3504D01*
X42539D01*
X42493Y3596D02*
X42585Y3504D01*
X42539D02*
X42585Y3550D01*
X42861Y3779D02*
X42769Y3734D01*
X42677Y3642D01*
Y3550D01*
X42723Y3504D01*
X42815D01*
X42861Y3550D01*
Y3596D01*
X42815Y3642D01*
X42677D01*
X48327Y2441D02*
X48510Y2165D01*
Y2441D02*
X48327Y2165D01*
X48602D02*
X48694D01*
X48648D01*
Y2441D01*
X48602Y2395D01*
X21929Y10512D02*
Y10787D01*
X22067D01*
X22113Y10741D01*
Y10650D01*
X22067Y10604D01*
X21929D01*
X22021D02*
X22113Y10512D01*
X22342D02*
Y10787D01*
X22205Y10650D01*
X22388D01*
X22480Y10558D02*
X22526Y10512D01*
X22618D01*
X22664Y10558D01*
Y10741D01*
X22618Y10787D01*
X22526D01*
X22480Y10741D01*
Y10695D01*
X22526Y10650D01*
X22664D01*
X14882Y748D02*
X15066Y472D01*
Y748D02*
X14882Y472D01*
X15157Y748D02*
X15341D01*
Y702D01*
X15157Y518D01*
Y472D01*
X24724Y433D02*
X24908Y157D01*
Y433D02*
X24724Y157D01*
X25184Y433D02*
X25092Y387D01*
X25000Y295D01*
Y203D01*
X25046Y157D01*
X25138D01*
X25184Y203D01*
Y249D01*
X25138Y295D01*
X25000D01*
X40197Y1142D02*
X40381Y866D01*
Y1142D02*
X40197Y866D01*
X40656Y1142D02*
X40472D01*
Y1004D01*
X40564Y1050D01*
X40610D01*
X40656Y1004D01*
Y912D01*
X40610Y866D01*
X40518D01*
X40472Y912D01*
X48917Y5492D02*
X49101Y5217D01*
Y5492D02*
X48917Y5217D01*
X49331D02*
Y5492D01*
X49193Y5354D01*
X49376D01*
X5512Y748D02*
X5695Y472D01*
Y748D02*
X5512Y472D01*
X5787Y702D02*
X5833Y748D01*
X5925D01*
X5971Y702D01*
Y656D01*
X5925Y610D01*
X5879D01*
X5925D01*
X5971Y564D01*
Y518D01*
X5925Y472D01*
X5833D01*
X5787Y518D01*
X27441Y433D02*
X27625Y157D01*
Y433D02*
X27441Y157D01*
X27900D02*
X27716D01*
X27900Y341D01*
Y387D01*
X27854Y433D01*
X27762D01*
X27716Y387D01*
X18898Y7992D02*
Y7762D01*
X18944Y7717D01*
X19035D01*
X19081Y7762D01*
Y7992D01*
X19173Y7946D02*
X19219Y7992D01*
X19311D01*
X19357Y7946D01*
Y7900D01*
X19311Y7854D01*
X19265D01*
X19311D01*
X19357Y7808D01*
Y7762D01*
X19311Y7717D01*
X19219D01*
X19173Y7762D01*
X22795Y6850D02*
Y6621D01*
X22841Y6575D01*
X22933D01*
X22979Y6621D01*
Y6850D01*
X23254Y6575D02*
X23071D01*
X23254Y6758D01*
Y6804D01*
X23209Y6850D01*
X23117D01*
X23071Y6804D01*
X21693Y11968D02*
Y12244D01*
X21831D01*
X21877Y12198D01*
Y12106D01*
X21831Y12060D01*
X21693D01*
X21785D02*
X21877Y11968D01*
X22106D02*
Y12244D01*
X21968Y12106D01*
X22152D01*
X22244Y12198D02*
X22290Y12244D01*
X22382D01*
X22428Y12198D01*
Y12152D01*
X22382Y12106D01*
X22336D01*
X22382D01*
X22428Y12060D01*
Y12014D01*
X22382Y11968D01*
X22290D01*
X22244Y12014D01*
X19685Y11299D02*
X19410D01*
Y11437D01*
X19455Y11483D01*
X19547D01*
X19593Y11437D01*
Y11299D01*
Y11391D02*
X19685Y11483D01*
Y11712D02*
X19410D01*
X19547Y11575D01*
Y11758D01*
X19685Y12034D02*
Y11850D01*
X19501Y12034D01*
X19455D01*
X19410Y11988D01*
Y11896D01*
X19455Y11850D01*
X41181Y2756D02*
Y3031D01*
X41319D01*
X41365Y2985D01*
Y2894D01*
X41319Y2848D01*
X41181D01*
X41273D02*
X41365Y2756D01*
X41457Y2985D02*
X41503Y3031D01*
X41594D01*
X41640Y2985D01*
Y2940D01*
X41594Y2894D01*
X41548D01*
X41594D01*
X41640Y2848D01*
Y2802D01*
X41594Y2756D01*
X41503D01*
X41457Y2802D01*
X41732Y3031D02*
X41916D01*
Y2985D01*
X41732Y2802D01*
Y2756D01*
X41181Y1850D02*
Y2126D01*
X41319D01*
X41365Y2080D01*
Y1988D01*
X41319Y1942D01*
X41181D01*
X41273D02*
X41365Y1850D01*
X41457Y2080D02*
X41503Y2126D01*
X41594D01*
X41640Y2080D01*
Y2034D01*
X41594Y1988D01*
X41548D01*
X41594D01*
X41640Y1942D01*
Y1896D01*
X41594Y1850D01*
X41503D01*
X41457Y1896D01*
X41732Y2080D02*
X41778Y2126D01*
X41870D01*
X41916Y2080D01*
Y1896D01*
X41870Y1850D01*
X41778D01*
X41732Y1896D01*
Y2080D01*
X25630Y2520D02*
Y2795D01*
X25768D01*
X25814Y2749D01*
Y2657D01*
X25768Y2612D01*
X25630D01*
X25722D02*
X25814Y2520D01*
X26089D02*
X25905D01*
X26089Y2703D01*
Y2749D01*
X26043Y2795D01*
X25951D01*
X25905Y2749D01*
X26181Y2566D02*
X26227Y2520D01*
X26319D01*
X26365Y2566D01*
Y2749D01*
X26319Y2795D01*
X26227D01*
X26181Y2749D01*
Y2703D01*
X26227Y2657D01*
X26365D01*
X46102Y5157D02*
Y5433D01*
X46240D01*
X46286Y5387D01*
Y5295D01*
X46240Y5249D01*
X46102D01*
X46194D02*
X46286Y5157D01*
X46562D02*
X46378D01*
X46562Y5341D01*
Y5387D01*
X46516Y5433D01*
X46424D01*
X46378Y5387D01*
X46653Y5433D02*
X46837D01*
Y5387D01*
X46653Y5203D01*
Y5157D01*
X47323Y6142D02*
X47598D01*
Y6004D01*
X47552Y5958D01*
X47461D01*
X47415Y6004D01*
Y6142D01*
Y6050D02*
X47323Y5958D01*
Y5683D02*
Y5866D01*
X47506Y5683D01*
X47552D01*
X47598Y5728D01*
Y5820D01*
X47552Y5866D01*
X47598Y5407D02*
X47552Y5499D01*
X47461Y5591D01*
X47369D01*
X47323Y5545D01*
Y5453D01*
X47369Y5407D01*
X47415D01*
X47461Y5453D01*
Y5591D01*
X48110Y6102D02*
X48386D01*
Y5965D01*
X48340Y5919D01*
X48248D01*
X48202Y5965D01*
Y6102D01*
Y6011D02*
X48110Y5919D01*
Y5643D02*
Y5827D01*
X48294Y5643D01*
X48340D01*
X48386Y5689D01*
Y5781D01*
X48340Y5827D01*
X48386Y5368D02*
Y5551D01*
X48248D01*
X48294Y5460D01*
Y5414D01*
X48248Y5368D01*
X48156D01*
X48110Y5414D01*
Y5505D01*
X48156Y5551D01*
X2638Y11614D02*
Y11890D01*
X2776D01*
X2821Y11844D01*
Y11752D01*
X2776Y11706D01*
X2638D01*
X2730D02*
X2821Y11614D01*
X2913D02*
X3005D01*
X2959D01*
Y11890D01*
X2913Y11844D01*
X3327Y11890D02*
X3143D01*
Y11752D01*
X3235Y11798D01*
X3281D01*
X3327Y11752D01*
Y11660D01*
X3281Y11614D01*
X3189D01*
X3143Y11660D01*
X2677Y12165D02*
Y12441D01*
X2815D01*
X2861Y12395D01*
Y12303D01*
X2815Y12257D01*
X2677D01*
X2769D02*
X2861Y12165D01*
X2953D02*
X3045D01*
X2999D01*
Y12441D01*
X2953Y12395D01*
X3320Y12165D02*
Y12441D01*
X3182Y12303D01*
X3366D01*
X3701Y8898D02*
Y9173D01*
X3839D01*
X3884Y9127D01*
Y9035D01*
X3839Y8989D01*
X3701D01*
X3793D02*
X3884Y8898D01*
X3976D02*
X4068D01*
X4022D01*
Y9173D01*
X3976Y9127D01*
X4206Y8898D02*
X4298D01*
X4252D01*
Y9173D01*
X4206Y9127D01*
X44632Y4140D02*
Y4324D01*
X44587Y4370D01*
X44495D01*
X44449Y4324D01*
Y4140D01*
X44495Y4094D01*
X44587D01*
X44541Y4186D02*
X44632Y4094D01*
X44587D02*
X44632Y4140D01*
X44908Y4370D02*
X44724D01*
Y4232D01*
X44816Y4278D01*
X44862D01*
X44908Y4232D01*
Y4140D01*
X44862Y4094D01*
X44770D01*
X44724Y4140D01*
X1168Y6621D02*
Y6804D01*
X1122Y6850D01*
X1030D01*
X984Y6804D01*
Y6621D01*
X1030Y6575D01*
X1122D01*
X1076Y6667D02*
X1168Y6575D01*
X1122D02*
X1168Y6621D01*
X1260Y6575D02*
X1352D01*
X1306D01*
Y6850D01*
X1260Y6804D01*
X5512Y1417D02*
Y1693D01*
X5650D01*
X5695Y1647D01*
Y1555D01*
X5650Y1509D01*
X5512D01*
X5925Y1693D02*
X5833D01*
X5787Y1647D01*
Y1463D01*
X5833Y1417D01*
X5925D01*
X5971Y1463D01*
Y1647D01*
X5925Y1693D01*
X6063D02*
X6246D01*
X6155D01*
Y1417D01*
X6522D02*
X6338D01*
X6522Y1601D01*
Y1647D01*
X6476Y1693D01*
X6384D01*
X6338Y1647D01*
X35669Y12402D02*
Y12677D01*
X35807D01*
X35853Y12631D01*
Y12539D01*
X35807Y12493D01*
X35669D01*
X36083Y12677D02*
X35991D01*
X35945Y12631D01*
Y12447D01*
X35991Y12402D01*
X36083D01*
X36128Y12447D01*
Y12631D01*
X36083Y12677D01*
X36220D02*
X36404D01*
X36312D01*
Y12402D01*
X36496D02*
X36588D01*
X36542D01*
Y12677D01*
X36496Y12631D01*
X32087Y315D02*
X32244Y79D01*
Y315D02*
X32087Y79D01*
X32323Y118D02*
X32362Y79D01*
X32441D01*
X32480Y118D01*
Y276D01*
X32441Y315D01*
X32362D01*
X32323Y276D01*
Y236D01*
X32362Y197D01*
X32480D01*
X17106Y8911D02*
Y9094D01*
X16968D01*
Y9003D01*
Y9094D01*
X16831D01*
X17106Y8819D02*
X16831D01*
Y8681D01*
X16877Y8635D01*
X16923D01*
X16968Y8681D01*
Y8819D01*
Y8681D01*
X17014Y8635D01*
X17060D01*
X17106Y8681D01*
Y8819D01*
X16831Y8406D02*
X17106D01*
X16968Y8543D01*
Y8360D01*
X48189Y262D02*
Y79D01*
X48327D01*
Y171D01*
Y79D01*
X48465D01*
X48189Y354D02*
X48465D01*
Y492D01*
X48419Y538D01*
X48373D01*
X48327Y492D01*
Y354D01*
Y492D01*
X48281Y538D01*
X48235D01*
X48189Y492D01*
Y354D01*
X48465Y813D02*
Y630D01*
X48281Y813D01*
X48235D01*
X48189Y767D01*
Y676D01*
X48235Y630D01*
X49646Y1877D02*
Y1693D01*
X49784D01*
Y1785D01*
Y1693D01*
X49921D01*
Y1968D02*
Y2060D01*
Y2014D01*
X49646D01*
X49692Y1968D01*
X20866Y7401D02*
Y7126D01*
X21004D01*
X21050Y7172D01*
Y7356D01*
X21004Y7401D01*
X20866D01*
X21142Y7126D02*
X21233D01*
X21188D01*
Y7401D01*
X21142Y7356D01*
X21371D02*
X21417Y7401D01*
X21509D01*
X21555Y7356D01*
Y7310D01*
X21509Y7264D01*
X21463D01*
X21509D01*
X21555Y7218D01*
Y7172D01*
X21509Y7126D01*
X21417D01*
X21371Y7172D01*
X41181Y2598D02*
Y2323D01*
X41319D01*
X41365Y2369D01*
Y2552D01*
X41319Y2598D01*
X41181D01*
X41457Y2323D02*
X41548D01*
X41503D01*
Y2598D01*
X41457Y2552D01*
X41870Y2323D02*
X41686D01*
X41870Y2506D01*
Y2552D01*
X41824Y2598D01*
X41732D01*
X41686Y2552D01*
X45709Y3632D02*
Y3356D01*
X45846D01*
X45892Y3402D01*
Y3586D01*
X45846Y3632D01*
X45709D01*
X45984Y3356D02*
X46076D01*
X46030D01*
Y3632D01*
X45984Y3586D01*
X46214Y3356D02*
X46306D01*
X46260D01*
Y3632D01*
X46214Y3586D01*
X48346Y9567D02*
X48071D01*
Y9429D01*
X48117Y9383D01*
X48300D01*
X48346Y9429D01*
Y9567D01*
X48071Y9291D02*
Y9200D01*
Y9246D01*
X48346D01*
X48300Y9291D01*
Y9062D02*
X48346Y9016D01*
Y8924D01*
X48300Y8878D01*
X48117D01*
X48071Y8924D01*
Y9016D01*
X48117Y9062D01*
X48300D01*
X4685Y7677D02*
X4409D01*
Y7815D01*
X4455Y7861D01*
X4639D01*
X4685Y7815D01*
Y7677D01*
X4639Y7953D02*
X4685Y7999D01*
Y8090D01*
X4639Y8136D01*
X4593D01*
X4547Y8090D01*
X4501Y8136D01*
X4455D01*
X4409Y8090D01*
Y7999D01*
X4455Y7953D01*
X4501D01*
X4547Y7999D01*
X4593Y7953D01*
X4639D01*
X4547Y7999D02*
Y8090D01*
X3032Y10827D02*
X3307D01*
Y10965D01*
X3261Y11010D01*
X3077D01*
X3032Y10965D01*
Y10827D01*
Y11286D02*
X3077Y11194D01*
X3169Y11102D01*
X3261D01*
X3307Y11148D01*
Y11240D01*
X3261Y11286D01*
X3215D01*
X3169Y11240D01*
Y11102D01*
X2402Y10787D02*
X2677D01*
Y10925D01*
X2631Y10971D01*
X2448D01*
X2402Y10925D01*
Y10787D01*
X2677Y11201D02*
X2402D01*
X2539Y11063D01*
Y11247D01*
X886Y5886D02*
Y5610D01*
X1024D01*
X1069Y5656D01*
Y5840D01*
X1024Y5886D01*
X886D01*
X1161Y5840D02*
X1207Y5886D01*
X1299D01*
X1345Y5840D01*
Y5794D01*
X1299Y5748D01*
X1253D01*
X1299D01*
X1345Y5702D01*
Y5656D01*
X1299Y5610D01*
X1207D01*
X1161Y5656D01*
X47638Y9567D02*
X47362D01*
Y9429D01*
X47408Y9383D01*
X47592D01*
X47638Y9429D01*
Y9567D01*
X47362Y9291D02*
Y9200D01*
Y9246D01*
X47638D01*
X47592Y9291D01*
X21837Y9836D02*
X21791Y9882D01*
X21699D01*
X21654Y9836D01*
Y9652D01*
X21699Y9606D01*
X21791D01*
X21837Y9652D01*
X21929Y9836D02*
X21975Y9882D01*
X22067D01*
X22113Y9836D01*
Y9790D01*
X22067Y9744D01*
X22021D01*
X22067D01*
X22113Y9698D01*
Y9652D01*
X22067Y9606D01*
X21975D01*
X21929Y9652D01*
X22388Y9606D02*
X22205D01*
X22388Y9790D01*
Y9836D01*
X22342Y9882D01*
X22250D01*
X22205Y9836D01*
X21877Y10308D02*
X21831Y10354D01*
X21739D01*
X21693Y10308D01*
Y10125D01*
X21739Y10079D01*
X21831D01*
X21877Y10125D01*
X21968Y10308D02*
X22014Y10354D01*
X22106D01*
X22152Y10308D01*
Y10262D01*
X22106Y10216D01*
X22060D01*
X22106D01*
X22152Y10171D01*
Y10125D01*
X22106Y10079D01*
X22014D01*
X21968Y10125D01*
X22244Y10079D02*
X22336D01*
X22290D01*
Y10354D01*
X22244Y10308D01*
X18458Y8950D02*
X18504Y8996D01*
Y9088D01*
X18458Y9134D01*
X18274D01*
X18228Y9088D01*
Y8996D01*
X18274Y8950D01*
X18458Y8858D02*
X18504Y8812D01*
Y8721D01*
X18458Y8675D01*
X18412D01*
X18366Y8721D01*
Y8767D01*
Y8721D01*
X18320Y8675D01*
X18274D01*
X18228Y8721D01*
Y8812D01*
X18274Y8858D01*
X18458Y8583D02*
X18504Y8537D01*
Y8445D01*
X18458Y8399D01*
X18274D01*
X18228Y8445D01*
Y8537D01*
X18274Y8583D01*
X18458D01*
X21010Y7828D02*
X20965Y7874D01*
X20873D01*
X20827Y7828D01*
Y7644D01*
X20873Y7598D01*
X20965D01*
X21010Y7644D01*
X21286Y7598D02*
X21102D01*
X21286Y7782D01*
Y7828D01*
X21240Y7874D01*
X21148D01*
X21102Y7828D01*
X21378Y7644D02*
X21424Y7598D01*
X21516D01*
X21561Y7644D01*
Y7828D01*
X21516Y7874D01*
X21424D01*
X21378Y7828D01*
Y7782D01*
X21424Y7736D01*
X21561D01*
X23255Y11174D02*
X23209Y11220D01*
X23117D01*
X23071Y11174D01*
Y10991D01*
X23117Y10945D01*
X23209D01*
X23255Y10991D01*
X23530Y10945D02*
X23346D01*
X23530Y11129D01*
Y11174D01*
X23484Y11220D01*
X23392D01*
X23346Y11174D01*
X23622D02*
X23668Y11220D01*
X23760D01*
X23806Y11174D01*
Y11129D01*
X23760Y11083D01*
X23806Y11037D01*
Y10991D01*
X23760Y10945D01*
X23668D01*
X23622Y10991D01*
Y11037D01*
X23668Y11083D01*
X23622Y11129D01*
Y11174D01*
X23668Y11083D02*
X23760D01*
X27152Y2749D02*
X27106Y2795D01*
X27014D01*
X26969Y2749D01*
Y2566D01*
X27014Y2520D01*
X27106D01*
X27152Y2566D01*
X27428Y2520D02*
X27244D01*
X27428Y2703D01*
Y2749D01*
X27382Y2795D01*
X27290D01*
X27244Y2749D01*
X27657Y2520D02*
Y2795D01*
X27520Y2657D01*
X27703D01*
X44101Y262D02*
X44055Y216D01*
Y125D01*
X44101Y79D01*
X44285D01*
X44331Y125D01*
Y216D01*
X44285Y262D01*
X44331Y538D02*
Y354D01*
X44147Y538D01*
X44101D01*
X44055Y492D01*
Y400D01*
X44101Y354D01*
Y630D02*
X44055Y676D01*
Y767D01*
X44101Y813D01*
X44147D01*
X44193Y767D01*
Y722D01*
Y767D01*
X44239Y813D01*
X44285D01*
X44331Y767D01*
Y676D01*
X44285Y630D01*
X400Y7585D02*
X354Y7539D01*
Y7447D01*
X400Y7402D01*
X584D01*
X630Y7447D01*
Y7539D01*
X584Y7585D01*
X630Y7861D02*
Y7677D01*
X446Y7861D01*
X400D01*
X354Y7815D01*
Y7723D01*
X400Y7677D01*
X630Y8136D02*
Y7953D01*
X446Y8136D01*
X400D01*
X354Y8090D01*
Y7998D01*
X400Y7953D01*
X43511Y302D02*
X43465Y256D01*
Y164D01*
X43511Y118D01*
X43694D01*
X43740Y164D01*
Y256D01*
X43694Y302D01*
X43740Y394D02*
Y485D01*
Y440D01*
X43465D01*
X43511Y394D01*
Y623D02*
X43465Y669D01*
Y761D01*
X43511Y807D01*
X43556D01*
X43602Y761D01*
X43648Y807D01*
X43694D01*
X43740Y761D01*
Y669D01*
X43694Y623D01*
X43648D01*
X43602Y669D01*
X43556Y623D01*
X43511D01*
X43602Y669D02*
Y761D01*
X45853Y3163D02*
X45807Y3209D01*
X45715D01*
X45669Y3163D01*
Y2979D01*
X45715Y2933D01*
X45807D01*
X45853Y2979D01*
X45945Y2933D02*
X46037D01*
X45991D01*
Y3209D01*
X45945Y3163D01*
X46174Y3209D02*
X46358D01*
Y3163D01*
X46174Y2979D01*
Y2933D01*
X23609Y7041D02*
X23563Y7087D01*
X23471D01*
X23425Y7041D01*
Y6857D01*
X23471Y6811D01*
X23563D01*
X23609Y6857D01*
X23701Y6811D02*
X23793D01*
X23747D01*
Y7087D01*
X23701Y7041D01*
X24068Y6811D02*
Y7087D01*
X23930Y6949D01*
X24114D01*
X24081Y10230D02*
X24035Y10275D01*
X23944D01*
X23898Y10230D01*
Y10046D01*
X23944Y10000D01*
X24035D01*
X24081Y10046D01*
X24173Y10000D02*
X24265D01*
X24219D01*
Y10275D01*
X24173Y10230D01*
X24403D02*
X24449Y10275D01*
X24540D01*
X24586Y10230D01*
Y10184D01*
X24540Y10138D01*
X24495D01*
X24540D01*
X24586Y10092D01*
Y10046D01*
X24540Y10000D01*
X24449D01*
X24403Y10046D01*
X24081Y9757D02*
X24035Y9803D01*
X23944D01*
X23898Y9757D01*
Y9573D01*
X23944Y9528D01*
X24035D01*
X24081Y9573D01*
X24173Y9528D02*
X24265D01*
X24219D01*
Y9803D01*
X24173Y9757D01*
X24586Y9528D02*
X24403D01*
X24586Y9711D01*
Y9757D01*
X24540Y9803D01*
X24449D01*
X24403Y9757D01*
X4790Y9127D02*
X4744Y9173D01*
X4652D01*
X4606Y9127D01*
Y8944D01*
X4652Y8898D01*
X4744D01*
X4790Y8944D01*
X4882Y8898D02*
X4974D01*
X4928D01*
Y9173D01*
X4882Y9127D01*
X5111Y8898D02*
X5203D01*
X5157D01*
Y9173D01*
X5111Y9127D01*
X1188Y10617D02*
X1142Y10571D01*
Y10479D01*
X1188Y10433D01*
X1371D01*
X1417Y10479D01*
Y10571D01*
X1371Y10617D01*
Y10709D02*
X1417Y10754D01*
Y10846D01*
X1371Y10892D01*
X1188D01*
X1142Y10846D01*
Y10754D01*
X1188Y10709D01*
X1234D01*
X1280Y10754D01*
Y10892D01*
X17867Y8871D02*
X17913Y8917D01*
Y9009D01*
X17867Y9055D01*
X17684D01*
X17638Y9009D01*
Y8917D01*
X17684Y8871D01*
X17867Y8780D02*
X17913Y8734D01*
Y8642D01*
X17867Y8596D01*
X17821D01*
X17776Y8642D01*
Y8688D01*
Y8642D01*
X17730Y8596D01*
X17684D01*
X17638Y8642D01*
Y8734D01*
X17684Y8780D01*
X17913Y8504D02*
Y8320D01*
X17867D01*
X17684Y8504D01*
X17638D01*
X21837Y11608D02*
X21791Y11653D01*
X21699D01*
X21654Y11608D01*
Y11424D01*
X21699Y11378D01*
X21791D01*
X21837Y11424D01*
X21929Y11608D02*
X21975Y11653D01*
X22067D01*
X22113Y11608D01*
Y11562D01*
X22067Y11516D01*
X22021D01*
X22067D01*
X22113Y11470D01*
Y11424D01*
X22067Y11378D01*
X21975D01*
X21929Y11424D01*
X22388Y11653D02*
X22296Y11608D01*
X22205Y11516D01*
Y11424D01*
X22250Y11378D01*
X22342D01*
X22388Y11424D01*
Y11470D01*
X22342Y11516D01*
X22205D01*
X21811Y5748D02*
Y6024D01*
X21949D01*
X21995Y5978D01*
Y5886D01*
X21949Y5840D01*
X21811D01*
X21903D02*
X21995Y5748D01*
X22224D02*
Y6024D01*
X22087Y5886D01*
X22270D01*
X22362Y5978D02*
X22408Y6024D01*
X22500D01*
X22546Y5978D01*
Y5932D01*
X22500Y5886D01*
X22546Y5840D01*
Y5794D01*
X22500Y5748D01*
X22408D01*
X22362Y5794D01*
Y5840D01*
X22408Y5886D01*
X22362Y5932D01*
Y5978D01*
X22408Y5886D02*
X22500D01*
X4770Y11050D02*
Y11234D01*
X4724Y11279D01*
X4633D01*
X4587Y11234D01*
Y11050D01*
X4633Y11004D01*
X4724D01*
X4678Y11096D02*
X4770Y11004D01*
X4724D02*
X4770Y11050D01*
X5000Y11004D02*
Y11279D01*
X4862Y11142D01*
X5046D01*
X47126Y4567D02*
Y4842D01*
X47264D01*
X47310Y4797D01*
Y4705D01*
X47264Y4659D01*
X47126D01*
X47218D02*
X47310Y4567D01*
X47585D02*
X47401D01*
X47585Y4751D01*
Y4797D01*
X47539Y4842D01*
X47447D01*
X47401Y4797D01*
X47677D02*
X47723Y4842D01*
X47815D01*
X47861Y4797D01*
Y4751D01*
X47815Y4705D01*
X47861Y4659D01*
Y4613D01*
X47815Y4567D01*
X47723D01*
X47677Y4613D01*
Y4659D01*
X47723Y4705D01*
X47677Y4751D01*
Y4797D01*
X47723Y4705D02*
X47815D01*
X23780Y5079D02*
Y5354D01*
X23917D01*
X23963Y5308D01*
Y5216D01*
X23917Y5171D01*
X23780D01*
X23871D02*
X23963Y5079D01*
X24239Y5354D02*
X24055D01*
Y5216D01*
X24147Y5262D01*
X24193D01*
X24239Y5216D01*
Y5125D01*
X24193Y5079D01*
X24101D01*
X24055Y5125D01*
X24331Y5354D02*
X24514D01*
Y5308D01*
X24331Y5125D01*
Y5079D01*
M02*
